M48
; DRILL file {KiCad (5.1.6)-1} date 11/11/23 21:49:07
; FORMAT={-:-/ absolute / metric / decimal}
; #@! TF.CreationDate,2023-11-11T21:49:07+01:00
; #@! TF.GenerationSoftware,Kicad,Pcbnew,(5.1.6)-1
; #@! TF.FileFunction,Plated,1,2,PTH
FMAT,2
METRIC
T1C0.600
T2C0.800
T3C0.813
T4C1.000
T5C1.001
T6C1.016
T7C3.048
T8C3.200
%
G90
G05
T1
X137.397Y-121.674
X142.223Y-94.877
X143.112Y-82.304
X143.239Y-113.8
X144.763Y-106.942
X145.906Y-121.166
X146.287Y-117.356
X147.684Y-112.784
X148.954Y-91.194
X150.224Y-80.907
X150.605Y-107.069
X150.668Y-117.673
X150.732Y-111.133
X151.113Y-101.1
X151.367Y-86.368
X151.494Y-78.24
X153.78Y-89.162
X153.78Y-92.21
X154.034Y-96.909
X155.431Y-78.24
X155.431Y-87.257
X157.209Y-92.21
X157.489Y-89.315
X157.971Y-78.24
X157.971Y-121.166
X159.241Y-123.833
X159.749Y-97.29
X160.511Y-77.859
X161.019Y-95.131
X163.051Y-77.478
X165.083Y-101.227
X165.083Y-104.275
X165.083Y-107.45
X165.21Y-89.67
X165.464Y-98.306
X165.591Y-77.478
X167.877Y-85.987
X168.131Y-77.478
X168.131Y-121.674
X169.401Y-110.879
X170.544Y-88.654
X170.798Y-79.002
X171.56Y-82.431
X171.56Y-85.987
X172.83Y-98.306
X173.084Y-112.657
X173.465Y-103.64
X173.846Y-107.577
X173.973Y-92.083
X173.973Y-117.61
X175.243Y-77.986
X175.243Y-82.431
X175.497Y-121.674
X175.878Y-87.511
X177.783Y-94.496
X177.783Y-99.576
X177.783Y-104.656
X177.783Y-109.736
X177.783Y-115.451
T2
X144.763Y-115.451
X147.303Y-115.451
X149.843Y-115.451
X155.558Y-90.686
X163.178Y-90.686
X155.558Y-93.861
X163.178Y-93.861
X144.763Y-109.101
X147.303Y-109.101
X149.843Y-109.101
T3
X141.588Y-78.621
X141.588Y-86.241
X146.668Y-78.621
X146.668Y-86.241
T4
X127.254Y-95.885
X132.334Y-83.185
X134.874Y-90.805
X166.988Y-100.461
X166.988Y-102.751
X166.988Y-105.041
X166.988Y-107.331
X166.988Y-109.621
X168.968Y-99.316
X168.968Y-101.606
X168.968Y-103.896
X168.968Y-106.186
X168.968Y-108.476
X170.948Y-100.461
X170.948Y-102.751
X170.948Y-105.041
X170.948Y-107.331
X170.948Y-109.621
X137.414Y-90.805
X117.094Y-103.505
X122.174Y-75.565
X117.094Y-113.665
X137.414Y-88.265
X119.634Y-103.505
X124.714Y-88.265
X117.094Y-95.885
X117.094Y-106.045
X132.334Y-118.745
X122.174Y-113.665
X127.254Y-106.045
X132.334Y-111.125
X129.794Y-111.125
X132.334Y-108.585
X119.634Y-85.725
X132.334Y-100.965
X134.874Y-123.825
X119.634Y-80.645
X117.094Y-121.285
X129.794Y-88.265
X127.254Y-85.725
X129.794Y-98.425
X134.874Y-121.285
X129.794Y-80.645
X154.178Y-81.161
X154.178Y-83.701
X156.718Y-81.161
X156.718Y-83.701
X159.258Y-81.161
X159.258Y-83.701
X161.798Y-81.161
X161.798Y-83.701
X164.338Y-81.161
X164.338Y-83.701
X137.414Y-113.665
X114.554Y-75.565
X137.414Y-106.045
X119.634Y-106.045
X124.714Y-83.185
X124.714Y-111.125
X119.634Y-78.105
X119.634Y-95.885
X137.414Y-80.645
X117.094Y-98.425
X127.254Y-113.665
X129.794Y-106.045
X132.334Y-103.505
X129.794Y-118.745
X134.874Y-106.045
X117.094Y-85.725
X132.334Y-116.205
X114.554Y-100.965
X114.554Y-121.285
X114.554Y-108.585
X122.174Y-116.205
X114.554Y-88.265
X129.794Y-100.965
X127.254Y-98.425
X129.794Y-83.185
X137.414Y-116.205
X134.874Y-88.265
X134.874Y-80.645
X137.414Y-95.885
X117.094Y-78.105
X137.414Y-108.585
X124.714Y-108.585
X124.714Y-90.805
X114.554Y-113.665
X124.714Y-103.505
X124.714Y-93.345
X122.174Y-95.885
X129.794Y-116.205
X127.254Y-108.585
X132.334Y-95.885
X122.174Y-98.425
X114.554Y-93.345
X134.874Y-111.125
X124.714Y-113.665
X114.554Y-116.205
X124.714Y-118.745
X114.554Y-118.745
X129.794Y-123.825
X114.554Y-83.185
X114.554Y-90.805
X122.174Y-118.745
X127.254Y-90.805
X127.254Y-83.185
X129.794Y-85.725
X137.414Y-118.745
X132.334Y-88.265
X132.334Y-85.725
X137.414Y-100.965
X137.414Y-103.505
X117.094Y-111.125
X119.634Y-100.965
X122.174Y-78.105
X137.414Y-78.105
X122.174Y-106.045
X117.094Y-75.565
X132.334Y-121.285
X129.794Y-108.585
X122.174Y-121.285
X132.334Y-106.045
X129.794Y-121.285
X119.634Y-88.265
X132.334Y-113.665
X114.554Y-111.125
X119.634Y-121.285
X117.094Y-80.645
X114.554Y-123.825
X114.554Y-106.045
X117.094Y-123.825
X127.254Y-121.285
X134.874Y-116.205
X127.254Y-100.965
X132.334Y-78.105
X132.334Y-93.345
X132.334Y-90.805
X119.634Y-108.585
X137.414Y-85.725
X119.634Y-98.425
X127.254Y-80.645
X122.174Y-80.645
X137.414Y-93.345
X122.174Y-111.125
X114.554Y-78.105
X122.174Y-93.345
X124.714Y-98.425
X129.794Y-113.665
X134.874Y-108.585
X119.634Y-93.345
X134.874Y-93.345
X134.874Y-118.745
X117.094Y-116.205
X127.254Y-118.745
X119.634Y-90.805
X124.714Y-95.885
X119.634Y-83.185
X117.094Y-93.345
X129.794Y-90.805
X127.254Y-93.345
X134.874Y-83.185
X132.334Y-80.645
X134.874Y-78.105
X151.748Y-91.067
X151.748Y-93.607
X151.748Y-96.147
X122.174Y-108.585
X119.634Y-111.125
X122.174Y-83.185
X137.414Y-98.425
X124.714Y-100.965
X124.714Y-80.645
X114.554Y-95.885
X117.094Y-100.965
X122.174Y-88.265
X122.174Y-100.965
X134.874Y-95.885
X127.254Y-111.125
X134.874Y-113.665
X119.634Y-123.825
X132.334Y-98.425
X132.334Y-123.825
X117.094Y-118.745
X124.714Y-116.205
X119.634Y-116.205
X114.554Y-103.505
X114.554Y-85.725
X129.794Y-95.885
X129.794Y-93.345
X134.874Y-85.725
X129.794Y-78.105
X137.414Y-111.125
X137.414Y-83.185
X124.714Y-106.045
X119.634Y-75.565
X119.634Y-113.665
X122.174Y-103.505
X124.714Y-85.725
X122.174Y-90.805
X117.094Y-108.585
X122.174Y-85.725
X129.794Y-103.505
X134.874Y-98.425
X127.254Y-116.205
X134.874Y-100.965
X117.094Y-90.805
X134.874Y-103.505
X114.554Y-98.425
X119.634Y-118.745
X114.554Y-80.645
X117.094Y-88.265
X117.094Y-83.185
X127.254Y-88.265
X127.254Y-103.505
T5
X153.097Y-102.751
X163.099Y-102.751
X153.097Y-115.451
X163.099Y-115.451
X153.097Y-118.626
X163.099Y-118.626
X144.763Y-94.496
X144.763Y-104.499
X153.097Y-105.926
X163.099Y-105.926
X153.097Y-109.101
X163.099Y-109.101
X147.938Y-94.496
X147.938Y-104.499
X153.097Y-99.576
X163.099Y-99.576
X153.097Y-112.276
X163.099Y-112.276
T6
X161.798Y-123.825
X164.338Y-123.825
X166.878Y-123.825
X169.418Y-123.825
X171.958Y-123.825
X174.498Y-123.825
X138.938Y-123.825
X141.478Y-123.825
X144.018Y-123.825
X146.558Y-123.825
X149.098Y-123.825
X151.638Y-123.825
X154.178Y-123.825
X156.718Y-123.825
X156.718Y-75.565
X159.258Y-75.565
X161.798Y-75.565
X164.338Y-75.565
X166.878Y-75.565
X169.418Y-75.565
X171.958Y-75.565
X174.498Y-75.565
X129.794Y-75.565
X132.334Y-75.565
X134.874Y-75.565
X137.414Y-75.565
X139.954Y-75.565
X142.494Y-75.565
X145.034Y-75.565
X147.574Y-75.565
X150.114Y-75.565
X152.654Y-75.565
T7
X124.968Y-123.825
X177.038Y-90.805
X177.038Y-118.745
X126.238Y-75.565
T8
X168.408Y-92.276
X168.408Y-117.276
T0
M30
