%FSLAX45Y45*%
G04 Gerber Fmt 4.5, Leading zero omitted, Abs format (unit mm)*
G04 Created by KiCad (PCBNEW (5.1.6)-1) date 2023-11-11 21:49:09*
%MOMM*%
%LPD*%
G01*
G04 APERTURE LIST*
%TA.AperFunction,Profile*%
%ADD10C,0.150000*%
%TD*%
%ADD11C,0.200000*%
%ADD12C,0.300000*%
G04 APERTURE END LIST*
D10*
X17703800Y-7454900D02*
X17551400Y-7302500D01*
X17703800Y-8597900D02*
X17703800Y-7454900D01*
X17957800Y-8851900D02*
X17703800Y-8597900D01*
X17957800Y-12128500D02*
X17957800Y-8851900D01*
X17703800Y-12382500D02*
X17957800Y-12128500D01*
X17703800Y-12636500D02*
X17703800Y-12382500D01*
X11099800Y-12636500D02*
X17703800Y-12636500D01*
X11099800Y-7302500D02*
X11099800Y-12636500D01*
X17551400Y-7302500D02*
X11099800Y-7302500D01*
D11*
X13709700Y-12137400D02*
X13769700Y-12197400D01*
X13769700Y-12137400D02*
X13709700Y-12197400D01*
X14192300Y-9457700D02*
X14252300Y-9517700D01*
X14252300Y-9457700D02*
X14192300Y-9517700D01*
X14281200Y-8200400D02*
X14341200Y-8260400D01*
X14341200Y-8200400D02*
X14281200Y-8260400D01*
X14293900Y-11350000D02*
X14353900Y-11410000D01*
X14353900Y-11350000D02*
X14293900Y-11410000D01*
X14446300Y-10664200D02*
X14506300Y-10724200D01*
X14506300Y-10664200D02*
X14446300Y-10724200D01*
X14560600Y-12086600D02*
X14620600Y-12146600D01*
X14620600Y-12086600D02*
X14560600Y-12146600D01*
X14598700Y-11705600D02*
X14658700Y-11765600D01*
X14658700Y-11705600D02*
X14598700Y-11765600D01*
X14738400Y-11248400D02*
X14798400Y-11308400D01*
X14798400Y-11248400D02*
X14738400Y-11308400D01*
X14865400Y-9089400D02*
X14925400Y-9149400D01*
X14925400Y-9089400D02*
X14865400Y-9149400D01*
X14992400Y-8060700D02*
X15052400Y-8120700D01*
X15052400Y-8060700D02*
X14992400Y-8120700D01*
X15030500Y-10676900D02*
X15090500Y-10736900D01*
X15090500Y-10676900D02*
X15030500Y-10736900D01*
X15036850Y-11737350D02*
X15096850Y-11797350D01*
X15096850Y-11737350D02*
X15036850Y-11797350D01*
X15043200Y-11083300D02*
X15103200Y-11143300D01*
X15103200Y-11083300D02*
X15043200Y-11143300D01*
X15081300Y-10080000D02*
X15141300Y-10140000D01*
X15141300Y-10080000D02*
X15081300Y-10140000D01*
X15106700Y-8606800D02*
X15166700Y-8666800D01*
X15166700Y-8606800D02*
X15106700Y-8666800D01*
X15119400Y-7794000D02*
X15179400Y-7854000D01*
X15179400Y-7794000D02*
X15119400Y-7854000D01*
X15348000Y-8886200D02*
X15408000Y-8946200D01*
X15408000Y-8886200D02*
X15348000Y-8946200D01*
X15348000Y-9191000D02*
X15408000Y-9251000D01*
X15408000Y-9191000D02*
X15348000Y-9251000D01*
X15373400Y-9660900D02*
X15433400Y-9720900D01*
X15433400Y-9660900D02*
X15373400Y-9720900D01*
X15513100Y-7794000D02*
X15573100Y-7854000D01*
X15573100Y-7794000D02*
X15513100Y-7854000D01*
X15513100Y-8695700D02*
X15573100Y-8755700D01*
X15573100Y-8695700D02*
X15513100Y-8755700D01*
X15690900Y-9191000D02*
X15750900Y-9251000D01*
X15750900Y-9191000D02*
X15690900Y-9251000D01*
X15718915Y-8901515D02*
X15778915Y-8961515D01*
X15778915Y-8901515D02*
X15718915Y-8961515D01*
X15767100Y-7794000D02*
X15827100Y-7854000D01*
X15827100Y-7794000D02*
X15767100Y-7854000D01*
X15767100Y-12086600D02*
X15827100Y-12146600D01*
X15827100Y-12086600D02*
X15767100Y-12146600D01*
X15894100Y-12353300D02*
X15954100Y-12413300D01*
X15954100Y-12353300D02*
X15894100Y-12413300D01*
X15944900Y-9699000D02*
X16004900Y-9759000D01*
X16004900Y-9699000D02*
X15944900Y-9759000D01*
X16021100Y-7755900D02*
X16081100Y-7815900D01*
X16081100Y-7755900D02*
X16021100Y-7815900D01*
X16071900Y-9483100D02*
X16131900Y-9543100D01*
X16131900Y-9483100D02*
X16071900Y-9543100D01*
X16275100Y-7717800D02*
X16335100Y-7777800D01*
X16335100Y-7717800D02*
X16275100Y-7777800D01*
X16478300Y-10092700D02*
X16538300Y-10152700D01*
X16538300Y-10092700D02*
X16478300Y-10152700D01*
X16478300Y-10397500D02*
X16538300Y-10457500D01*
X16538300Y-10397500D02*
X16478300Y-10457500D01*
X16478300Y-10715000D02*
X16538300Y-10775000D01*
X16538300Y-10715000D02*
X16478300Y-10775000D01*
X16491000Y-8937000D02*
X16551000Y-8997000D01*
X16551000Y-8937000D02*
X16491000Y-8997000D01*
X16516400Y-9800600D02*
X16576400Y-9860600D01*
X16576400Y-9800600D02*
X16516400Y-9860600D01*
X16529100Y-7717800D02*
X16589100Y-7777800D01*
X16589100Y-7717800D02*
X16529100Y-7777800D01*
X16757700Y-8568700D02*
X16817700Y-8628700D01*
X16817700Y-8568700D02*
X16757700Y-8628700D01*
X16783100Y-7717800D02*
X16843100Y-7777800D01*
X16843100Y-7717800D02*
X16783100Y-7777800D01*
X16783100Y-12137400D02*
X16843100Y-12197400D01*
X16843100Y-12137400D02*
X16783100Y-12197400D01*
X16910100Y-11057900D02*
X16970100Y-11117900D01*
X16970100Y-11057900D02*
X16910100Y-11117900D01*
X17024400Y-8835400D02*
X17084400Y-8895400D01*
X17084400Y-8835400D02*
X17024400Y-8895400D01*
X17049800Y-7870200D02*
X17109800Y-7930200D01*
X17109800Y-7870200D02*
X17049800Y-7930200D01*
X17126000Y-8213100D02*
X17186000Y-8273100D01*
X17186000Y-8213100D02*
X17126000Y-8273100D01*
X17126000Y-8568700D02*
X17186000Y-8628700D01*
X17186000Y-8568700D02*
X17126000Y-8628700D01*
X17253000Y-9800600D02*
X17313000Y-9860600D01*
X17313000Y-9800600D02*
X17253000Y-9860600D01*
X17278400Y-11235700D02*
X17338400Y-11295700D01*
X17338400Y-11235700D02*
X17278400Y-11295700D01*
X17316500Y-10334000D02*
X17376500Y-10394000D01*
X17376500Y-10334000D02*
X17316500Y-10394000D01*
X17354600Y-10727700D02*
X17414600Y-10787700D01*
X17414600Y-10727700D02*
X17354600Y-10787700D01*
X17367300Y-9178300D02*
X17427300Y-9238300D01*
X17427300Y-9178300D02*
X17367300Y-9238300D01*
X17367300Y-11731000D02*
X17427300Y-11791000D01*
X17427300Y-11731000D02*
X17367300Y-11791000D01*
X17494300Y-7768600D02*
X17554300Y-7828600D01*
X17554300Y-7768600D02*
X17494300Y-7828600D01*
X17494300Y-8213100D02*
X17554300Y-8273100D01*
X17554300Y-8213100D02*
X17494300Y-8273100D01*
X17519700Y-12137400D02*
X17579700Y-12197400D01*
X17579700Y-12137400D02*
X17519700Y-12197400D01*
X17557800Y-8721100D02*
X17617800Y-8781100D01*
X17617800Y-8721100D02*
X17557800Y-8781100D01*
X17748300Y-9419600D02*
X17808300Y-9479600D01*
X17808300Y-9419600D02*
X17748300Y-9479600D01*
X17748300Y-9927600D02*
X17808300Y-9987600D01*
X17808300Y-9927600D02*
X17748300Y-9987600D01*
X17748300Y-10435600D02*
X17808300Y-10495600D01*
X17808300Y-10435600D02*
X17748300Y-10495600D01*
X17748300Y-10943600D02*
X17808300Y-11003600D01*
X17808300Y-10943600D02*
X17748300Y-11003600D01*
X17748300Y-11515100D02*
X17808300Y-11575100D01*
X17808300Y-11515100D02*
X17748300Y-11575100D01*
X14516300Y-11545100D02*
G75*
G03*
X14516300Y-11545100I-40000J0D01*
G01*
X14770300Y-11545100D02*
G75*
G03*
X14770300Y-11545100I-40000J0D01*
G01*
X15024300Y-11545100D02*
G75*
G03*
X15024300Y-11545100I-40000J0D01*
G01*
X15595800Y-9068600D02*
G75*
G03*
X15595800Y-9068600I-40000J0D01*
G01*
X16357800Y-9068600D02*
G75*
G03*
X16357800Y-9068600I-40000J0D01*
G01*
X15595800Y-9386100D02*
G75*
G03*
X15595800Y-9386100I-40000J0D01*
G01*
X16357800Y-9386100D02*
G75*
G03*
X16357800Y-9386100I-40000J0D01*
G01*
X14516300Y-10910100D02*
G75*
G03*
X14516300Y-10910100I-40000J0D01*
G01*
X14770300Y-10910100D02*
G75*
G03*
X14770300Y-10910100I-40000J0D01*
G01*
X15024300Y-10910100D02*
G75*
G03*
X15024300Y-10910100I-40000J0D01*
G01*
X14158800Y-7821460D02*
X14158800Y-7902740D01*
X14118160Y-7862100D02*
X14199440Y-7862100D01*
X14158800Y-8583460D02*
X14158800Y-8664740D01*
X14118160Y-8624100D02*
X14199440Y-8624100D01*
X14666800Y-7821460D02*
X14666800Y-7902740D01*
X14626160Y-7862100D02*
X14707440Y-7862100D01*
X14666800Y-8583460D02*
X14666800Y-8664740D01*
X14626160Y-8624100D02*
X14707440Y-8624100D01*
X12760756Y-9623856D02*
X12760756Y-9553144D01*
X12690044Y-9553144D01*
X12690044Y-9623856D01*
X12760756Y-9623856D01*
X13268756Y-8353856D02*
X13268756Y-8283144D01*
X13198044Y-8283144D01*
X13198044Y-8353856D01*
X13268756Y-8353856D01*
X13522756Y-9115856D02*
X13522756Y-9045144D01*
X13452044Y-9045144D01*
X13452044Y-9115856D01*
X13522756Y-9115856D01*
X16734156Y-10081456D02*
X16734156Y-10010744D01*
X16663444Y-10010744D01*
X16663444Y-10081456D01*
X16734156Y-10081456D01*
X16734156Y-10310456D02*
X16734156Y-10239744D01*
X16663444Y-10239744D01*
X16663444Y-10310456D01*
X16734156Y-10310456D01*
X16734156Y-10539456D02*
X16734156Y-10468744D01*
X16663444Y-10468744D01*
X16663444Y-10539456D01*
X16734156Y-10539456D01*
X16734156Y-10768456D02*
X16734156Y-10697744D01*
X16663444Y-10697744D01*
X16663444Y-10768456D01*
X16734156Y-10768456D01*
X16734156Y-10997456D02*
X16734156Y-10926744D01*
X16663444Y-10926744D01*
X16663444Y-10997456D01*
X16734156Y-10997456D01*
X16932156Y-9966956D02*
X16932156Y-9896244D01*
X16861444Y-9896244D01*
X16861444Y-9966956D01*
X16932156Y-9966956D01*
X16932156Y-10195956D02*
X16932156Y-10125244D01*
X16861444Y-10125244D01*
X16861444Y-10195956D01*
X16932156Y-10195956D01*
X16932156Y-10424956D02*
X16932156Y-10354244D01*
X16861444Y-10354244D01*
X16861444Y-10424956D01*
X16932156Y-10424956D01*
X16932156Y-10653956D02*
X16932156Y-10583244D01*
X16861444Y-10583244D01*
X16861444Y-10653956D01*
X16932156Y-10653956D01*
X16932156Y-10882956D02*
X16932156Y-10812244D01*
X16861444Y-10812244D01*
X16861444Y-10882956D01*
X16932156Y-10882956D01*
X17130156Y-10081456D02*
X17130156Y-10010744D01*
X17059444Y-10010744D01*
X17059444Y-10081456D01*
X17130156Y-10081456D01*
X17130156Y-10310456D02*
X17130156Y-10239744D01*
X17059444Y-10239744D01*
X17059444Y-10310456D01*
X17130156Y-10310456D01*
X17130156Y-10539456D02*
X17130156Y-10468744D01*
X17059444Y-10468744D01*
X17059444Y-10539456D01*
X17130156Y-10539456D01*
X17130156Y-10768456D02*
X17130156Y-10697744D01*
X17059444Y-10697744D01*
X17059444Y-10768456D01*
X17130156Y-10768456D01*
X17130156Y-10997456D02*
X17130156Y-10926744D01*
X17059444Y-10926744D01*
X17059444Y-10997456D01*
X17130156Y-10997456D01*
X13776756Y-9115856D02*
X13776756Y-9045144D01*
X13706044Y-9045144D01*
X13706044Y-9115856D01*
X13776756Y-9115856D01*
X11744756Y-10385856D02*
X11744756Y-10315144D01*
X11674044Y-10315144D01*
X11674044Y-10385856D01*
X11744756Y-10385856D01*
X12252756Y-7591856D02*
X12252756Y-7521144D01*
X12182044Y-7521144D01*
X12182044Y-7591856D01*
X12252756Y-7591856D01*
X11744756Y-11401856D02*
X11744756Y-11331144D01*
X11674044Y-11331144D01*
X11674044Y-11401856D01*
X11744756Y-11401856D01*
X13776756Y-8861856D02*
X13776756Y-8791144D01*
X13706044Y-8791144D01*
X13706044Y-8861856D01*
X13776756Y-8861856D01*
X11998756Y-10385856D02*
X11998756Y-10315144D01*
X11928044Y-10315144D01*
X11928044Y-10385856D01*
X11998756Y-10385856D01*
X12506756Y-8861856D02*
X12506756Y-8791144D01*
X12436044Y-8791144D01*
X12436044Y-8861856D01*
X12506756Y-8861856D01*
X11744756Y-9623856D02*
X11744756Y-9553144D01*
X11674044Y-9553144D01*
X11674044Y-9623856D01*
X11744756Y-9623856D01*
X11744756Y-10639856D02*
X11744756Y-10569144D01*
X11674044Y-10569144D01*
X11674044Y-10639856D01*
X11744756Y-10639856D01*
X13268756Y-11909856D02*
X13268756Y-11839144D01*
X13198044Y-11839144D01*
X13198044Y-11909856D01*
X13268756Y-11909856D01*
X12252756Y-11401856D02*
X12252756Y-11331144D01*
X12182044Y-11331144D01*
X12182044Y-11401856D01*
X12252756Y-11401856D01*
X12760756Y-10639856D02*
X12760756Y-10569144D01*
X12690044Y-10569144D01*
X12690044Y-10639856D01*
X12760756Y-10639856D01*
X13268756Y-11147856D02*
X13268756Y-11077144D01*
X13198044Y-11077144D01*
X13198044Y-11147856D01*
X13268756Y-11147856D01*
X13014756Y-11147856D02*
X13014756Y-11077144D01*
X12944044Y-11077144D01*
X12944044Y-11147856D01*
X13014756Y-11147856D01*
X13268756Y-10893856D02*
X13268756Y-10823144D01*
X13198044Y-10823144D01*
X13198044Y-10893856D01*
X13268756Y-10893856D01*
X11998756Y-8607856D02*
X11998756Y-8537144D01*
X11928044Y-8537144D01*
X11928044Y-8607856D01*
X11998756Y-8607856D01*
X13268756Y-10131856D02*
X13268756Y-10061144D01*
X13198044Y-10061144D01*
X13198044Y-10131856D01*
X13268756Y-10131856D01*
X13522756Y-12417856D02*
X13522756Y-12347144D01*
X13452044Y-12347144D01*
X13452044Y-12417856D01*
X13522756Y-12417856D01*
X11998756Y-8099856D02*
X11998756Y-8029144D01*
X11928044Y-8029144D01*
X11928044Y-8099856D01*
X11998756Y-8099856D01*
X11744756Y-12163856D02*
X11744756Y-12093144D01*
X11674044Y-12093144D01*
X11674044Y-12163856D01*
X11744756Y-12163856D01*
X13014756Y-8861856D02*
X13014756Y-8791144D01*
X12944044Y-8791144D01*
X12944044Y-8861856D01*
X13014756Y-8861856D01*
X12760756Y-8607856D02*
X12760756Y-8537144D01*
X12690044Y-8537144D01*
X12690044Y-8607856D01*
X12760756Y-8607856D01*
X13014756Y-9877856D02*
X13014756Y-9807144D01*
X12944044Y-9807144D01*
X12944044Y-9877856D01*
X13014756Y-9877856D01*
X13522756Y-12163856D02*
X13522756Y-12093144D01*
X13452044Y-12093144D01*
X13452044Y-12163856D01*
X13522756Y-12163856D01*
X13014756Y-8099856D02*
X13014756Y-8029144D01*
X12944044Y-8029144D01*
X12944044Y-8099856D01*
X13014756Y-8099856D01*
X15453156Y-8151456D02*
X15453156Y-8080744D01*
X15382444Y-8080744D01*
X15382444Y-8151456D01*
X15453156Y-8151456D01*
X15453156Y-8405456D02*
X15453156Y-8334744D01*
X15382444Y-8334744D01*
X15382444Y-8405456D01*
X15453156Y-8405456D01*
X15707156Y-8151456D02*
X15707156Y-8080744D01*
X15636444Y-8080744D01*
X15636444Y-8151456D01*
X15707156Y-8151456D01*
X15707156Y-8405456D02*
X15707156Y-8334744D01*
X15636444Y-8334744D01*
X15636444Y-8405456D01*
X15707156Y-8405456D01*
X15961156Y-8151456D02*
X15961156Y-8080744D01*
X15890444Y-8080744D01*
X15890444Y-8151456D01*
X15961156Y-8151456D01*
X15961156Y-8405456D02*
X15961156Y-8334744D01*
X15890444Y-8334744D01*
X15890444Y-8405456D01*
X15961156Y-8405456D01*
X16215156Y-8151456D02*
X16215156Y-8080744D01*
X16144444Y-8080744D01*
X16144444Y-8151456D01*
X16215156Y-8151456D01*
X16215156Y-8405456D02*
X16215156Y-8334744D01*
X16144444Y-8334744D01*
X16144444Y-8405456D01*
X16215156Y-8405456D01*
X16469156Y-8151456D02*
X16469156Y-8080744D01*
X16398444Y-8080744D01*
X16398444Y-8151456D01*
X16469156Y-8151456D01*
X16469156Y-8405456D02*
X16469156Y-8334744D01*
X16398444Y-8334744D01*
X16398444Y-8405456D01*
X16469156Y-8405456D01*
X13776756Y-11401856D02*
X13776756Y-11331144D01*
X13706044Y-11331144D01*
X13706044Y-11401856D01*
X13776756Y-11401856D01*
X11490756Y-7591856D02*
X11490756Y-7521144D01*
X11420044Y-7521144D01*
X11420044Y-7591856D01*
X11490756Y-7591856D01*
X13776756Y-10639856D02*
X13776756Y-10569144D01*
X13706044Y-10569144D01*
X13706044Y-10639856D01*
X13776756Y-10639856D01*
X11998756Y-10639856D02*
X11998756Y-10569144D01*
X11928044Y-10569144D01*
X11928044Y-10639856D01*
X11998756Y-10639856D01*
X12506756Y-8353856D02*
X12506756Y-8283144D01*
X12436044Y-8283144D01*
X12436044Y-8353856D01*
X12506756Y-8353856D01*
X12506756Y-11147856D02*
X12506756Y-11077144D01*
X12436044Y-11077144D01*
X12436044Y-11147856D01*
X12506756Y-11147856D01*
X11998756Y-7845856D02*
X11998756Y-7775144D01*
X11928044Y-7775144D01*
X11928044Y-7845856D01*
X11998756Y-7845856D01*
X11998756Y-9623856D02*
X11998756Y-9553144D01*
X11928044Y-9553144D01*
X11928044Y-9623856D01*
X11998756Y-9623856D01*
X13776756Y-8099856D02*
X13776756Y-8029144D01*
X13706044Y-8029144D01*
X13706044Y-8099856D01*
X13776756Y-8099856D01*
X11744756Y-9877856D02*
X11744756Y-9807144D01*
X11674044Y-9807144D01*
X11674044Y-9877856D01*
X11744756Y-9877856D01*
X12760756Y-11401856D02*
X12760756Y-11331144D01*
X12690044Y-11331144D01*
X12690044Y-11401856D01*
X12760756Y-11401856D01*
X13014756Y-10639856D02*
X13014756Y-10569144D01*
X12944044Y-10569144D01*
X12944044Y-10639856D01*
X13014756Y-10639856D01*
X13268756Y-10385856D02*
X13268756Y-10315144D01*
X13198044Y-10315144D01*
X13198044Y-10385856D01*
X13268756Y-10385856D01*
X13014756Y-11909856D02*
X13014756Y-11839144D01*
X12944044Y-11839144D01*
X12944044Y-11909856D01*
X13014756Y-11909856D01*
X13522756Y-10639856D02*
X13522756Y-10569144D01*
X13452044Y-10569144D01*
X13452044Y-10639856D01*
X13522756Y-10639856D01*
X11744756Y-8607856D02*
X11744756Y-8537144D01*
X11674044Y-8537144D01*
X11674044Y-8607856D01*
X11744756Y-8607856D01*
X13268756Y-11655856D02*
X13268756Y-11585144D01*
X13198044Y-11585144D01*
X13198044Y-11655856D01*
X13268756Y-11655856D01*
X11490756Y-10131856D02*
X11490756Y-10061144D01*
X11420044Y-10061144D01*
X11420044Y-10131856D01*
X11490756Y-10131856D01*
X11490756Y-12163856D02*
X11490756Y-12093144D01*
X11420044Y-12093144D01*
X11420044Y-12163856D01*
X11490756Y-12163856D01*
X11490756Y-10893856D02*
X11490756Y-10823144D01*
X11420044Y-10823144D01*
X11420044Y-10893856D01*
X11490756Y-10893856D01*
X12252756Y-11655856D02*
X12252756Y-11585144D01*
X12182044Y-11585144D01*
X12182044Y-11655856D01*
X12252756Y-11655856D01*
X11490756Y-8861856D02*
X11490756Y-8791144D01*
X11420044Y-8791144D01*
X11420044Y-8861856D01*
X11490756Y-8861856D01*
X13014756Y-10131856D02*
X13014756Y-10061144D01*
X12944044Y-10061144D01*
X12944044Y-10131856D01*
X13014756Y-10131856D01*
X12760756Y-9877856D02*
X12760756Y-9807144D01*
X12690044Y-9807144D01*
X12690044Y-9877856D01*
X12760756Y-9877856D01*
X13014756Y-8353856D02*
X13014756Y-8283144D01*
X12944044Y-8283144D01*
X12944044Y-8353856D01*
X13014756Y-8353856D01*
X13776756Y-11655856D02*
X13776756Y-11585144D01*
X13706044Y-11585144D01*
X13706044Y-11655856D01*
X13776756Y-11655856D01*
X13522756Y-8861856D02*
X13522756Y-8791144D01*
X13452044Y-8791144D01*
X13452044Y-8861856D01*
X13522756Y-8861856D01*
X13522756Y-8099856D02*
X13522756Y-8029144D01*
X13452044Y-8029144D01*
X13452044Y-8099856D01*
X13522756Y-8099856D01*
X13776756Y-9623856D02*
X13776756Y-9553144D01*
X13706044Y-9553144D01*
X13706044Y-9623856D01*
X13776756Y-9623856D01*
X11744756Y-7845856D02*
X11744756Y-7775144D01*
X11674044Y-7775144D01*
X11674044Y-7845856D01*
X11744756Y-7845856D01*
X13776756Y-10893856D02*
X13776756Y-10823144D01*
X13706044Y-10823144D01*
X13706044Y-10893856D01*
X13776756Y-10893856D01*
X12506756Y-10893856D02*
X12506756Y-10823144D01*
X12436044Y-10823144D01*
X12436044Y-10893856D01*
X12506756Y-10893856D01*
X12506756Y-9115856D02*
X12506756Y-9045144D01*
X12436044Y-9045144D01*
X12436044Y-9115856D01*
X12506756Y-9115856D01*
X11490756Y-11401856D02*
X11490756Y-11331144D01*
X11420044Y-11331144D01*
X11420044Y-11401856D01*
X11490756Y-11401856D01*
X12506756Y-10385856D02*
X12506756Y-10315144D01*
X12436044Y-10315144D01*
X12436044Y-10385856D01*
X12506756Y-10385856D01*
X12506756Y-9369856D02*
X12506756Y-9299144D01*
X12436044Y-9299144D01*
X12436044Y-9369856D01*
X12506756Y-9369856D01*
X12252756Y-9623856D02*
X12252756Y-9553144D01*
X12182044Y-9553144D01*
X12182044Y-9623856D01*
X12252756Y-9623856D01*
X13014756Y-11655856D02*
X13014756Y-11585144D01*
X12944044Y-11585144D01*
X12944044Y-11655856D01*
X13014756Y-11655856D01*
X12760756Y-10893856D02*
X12760756Y-10823144D01*
X12690044Y-10823144D01*
X12690044Y-10893856D01*
X12760756Y-10893856D01*
X13268756Y-9623856D02*
X13268756Y-9553144D01*
X13198044Y-9553144D01*
X13198044Y-9623856D01*
X13268756Y-9623856D01*
X12252756Y-9877856D02*
X12252756Y-9807144D01*
X12182044Y-9807144D01*
X12182044Y-9877856D01*
X12252756Y-9877856D01*
X11490756Y-9369856D02*
X11490756Y-9299144D01*
X11420044Y-9299144D01*
X11420044Y-9369856D01*
X11490756Y-9369856D01*
X13522756Y-11147856D02*
X13522756Y-11077144D01*
X13452044Y-11077144D01*
X13452044Y-11147856D01*
X13522756Y-11147856D01*
X12506756Y-11401856D02*
X12506756Y-11331144D01*
X12436044Y-11331144D01*
X12436044Y-11401856D01*
X12506756Y-11401856D01*
X11490756Y-11655856D02*
X11490756Y-11585144D01*
X11420044Y-11585144D01*
X11420044Y-11655856D01*
X11490756Y-11655856D01*
X12506756Y-11909856D02*
X12506756Y-11839144D01*
X12436044Y-11839144D01*
X12436044Y-11909856D01*
X12506756Y-11909856D01*
X11490756Y-11909856D02*
X11490756Y-11839144D01*
X11420044Y-11839144D01*
X11420044Y-11909856D01*
X11490756Y-11909856D01*
X13014756Y-12417856D02*
X13014756Y-12347144D01*
X12944044Y-12347144D01*
X12944044Y-12417856D01*
X13014756Y-12417856D01*
X11490756Y-8353856D02*
X11490756Y-8283144D01*
X11420044Y-8283144D01*
X11420044Y-8353856D01*
X11490756Y-8353856D01*
X11490756Y-9115856D02*
X11490756Y-9045144D01*
X11420044Y-9045144D01*
X11420044Y-9115856D01*
X11490756Y-9115856D01*
X12252756Y-11909856D02*
X12252756Y-11839144D01*
X12182044Y-11839144D01*
X12182044Y-11909856D01*
X12252756Y-11909856D01*
X12760756Y-9115856D02*
X12760756Y-9045144D01*
X12690044Y-9045144D01*
X12690044Y-9115856D01*
X12760756Y-9115856D01*
X12760756Y-8353856D02*
X12760756Y-8283144D01*
X12690044Y-8283144D01*
X12690044Y-8353856D01*
X12760756Y-8353856D01*
X13014756Y-8607856D02*
X13014756Y-8537144D01*
X12944044Y-8537144D01*
X12944044Y-8607856D01*
X13014756Y-8607856D01*
X13776756Y-11909856D02*
X13776756Y-11839144D01*
X13706044Y-11839144D01*
X13706044Y-11909856D01*
X13776756Y-11909856D01*
X13268756Y-8861856D02*
X13268756Y-8791144D01*
X13198044Y-8791144D01*
X13198044Y-8861856D01*
X13268756Y-8861856D01*
X13268756Y-8607856D02*
X13268756Y-8537144D01*
X13198044Y-8537144D01*
X13198044Y-8607856D01*
X13268756Y-8607856D01*
X13776756Y-10131856D02*
X13776756Y-10061144D01*
X13706044Y-10061144D01*
X13706044Y-10131856D01*
X13776756Y-10131856D01*
X13776756Y-10385856D02*
X13776756Y-10315144D01*
X13706044Y-10315144D01*
X13706044Y-10385856D01*
X13776756Y-10385856D01*
X11744756Y-11147856D02*
X11744756Y-11077144D01*
X11674044Y-11077144D01*
X11674044Y-11147856D01*
X11744756Y-11147856D01*
X11998756Y-10131856D02*
X11998756Y-10061144D01*
X11928044Y-10061144D01*
X11928044Y-10131856D01*
X11998756Y-10131856D01*
X12252756Y-7845856D02*
X12252756Y-7775144D01*
X12182044Y-7775144D01*
X12182044Y-7845856D01*
X12252756Y-7845856D01*
X13776756Y-7845856D02*
X13776756Y-7775144D01*
X13706044Y-7775144D01*
X13706044Y-7845856D01*
X13776756Y-7845856D01*
X12252756Y-10639856D02*
X12252756Y-10569144D01*
X12182044Y-10569144D01*
X12182044Y-10639856D01*
X12252756Y-10639856D01*
X11744756Y-7591856D02*
X11744756Y-7521144D01*
X11674044Y-7521144D01*
X11674044Y-7591856D01*
X11744756Y-7591856D01*
X13268756Y-12163856D02*
X13268756Y-12093144D01*
X13198044Y-12093144D01*
X13198044Y-12163856D01*
X13268756Y-12163856D01*
X13014756Y-10893856D02*
X13014756Y-10823144D01*
X12944044Y-10823144D01*
X12944044Y-10893856D01*
X13014756Y-10893856D01*
X12252756Y-12163856D02*
X12252756Y-12093144D01*
X12182044Y-12093144D01*
X12182044Y-12163856D01*
X12252756Y-12163856D01*
X13268756Y-10639856D02*
X13268756Y-10569144D01*
X13198044Y-10569144D01*
X13198044Y-10639856D01*
X13268756Y-10639856D01*
X13014756Y-12163856D02*
X13014756Y-12093144D01*
X12944044Y-12093144D01*
X12944044Y-12163856D01*
X13014756Y-12163856D01*
X11998756Y-8861856D02*
X11998756Y-8791144D01*
X11928044Y-8791144D01*
X11928044Y-8861856D01*
X11998756Y-8861856D01*
X13268756Y-11401856D02*
X13268756Y-11331144D01*
X13198044Y-11331144D01*
X13198044Y-11401856D01*
X13268756Y-11401856D01*
X11490756Y-11147856D02*
X11490756Y-11077144D01*
X11420044Y-11077144D01*
X11420044Y-11147856D01*
X11490756Y-11147856D01*
X11998756Y-12163856D02*
X11998756Y-12093144D01*
X11928044Y-12093144D01*
X11928044Y-12163856D01*
X11998756Y-12163856D01*
X11744756Y-8099856D02*
X11744756Y-8029144D01*
X11674044Y-8029144D01*
X11674044Y-8099856D01*
X11744756Y-8099856D01*
X11490756Y-12417856D02*
X11490756Y-12347144D01*
X11420044Y-12347144D01*
X11420044Y-12417856D01*
X11490756Y-12417856D01*
X11490756Y-10639856D02*
X11490756Y-10569144D01*
X11420044Y-10569144D01*
X11420044Y-10639856D01*
X11490756Y-10639856D01*
X11744756Y-12417856D02*
X11744756Y-12347144D01*
X11674044Y-12347144D01*
X11674044Y-12417856D01*
X11744756Y-12417856D01*
X12760756Y-12163856D02*
X12760756Y-12093144D01*
X12690044Y-12093144D01*
X12690044Y-12163856D01*
X12760756Y-12163856D01*
X13522756Y-11655856D02*
X13522756Y-11585144D01*
X13452044Y-11585144D01*
X13452044Y-11655856D01*
X13522756Y-11655856D01*
X12760756Y-10131856D02*
X12760756Y-10061144D01*
X12690044Y-10061144D01*
X12690044Y-10131856D01*
X12760756Y-10131856D01*
X13268756Y-7845856D02*
X13268756Y-7775144D01*
X13198044Y-7775144D01*
X13198044Y-7845856D01*
X13268756Y-7845856D01*
X13268756Y-9369856D02*
X13268756Y-9299144D01*
X13198044Y-9299144D01*
X13198044Y-9369856D01*
X13268756Y-9369856D01*
X13268756Y-9115856D02*
X13268756Y-9045144D01*
X13198044Y-9045144D01*
X13198044Y-9115856D01*
X13268756Y-9115856D01*
X11998756Y-10893856D02*
X11998756Y-10823144D01*
X11928044Y-10823144D01*
X11928044Y-10893856D01*
X11998756Y-10893856D01*
X13776756Y-8607856D02*
X13776756Y-8537144D01*
X13706044Y-8537144D01*
X13706044Y-8607856D01*
X13776756Y-8607856D01*
X11998756Y-9877856D02*
X11998756Y-9807144D01*
X11928044Y-9807144D01*
X11928044Y-9877856D01*
X11998756Y-9877856D01*
X12760756Y-8099856D02*
X12760756Y-8029144D01*
X12690044Y-8029144D01*
X12690044Y-8099856D01*
X12760756Y-8099856D01*
X12252756Y-8099856D02*
X12252756Y-8029144D01*
X12182044Y-8029144D01*
X12182044Y-8099856D01*
X12252756Y-8099856D01*
X13776756Y-9369856D02*
X13776756Y-9299144D01*
X13706044Y-9299144D01*
X13706044Y-9369856D01*
X13776756Y-9369856D01*
X12252756Y-11147856D02*
X12252756Y-11077144D01*
X12182044Y-11077144D01*
X12182044Y-11147856D01*
X12252756Y-11147856D01*
X11490756Y-7845856D02*
X11490756Y-7775144D01*
X11420044Y-7775144D01*
X11420044Y-7845856D01*
X11490756Y-7845856D01*
X12252756Y-9369856D02*
X12252756Y-9299144D01*
X12182044Y-9299144D01*
X12182044Y-9369856D01*
X12252756Y-9369856D01*
X12506756Y-9877856D02*
X12506756Y-9807144D01*
X12436044Y-9807144D01*
X12436044Y-9877856D01*
X12506756Y-9877856D01*
X13014756Y-11401856D02*
X13014756Y-11331144D01*
X12944044Y-11331144D01*
X12944044Y-11401856D01*
X13014756Y-11401856D01*
X13522756Y-10893856D02*
X13522756Y-10823144D01*
X13452044Y-10823144D01*
X13452044Y-10893856D01*
X13522756Y-10893856D01*
X11998756Y-9369856D02*
X11998756Y-9299144D01*
X11928044Y-9299144D01*
X11928044Y-9369856D01*
X11998756Y-9369856D01*
X13522756Y-9369856D02*
X13522756Y-9299144D01*
X13452044Y-9299144D01*
X13452044Y-9369856D01*
X13522756Y-9369856D01*
X13522756Y-11909856D02*
X13522756Y-11839144D01*
X13452044Y-11839144D01*
X13452044Y-11909856D01*
X13522756Y-11909856D01*
X11744756Y-11655856D02*
X11744756Y-11585144D01*
X11674044Y-11585144D01*
X11674044Y-11655856D01*
X11744756Y-11655856D01*
X12760756Y-11909856D02*
X12760756Y-11839144D01*
X12690044Y-11839144D01*
X12690044Y-11909856D01*
X12760756Y-11909856D01*
X11998756Y-9115856D02*
X11998756Y-9045144D01*
X11928044Y-9045144D01*
X11928044Y-9115856D01*
X11998756Y-9115856D01*
X12506756Y-9623856D02*
X12506756Y-9553144D01*
X12436044Y-9553144D01*
X12436044Y-9623856D01*
X12506756Y-9623856D01*
X11998756Y-8353856D02*
X11998756Y-8283144D01*
X11928044Y-8283144D01*
X11928044Y-8353856D01*
X11998756Y-8353856D01*
X11744756Y-9369856D02*
X11744756Y-9299144D01*
X11674044Y-9299144D01*
X11674044Y-9369856D01*
X11744756Y-9369856D01*
X13014756Y-9115856D02*
X13014756Y-9045144D01*
X12944044Y-9045144D01*
X12944044Y-9115856D01*
X13014756Y-9115856D01*
X12760756Y-9369856D02*
X12760756Y-9299144D01*
X12690044Y-9299144D01*
X12690044Y-9369856D01*
X12760756Y-9369856D01*
X13522756Y-8353856D02*
X13522756Y-8283144D01*
X13452044Y-8283144D01*
X13452044Y-8353856D01*
X13522756Y-8353856D01*
X13268756Y-8099856D02*
X13268756Y-8029144D01*
X13198044Y-8029144D01*
X13198044Y-8099856D01*
X13268756Y-8099856D01*
X13522756Y-7845856D02*
X13522756Y-7775144D01*
X13452044Y-7775144D01*
X13452044Y-7845856D01*
X13522756Y-7845856D01*
X15210156Y-9142056D02*
X15210156Y-9071344D01*
X15139444Y-9071344D01*
X15139444Y-9142056D01*
X15210156Y-9142056D01*
X15210156Y-9396056D02*
X15210156Y-9325344D01*
X15139444Y-9325344D01*
X15139444Y-9396056D01*
X15210156Y-9396056D01*
X15210156Y-9650056D02*
X15210156Y-9579344D01*
X15139444Y-9579344D01*
X15139444Y-9650056D01*
X15210156Y-9650056D01*
X12252756Y-10893856D02*
X12252756Y-10823144D01*
X12182044Y-10823144D01*
X12182044Y-10893856D01*
X12252756Y-10893856D01*
X11998756Y-11147856D02*
X11998756Y-11077144D01*
X11928044Y-11077144D01*
X11928044Y-11147856D01*
X11998756Y-11147856D01*
X12252756Y-8353856D02*
X12252756Y-8283144D01*
X12182044Y-8283144D01*
X12182044Y-8353856D01*
X12252756Y-8353856D01*
X13776756Y-9877856D02*
X13776756Y-9807144D01*
X13706044Y-9807144D01*
X13706044Y-9877856D01*
X13776756Y-9877856D01*
X12506756Y-10131856D02*
X12506756Y-10061144D01*
X12436044Y-10061144D01*
X12436044Y-10131856D01*
X12506756Y-10131856D01*
X12506756Y-8099856D02*
X12506756Y-8029144D01*
X12436044Y-8029144D01*
X12436044Y-8099856D01*
X12506756Y-8099856D01*
X11490756Y-9623856D02*
X11490756Y-9553144D01*
X11420044Y-9553144D01*
X11420044Y-9623856D01*
X11490756Y-9623856D01*
X11744756Y-10131856D02*
X11744756Y-10061144D01*
X11674044Y-10061144D01*
X11674044Y-10131856D01*
X11744756Y-10131856D01*
X12252756Y-8861856D02*
X12252756Y-8791144D01*
X12182044Y-8791144D01*
X12182044Y-8861856D01*
X12252756Y-8861856D01*
X12252756Y-10131856D02*
X12252756Y-10061144D01*
X12182044Y-10061144D01*
X12182044Y-10131856D01*
X12252756Y-10131856D01*
X13522756Y-9623856D02*
X13522756Y-9553144D01*
X13452044Y-9553144D01*
X13452044Y-9623856D01*
X13522756Y-9623856D01*
X12760756Y-11147856D02*
X12760756Y-11077144D01*
X12690044Y-11077144D01*
X12690044Y-11147856D01*
X12760756Y-11147856D01*
X13522756Y-11401856D02*
X13522756Y-11331144D01*
X13452044Y-11331144D01*
X13452044Y-11401856D01*
X13522756Y-11401856D01*
X11998756Y-12417856D02*
X11998756Y-12347144D01*
X11928044Y-12347144D01*
X11928044Y-12417856D01*
X11998756Y-12417856D01*
X13268756Y-9877856D02*
X13268756Y-9807144D01*
X13198044Y-9807144D01*
X13198044Y-9877856D01*
X13268756Y-9877856D01*
X13268756Y-12417856D02*
X13268756Y-12347144D01*
X13198044Y-12347144D01*
X13198044Y-12417856D01*
X13268756Y-12417856D01*
X11744756Y-11909856D02*
X11744756Y-11839144D01*
X11674044Y-11839144D01*
X11674044Y-11909856D01*
X11744756Y-11909856D01*
X12506756Y-11655856D02*
X12506756Y-11585144D01*
X12436044Y-11585144D01*
X12436044Y-11655856D01*
X12506756Y-11655856D01*
X11998756Y-11655856D02*
X11998756Y-11585144D01*
X11928044Y-11585144D01*
X11928044Y-11655856D01*
X11998756Y-11655856D01*
X11490756Y-10385856D02*
X11490756Y-10315144D01*
X11420044Y-10315144D01*
X11420044Y-10385856D01*
X11490756Y-10385856D01*
X11490756Y-8607856D02*
X11490756Y-8537144D01*
X11420044Y-8537144D01*
X11420044Y-8607856D01*
X11490756Y-8607856D01*
X13014756Y-9623856D02*
X13014756Y-9553144D01*
X12944044Y-9553144D01*
X12944044Y-9623856D01*
X13014756Y-9623856D01*
X13014756Y-9369856D02*
X13014756Y-9299144D01*
X12944044Y-9299144D01*
X12944044Y-9369856D01*
X13014756Y-9369856D01*
X13522756Y-8607856D02*
X13522756Y-8537144D01*
X13452044Y-8537144D01*
X13452044Y-8607856D01*
X13522756Y-8607856D01*
X13014756Y-7845856D02*
X13014756Y-7775144D01*
X12944044Y-7775144D01*
X12944044Y-7845856D01*
X13014756Y-7845856D01*
X13776756Y-11147856D02*
X13776756Y-11077144D01*
X13706044Y-11077144D01*
X13706044Y-11147856D01*
X13776756Y-11147856D01*
X13776756Y-8353856D02*
X13776756Y-8283144D01*
X13706044Y-8283144D01*
X13706044Y-8353856D01*
X13776756Y-8353856D01*
X12506756Y-10639856D02*
X12506756Y-10569144D01*
X12436044Y-10569144D01*
X12436044Y-10639856D01*
X12506756Y-10639856D01*
X11998756Y-7591856D02*
X11998756Y-7521144D01*
X11928044Y-7521144D01*
X11928044Y-7591856D01*
X11998756Y-7591856D01*
X11998756Y-11401856D02*
X11998756Y-11331144D01*
X11928044Y-11331144D01*
X11928044Y-11401856D01*
X11998756Y-11401856D01*
X12252756Y-10385856D02*
X12252756Y-10315144D01*
X12182044Y-10315144D01*
X12182044Y-10385856D01*
X12252756Y-10385856D01*
X12506756Y-8607856D02*
X12506756Y-8537144D01*
X12436044Y-8537144D01*
X12436044Y-8607856D01*
X12506756Y-8607856D01*
X12252756Y-9115856D02*
X12252756Y-9045144D01*
X12182044Y-9045144D01*
X12182044Y-9115856D01*
X12252756Y-9115856D01*
X11744756Y-10893856D02*
X11744756Y-10823144D01*
X11674044Y-10823144D01*
X11674044Y-10893856D01*
X11744756Y-10893856D01*
X12252756Y-8607856D02*
X12252756Y-8537144D01*
X12182044Y-8537144D01*
X12182044Y-8607856D01*
X12252756Y-8607856D01*
X13014756Y-10385856D02*
X13014756Y-10315144D01*
X12944044Y-10315144D01*
X12944044Y-10385856D01*
X13014756Y-10385856D01*
X13522756Y-9877856D02*
X13522756Y-9807144D01*
X13452044Y-9807144D01*
X13452044Y-9877856D01*
X13522756Y-9877856D01*
X12760756Y-11655856D02*
X12760756Y-11585144D01*
X12690044Y-11585144D01*
X12690044Y-11655856D01*
X12760756Y-11655856D01*
X13522756Y-10131856D02*
X13522756Y-10061144D01*
X13452044Y-10061144D01*
X13452044Y-10131856D01*
X13522756Y-10131856D01*
X11744756Y-9115856D02*
X11744756Y-9045144D01*
X11674044Y-9045144D01*
X11674044Y-9115856D01*
X11744756Y-9115856D01*
X13522756Y-10385856D02*
X13522756Y-10315144D01*
X13452044Y-10315144D01*
X13452044Y-10385856D01*
X13522756Y-10385856D01*
X11490756Y-9877856D02*
X11490756Y-9807144D01*
X11420044Y-9807144D01*
X11420044Y-9877856D01*
X11490756Y-9877856D01*
X11998756Y-11909856D02*
X11998756Y-11839144D01*
X11928044Y-11839144D01*
X11928044Y-11909856D01*
X11998756Y-11909856D01*
X11490756Y-8099856D02*
X11490756Y-8029144D01*
X11420044Y-8029144D01*
X11420044Y-8099856D01*
X11490756Y-8099856D01*
X11744756Y-8861856D02*
X11744756Y-8791144D01*
X11674044Y-8791144D01*
X11674044Y-8861856D01*
X11744756Y-8861856D01*
X11744756Y-8353856D02*
X11744756Y-8283144D01*
X11674044Y-8283144D01*
X11674044Y-8353856D01*
X11744756Y-8353856D01*
X12760756Y-8861856D02*
X12760756Y-8791144D01*
X12690044Y-8791144D01*
X12690044Y-8861856D01*
X12760756Y-8861856D01*
X12760756Y-10385856D02*
X12760756Y-10315144D01*
X12690044Y-10315144D01*
X12690044Y-10385856D01*
X12760756Y-10385856D01*
X15309674Y-10325138D02*
X15359712Y-10275100D01*
X15309674Y-10225062D01*
X15259636Y-10275100D01*
X15309674Y-10325138D01*
X16309926Y-10325138D02*
X16359964Y-10275100D01*
X16309926Y-10225062D01*
X16259888Y-10275100D01*
X16309926Y-10325138D01*
X15309674Y-11595138D02*
X15359712Y-11545100D01*
X15309674Y-11495062D01*
X15259636Y-11545100D01*
X15309674Y-11595138D01*
X16309926Y-11595138D02*
X16359964Y-11545100D01*
X16309926Y-11495062D01*
X16259888Y-11545100D01*
X16309926Y-11595138D01*
X15309674Y-11912638D02*
X15359712Y-11862600D01*
X15309674Y-11812562D01*
X15259636Y-11862600D01*
X15309674Y-11912638D01*
X16309926Y-11912638D02*
X16359964Y-11862600D01*
X16309926Y-11812562D01*
X16259888Y-11862600D01*
X16309926Y-11912638D01*
X14476300Y-9499638D02*
X14526338Y-9449600D01*
X14476300Y-9399562D01*
X14426262Y-9449600D01*
X14476300Y-9499638D01*
X14476300Y-10499890D02*
X14526338Y-10449852D01*
X14476300Y-10399814D01*
X14426262Y-10449852D01*
X14476300Y-10499890D01*
X15309674Y-10642638D02*
X15359712Y-10592600D01*
X15309674Y-10542562D01*
X15259636Y-10592600D01*
X15309674Y-10642638D01*
X16309926Y-10642638D02*
X16359964Y-10592600D01*
X16309926Y-10542562D01*
X16259888Y-10592600D01*
X16309926Y-10642638D01*
X15309674Y-10960138D02*
X15359712Y-10910100D01*
X15309674Y-10860062D01*
X15259636Y-10910100D01*
X15309674Y-10960138D01*
X16309926Y-10960138D02*
X16359964Y-10910100D01*
X16309926Y-10860062D01*
X16259888Y-10910100D01*
X16309926Y-10960138D01*
X14793800Y-9499638D02*
X14843838Y-9449600D01*
X14793800Y-9399562D01*
X14743762Y-9449600D01*
X14793800Y-9499638D01*
X14793800Y-10499890D02*
X14843838Y-10449852D01*
X14793800Y-10399814D01*
X14743762Y-10449852D01*
X14793800Y-10499890D01*
X15309674Y-10007638D02*
X15359712Y-9957600D01*
X15309674Y-9907562D01*
X15259636Y-9957600D01*
X15309674Y-10007638D01*
X16309926Y-10007638D02*
X16359964Y-9957600D01*
X16309926Y-9907562D01*
X16259888Y-9957600D01*
X16309926Y-10007638D01*
X15309674Y-11277638D02*
X15359712Y-11227600D01*
X15309674Y-11177562D01*
X15259636Y-11227600D01*
X15309674Y-11277638D01*
X16309926Y-11277638D02*
X16359964Y-11227600D01*
X16309926Y-11177562D01*
X16259888Y-11227600D01*
X16309926Y-11277638D01*
X16129000Y-12331700D02*
X16230600Y-12433300D01*
X16230600Y-12331700D02*
X16129000Y-12433300D01*
X16230600Y-12382500D02*
G75*
G03*
X16230600Y-12382500I-50800J0D01*
G01*
X16383000Y-12331700D02*
X16484600Y-12433300D01*
X16484600Y-12331700D02*
X16383000Y-12433300D01*
X16484600Y-12382500D02*
G75*
G03*
X16484600Y-12382500I-50800J0D01*
G01*
X16637000Y-12331700D02*
X16738600Y-12433300D01*
X16738600Y-12331700D02*
X16637000Y-12433300D01*
X16738600Y-12382500D02*
G75*
G03*
X16738600Y-12382500I-50800J0D01*
G01*
X16891000Y-12331700D02*
X16992600Y-12433300D01*
X16992600Y-12331700D02*
X16891000Y-12433300D01*
X16992600Y-12382500D02*
G75*
G03*
X16992600Y-12382500I-50800J0D01*
G01*
X17145000Y-12331700D02*
X17246600Y-12433300D01*
X17246600Y-12331700D02*
X17145000Y-12433300D01*
X17246600Y-12382500D02*
G75*
G03*
X17246600Y-12382500I-50800J0D01*
G01*
X17399000Y-12331700D02*
X17500600Y-12433300D01*
X17500600Y-12331700D02*
X17399000Y-12433300D01*
X17500600Y-12382500D02*
G75*
G03*
X17500600Y-12382500I-50800J0D01*
G01*
X13843000Y-12331700D02*
X13944600Y-12433300D01*
X13944600Y-12331700D02*
X13843000Y-12433300D01*
X13944600Y-12382500D02*
G75*
G03*
X13944600Y-12382500I-50800J0D01*
G01*
X14097000Y-12331700D02*
X14198600Y-12433300D01*
X14198600Y-12331700D02*
X14097000Y-12433300D01*
X14198600Y-12382500D02*
G75*
G03*
X14198600Y-12382500I-50800J0D01*
G01*
X14351000Y-12331700D02*
X14452600Y-12433300D01*
X14452600Y-12331700D02*
X14351000Y-12433300D01*
X14452600Y-12382500D02*
G75*
G03*
X14452600Y-12382500I-50800J0D01*
G01*
X14605000Y-12331700D02*
X14706600Y-12433300D01*
X14706600Y-12331700D02*
X14605000Y-12433300D01*
X14706600Y-12382500D02*
G75*
G03*
X14706600Y-12382500I-50800J0D01*
G01*
X14859000Y-12331700D02*
X14960600Y-12433300D01*
X14960600Y-12331700D02*
X14859000Y-12433300D01*
X14960600Y-12382500D02*
G75*
G03*
X14960600Y-12382500I-50800J0D01*
G01*
X15113000Y-12331700D02*
X15214600Y-12433300D01*
X15214600Y-12331700D02*
X15113000Y-12433300D01*
X15214600Y-12382500D02*
G75*
G03*
X15214600Y-12382500I-50800J0D01*
G01*
X15367000Y-12331700D02*
X15468600Y-12433300D01*
X15468600Y-12331700D02*
X15367000Y-12433300D01*
X15468600Y-12382500D02*
G75*
G03*
X15468600Y-12382500I-50800J0D01*
G01*
X15621000Y-12331700D02*
X15722600Y-12433300D01*
X15722600Y-12331700D02*
X15621000Y-12433300D01*
X15722600Y-12382500D02*
G75*
G03*
X15722600Y-12382500I-50800J0D01*
G01*
X15621000Y-7505700D02*
X15722600Y-7607300D01*
X15722600Y-7505700D02*
X15621000Y-7607300D01*
X15722600Y-7556500D02*
G75*
G03*
X15722600Y-7556500I-50800J0D01*
G01*
X15875000Y-7505700D02*
X15976600Y-7607300D01*
X15976600Y-7505700D02*
X15875000Y-7607300D01*
X15976600Y-7556500D02*
G75*
G03*
X15976600Y-7556500I-50800J0D01*
G01*
X16129000Y-7505700D02*
X16230600Y-7607300D01*
X16230600Y-7505700D02*
X16129000Y-7607300D01*
X16230600Y-7556500D02*
G75*
G03*
X16230600Y-7556500I-50800J0D01*
G01*
X16383000Y-7505700D02*
X16484600Y-7607300D01*
X16484600Y-7505700D02*
X16383000Y-7607300D01*
X16484600Y-7556500D02*
G75*
G03*
X16484600Y-7556500I-50800J0D01*
G01*
X16637000Y-7505700D02*
X16738600Y-7607300D01*
X16738600Y-7505700D02*
X16637000Y-7607300D01*
X16738600Y-7556500D02*
G75*
G03*
X16738600Y-7556500I-50800J0D01*
G01*
X16891000Y-7505700D02*
X16992600Y-7607300D01*
X16992600Y-7505700D02*
X16891000Y-7607300D01*
X16992600Y-7556500D02*
G75*
G03*
X16992600Y-7556500I-50800J0D01*
G01*
X17145000Y-7505700D02*
X17246600Y-7607300D01*
X17246600Y-7505700D02*
X17145000Y-7607300D01*
X17246600Y-7556500D02*
G75*
G03*
X17246600Y-7556500I-50800J0D01*
G01*
X17399000Y-7505700D02*
X17500600Y-7607300D01*
X17500600Y-7505700D02*
X17399000Y-7607300D01*
X17500600Y-7556500D02*
G75*
G03*
X17500600Y-7556500I-50800J0D01*
G01*
X12928600Y-7505700D02*
X13030200Y-7607300D01*
X13030200Y-7505700D02*
X12928600Y-7607300D01*
X13030200Y-7556500D02*
G75*
G03*
X13030200Y-7556500I-50800J0D01*
G01*
X13182600Y-7505700D02*
X13284200Y-7607300D01*
X13284200Y-7505700D02*
X13182600Y-7607300D01*
X13284200Y-7556500D02*
G75*
G03*
X13284200Y-7556500I-50800J0D01*
G01*
X13436600Y-7505700D02*
X13538200Y-7607300D01*
X13538200Y-7505700D02*
X13436600Y-7607300D01*
X13538200Y-7556500D02*
G75*
G03*
X13538200Y-7556500I-50800J0D01*
G01*
X13690600Y-7505700D02*
X13792200Y-7607300D01*
X13792200Y-7505700D02*
X13690600Y-7607300D01*
X13792200Y-7556500D02*
G75*
G03*
X13792200Y-7556500I-50800J0D01*
G01*
X13944600Y-7505700D02*
X14046200Y-7607300D01*
X14046200Y-7505700D02*
X13944600Y-7607300D01*
X14046200Y-7556500D02*
G75*
G03*
X14046200Y-7556500I-50800J0D01*
G01*
X14198600Y-7505700D02*
X14300200Y-7607300D01*
X14300200Y-7505700D02*
X14198600Y-7607300D01*
X14300200Y-7556500D02*
G75*
G03*
X14300200Y-7556500I-50800J0D01*
G01*
X14452600Y-7505700D02*
X14554200Y-7607300D01*
X14554200Y-7505700D02*
X14452600Y-7607300D01*
X14554200Y-7556500D02*
G75*
G03*
X14554200Y-7556500I-50800J0D01*
G01*
X14706600Y-7505700D02*
X14808200Y-7607300D01*
X14808200Y-7505700D02*
X14706600Y-7607300D01*
X14808200Y-7556500D02*
G75*
G03*
X14808200Y-7556500I-50800J0D01*
G01*
X14960600Y-7505700D02*
X15062200Y-7607300D01*
X15062200Y-7505700D02*
X14960600Y-7607300D01*
X15062200Y-7556500D02*
G75*
G03*
X15062200Y-7556500I-50800J0D01*
G01*
X15214600Y-7505700D02*
X15316200Y-7607300D01*
X15316200Y-7505700D02*
X15214600Y-7607300D01*
X15316200Y-7556500D02*
G75*
G03*
X15316200Y-7556500I-50800J0D01*
G01*
X12344400Y-12230100D02*
X12649200Y-12534900D01*
X12649200Y-12230100D02*
X12344400Y-12534900D01*
X12496800Y-12230100D02*
X12496800Y-12534900D01*
X12344400Y-12382500D02*
X12649200Y-12382500D01*
X17551400Y-8928100D02*
X17856200Y-9232900D01*
X17856200Y-8928100D02*
X17551400Y-9232900D01*
X17703800Y-8928100D02*
X17703800Y-9232900D01*
X17551400Y-9080500D02*
X17856200Y-9080500D01*
X17551400Y-11722100D02*
X17856200Y-12026900D01*
X17856200Y-11722100D02*
X17551400Y-12026900D01*
X17703800Y-11722100D02*
X17703800Y-12026900D01*
X17551400Y-11874500D02*
X17856200Y-11874500D01*
X12471400Y-7404100D02*
X12776200Y-7708900D01*
X12776200Y-7404100D02*
X12471400Y-7708900D01*
X12623800Y-7404100D02*
X12623800Y-7708900D01*
X12471400Y-7556500D02*
X12776200Y-7556500D01*
X16680800Y-9067600D02*
X17000800Y-9387600D01*
X17000800Y-9067600D02*
X16680800Y-9387600D01*
X16953938Y-9340738D02*
X16953938Y-9114462D01*
X16727662Y-9114462D01*
X16727662Y-9340738D01*
X16953938Y-9340738D01*
X16680800Y-11567600D02*
X17000800Y-11887600D01*
X17000800Y-11567600D02*
X16680800Y-11887600D01*
X16953938Y-11840738D02*
X16953938Y-11614462D01*
X16727662Y-11614462D01*
X16727662Y-11840738D01*
X16953938Y-11840738D01*
D12*
X11378728Y-13109714D02*
X11378728Y-12809714D01*
X11450157Y-12809714D01*
X11493014Y-12824000D01*
X11521586Y-12852571D01*
X11535871Y-12881143D01*
X11550157Y-12938286D01*
X11550157Y-12981143D01*
X11535871Y-13038286D01*
X11521586Y-13066857D01*
X11493014Y-13095429D01*
X11450157Y-13109714D01*
X11378728Y-13109714D01*
X11678728Y-13109714D02*
X11678728Y-12909714D01*
X11678728Y-12966857D02*
X11693014Y-12938286D01*
X11707300Y-12924000D01*
X11735871Y-12909714D01*
X11764443Y-12909714D01*
X11864443Y-13109714D02*
X11864443Y-12909714D01*
X11864443Y-12809714D02*
X11850157Y-12824000D01*
X11864443Y-12838286D01*
X11878728Y-12824000D01*
X11864443Y-12809714D01*
X11864443Y-12838286D01*
X12050157Y-13109714D02*
X12021586Y-13095429D01*
X12007300Y-13066857D01*
X12007300Y-12809714D01*
X12207300Y-13109714D02*
X12178728Y-13095429D01*
X12164443Y-13066857D01*
X12164443Y-12809714D01*
X12550157Y-13109714D02*
X12550157Y-12809714D01*
X12650157Y-13024000D01*
X12750157Y-12809714D01*
X12750157Y-13109714D01*
X13021586Y-13109714D02*
X13021586Y-12952571D01*
X13007300Y-12924000D01*
X12978728Y-12909714D01*
X12921586Y-12909714D01*
X12893014Y-12924000D01*
X13021586Y-13095429D02*
X12993014Y-13109714D01*
X12921586Y-13109714D01*
X12893014Y-13095429D01*
X12878728Y-13066857D01*
X12878728Y-13038286D01*
X12893014Y-13009714D01*
X12921586Y-12995429D01*
X12993014Y-12995429D01*
X13021586Y-12981143D01*
X13164443Y-12909714D02*
X13164443Y-13209714D01*
X13164443Y-12924000D02*
X13193014Y-12909714D01*
X13250157Y-12909714D01*
X13278728Y-12924000D01*
X13293014Y-12938286D01*
X13307300Y-12966857D01*
X13307300Y-13052571D01*
X13293014Y-13081143D01*
X13278728Y-13095429D01*
X13250157Y-13109714D01*
X13193014Y-13109714D01*
X13164443Y-13095429D01*
X13435871Y-13081143D02*
X13450157Y-13095429D01*
X13435871Y-13109714D01*
X13421586Y-13095429D01*
X13435871Y-13081143D01*
X13435871Y-13109714D01*
X13435871Y-12924000D02*
X13450157Y-12938286D01*
X13435871Y-12952571D01*
X13421586Y-12938286D01*
X13435871Y-12924000D01*
X13435871Y-12952571D01*
X11032300Y-13574000D02*
X11092300Y-13634000D01*
X11092300Y-13574000D02*
X11032300Y-13634000D01*
X11435871Y-13439714D02*
X11464443Y-13439714D01*
X11493014Y-13454000D01*
X11507300Y-13468286D01*
X11521586Y-13496857D01*
X11535871Y-13554000D01*
X11535871Y-13625429D01*
X11521586Y-13682571D01*
X11507300Y-13711143D01*
X11493014Y-13725429D01*
X11464443Y-13739714D01*
X11435871Y-13739714D01*
X11407300Y-13725429D01*
X11393014Y-13711143D01*
X11378728Y-13682571D01*
X11364443Y-13625429D01*
X11364443Y-13554000D01*
X11378728Y-13496857D01*
X11393014Y-13468286D01*
X11407300Y-13454000D01*
X11435871Y-13439714D01*
X11664443Y-13711143D02*
X11678728Y-13725429D01*
X11664443Y-13739714D01*
X11650157Y-13725429D01*
X11664443Y-13711143D01*
X11664443Y-13739714D01*
X11935871Y-13439714D02*
X11878728Y-13439714D01*
X11850157Y-13454000D01*
X11835871Y-13468286D01*
X11807300Y-13511143D01*
X11793014Y-13568286D01*
X11793014Y-13682571D01*
X11807300Y-13711143D01*
X11821586Y-13725429D01*
X11850157Y-13739714D01*
X11907300Y-13739714D01*
X11935871Y-13725429D01*
X11950157Y-13711143D01*
X11964443Y-13682571D01*
X11964443Y-13611143D01*
X11950157Y-13582571D01*
X11935871Y-13568286D01*
X11907300Y-13554000D01*
X11850157Y-13554000D01*
X11821586Y-13568286D01*
X11807300Y-13582571D01*
X11793014Y-13611143D01*
X12150157Y-13439714D02*
X12178728Y-13439714D01*
X12207300Y-13454000D01*
X12221586Y-13468286D01*
X12235871Y-13496857D01*
X12250157Y-13554000D01*
X12250157Y-13625429D01*
X12235871Y-13682571D01*
X12221586Y-13711143D01*
X12207300Y-13725429D01*
X12178728Y-13739714D01*
X12150157Y-13739714D01*
X12121586Y-13725429D01*
X12107300Y-13711143D01*
X12093014Y-13682571D01*
X12078728Y-13625429D01*
X12078728Y-13554000D01*
X12093014Y-13496857D01*
X12107300Y-13468286D01*
X12121586Y-13454000D01*
X12150157Y-13439714D01*
X12378728Y-13739714D02*
X12378728Y-13539714D01*
X12378728Y-13568286D02*
X12393014Y-13554000D01*
X12421586Y-13539714D01*
X12464443Y-13539714D01*
X12493014Y-13554000D01*
X12507300Y-13582571D01*
X12507300Y-13739714D01*
X12507300Y-13582571D02*
X12521586Y-13554000D01*
X12550157Y-13539714D01*
X12593014Y-13539714D01*
X12621586Y-13554000D01*
X12635871Y-13582571D01*
X12635871Y-13739714D01*
X12778728Y-13739714D02*
X12778728Y-13539714D01*
X12778728Y-13568286D02*
X12793014Y-13554000D01*
X12821586Y-13539714D01*
X12864443Y-13539714D01*
X12893014Y-13554000D01*
X12907300Y-13582571D01*
X12907300Y-13739714D01*
X12907300Y-13582571D02*
X12921586Y-13554000D01*
X12950157Y-13539714D01*
X12993014Y-13539714D01*
X13021586Y-13554000D01*
X13035871Y-13582571D01*
X13035871Y-13739714D01*
X13621586Y-13425429D02*
X13364443Y-13811143D01*
X14007300Y-13439714D02*
X14035871Y-13439714D01*
X14064443Y-13454000D01*
X14078728Y-13468286D01*
X14093014Y-13496857D01*
X14107300Y-13554000D01*
X14107300Y-13625429D01*
X14093014Y-13682571D01*
X14078728Y-13711143D01*
X14064443Y-13725429D01*
X14035871Y-13739714D01*
X14007300Y-13739714D01*
X13978728Y-13725429D01*
X13964443Y-13711143D01*
X13950157Y-13682571D01*
X13935871Y-13625429D01*
X13935871Y-13554000D01*
X13950157Y-13496857D01*
X13964443Y-13468286D01*
X13978728Y-13454000D01*
X14007300Y-13439714D01*
X14235871Y-13711143D02*
X14250157Y-13725429D01*
X14235871Y-13739714D01*
X14221586Y-13725429D01*
X14235871Y-13711143D01*
X14235871Y-13739714D01*
X14435871Y-13439714D02*
X14464443Y-13439714D01*
X14493014Y-13454000D01*
X14507300Y-13468286D01*
X14521586Y-13496857D01*
X14535871Y-13554000D01*
X14535871Y-13625429D01*
X14521586Y-13682571D01*
X14507300Y-13711143D01*
X14493014Y-13725429D01*
X14464443Y-13739714D01*
X14435871Y-13739714D01*
X14407300Y-13725429D01*
X14393014Y-13711143D01*
X14378728Y-13682571D01*
X14364443Y-13625429D01*
X14364443Y-13554000D01*
X14378728Y-13496857D01*
X14393014Y-13468286D01*
X14407300Y-13454000D01*
X14435871Y-13439714D01*
X14650157Y-13468286D02*
X14664443Y-13454000D01*
X14693014Y-13439714D01*
X14764443Y-13439714D01*
X14793014Y-13454000D01*
X14807300Y-13468286D01*
X14821586Y-13496857D01*
X14821586Y-13525429D01*
X14807300Y-13568286D01*
X14635871Y-13739714D01*
X14821586Y-13739714D01*
X15078728Y-13539714D02*
X15078728Y-13739714D01*
X15007300Y-13425429D02*
X14935871Y-13639714D01*
X15121586Y-13639714D01*
X15221586Y-13439714D02*
X15221586Y-13496857D01*
X15335871Y-13439714D02*
X15335871Y-13496857D01*
X15778728Y-13854000D02*
X15764443Y-13839714D01*
X15735871Y-13796857D01*
X15721586Y-13768286D01*
X15707300Y-13725429D01*
X15693014Y-13654000D01*
X15693014Y-13596857D01*
X15707300Y-13525429D01*
X15721586Y-13482571D01*
X15735871Y-13454000D01*
X15764443Y-13411143D01*
X15778728Y-13396857D01*
X16035871Y-13439714D02*
X15893014Y-13439714D01*
X15878728Y-13582571D01*
X15893014Y-13568286D01*
X15921586Y-13554000D01*
X15993014Y-13554000D01*
X16021586Y-13568286D01*
X16035871Y-13582571D01*
X16050157Y-13611143D01*
X16050157Y-13682571D01*
X16035871Y-13711143D01*
X16021586Y-13725429D01*
X15993014Y-13739714D01*
X15921586Y-13739714D01*
X15893014Y-13725429D01*
X15878728Y-13711143D01*
X16193014Y-13739714D02*
X16250157Y-13739714D01*
X16278728Y-13725429D01*
X16293014Y-13711143D01*
X16321586Y-13668286D01*
X16335871Y-13611143D01*
X16335871Y-13496857D01*
X16321586Y-13468286D01*
X16307300Y-13454000D01*
X16278728Y-13439714D01*
X16221586Y-13439714D01*
X16193014Y-13454000D01*
X16178728Y-13468286D01*
X16164443Y-13496857D01*
X16164443Y-13568286D01*
X16178728Y-13596857D01*
X16193014Y-13611143D01*
X16221586Y-13625429D01*
X16278728Y-13625429D01*
X16307300Y-13611143D01*
X16321586Y-13596857D01*
X16335871Y-13568286D01*
X16693014Y-13739714D02*
X16693014Y-13439714D01*
X16821586Y-13739714D02*
X16821586Y-13582571D01*
X16807300Y-13554000D01*
X16778728Y-13539714D01*
X16735871Y-13539714D01*
X16707300Y-13554000D01*
X16693014Y-13568286D01*
X17007300Y-13739714D02*
X16978728Y-13725429D01*
X16964443Y-13711143D01*
X16950157Y-13682571D01*
X16950157Y-13596857D01*
X16964443Y-13568286D01*
X16978728Y-13554000D01*
X17007300Y-13539714D01*
X17050157Y-13539714D01*
X17078728Y-13554000D01*
X17093014Y-13568286D01*
X17107300Y-13596857D01*
X17107300Y-13682571D01*
X17093014Y-13711143D01*
X17078728Y-13725429D01*
X17050157Y-13739714D01*
X17007300Y-13739714D01*
X17278728Y-13739714D02*
X17250157Y-13725429D01*
X17235871Y-13696857D01*
X17235871Y-13439714D01*
X17507300Y-13725429D02*
X17478728Y-13739714D01*
X17421586Y-13739714D01*
X17393014Y-13725429D01*
X17378728Y-13696857D01*
X17378728Y-13582571D01*
X17393014Y-13554000D01*
X17421586Y-13539714D01*
X17478728Y-13539714D01*
X17507300Y-13554000D01*
X17521586Y-13582571D01*
X17521586Y-13611143D01*
X17378728Y-13639714D01*
X17635871Y-13725429D02*
X17664443Y-13739714D01*
X17721586Y-13739714D01*
X17750157Y-13725429D01*
X17764443Y-13696857D01*
X17764443Y-13682571D01*
X17750157Y-13654000D01*
X17721586Y-13639714D01*
X17678728Y-13639714D01*
X17650157Y-13625429D01*
X17635871Y-13596857D01*
X17635871Y-13582571D01*
X17650157Y-13554000D01*
X17678728Y-13539714D01*
X17721586Y-13539714D01*
X17750157Y-13554000D01*
X17864443Y-13854000D02*
X17878728Y-13839714D01*
X17907300Y-13796857D01*
X17921586Y-13768286D01*
X17935871Y-13725429D01*
X17950157Y-13654000D01*
X17950157Y-13596857D01*
X17935871Y-13525429D01*
X17921586Y-13482571D01*
X17907300Y-13454000D01*
X17878728Y-13411143D01*
X17864443Y-13396857D01*
X11092300Y-14000000D02*
G75*
G03*
X11092300Y-14000000I-40000J0D01*
G01*
X11435871Y-13835714D02*
X11464443Y-13835714D01*
X11493014Y-13850000D01*
X11507300Y-13864286D01*
X11521586Y-13892857D01*
X11535871Y-13950000D01*
X11535871Y-14021429D01*
X11521586Y-14078571D01*
X11507300Y-14107143D01*
X11493014Y-14121429D01*
X11464443Y-14135714D01*
X11435871Y-14135714D01*
X11407300Y-14121429D01*
X11393014Y-14107143D01*
X11378728Y-14078571D01*
X11364443Y-14021429D01*
X11364443Y-13950000D01*
X11378728Y-13892857D01*
X11393014Y-13864286D01*
X11407300Y-13850000D01*
X11435871Y-13835714D01*
X11664443Y-14107143D02*
X11678728Y-14121429D01*
X11664443Y-14135714D01*
X11650157Y-14121429D01*
X11664443Y-14107143D01*
X11664443Y-14135714D01*
X11850157Y-13964286D02*
X11821586Y-13950000D01*
X11807300Y-13935714D01*
X11793014Y-13907143D01*
X11793014Y-13892857D01*
X11807300Y-13864286D01*
X11821586Y-13850000D01*
X11850157Y-13835714D01*
X11907300Y-13835714D01*
X11935871Y-13850000D01*
X11950157Y-13864286D01*
X11964443Y-13892857D01*
X11964443Y-13907143D01*
X11950157Y-13935714D01*
X11935871Y-13950000D01*
X11907300Y-13964286D01*
X11850157Y-13964286D01*
X11821586Y-13978571D01*
X11807300Y-13992857D01*
X11793014Y-14021429D01*
X11793014Y-14078571D01*
X11807300Y-14107143D01*
X11821586Y-14121429D01*
X11850157Y-14135714D01*
X11907300Y-14135714D01*
X11935871Y-14121429D01*
X11950157Y-14107143D01*
X11964443Y-14078571D01*
X11964443Y-14021429D01*
X11950157Y-13992857D01*
X11935871Y-13978571D01*
X11907300Y-13964286D01*
X12150157Y-13835714D02*
X12178728Y-13835714D01*
X12207300Y-13850000D01*
X12221586Y-13864286D01*
X12235871Y-13892857D01*
X12250157Y-13950000D01*
X12250157Y-14021429D01*
X12235871Y-14078571D01*
X12221586Y-14107143D01*
X12207300Y-14121429D01*
X12178728Y-14135714D01*
X12150157Y-14135714D01*
X12121586Y-14121429D01*
X12107300Y-14107143D01*
X12093014Y-14078571D01*
X12078728Y-14021429D01*
X12078728Y-13950000D01*
X12093014Y-13892857D01*
X12107300Y-13864286D01*
X12121586Y-13850000D01*
X12150157Y-13835714D01*
X12378728Y-14135714D02*
X12378728Y-13935714D01*
X12378728Y-13964286D02*
X12393014Y-13950000D01*
X12421586Y-13935714D01*
X12464443Y-13935714D01*
X12493014Y-13950000D01*
X12507300Y-13978571D01*
X12507300Y-14135714D01*
X12507300Y-13978571D02*
X12521586Y-13950000D01*
X12550157Y-13935714D01*
X12593014Y-13935714D01*
X12621586Y-13950000D01*
X12635871Y-13978571D01*
X12635871Y-14135714D01*
X12778728Y-14135714D02*
X12778728Y-13935714D01*
X12778728Y-13964286D02*
X12793014Y-13950000D01*
X12821586Y-13935714D01*
X12864443Y-13935714D01*
X12893014Y-13950000D01*
X12907300Y-13978571D01*
X12907300Y-14135714D01*
X12907300Y-13978571D02*
X12921586Y-13950000D01*
X12950157Y-13935714D01*
X12993014Y-13935714D01*
X13021586Y-13950000D01*
X13035871Y-13978571D01*
X13035871Y-14135714D01*
X13621586Y-13821429D02*
X13364443Y-14207143D01*
X14007300Y-13835714D02*
X14035871Y-13835714D01*
X14064443Y-13850000D01*
X14078728Y-13864286D01*
X14093014Y-13892857D01*
X14107300Y-13950000D01*
X14107300Y-14021429D01*
X14093014Y-14078571D01*
X14078728Y-14107143D01*
X14064443Y-14121429D01*
X14035871Y-14135714D01*
X14007300Y-14135714D01*
X13978728Y-14121429D01*
X13964443Y-14107143D01*
X13950157Y-14078571D01*
X13935871Y-14021429D01*
X13935871Y-13950000D01*
X13950157Y-13892857D01*
X13964443Y-13864286D01*
X13978728Y-13850000D01*
X14007300Y-13835714D01*
X14235871Y-14107143D02*
X14250157Y-14121429D01*
X14235871Y-14135714D01*
X14221586Y-14121429D01*
X14235871Y-14107143D01*
X14235871Y-14135714D01*
X14435871Y-13835714D02*
X14464443Y-13835714D01*
X14493014Y-13850000D01*
X14507300Y-13864286D01*
X14521586Y-13892857D01*
X14535871Y-13950000D01*
X14535871Y-14021429D01*
X14521586Y-14078571D01*
X14507300Y-14107143D01*
X14493014Y-14121429D01*
X14464443Y-14135714D01*
X14435871Y-14135714D01*
X14407300Y-14121429D01*
X14393014Y-14107143D01*
X14378728Y-14078571D01*
X14364443Y-14021429D01*
X14364443Y-13950000D01*
X14378728Y-13892857D01*
X14393014Y-13864286D01*
X14407300Y-13850000D01*
X14435871Y-13835714D01*
X14635871Y-13835714D02*
X14821586Y-13835714D01*
X14721586Y-13950000D01*
X14764443Y-13950000D01*
X14793014Y-13964286D01*
X14807300Y-13978571D01*
X14821586Y-14007143D01*
X14821586Y-14078571D01*
X14807300Y-14107143D01*
X14793014Y-14121429D01*
X14764443Y-14135714D01*
X14678728Y-14135714D01*
X14650157Y-14121429D01*
X14635871Y-14107143D01*
X15107300Y-14135714D02*
X14935871Y-14135714D01*
X15021586Y-14135714D02*
X15021586Y-13835714D01*
X14993014Y-13878571D01*
X14964443Y-13907143D01*
X14935871Y-13921429D01*
X15221586Y-13835714D02*
X15221586Y-13892857D01*
X15335871Y-13835714D02*
X15335871Y-13892857D01*
X15778728Y-14250000D02*
X15764443Y-14235714D01*
X15735871Y-14192857D01*
X15721586Y-14164286D01*
X15707300Y-14121429D01*
X15693014Y-14050000D01*
X15693014Y-13992857D01*
X15707300Y-13921429D01*
X15721586Y-13878571D01*
X15735871Y-13850000D01*
X15764443Y-13807143D01*
X15778728Y-13792857D01*
X16050157Y-14135714D02*
X15878728Y-14135714D01*
X15964443Y-14135714D02*
X15964443Y-13835714D01*
X15935871Y-13878571D01*
X15907300Y-13907143D01*
X15878728Y-13921429D01*
X16235871Y-13835714D02*
X16264443Y-13835714D01*
X16293014Y-13850000D01*
X16307300Y-13864286D01*
X16321586Y-13892857D01*
X16335871Y-13950000D01*
X16335871Y-14021429D01*
X16321586Y-14078571D01*
X16307300Y-14107143D01*
X16293014Y-14121429D01*
X16264443Y-14135714D01*
X16235871Y-14135714D01*
X16207300Y-14121429D01*
X16193014Y-14107143D01*
X16178728Y-14078571D01*
X16164443Y-14021429D01*
X16164443Y-13950000D01*
X16178728Y-13892857D01*
X16193014Y-13864286D01*
X16207300Y-13850000D01*
X16235871Y-13835714D01*
X16693014Y-14135714D02*
X16693014Y-13835714D01*
X16821586Y-14135714D02*
X16821586Y-13978571D01*
X16807300Y-13950000D01*
X16778728Y-13935714D01*
X16735871Y-13935714D01*
X16707300Y-13950000D01*
X16693014Y-13964286D01*
X17007300Y-14135714D02*
X16978728Y-14121429D01*
X16964443Y-14107143D01*
X16950157Y-14078571D01*
X16950157Y-13992857D01*
X16964443Y-13964286D01*
X16978728Y-13950000D01*
X17007300Y-13935714D01*
X17050157Y-13935714D01*
X17078728Y-13950000D01*
X17093014Y-13964286D01*
X17107300Y-13992857D01*
X17107300Y-14078571D01*
X17093014Y-14107143D01*
X17078728Y-14121429D01*
X17050157Y-14135714D01*
X17007300Y-14135714D01*
X17278728Y-14135714D02*
X17250157Y-14121429D01*
X17235871Y-14092857D01*
X17235871Y-13835714D01*
X17507300Y-14121429D02*
X17478728Y-14135714D01*
X17421586Y-14135714D01*
X17393014Y-14121429D01*
X17378728Y-14092857D01*
X17378728Y-13978571D01*
X17393014Y-13950000D01*
X17421586Y-13935714D01*
X17478728Y-13935714D01*
X17507300Y-13950000D01*
X17521586Y-13978571D01*
X17521586Y-14007143D01*
X17378728Y-14035714D01*
X17635871Y-14121429D02*
X17664443Y-14135714D01*
X17721586Y-14135714D01*
X17750157Y-14121429D01*
X17764443Y-14092857D01*
X17764443Y-14078571D01*
X17750157Y-14050000D01*
X17721586Y-14035714D01*
X17678728Y-14035714D01*
X17650157Y-14021429D01*
X17635871Y-13992857D01*
X17635871Y-13978571D01*
X17650157Y-13950000D01*
X17678728Y-13935714D01*
X17721586Y-13935714D01*
X17750157Y-13950000D01*
X17864443Y-14250000D02*
X17878728Y-14235714D01*
X17907300Y-14192857D01*
X17921586Y-14164286D01*
X17935871Y-14121429D01*
X17950157Y-14050000D01*
X17950157Y-13992857D01*
X17935871Y-13921429D01*
X17921586Y-13878571D01*
X17907300Y-13850000D01*
X17878728Y-13807143D01*
X17864443Y-13792857D01*
X11051660Y-14355360D02*
X11051660Y-14436640D01*
X11011020Y-14396000D02*
X11092300Y-14396000D01*
X11435871Y-14231714D02*
X11464443Y-14231714D01*
X11493014Y-14246000D01*
X11507300Y-14260286D01*
X11521586Y-14288857D01*
X11535871Y-14346000D01*
X11535871Y-14417429D01*
X11521586Y-14474571D01*
X11507300Y-14503143D01*
X11493014Y-14517429D01*
X11464443Y-14531714D01*
X11435871Y-14531714D01*
X11407300Y-14517429D01*
X11393014Y-14503143D01*
X11378728Y-14474571D01*
X11364443Y-14417429D01*
X11364443Y-14346000D01*
X11378728Y-14288857D01*
X11393014Y-14260286D01*
X11407300Y-14246000D01*
X11435871Y-14231714D01*
X11664443Y-14503143D02*
X11678728Y-14517429D01*
X11664443Y-14531714D01*
X11650157Y-14517429D01*
X11664443Y-14503143D01*
X11664443Y-14531714D01*
X11850157Y-14360286D02*
X11821586Y-14346000D01*
X11807300Y-14331714D01*
X11793014Y-14303143D01*
X11793014Y-14288857D01*
X11807300Y-14260286D01*
X11821586Y-14246000D01*
X11850157Y-14231714D01*
X11907300Y-14231714D01*
X11935871Y-14246000D01*
X11950157Y-14260286D01*
X11964443Y-14288857D01*
X11964443Y-14303143D01*
X11950157Y-14331714D01*
X11935871Y-14346000D01*
X11907300Y-14360286D01*
X11850157Y-14360286D01*
X11821586Y-14374571D01*
X11807300Y-14388857D01*
X11793014Y-14417429D01*
X11793014Y-14474571D01*
X11807300Y-14503143D01*
X11821586Y-14517429D01*
X11850157Y-14531714D01*
X11907300Y-14531714D01*
X11935871Y-14517429D01*
X11950157Y-14503143D01*
X11964443Y-14474571D01*
X11964443Y-14417429D01*
X11950157Y-14388857D01*
X11935871Y-14374571D01*
X11907300Y-14360286D01*
X12250157Y-14531714D02*
X12078728Y-14531714D01*
X12164443Y-14531714D02*
X12164443Y-14231714D01*
X12135871Y-14274571D01*
X12107300Y-14303143D01*
X12078728Y-14317429D01*
X12378728Y-14531714D02*
X12378728Y-14331714D01*
X12378728Y-14360286D02*
X12393014Y-14346000D01*
X12421586Y-14331714D01*
X12464443Y-14331714D01*
X12493014Y-14346000D01*
X12507300Y-14374571D01*
X12507300Y-14531714D01*
X12507300Y-14374571D02*
X12521586Y-14346000D01*
X12550157Y-14331714D01*
X12593014Y-14331714D01*
X12621586Y-14346000D01*
X12635871Y-14374571D01*
X12635871Y-14531714D01*
X12778728Y-14531714D02*
X12778728Y-14331714D01*
X12778728Y-14360286D02*
X12793014Y-14346000D01*
X12821586Y-14331714D01*
X12864443Y-14331714D01*
X12893014Y-14346000D01*
X12907300Y-14374571D01*
X12907300Y-14531714D01*
X12907300Y-14374571D02*
X12921586Y-14346000D01*
X12950157Y-14331714D01*
X12993014Y-14331714D01*
X13021586Y-14346000D01*
X13035871Y-14374571D01*
X13035871Y-14531714D01*
X13621586Y-14217429D02*
X13364443Y-14603143D01*
X14007300Y-14231714D02*
X14035871Y-14231714D01*
X14064443Y-14246000D01*
X14078728Y-14260286D01*
X14093014Y-14288857D01*
X14107300Y-14346000D01*
X14107300Y-14417429D01*
X14093014Y-14474571D01*
X14078728Y-14503143D01*
X14064443Y-14517429D01*
X14035871Y-14531714D01*
X14007300Y-14531714D01*
X13978728Y-14517429D01*
X13964443Y-14503143D01*
X13950157Y-14474571D01*
X13935871Y-14417429D01*
X13935871Y-14346000D01*
X13950157Y-14288857D01*
X13964443Y-14260286D01*
X13978728Y-14246000D01*
X14007300Y-14231714D01*
X14235871Y-14503143D02*
X14250157Y-14517429D01*
X14235871Y-14531714D01*
X14221586Y-14517429D01*
X14235871Y-14503143D01*
X14235871Y-14531714D01*
X14435871Y-14231714D02*
X14464443Y-14231714D01*
X14493014Y-14246000D01*
X14507300Y-14260286D01*
X14521586Y-14288857D01*
X14535871Y-14346000D01*
X14535871Y-14417429D01*
X14521586Y-14474571D01*
X14507300Y-14503143D01*
X14493014Y-14517429D01*
X14464443Y-14531714D01*
X14435871Y-14531714D01*
X14407300Y-14517429D01*
X14393014Y-14503143D01*
X14378728Y-14474571D01*
X14364443Y-14417429D01*
X14364443Y-14346000D01*
X14378728Y-14288857D01*
X14393014Y-14260286D01*
X14407300Y-14246000D01*
X14435871Y-14231714D01*
X14635871Y-14231714D02*
X14821586Y-14231714D01*
X14721586Y-14346000D01*
X14764443Y-14346000D01*
X14793014Y-14360286D01*
X14807300Y-14374571D01*
X14821586Y-14403143D01*
X14821586Y-14474571D01*
X14807300Y-14503143D01*
X14793014Y-14517429D01*
X14764443Y-14531714D01*
X14678728Y-14531714D01*
X14650157Y-14517429D01*
X14635871Y-14503143D01*
X14935871Y-14260286D02*
X14950157Y-14246000D01*
X14978728Y-14231714D01*
X15050157Y-14231714D01*
X15078728Y-14246000D01*
X15093014Y-14260286D01*
X15107300Y-14288857D01*
X15107300Y-14317429D01*
X15093014Y-14360286D01*
X14921586Y-14531714D01*
X15107300Y-14531714D01*
X15221586Y-14231714D02*
X15221586Y-14288857D01*
X15335871Y-14231714D02*
X15335871Y-14288857D01*
X15778728Y-14646000D02*
X15764443Y-14631714D01*
X15735871Y-14588857D01*
X15721586Y-14560286D01*
X15707300Y-14517429D01*
X15693014Y-14446000D01*
X15693014Y-14388857D01*
X15707300Y-14317429D01*
X15721586Y-14274571D01*
X15735871Y-14246000D01*
X15764443Y-14203143D01*
X15778728Y-14188857D01*
X16021586Y-14331714D02*
X16021586Y-14531714D01*
X15950157Y-14217429D02*
X15878728Y-14431714D01*
X16064443Y-14431714D01*
X16407300Y-14531714D02*
X16407300Y-14231714D01*
X16535871Y-14531714D02*
X16535871Y-14374571D01*
X16521586Y-14346000D01*
X16493014Y-14331714D01*
X16450157Y-14331714D01*
X16421586Y-14346000D01*
X16407300Y-14360286D01*
X16721586Y-14531714D02*
X16693014Y-14517429D01*
X16678728Y-14503143D01*
X16664443Y-14474571D01*
X16664443Y-14388857D01*
X16678728Y-14360286D01*
X16693014Y-14346000D01*
X16721586Y-14331714D01*
X16764443Y-14331714D01*
X16793014Y-14346000D01*
X16807300Y-14360286D01*
X16821586Y-14388857D01*
X16821586Y-14474571D01*
X16807300Y-14503143D01*
X16793014Y-14517429D01*
X16764443Y-14531714D01*
X16721586Y-14531714D01*
X16993014Y-14531714D02*
X16964443Y-14517429D01*
X16950157Y-14488857D01*
X16950157Y-14231714D01*
X17221586Y-14517429D02*
X17193014Y-14531714D01*
X17135871Y-14531714D01*
X17107300Y-14517429D01*
X17093014Y-14488857D01*
X17093014Y-14374571D01*
X17107300Y-14346000D01*
X17135871Y-14331714D01*
X17193014Y-14331714D01*
X17221586Y-14346000D01*
X17235871Y-14374571D01*
X17235871Y-14403143D01*
X17093014Y-14431714D01*
X17350157Y-14517429D02*
X17378728Y-14531714D01*
X17435871Y-14531714D01*
X17464443Y-14517429D01*
X17478728Y-14488857D01*
X17478728Y-14474571D01*
X17464443Y-14446000D01*
X17435871Y-14431714D01*
X17393014Y-14431714D01*
X17364443Y-14417429D01*
X17350157Y-14388857D01*
X17350157Y-14374571D01*
X17364443Y-14346000D01*
X17393014Y-14331714D01*
X17435871Y-14331714D01*
X17464443Y-14346000D01*
X17578728Y-14646000D02*
X17593014Y-14631714D01*
X17621586Y-14588857D01*
X17635871Y-14560286D01*
X17650157Y-14517429D01*
X17664443Y-14446000D01*
X17664443Y-14388857D01*
X17650157Y-14317429D01*
X17635871Y-14274571D01*
X17621586Y-14246000D01*
X17593014Y-14203143D01*
X17578728Y-14188857D01*
X11077656Y-14827356D02*
X11077656Y-14756644D01*
X11006944Y-14756644D01*
X11006944Y-14827356D01*
X11077656Y-14827356D01*
X11535871Y-14927714D02*
X11364443Y-14927714D01*
X11450157Y-14927714D02*
X11450157Y-14627714D01*
X11421586Y-14670571D01*
X11393014Y-14699143D01*
X11364443Y-14713429D01*
X11664443Y-14899143D02*
X11678728Y-14913429D01*
X11664443Y-14927714D01*
X11650157Y-14913429D01*
X11664443Y-14899143D01*
X11664443Y-14927714D01*
X11864443Y-14627714D02*
X11893014Y-14627714D01*
X11921586Y-14642000D01*
X11935871Y-14656286D01*
X11950157Y-14684857D01*
X11964443Y-14742000D01*
X11964443Y-14813429D01*
X11950157Y-14870571D01*
X11935871Y-14899143D01*
X11921586Y-14913429D01*
X11893014Y-14927714D01*
X11864443Y-14927714D01*
X11835871Y-14913429D01*
X11821586Y-14899143D01*
X11807300Y-14870571D01*
X11793014Y-14813429D01*
X11793014Y-14742000D01*
X11807300Y-14684857D01*
X11821586Y-14656286D01*
X11835871Y-14642000D01*
X11864443Y-14627714D01*
X12150157Y-14627714D02*
X12178728Y-14627714D01*
X12207300Y-14642000D01*
X12221586Y-14656286D01*
X12235871Y-14684857D01*
X12250157Y-14742000D01*
X12250157Y-14813429D01*
X12235871Y-14870571D01*
X12221586Y-14899143D01*
X12207300Y-14913429D01*
X12178728Y-14927714D01*
X12150157Y-14927714D01*
X12121586Y-14913429D01*
X12107300Y-14899143D01*
X12093014Y-14870571D01*
X12078728Y-14813429D01*
X12078728Y-14742000D01*
X12093014Y-14684857D01*
X12107300Y-14656286D01*
X12121586Y-14642000D01*
X12150157Y-14627714D01*
X12378728Y-14927714D02*
X12378728Y-14727714D01*
X12378728Y-14756286D02*
X12393014Y-14742000D01*
X12421586Y-14727714D01*
X12464443Y-14727714D01*
X12493014Y-14742000D01*
X12507300Y-14770571D01*
X12507300Y-14927714D01*
X12507300Y-14770571D02*
X12521586Y-14742000D01*
X12550157Y-14727714D01*
X12593014Y-14727714D01*
X12621586Y-14742000D01*
X12635871Y-14770571D01*
X12635871Y-14927714D01*
X12778728Y-14927714D02*
X12778728Y-14727714D01*
X12778728Y-14756286D02*
X12793014Y-14742000D01*
X12821586Y-14727714D01*
X12864443Y-14727714D01*
X12893014Y-14742000D01*
X12907300Y-14770571D01*
X12907300Y-14927714D01*
X12907300Y-14770571D02*
X12921586Y-14742000D01*
X12950157Y-14727714D01*
X12993014Y-14727714D01*
X13021586Y-14742000D01*
X13035871Y-14770571D01*
X13035871Y-14927714D01*
X13621586Y-14613429D02*
X13364443Y-14999143D01*
X14007300Y-14627714D02*
X14035871Y-14627714D01*
X14064443Y-14642000D01*
X14078728Y-14656286D01*
X14093014Y-14684857D01*
X14107300Y-14742000D01*
X14107300Y-14813429D01*
X14093014Y-14870571D01*
X14078728Y-14899143D01*
X14064443Y-14913429D01*
X14035871Y-14927714D01*
X14007300Y-14927714D01*
X13978728Y-14913429D01*
X13964443Y-14899143D01*
X13950157Y-14870571D01*
X13935871Y-14813429D01*
X13935871Y-14742000D01*
X13950157Y-14684857D01*
X13964443Y-14656286D01*
X13978728Y-14642000D01*
X14007300Y-14627714D01*
X14235871Y-14899143D02*
X14250157Y-14913429D01*
X14235871Y-14927714D01*
X14221586Y-14913429D01*
X14235871Y-14899143D01*
X14235871Y-14927714D01*
X14435871Y-14627714D02*
X14464443Y-14627714D01*
X14493014Y-14642000D01*
X14507300Y-14656286D01*
X14521586Y-14684857D01*
X14535871Y-14742000D01*
X14535871Y-14813429D01*
X14521586Y-14870571D01*
X14507300Y-14899143D01*
X14493014Y-14913429D01*
X14464443Y-14927714D01*
X14435871Y-14927714D01*
X14407300Y-14913429D01*
X14393014Y-14899143D01*
X14378728Y-14870571D01*
X14364443Y-14813429D01*
X14364443Y-14742000D01*
X14378728Y-14684857D01*
X14393014Y-14656286D01*
X14407300Y-14642000D01*
X14435871Y-14627714D01*
X14635871Y-14627714D02*
X14821586Y-14627714D01*
X14721586Y-14742000D01*
X14764443Y-14742000D01*
X14793014Y-14756286D01*
X14807300Y-14770571D01*
X14821586Y-14799143D01*
X14821586Y-14870571D01*
X14807300Y-14899143D01*
X14793014Y-14913429D01*
X14764443Y-14927714D01*
X14678728Y-14927714D01*
X14650157Y-14913429D01*
X14635871Y-14899143D01*
X14964443Y-14927714D02*
X15021586Y-14927714D01*
X15050157Y-14913429D01*
X15064443Y-14899143D01*
X15093014Y-14856286D01*
X15107300Y-14799143D01*
X15107300Y-14684857D01*
X15093014Y-14656286D01*
X15078728Y-14642000D01*
X15050157Y-14627714D01*
X14993014Y-14627714D01*
X14964443Y-14642000D01*
X14950157Y-14656286D01*
X14935871Y-14684857D01*
X14935871Y-14756286D01*
X14950157Y-14784857D01*
X14964443Y-14799143D01*
X14993014Y-14813429D01*
X15050157Y-14813429D01*
X15078728Y-14799143D01*
X15093014Y-14784857D01*
X15107300Y-14756286D01*
X15221586Y-14627714D02*
X15221586Y-14684857D01*
X15335871Y-14627714D02*
X15335871Y-14684857D01*
X15778728Y-15042000D02*
X15764443Y-15027714D01*
X15735871Y-14984857D01*
X15721586Y-14956286D01*
X15707300Y-14913429D01*
X15693014Y-14842000D01*
X15693014Y-14784857D01*
X15707300Y-14713429D01*
X15721586Y-14670571D01*
X15735871Y-14642000D01*
X15764443Y-14599143D01*
X15778728Y-14584857D01*
X15878728Y-14656286D02*
X15893014Y-14642000D01*
X15921586Y-14627714D01*
X15993014Y-14627714D01*
X16021586Y-14642000D01*
X16035871Y-14656286D01*
X16050157Y-14684857D01*
X16050157Y-14713429D01*
X16035871Y-14756286D01*
X15864443Y-14927714D01*
X16050157Y-14927714D01*
X16335871Y-14927714D02*
X16164443Y-14927714D01*
X16250157Y-14927714D02*
X16250157Y-14627714D01*
X16221586Y-14670571D01*
X16193014Y-14699143D01*
X16164443Y-14713429D01*
X16593014Y-14727714D02*
X16593014Y-14927714D01*
X16521586Y-14613429D02*
X16450157Y-14827714D01*
X16635871Y-14827714D01*
X16978728Y-14927714D02*
X16978728Y-14627714D01*
X17107300Y-14927714D02*
X17107300Y-14770571D01*
X17093014Y-14742000D01*
X17064443Y-14727714D01*
X17021586Y-14727714D01*
X16993014Y-14742000D01*
X16978728Y-14756286D01*
X17293014Y-14927714D02*
X17264443Y-14913429D01*
X17250157Y-14899143D01*
X17235871Y-14870571D01*
X17235871Y-14784857D01*
X17250157Y-14756286D01*
X17264443Y-14742000D01*
X17293014Y-14727714D01*
X17335871Y-14727714D01*
X17364443Y-14742000D01*
X17378728Y-14756286D01*
X17393014Y-14784857D01*
X17393014Y-14870571D01*
X17378728Y-14899143D01*
X17364443Y-14913429D01*
X17335871Y-14927714D01*
X17293014Y-14927714D01*
X17564443Y-14927714D02*
X17535871Y-14913429D01*
X17521586Y-14884857D01*
X17521586Y-14627714D01*
X17793014Y-14913429D02*
X17764443Y-14927714D01*
X17707300Y-14927714D01*
X17678728Y-14913429D01*
X17664443Y-14884857D01*
X17664443Y-14770571D01*
X17678728Y-14742000D01*
X17707300Y-14727714D01*
X17764443Y-14727714D01*
X17793014Y-14742000D01*
X17807300Y-14770571D01*
X17807300Y-14799143D01*
X17664443Y-14827714D01*
X17921586Y-14913429D02*
X17950157Y-14927714D01*
X18007300Y-14927714D01*
X18035871Y-14913429D01*
X18050157Y-14884857D01*
X18050157Y-14870571D01*
X18035871Y-14842000D01*
X18007300Y-14827714D01*
X17964443Y-14827714D01*
X17935871Y-14813429D01*
X17921586Y-14784857D01*
X17921586Y-14770571D01*
X17935871Y-14742000D01*
X17964443Y-14727714D01*
X18007300Y-14727714D01*
X18035871Y-14742000D01*
X18150157Y-15042000D02*
X18164443Y-15027714D01*
X18193014Y-14984857D01*
X18207300Y-14956286D01*
X18221586Y-14913429D01*
X18235871Y-14842000D01*
X18235871Y-14784857D01*
X18221586Y-14713429D01*
X18207300Y-14670571D01*
X18193014Y-14642000D01*
X18164443Y-14599143D01*
X18150157Y-14584857D01*
X11042262Y-15238038D02*
X11092300Y-15188000D01*
X11042262Y-15137962D01*
X10992224Y-15188000D01*
X11042262Y-15238038D01*
X11535871Y-15323714D02*
X11364443Y-15323714D01*
X11450157Y-15323714D02*
X11450157Y-15023714D01*
X11421586Y-15066571D01*
X11393014Y-15095143D01*
X11364443Y-15109429D01*
X11664443Y-15295143D02*
X11678728Y-15309429D01*
X11664443Y-15323714D01*
X11650157Y-15309429D01*
X11664443Y-15295143D01*
X11664443Y-15323714D01*
X11864443Y-15023714D02*
X11893014Y-15023714D01*
X11921586Y-15038000D01*
X11935871Y-15052286D01*
X11950157Y-15080857D01*
X11964443Y-15138000D01*
X11964443Y-15209429D01*
X11950157Y-15266571D01*
X11935871Y-15295143D01*
X11921586Y-15309429D01*
X11893014Y-15323714D01*
X11864443Y-15323714D01*
X11835871Y-15309429D01*
X11821586Y-15295143D01*
X11807300Y-15266571D01*
X11793014Y-15209429D01*
X11793014Y-15138000D01*
X11807300Y-15080857D01*
X11821586Y-15052286D01*
X11835871Y-15038000D01*
X11864443Y-15023714D01*
X12150157Y-15023714D02*
X12178728Y-15023714D01*
X12207300Y-15038000D01*
X12221586Y-15052286D01*
X12235871Y-15080857D01*
X12250157Y-15138000D01*
X12250157Y-15209429D01*
X12235871Y-15266571D01*
X12221586Y-15295143D01*
X12207300Y-15309429D01*
X12178728Y-15323714D01*
X12150157Y-15323714D01*
X12121586Y-15309429D01*
X12107300Y-15295143D01*
X12093014Y-15266571D01*
X12078728Y-15209429D01*
X12078728Y-15138000D01*
X12093014Y-15080857D01*
X12107300Y-15052286D01*
X12121586Y-15038000D01*
X12150157Y-15023714D01*
X12378728Y-15323714D02*
X12378728Y-15123714D01*
X12378728Y-15152286D02*
X12393014Y-15138000D01*
X12421586Y-15123714D01*
X12464443Y-15123714D01*
X12493014Y-15138000D01*
X12507300Y-15166571D01*
X12507300Y-15323714D01*
X12507300Y-15166571D02*
X12521586Y-15138000D01*
X12550157Y-15123714D01*
X12593014Y-15123714D01*
X12621586Y-15138000D01*
X12635871Y-15166571D01*
X12635871Y-15323714D01*
X12778728Y-15323714D02*
X12778728Y-15123714D01*
X12778728Y-15152286D02*
X12793014Y-15138000D01*
X12821586Y-15123714D01*
X12864443Y-15123714D01*
X12893014Y-15138000D01*
X12907300Y-15166571D01*
X12907300Y-15323714D01*
X12907300Y-15166571D02*
X12921586Y-15138000D01*
X12950157Y-15123714D01*
X12993014Y-15123714D01*
X13021586Y-15138000D01*
X13035871Y-15166571D01*
X13035871Y-15323714D01*
X13621586Y-15009429D02*
X13364443Y-15395143D01*
X14007300Y-15023714D02*
X14035871Y-15023714D01*
X14064443Y-15038000D01*
X14078728Y-15052286D01*
X14093014Y-15080857D01*
X14107300Y-15138000D01*
X14107300Y-15209429D01*
X14093014Y-15266571D01*
X14078728Y-15295143D01*
X14064443Y-15309429D01*
X14035871Y-15323714D01*
X14007300Y-15323714D01*
X13978728Y-15309429D01*
X13964443Y-15295143D01*
X13950157Y-15266571D01*
X13935871Y-15209429D01*
X13935871Y-15138000D01*
X13950157Y-15080857D01*
X13964443Y-15052286D01*
X13978728Y-15038000D01*
X14007300Y-15023714D01*
X14235871Y-15295143D02*
X14250157Y-15309429D01*
X14235871Y-15323714D01*
X14221586Y-15309429D01*
X14235871Y-15295143D01*
X14235871Y-15323714D01*
X14435871Y-15023714D02*
X14464443Y-15023714D01*
X14493014Y-15038000D01*
X14507300Y-15052286D01*
X14521586Y-15080857D01*
X14535871Y-15138000D01*
X14535871Y-15209429D01*
X14521586Y-15266571D01*
X14507300Y-15295143D01*
X14493014Y-15309429D01*
X14464443Y-15323714D01*
X14435871Y-15323714D01*
X14407300Y-15309429D01*
X14393014Y-15295143D01*
X14378728Y-15266571D01*
X14364443Y-15209429D01*
X14364443Y-15138000D01*
X14378728Y-15080857D01*
X14393014Y-15052286D01*
X14407300Y-15038000D01*
X14435871Y-15023714D01*
X14635871Y-15023714D02*
X14821586Y-15023714D01*
X14721586Y-15138000D01*
X14764443Y-15138000D01*
X14793014Y-15152286D01*
X14807300Y-15166571D01*
X14821586Y-15195143D01*
X14821586Y-15266571D01*
X14807300Y-15295143D01*
X14793014Y-15309429D01*
X14764443Y-15323714D01*
X14678728Y-15323714D01*
X14650157Y-15309429D01*
X14635871Y-15295143D01*
X14964443Y-15323714D02*
X15021586Y-15323714D01*
X15050157Y-15309429D01*
X15064443Y-15295143D01*
X15093014Y-15252286D01*
X15107300Y-15195143D01*
X15107300Y-15080857D01*
X15093014Y-15052286D01*
X15078728Y-15038000D01*
X15050157Y-15023714D01*
X14993014Y-15023714D01*
X14964443Y-15038000D01*
X14950157Y-15052286D01*
X14935871Y-15080857D01*
X14935871Y-15152286D01*
X14950157Y-15180857D01*
X14964443Y-15195143D01*
X14993014Y-15209429D01*
X15050157Y-15209429D01*
X15078728Y-15195143D01*
X15093014Y-15180857D01*
X15107300Y-15152286D01*
X15221586Y-15023714D02*
X15221586Y-15080857D01*
X15335871Y-15023714D02*
X15335871Y-15080857D01*
X15778728Y-15438000D02*
X15764443Y-15423714D01*
X15735871Y-15380857D01*
X15721586Y-15352286D01*
X15707300Y-15309429D01*
X15693014Y-15238000D01*
X15693014Y-15180857D01*
X15707300Y-15109429D01*
X15721586Y-15066571D01*
X15735871Y-15038000D01*
X15764443Y-14995143D01*
X15778728Y-14980857D01*
X16050157Y-15323714D02*
X15878728Y-15323714D01*
X15964443Y-15323714D02*
X15964443Y-15023714D01*
X15935871Y-15066571D01*
X15907300Y-15095143D01*
X15878728Y-15109429D01*
X16221586Y-15152286D02*
X16193014Y-15138000D01*
X16178728Y-15123714D01*
X16164443Y-15095143D01*
X16164443Y-15080857D01*
X16178728Y-15052286D01*
X16193014Y-15038000D01*
X16221586Y-15023714D01*
X16278728Y-15023714D01*
X16307300Y-15038000D01*
X16321586Y-15052286D01*
X16335871Y-15080857D01*
X16335871Y-15095143D01*
X16321586Y-15123714D01*
X16307300Y-15138000D01*
X16278728Y-15152286D01*
X16221586Y-15152286D01*
X16193014Y-15166571D01*
X16178728Y-15180857D01*
X16164443Y-15209429D01*
X16164443Y-15266571D01*
X16178728Y-15295143D01*
X16193014Y-15309429D01*
X16221586Y-15323714D01*
X16278728Y-15323714D01*
X16307300Y-15309429D01*
X16321586Y-15295143D01*
X16335871Y-15266571D01*
X16335871Y-15209429D01*
X16321586Y-15180857D01*
X16307300Y-15166571D01*
X16278728Y-15152286D01*
X16693014Y-15323714D02*
X16693014Y-15023714D01*
X16821586Y-15323714D02*
X16821586Y-15166571D01*
X16807300Y-15138000D01*
X16778728Y-15123714D01*
X16735871Y-15123714D01*
X16707300Y-15138000D01*
X16693014Y-15152286D01*
X17007300Y-15323714D02*
X16978728Y-15309429D01*
X16964443Y-15295143D01*
X16950157Y-15266571D01*
X16950157Y-15180857D01*
X16964443Y-15152286D01*
X16978728Y-15138000D01*
X17007300Y-15123714D01*
X17050157Y-15123714D01*
X17078728Y-15138000D01*
X17093014Y-15152286D01*
X17107300Y-15180857D01*
X17107300Y-15266571D01*
X17093014Y-15295143D01*
X17078728Y-15309429D01*
X17050157Y-15323714D01*
X17007300Y-15323714D01*
X17278728Y-15323714D02*
X17250157Y-15309429D01*
X17235871Y-15280857D01*
X17235871Y-15023714D01*
X17507300Y-15309429D02*
X17478728Y-15323714D01*
X17421586Y-15323714D01*
X17393014Y-15309429D01*
X17378728Y-15280857D01*
X17378728Y-15166571D01*
X17393014Y-15138000D01*
X17421586Y-15123714D01*
X17478728Y-15123714D01*
X17507300Y-15138000D01*
X17521586Y-15166571D01*
X17521586Y-15195143D01*
X17378728Y-15223714D01*
X17635871Y-15309429D02*
X17664443Y-15323714D01*
X17721586Y-15323714D01*
X17750157Y-15309429D01*
X17764443Y-15280857D01*
X17764443Y-15266571D01*
X17750157Y-15238000D01*
X17721586Y-15223714D01*
X17678728Y-15223714D01*
X17650157Y-15209429D01*
X17635871Y-15180857D01*
X17635871Y-15166571D01*
X17650157Y-15138000D01*
X17678728Y-15123714D01*
X17721586Y-15123714D01*
X17750157Y-15138000D01*
X17864443Y-15438000D02*
X17878728Y-15423714D01*
X17907300Y-15380857D01*
X17921586Y-15352286D01*
X17935871Y-15309429D01*
X17950157Y-15238000D01*
X17950157Y-15180857D01*
X17935871Y-15109429D01*
X17921586Y-15066571D01*
X17907300Y-15038000D01*
X17878728Y-14995143D01*
X17864443Y-14980857D01*
X10990700Y-15533200D02*
X11092300Y-15634800D01*
X11092300Y-15533200D02*
X10990700Y-15634800D01*
X11092300Y-15584000D02*
G75*
G03*
X11092300Y-15584000I-50800J0D01*
G01*
X11535871Y-15719714D02*
X11364443Y-15719714D01*
X11450157Y-15719714D02*
X11450157Y-15419714D01*
X11421586Y-15462571D01*
X11393014Y-15491143D01*
X11364443Y-15505429D01*
X11664443Y-15691143D02*
X11678728Y-15705429D01*
X11664443Y-15719714D01*
X11650157Y-15705429D01*
X11664443Y-15691143D01*
X11664443Y-15719714D01*
X11864443Y-15419714D02*
X11893014Y-15419714D01*
X11921586Y-15434000D01*
X11935871Y-15448286D01*
X11950157Y-15476857D01*
X11964443Y-15534000D01*
X11964443Y-15605429D01*
X11950157Y-15662571D01*
X11935871Y-15691143D01*
X11921586Y-15705429D01*
X11893014Y-15719714D01*
X11864443Y-15719714D01*
X11835871Y-15705429D01*
X11821586Y-15691143D01*
X11807300Y-15662571D01*
X11793014Y-15605429D01*
X11793014Y-15534000D01*
X11807300Y-15476857D01*
X11821586Y-15448286D01*
X11835871Y-15434000D01*
X11864443Y-15419714D01*
X12078728Y-15448286D02*
X12093014Y-15434000D01*
X12121586Y-15419714D01*
X12193014Y-15419714D01*
X12221586Y-15434000D01*
X12235871Y-15448286D01*
X12250157Y-15476857D01*
X12250157Y-15505429D01*
X12235871Y-15548286D01*
X12064443Y-15719714D01*
X12250157Y-15719714D01*
X12378728Y-15719714D02*
X12378728Y-15519714D01*
X12378728Y-15548286D02*
X12393014Y-15534000D01*
X12421586Y-15519714D01*
X12464443Y-15519714D01*
X12493014Y-15534000D01*
X12507300Y-15562571D01*
X12507300Y-15719714D01*
X12507300Y-15562571D02*
X12521586Y-15534000D01*
X12550157Y-15519714D01*
X12593014Y-15519714D01*
X12621586Y-15534000D01*
X12635871Y-15562571D01*
X12635871Y-15719714D01*
X12778728Y-15719714D02*
X12778728Y-15519714D01*
X12778728Y-15548286D02*
X12793014Y-15534000D01*
X12821586Y-15519714D01*
X12864443Y-15519714D01*
X12893014Y-15534000D01*
X12907300Y-15562571D01*
X12907300Y-15719714D01*
X12907300Y-15562571D02*
X12921586Y-15534000D01*
X12950157Y-15519714D01*
X12993014Y-15519714D01*
X13021586Y-15534000D01*
X13035871Y-15562571D01*
X13035871Y-15719714D01*
X13621586Y-15405429D02*
X13364443Y-15791143D01*
X14007300Y-15419714D02*
X14035871Y-15419714D01*
X14064443Y-15434000D01*
X14078728Y-15448286D01*
X14093014Y-15476857D01*
X14107300Y-15534000D01*
X14107300Y-15605429D01*
X14093014Y-15662571D01*
X14078728Y-15691143D01*
X14064443Y-15705429D01*
X14035871Y-15719714D01*
X14007300Y-15719714D01*
X13978728Y-15705429D01*
X13964443Y-15691143D01*
X13950157Y-15662571D01*
X13935871Y-15605429D01*
X13935871Y-15534000D01*
X13950157Y-15476857D01*
X13964443Y-15448286D01*
X13978728Y-15434000D01*
X14007300Y-15419714D01*
X14235871Y-15691143D02*
X14250157Y-15705429D01*
X14235871Y-15719714D01*
X14221586Y-15705429D01*
X14235871Y-15691143D01*
X14235871Y-15719714D01*
X14435871Y-15419714D02*
X14464443Y-15419714D01*
X14493014Y-15434000D01*
X14507300Y-15448286D01*
X14521586Y-15476857D01*
X14535871Y-15534000D01*
X14535871Y-15605429D01*
X14521586Y-15662571D01*
X14507300Y-15691143D01*
X14493014Y-15705429D01*
X14464443Y-15719714D01*
X14435871Y-15719714D01*
X14407300Y-15705429D01*
X14393014Y-15691143D01*
X14378728Y-15662571D01*
X14364443Y-15605429D01*
X14364443Y-15534000D01*
X14378728Y-15476857D01*
X14393014Y-15448286D01*
X14407300Y-15434000D01*
X14435871Y-15419714D01*
X14793014Y-15519714D02*
X14793014Y-15719714D01*
X14721586Y-15405429D02*
X14650157Y-15619714D01*
X14835871Y-15619714D01*
X15007300Y-15419714D02*
X15035871Y-15419714D01*
X15064443Y-15434000D01*
X15078728Y-15448286D01*
X15093014Y-15476857D01*
X15107300Y-15534000D01*
X15107300Y-15605429D01*
X15093014Y-15662571D01*
X15078728Y-15691143D01*
X15064443Y-15705429D01*
X15035871Y-15719714D01*
X15007300Y-15719714D01*
X14978728Y-15705429D01*
X14964443Y-15691143D01*
X14950157Y-15662571D01*
X14935871Y-15605429D01*
X14935871Y-15534000D01*
X14950157Y-15476857D01*
X14964443Y-15448286D01*
X14978728Y-15434000D01*
X15007300Y-15419714D01*
X15221586Y-15419714D02*
X15221586Y-15476857D01*
X15335871Y-15419714D02*
X15335871Y-15476857D01*
X15778728Y-15834000D02*
X15764443Y-15819714D01*
X15735871Y-15776857D01*
X15721586Y-15748286D01*
X15707300Y-15705429D01*
X15693014Y-15634000D01*
X15693014Y-15576857D01*
X15707300Y-15505429D01*
X15721586Y-15462571D01*
X15735871Y-15434000D01*
X15764443Y-15391143D01*
X15778728Y-15376857D01*
X15864443Y-15419714D02*
X16050157Y-15419714D01*
X15950157Y-15534000D01*
X15993014Y-15534000D01*
X16021586Y-15548286D01*
X16035871Y-15562571D01*
X16050157Y-15591143D01*
X16050157Y-15662571D01*
X16035871Y-15691143D01*
X16021586Y-15705429D01*
X15993014Y-15719714D01*
X15907300Y-15719714D01*
X15878728Y-15705429D01*
X15864443Y-15691143D01*
X16164443Y-15448286D02*
X16178728Y-15434000D01*
X16207300Y-15419714D01*
X16278728Y-15419714D01*
X16307300Y-15434000D01*
X16321586Y-15448286D01*
X16335871Y-15476857D01*
X16335871Y-15505429D01*
X16321586Y-15548286D01*
X16150157Y-15719714D01*
X16335871Y-15719714D01*
X16693014Y-15719714D02*
X16693014Y-15419714D01*
X16821586Y-15719714D02*
X16821586Y-15562571D01*
X16807300Y-15534000D01*
X16778728Y-15519714D01*
X16735871Y-15519714D01*
X16707300Y-15534000D01*
X16693014Y-15548286D01*
X17007300Y-15719714D02*
X16978728Y-15705429D01*
X16964443Y-15691143D01*
X16950157Y-15662571D01*
X16950157Y-15576857D01*
X16964443Y-15548286D01*
X16978728Y-15534000D01*
X17007300Y-15519714D01*
X17050157Y-15519714D01*
X17078728Y-15534000D01*
X17093014Y-15548286D01*
X17107300Y-15576857D01*
X17107300Y-15662571D01*
X17093014Y-15691143D01*
X17078728Y-15705429D01*
X17050157Y-15719714D01*
X17007300Y-15719714D01*
X17278728Y-15719714D02*
X17250157Y-15705429D01*
X17235871Y-15676857D01*
X17235871Y-15419714D01*
X17507300Y-15705429D02*
X17478728Y-15719714D01*
X17421586Y-15719714D01*
X17393014Y-15705429D01*
X17378728Y-15676857D01*
X17378728Y-15562571D01*
X17393014Y-15534000D01*
X17421586Y-15519714D01*
X17478728Y-15519714D01*
X17507300Y-15534000D01*
X17521586Y-15562571D01*
X17521586Y-15591143D01*
X17378728Y-15619714D01*
X17635871Y-15705429D02*
X17664443Y-15719714D01*
X17721586Y-15719714D01*
X17750157Y-15705429D01*
X17764443Y-15676857D01*
X17764443Y-15662571D01*
X17750157Y-15634000D01*
X17721586Y-15619714D01*
X17678728Y-15619714D01*
X17650157Y-15605429D01*
X17635871Y-15576857D01*
X17635871Y-15562571D01*
X17650157Y-15534000D01*
X17678728Y-15519714D01*
X17721586Y-15519714D01*
X17750157Y-15534000D01*
X17864443Y-15834000D02*
X17878728Y-15819714D01*
X17907300Y-15776857D01*
X17921586Y-15748286D01*
X17935871Y-15705429D01*
X17950157Y-15634000D01*
X17950157Y-15576857D01*
X17935871Y-15505429D01*
X17921586Y-15462571D01*
X17907300Y-15434000D01*
X17878728Y-15391143D01*
X17864443Y-15376857D01*
X10787500Y-15827600D02*
X11092300Y-16132400D01*
X11092300Y-15827600D02*
X10787500Y-16132400D01*
X10939900Y-15827600D02*
X10939900Y-16132400D01*
X10787500Y-15980000D02*
X11092300Y-15980000D01*
X11350157Y-15815714D02*
X11535871Y-15815714D01*
X11435871Y-15930000D01*
X11478728Y-15930000D01*
X11507300Y-15944286D01*
X11521586Y-15958571D01*
X11535871Y-15987143D01*
X11535871Y-16058571D01*
X11521586Y-16087143D01*
X11507300Y-16101429D01*
X11478728Y-16115714D01*
X11393014Y-16115714D01*
X11364443Y-16101429D01*
X11350157Y-16087143D01*
X11664443Y-16087143D02*
X11678728Y-16101429D01*
X11664443Y-16115714D01*
X11650157Y-16101429D01*
X11664443Y-16087143D01*
X11664443Y-16115714D01*
X11864443Y-15815714D02*
X11893014Y-15815714D01*
X11921586Y-15830000D01*
X11935871Y-15844286D01*
X11950157Y-15872857D01*
X11964443Y-15930000D01*
X11964443Y-16001429D01*
X11950157Y-16058571D01*
X11935871Y-16087143D01*
X11921586Y-16101429D01*
X11893014Y-16115714D01*
X11864443Y-16115714D01*
X11835871Y-16101429D01*
X11821586Y-16087143D01*
X11807300Y-16058571D01*
X11793014Y-16001429D01*
X11793014Y-15930000D01*
X11807300Y-15872857D01*
X11821586Y-15844286D01*
X11835871Y-15830000D01*
X11864443Y-15815714D01*
X12235871Y-15815714D02*
X12093014Y-15815714D01*
X12078728Y-15958571D01*
X12093014Y-15944286D01*
X12121586Y-15930000D01*
X12193014Y-15930000D01*
X12221586Y-15944286D01*
X12235871Y-15958571D01*
X12250157Y-15987143D01*
X12250157Y-16058571D01*
X12235871Y-16087143D01*
X12221586Y-16101429D01*
X12193014Y-16115714D01*
X12121586Y-16115714D01*
X12093014Y-16101429D01*
X12078728Y-16087143D01*
X12378728Y-16115714D02*
X12378728Y-15915714D01*
X12378728Y-15944286D02*
X12393014Y-15930000D01*
X12421586Y-15915714D01*
X12464443Y-15915714D01*
X12493014Y-15930000D01*
X12507300Y-15958571D01*
X12507300Y-16115714D01*
X12507300Y-15958571D02*
X12521586Y-15930000D01*
X12550157Y-15915714D01*
X12593014Y-15915714D01*
X12621586Y-15930000D01*
X12635871Y-15958571D01*
X12635871Y-16115714D01*
X12778728Y-16115714D02*
X12778728Y-15915714D01*
X12778728Y-15944286D02*
X12793014Y-15930000D01*
X12821586Y-15915714D01*
X12864443Y-15915714D01*
X12893014Y-15930000D01*
X12907300Y-15958571D01*
X12907300Y-16115714D01*
X12907300Y-15958571D02*
X12921586Y-15930000D01*
X12950157Y-15915714D01*
X12993014Y-15915714D01*
X13021586Y-15930000D01*
X13035871Y-15958571D01*
X13035871Y-16115714D01*
X13621586Y-15801429D02*
X13364443Y-16187143D01*
X14007300Y-15815714D02*
X14035871Y-15815714D01*
X14064443Y-15830000D01*
X14078728Y-15844286D01*
X14093014Y-15872857D01*
X14107300Y-15930000D01*
X14107300Y-16001429D01*
X14093014Y-16058571D01*
X14078728Y-16087143D01*
X14064443Y-16101429D01*
X14035871Y-16115714D01*
X14007300Y-16115714D01*
X13978728Y-16101429D01*
X13964443Y-16087143D01*
X13950157Y-16058571D01*
X13935871Y-16001429D01*
X13935871Y-15930000D01*
X13950157Y-15872857D01*
X13964443Y-15844286D01*
X13978728Y-15830000D01*
X14007300Y-15815714D01*
X14235871Y-16087143D02*
X14250157Y-16101429D01*
X14235871Y-16115714D01*
X14221586Y-16101429D01*
X14235871Y-16087143D01*
X14235871Y-16115714D01*
X14535871Y-16115714D02*
X14364443Y-16115714D01*
X14450157Y-16115714D02*
X14450157Y-15815714D01*
X14421586Y-15858571D01*
X14393014Y-15887143D01*
X14364443Y-15901429D01*
X14650157Y-15844286D02*
X14664443Y-15830000D01*
X14693014Y-15815714D01*
X14764443Y-15815714D01*
X14793014Y-15830000D01*
X14807300Y-15844286D01*
X14821586Y-15872857D01*
X14821586Y-15901429D01*
X14807300Y-15944286D01*
X14635871Y-16115714D01*
X14821586Y-16115714D01*
X15007300Y-15815714D02*
X15035871Y-15815714D01*
X15064443Y-15830000D01*
X15078728Y-15844286D01*
X15093014Y-15872857D01*
X15107300Y-15930000D01*
X15107300Y-16001429D01*
X15093014Y-16058571D01*
X15078728Y-16087143D01*
X15064443Y-16101429D01*
X15035871Y-16115714D01*
X15007300Y-16115714D01*
X14978728Y-16101429D01*
X14964443Y-16087143D01*
X14950157Y-16058571D01*
X14935871Y-16001429D01*
X14935871Y-15930000D01*
X14950157Y-15872857D01*
X14964443Y-15844286D01*
X14978728Y-15830000D01*
X15007300Y-15815714D01*
X15221586Y-15815714D02*
X15221586Y-15872857D01*
X15335871Y-15815714D02*
X15335871Y-15872857D01*
X15778728Y-16230000D02*
X15764443Y-16215714D01*
X15735871Y-16172857D01*
X15721586Y-16144286D01*
X15707300Y-16101429D01*
X15693014Y-16030000D01*
X15693014Y-15972857D01*
X15707300Y-15901429D01*
X15721586Y-15858571D01*
X15735871Y-15830000D01*
X15764443Y-15787143D01*
X15778728Y-15772857D01*
X16021586Y-15915714D02*
X16021586Y-16115714D01*
X15950157Y-15801429D02*
X15878728Y-16015714D01*
X16064443Y-16015714D01*
X16407300Y-16115714D02*
X16407300Y-15815714D01*
X16535871Y-16115714D02*
X16535871Y-15958571D01*
X16521586Y-15930000D01*
X16493014Y-15915714D01*
X16450157Y-15915714D01*
X16421586Y-15930000D01*
X16407300Y-15944286D01*
X16721586Y-16115714D02*
X16693014Y-16101429D01*
X16678728Y-16087143D01*
X16664443Y-16058571D01*
X16664443Y-15972857D01*
X16678728Y-15944286D01*
X16693014Y-15930000D01*
X16721586Y-15915714D01*
X16764443Y-15915714D01*
X16793014Y-15930000D01*
X16807300Y-15944286D01*
X16821586Y-15972857D01*
X16821586Y-16058571D01*
X16807300Y-16087143D01*
X16793014Y-16101429D01*
X16764443Y-16115714D01*
X16721586Y-16115714D01*
X16993014Y-16115714D02*
X16964443Y-16101429D01*
X16950157Y-16072857D01*
X16950157Y-15815714D01*
X17221586Y-16101429D02*
X17193014Y-16115714D01*
X17135871Y-16115714D01*
X17107300Y-16101429D01*
X17093014Y-16072857D01*
X17093014Y-15958571D01*
X17107300Y-15930000D01*
X17135871Y-15915714D01*
X17193014Y-15915714D01*
X17221586Y-15930000D01*
X17235871Y-15958571D01*
X17235871Y-15987143D01*
X17093014Y-16015714D01*
X17350157Y-16101429D02*
X17378728Y-16115714D01*
X17435871Y-16115714D01*
X17464443Y-16101429D01*
X17478728Y-16072857D01*
X17478728Y-16058571D01*
X17464443Y-16030000D01*
X17435871Y-16015714D01*
X17393014Y-16015714D01*
X17364443Y-16001429D01*
X17350157Y-15972857D01*
X17350157Y-15958571D01*
X17364443Y-15930000D01*
X17393014Y-15915714D01*
X17435871Y-15915714D01*
X17464443Y-15930000D01*
X17578728Y-16230000D02*
X17593014Y-16215714D01*
X17621586Y-16172857D01*
X17635871Y-16144286D01*
X17650157Y-16101429D01*
X17664443Y-16030000D01*
X17664443Y-15972857D01*
X17650157Y-15901429D01*
X17635871Y-15858571D01*
X17621586Y-15830000D01*
X17593014Y-15787143D01*
X17578728Y-15772857D01*
X10772300Y-16254800D02*
X11092300Y-16574800D01*
X11092300Y-16254800D02*
X10772300Y-16574800D01*
X11045438Y-16527938D02*
X11045438Y-16301662D01*
X10819162Y-16301662D01*
X10819162Y-16527938D01*
X11045438Y-16527938D01*
X11350157Y-16250514D02*
X11535871Y-16250514D01*
X11435871Y-16364800D01*
X11478728Y-16364800D01*
X11507300Y-16379086D01*
X11521586Y-16393371D01*
X11535871Y-16421943D01*
X11535871Y-16493371D01*
X11521586Y-16521943D01*
X11507300Y-16536229D01*
X11478728Y-16550514D01*
X11393014Y-16550514D01*
X11364443Y-16536229D01*
X11350157Y-16521943D01*
X11664443Y-16521943D02*
X11678728Y-16536229D01*
X11664443Y-16550514D01*
X11650157Y-16536229D01*
X11664443Y-16521943D01*
X11664443Y-16550514D01*
X11793014Y-16279086D02*
X11807300Y-16264800D01*
X11835871Y-16250514D01*
X11907300Y-16250514D01*
X11935871Y-16264800D01*
X11950157Y-16279086D01*
X11964443Y-16307657D01*
X11964443Y-16336229D01*
X11950157Y-16379086D01*
X11778728Y-16550514D01*
X11964443Y-16550514D01*
X12150157Y-16250514D02*
X12178728Y-16250514D01*
X12207300Y-16264800D01*
X12221586Y-16279086D01*
X12235871Y-16307657D01*
X12250157Y-16364800D01*
X12250157Y-16436229D01*
X12235871Y-16493371D01*
X12221586Y-16521943D01*
X12207300Y-16536229D01*
X12178728Y-16550514D01*
X12150157Y-16550514D01*
X12121586Y-16536229D01*
X12107300Y-16521943D01*
X12093014Y-16493371D01*
X12078728Y-16436229D01*
X12078728Y-16364800D01*
X12093014Y-16307657D01*
X12107300Y-16279086D01*
X12121586Y-16264800D01*
X12150157Y-16250514D01*
X12378728Y-16550514D02*
X12378728Y-16350514D01*
X12378728Y-16379086D02*
X12393014Y-16364800D01*
X12421586Y-16350514D01*
X12464443Y-16350514D01*
X12493014Y-16364800D01*
X12507300Y-16393371D01*
X12507300Y-16550514D01*
X12507300Y-16393371D02*
X12521586Y-16364800D01*
X12550157Y-16350514D01*
X12593014Y-16350514D01*
X12621586Y-16364800D01*
X12635871Y-16393371D01*
X12635871Y-16550514D01*
X12778728Y-16550514D02*
X12778728Y-16350514D01*
X12778728Y-16379086D02*
X12793014Y-16364800D01*
X12821586Y-16350514D01*
X12864443Y-16350514D01*
X12893014Y-16364800D01*
X12907300Y-16393371D01*
X12907300Y-16550514D01*
X12907300Y-16393371D02*
X12921586Y-16364800D01*
X12950157Y-16350514D01*
X12993014Y-16350514D01*
X13021586Y-16364800D01*
X13035871Y-16393371D01*
X13035871Y-16550514D01*
X13621586Y-16236229D02*
X13364443Y-16621943D01*
X14007300Y-16250514D02*
X14035871Y-16250514D01*
X14064443Y-16264800D01*
X14078728Y-16279086D01*
X14093014Y-16307657D01*
X14107300Y-16364800D01*
X14107300Y-16436229D01*
X14093014Y-16493371D01*
X14078728Y-16521943D01*
X14064443Y-16536229D01*
X14035871Y-16550514D01*
X14007300Y-16550514D01*
X13978728Y-16536229D01*
X13964443Y-16521943D01*
X13950157Y-16493371D01*
X13935871Y-16436229D01*
X13935871Y-16364800D01*
X13950157Y-16307657D01*
X13964443Y-16279086D01*
X13978728Y-16264800D01*
X14007300Y-16250514D01*
X14235871Y-16521943D02*
X14250157Y-16536229D01*
X14235871Y-16550514D01*
X14221586Y-16536229D01*
X14235871Y-16521943D01*
X14235871Y-16550514D01*
X14535871Y-16550514D02*
X14364443Y-16550514D01*
X14450157Y-16550514D02*
X14450157Y-16250514D01*
X14421586Y-16293371D01*
X14393014Y-16321943D01*
X14364443Y-16336229D01*
X14650157Y-16279086D02*
X14664443Y-16264800D01*
X14693014Y-16250514D01*
X14764443Y-16250514D01*
X14793014Y-16264800D01*
X14807300Y-16279086D01*
X14821586Y-16307657D01*
X14821586Y-16336229D01*
X14807300Y-16379086D01*
X14635871Y-16550514D01*
X14821586Y-16550514D01*
X15078728Y-16250514D02*
X15021586Y-16250514D01*
X14993014Y-16264800D01*
X14978728Y-16279086D01*
X14950157Y-16321943D01*
X14935871Y-16379086D01*
X14935871Y-16493371D01*
X14950157Y-16521943D01*
X14964443Y-16536229D01*
X14993014Y-16550514D01*
X15050157Y-16550514D01*
X15078728Y-16536229D01*
X15093014Y-16521943D01*
X15107300Y-16493371D01*
X15107300Y-16421943D01*
X15093014Y-16393371D01*
X15078728Y-16379086D01*
X15050157Y-16364800D01*
X14993014Y-16364800D01*
X14964443Y-16379086D01*
X14950157Y-16393371D01*
X14935871Y-16421943D01*
X15221586Y-16250514D02*
X15221586Y-16307657D01*
X15335871Y-16250514D02*
X15335871Y-16307657D01*
X15778728Y-16664800D02*
X15764443Y-16650514D01*
X15735871Y-16607657D01*
X15721586Y-16579086D01*
X15707300Y-16536229D01*
X15693014Y-16464800D01*
X15693014Y-16407657D01*
X15707300Y-16336229D01*
X15721586Y-16293371D01*
X15735871Y-16264800D01*
X15764443Y-16221943D01*
X15778728Y-16207657D01*
X15878728Y-16279086D02*
X15893014Y-16264800D01*
X15921586Y-16250514D01*
X15993014Y-16250514D01*
X16021586Y-16264800D01*
X16035871Y-16279086D01*
X16050157Y-16307657D01*
X16050157Y-16336229D01*
X16035871Y-16379086D01*
X15864443Y-16550514D01*
X16050157Y-16550514D01*
X16407300Y-16550514D02*
X16407300Y-16250514D01*
X16535871Y-16550514D02*
X16535871Y-16393371D01*
X16521586Y-16364800D01*
X16493014Y-16350514D01*
X16450157Y-16350514D01*
X16421586Y-16364800D01*
X16407300Y-16379086D01*
X16721586Y-16550514D02*
X16693014Y-16536229D01*
X16678728Y-16521943D01*
X16664443Y-16493371D01*
X16664443Y-16407657D01*
X16678728Y-16379086D01*
X16693014Y-16364800D01*
X16721586Y-16350514D01*
X16764443Y-16350514D01*
X16793014Y-16364800D01*
X16807300Y-16379086D01*
X16821586Y-16407657D01*
X16821586Y-16493371D01*
X16807300Y-16521943D01*
X16793014Y-16536229D01*
X16764443Y-16550514D01*
X16721586Y-16550514D01*
X16993014Y-16550514D02*
X16964443Y-16536229D01*
X16950157Y-16507657D01*
X16950157Y-16250514D01*
X17221586Y-16536229D02*
X17193014Y-16550514D01*
X17135871Y-16550514D01*
X17107300Y-16536229D01*
X17093014Y-16507657D01*
X17093014Y-16393371D01*
X17107300Y-16364800D01*
X17135871Y-16350514D01*
X17193014Y-16350514D01*
X17221586Y-16364800D01*
X17235871Y-16393371D01*
X17235871Y-16421943D01*
X17093014Y-16450514D01*
X17350157Y-16536229D02*
X17378728Y-16550514D01*
X17435871Y-16550514D01*
X17464443Y-16536229D01*
X17478728Y-16507657D01*
X17478728Y-16493371D01*
X17464443Y-16464800D01*
X17435871Y-16450514D01*
X17393014Y-16450514D01*
X17364443Y-16436229D01*
X17350157Y-16407657D01*
X17350157Y-16393371D01*
X17364443Y-16364800D01*
X17393014Y-16350514D01*
X17435871Y-16350514D01*
X17464443Y-16364800D01*
X17578728Y-16664800D02*
X17593014Y-16650514D01*
X17621586Y-16607657D01*
X17635871Y-16579086D01*
X17650157Y-16536229D01*
X17664443Y-16464800D01*
X17664443Y-16407657D01*
X17650157Y-16336229D01*
X17635871Y-16293371D01*
X17621586Y-16264800D01*
X17593014Y-16221943D01*
X17578728Y-16207657D01*
M02*
