G04 #@! TF.GenerationSoftware,KiCad,Pcbnew,(5.1.6)-1*
G04 #@! TF.CreationDate,2023-11-11T21:49:05+01:00*
G04 #@! TF.ProjectId,15khzvgatester,31356b68-7a76-4676-9174-65737465722e,rev?*
G04 #@! TF.SameCoordinates,Original*
G04 #@! TF.FileFunction,Legend,Top*
G04 #@! TF.FilePolarity,Positive*
%FSLAX46Y46*%
G04 Gerber Fmt 4.6, Leading zero omitted, Abs format (unit mm)*
G04 Created by KiCad (PCBNEW (5.1.6)-1) date 2023-11-11 21:49:05*
%MOMM*%
%LPD*%
G01*
G04 APERTURE LIST*
%ADD10C,0.150000*%
%ADD11C,0.120000*%
%ADD12R,2.000000X2.000000*%
%ADD13C,2.000000*%
%ADD14R,1.700000X1.700000*%
%ADD15O,1.700000X1.700000*%
%ADD16C,1.397000*%
%ADD17C,0.100000*%
%ADD18R,1.998980X1.998980*%
%ADD19C,1.520000*%
%ADD20R,1.520000X1.520000*%
%ADD21C,4.000000*%
%ADD22C,1.600000*%
%ADD23R,1.600000X1.600000*%
%ADD24O,1.600000X1.600000*%
%ADD25O,1.727200X2.032000*%
%ADD26C,4.064000*%
G04 APERTURE END LIST*
D10*
X174100000Y-80653000D02*
X174100000Y-84209000D01*
X167750000Y-80653000D02*
X174100000Y-80653000D01*
X174100000Y-84209000D02*
X167750000Y-84209000D01*
X167750000Y-80653000D02*
X167750000Y-84209000D01*
X172838000Y-83192904D02*
X172790380Y-83288142D01*
X172790380Y-83431000D01*
X172838000Y-83573857D01*
X172933238Y-83669095D01*
X173028476Y-83716714D01*
X173218952Y-83764333D01*
X173361809Y-83764333D01*
X173552285Y-83716714D01*
X173647523Y-83669095D01*
X173742761Y-83573857D01*
X173790380Y-83431000D01*
X173790380Y-83335761D01*
X173742761Y-83192904D01*
X173695142Y-83145285D01*
X173361809Y-83145285D01*
X173361809Y-83335761D01*
X173790380Y-82716714D02*
X172790380Y-82716714D01*
X173790380Y-82145285D01*
X172790380Y-82145285D01*
X173790380Y-81669095D02*
X172790380Y-81669095D01*
X172790380Y-81431000D01*
X172838000Y-81288142D01*
X172933238Y-81192904D01*
X173028476Y-81145285D01*
X173218952Y-81097666D01*
X173361809Y-81097666D01*
X173552285Y-81145285D01*
X173647523Y-81192904D01*
X173742761Y-81288142D01*
X173790380Y-81431000D01*
X173790380Y-81669095D01*
X168266000Y-83192904D02*
X168218380Y-83288142D01*
X168218380Y-83431000D01*
X168266000Y-83573857D01*
X168361238Y-83669095D01*
X168456476Y-83716714D01*
X168646952Y-83764333D01*
X168789809Y-83764333D01*
X168980285Y-83716714D01*
X169075523Y-83669095D01*
X169170761Y-83573857D01*
X169218380Y-83431000D01*
X169218380Y-83335761D01*
X169170761Y-83192904D01*
X169123142Y-83145285D01*
X168789809Y-83145285D01*
X168789809Y-83335761D01*
X169218380Y-82716714D02*
X168218380Y-82716714D01*
X169218380Y-82145285D01*
X168218380Y-82145285D01*
X169218380Y-81669095D02*
X168218380Y-81669095D01*
X168218380Y-81431000D01*
X168266000Y-81288142D01*
X168361238Y-81192904D01*
X168456476Y-81145285D01*
X168646952Y-81097666D01*
X168789809Y-81097666D01*
X168980285Y-81145285D01*
X169075523Y-81192904D01*
X169170761Y-81288142D01*
X169218380Y-81431000D01*
X169218380Y-81669095D01*
X169996428Y-81534571D02*
X170139285Y-81582190D01*
X170186904Y-81629809D01*
X170234523Y-81725047D01*
X170234523Y-81867904D01*
X170186904Y-81963142D01*
X170139285Y-82010761D01*
X170044047Y-82058380D01*
X169663095Y-82058380D01*
X169663095Y-81058380D01*
X169996428Y-81058380D01*
X170091666Y-81106000D01*
X170139285Y-81153619D01*
X170186904Y-81248857D01*
X170186904Y-81344095D01*
X170139285Y-81439333D01*
X170091666Y-81486952D01*
X169996428Y-81534571D01*
X169663095Y-81534571D01*
X171186904Y-81106000D02*
X171091666Y-81058380D01*
X170948809Y-81058380D01*
X170805952Y-81106000D01*
X170710714Y-81201238D01*
X170663095Y-81296476D01*
X170615476Y-81486952D01*
X170615476Y-81629809D01*
X170663095Y-81820285D01*
X170710714Y-81915523D01*
X170805952Y-82010761D01*
X170948809Y-82058380D01*
X171044047Y-82058380D01*
X171186904Y-82010761D01*
X171234523Y-81963142D01*
X171234523Y-81629809D01*
X171044047Y-81629809D01*
X172234523Y-82058380D02*
X171901190Y-81582190D01*
X171663095Y-82058380D02*
X171663095Y-81058380D01*
X172044047Y-81058380D01*
X172139285Y-81106000D01*
X172186904Y-81153619D01*
X172234523Y-81248857D01*
X172234523Y-81391714D01*
X172186904Y-81486952D01*
X172139285Y-81534571D01*
X172044047Y-81582190D01*
X171663095Y-81582190D01*
X169567857Y-82708380D02*
X169901190Y-83708380D01*
X170234523Y-82708380D01*
X171139285Y-83613142D02*
X171091666Y-83660761D01*
X170948809Y-83708380D01*
X170853571Y-83708380D01*
X170710714Y-83660761D01*
X170615476Y-83565523D01*
X170567857Y-83470285D01*
X170520238Y-83279809D01*
X170520238Y-83136952D01*
X170567857Y-82946476D01*
X170615476Y-82851238D01*
X170710714Y-82756000D01*
X170853571Y-82708380D01*
X170948809Y-82708380D01*
X171091666Y-82756000D01*
X171139285Y-82803619D01*
X171567857Y-83708380D02*
X171567857Y-82708380D01*
X171567857Y-83184571D02*
X172139285Y-83184571D01*
X172139285Y-83708380D02*
X172139285Y-82708380D01*
X153551566Y-96142180D02*
X153551566Y-95142180D01*
X153551566Y-95618371D02*
X154122995Y-95618371D01*
X154122995Y-96142180D02*
X154122995Y-95142180D01*
X154599185Y-95761228D02*
X155361090Y-95761228D01*
X154980138Y-96142180D02*
X154980138Y-95380276D01*
X155694423Y-95142180D02*
X156027757Y-96142180D01*
X156361090Y-95142180D01*
X146547528Y-92554442D02*
X146499909Y-92602061D01*
X146357052Y-92649680D01*
X146261814Y-92649680D01*
X146118957Y-92602061D01*
X146023719Y-92506823D01*
X145976100Y-92411585D01*
X145928480Y-92221109D01*
X145928480Y-92078252D01*
X145976100Y-91887776D01*
X146023719Y-91792538D01*
X146118957Y-91697300D01*
X146261814Y-91649680D01*
X146357052Y-91649680D01*
X146499909Y-91697300D01*
X146547528Y-91744919D01*
X146928480Y-92602061D02*
X147071338Y-92649680D01*
X147309433Y-92649680D01*
X147404671Y-92602061D01*
X147452290Y-92554442D01*
X147499909Y-92459204D01*
X147499909Y-92363966D01*
X147452290Y-92268728D01*
X147404671Y-92221109D01*
X147309433Y-92173490D01*
X147118957Y-92125871D01*
X147023719Y-92078252D01*
X146976100Y-92030633D01*
X146928480Y-91935395D01*
X146928480Y-91840157D01*
X146976100Y-91744919D01*
X147023719Y-91697300D01*
X147118957Y-91649680D01*
X147357052Y-91649680D01*
X147499909Y-91697300D01*
X147833242Y-91983014D02*
X148071338Y-92649680D01*
X148309433Y-91983014D02*
X148071338Y-92649680D01*
X147976100Y-92887776D01*
X147928480Y-92935395D01*
X147833242Y-92983014D01*
X148690385Y-91983014D02*
X148690385Y-92649680D01*
X148690385Y-92078252D02*
X148738004Y-92030633D01*
X148833242Y-91983014D01*
X148976100Y-91983014D01*
X149071338Y-92030633D01*
X149118957Y-92125871D01*
X149118957Y-92649680D01*
X150023719Y-92602061D02*
X149928480Y-92649680D01*
X149738004Y-92649680D01*
X149642766Y-92602061D01*
X149595147Y-92554442D01*
X149547528Y-92459204D01*
X149547528Y-92173490D01*
X149595147Y-92078252D01*
X149642766Y-92030633D01*
X149738004Y-91983014D01*
X149928480Y-91983014D01*
X150023719Y-92030633D01*
X139390380Y-120999285D02*
X139390380Y-121570714D01*
X139390380Y-121285000D02*
X138390380Y-121285000D01*
X138533238Y-121380238D01*
X138628476Y-121475476D01*
X138676095Y-121570714D01*
D11*
X152848000Y-79831000D02*
X152848000Y-81101000D01*
X154178000Y-79831000D02*
X152848000Y-79831000D01*
X155448000Y-82431000D02*
X155448000Y-79831000D01*
X152848000Y-82431000D02*
X155448000Y-82431000D01*
X152848000Y-85031000D02*
X152848000Y-82431000D01*
X165668000Y-85031000D02*
X152848000Y-85031000D01*
X165668000Y-79831000D02*
X165668000Y-85031000D01*
X155448000Y-79831000D02*
X165668000Y-79831000D01*
X150418000Y-97477000D02*
X153078000Y-97477000D01*
X150418000Y-92337000D02*
X150418000Y-97477000D01*
X153078000Y-92337000D02*
X153078000Y-97477000D01*
X150418000Y-92337000D02*
X153078000Y-92337000D01*
X150418000Y-91067000D02*
X150418000Y-89737000D01*
X150418000Y-89737000D02*
X151748000Y-89737000D01*
X140318000Y-86241000D02*
X140318000Y-78621000D01*
X140318000Y-78621000D02*
X140618000Y-78621000D01*
X147938000Y-78621000D02*
X147938000Y-86241000D01*
X140318000Y-86241000D02*
X140618000Y-86241000D01*
X142558000Y-78621000D02*
X145698000Y-78621000D01*
X142558000Y-86241000D02*
X145698000Y-86241000D01*
X147638000Y-78621000D02*
X147938000Y-78621000D01*
X147638000Y-86241000D02*
X147938000Y-86241000D01*
X146668000Y-82431000D02*
G75*
G03*
X146668000Y-82431000I-2540000J0D01*
G01*
D10*
X158098000Y-109802040D02*
X158197060Y-109802040D01*
X158197060Y-109802040D02*
X158098000Y-109802040D01*
X158098000Y-109802040D02*
X157998940Y-109802040D01*
X158098000Y-108399960D02*
X157998940Y-108399960D01*
X158098000Y-108399960D02*
X158197060Y-108399960D01*
X158098000Y-119327040D02*
X158197060Y-119327040D01*
X158197060Y-119327040D02*
X158098000Y-119327040D01*
X158098000Y-119327040D02*
X157998940Y-119327040D01*
X158098000Y-117924960D02*
X157998940Y-117924960D01*
X158098000Y-117924960D02*
X158197060Y-117924960D01*
X148639040Y-99497260D02*
X148639040Y-99398200D01*
X148639040Y-99398200D02*
X148639040Y-99497260D01*
X148639040Y-99497260D02*
X148639040Y-99596320D01*
X147236960Y-99497260D02*
X147236960Y-99596320D01*
X147236960Y-99497260D02*
X147236960Y-99398200D01*
X144061960Y-99497260D02*
X144061960Y-99596320D01*
X144061960Y-99596320D02*
X144061960Y-99497260D01*
X144061960Y-99497260D02*
X144061960Y-99398200D01*
X145464040Y-99497260D02*
X145464040Y-99398200D01*
X145464040Y-99497260D02*
X145464040Y-99596320D01*
X158098000Y-112977040D02*
X158197060Y-112977040D01*
X158197060Y-112977040D02*
X158098000Y-112977040D01*
X158098000Y-112977040D02*
X157998940Y-112977040D01*
X158098000Y-111574960D02*
X157998940Y-111574960D01*
X158098000Y-111574960D02*
X158197060Y-111574960D01*
X158098000Y-116152040D02*
X158197060Y-116152040D01*
X158197060Y-116152040D02*
X158098000Y-116152040D01*
X158098000Y-116152040D02*
X157998940Y-116152040D01*
X158098000Y-114749960D02*
X157998940Y-114749960D01*
X158098000Y-114749960D02*
X158197060Y-114749960D01*
X158098000Y-105224960D02*
X157998940Y-105224960D01*
X157998940Y-105224960D02*
X158098000Y-105224960D01*
X158098000Y-105224960D02*
X158197060Y-105224960D01*
X158098000Y-106627040D02*
X158197060Y-106627040D01*
X158098000Y-106627040D02*
X157998940Y-106627040D01*
X158098000Y-102049960D02*
X157998940Y-102049960D01*
X157998940Y-102049960D02*
X158098000Y-102049960D01*
X158098000Y-102049960D02*
X158197060Y-102049960D01*
X158098000Y-103452040D02*
X158197060Y-103452040D01*
X158098000Y-103452040D02*
X157998940Y-103452040D01*
X158098000Y-98874960D02*
X157998940Y-98874960D01*
X157998940Y-98874960D02*
X158098000Y-98874960D01*
X158098000Y-98874960D02*
X158197060Y-98874960D01*
X158098000Y-100277040D02*
X158197060Y-100277040D01*
X158098000Y-100277040D02*
X157998940Y-100277040D01*
D11*
X149103000Y-107251000D02*
X145503000Y-107251000D01*
X149627184Y-107978205D02*
G75*
G03*
X149103000Y-107251000I-2324184J-1122795D01*
G01*
X149659400Y-110199807D02*
G75*
G02*
X147303000Y-111701000I-2356400J1098807D01*
G01*
X144946600Y-110199807D02*
G75*
G03*
X147303000Y-111701000I2356400J1098807D01*
G01*
X144978816Y-107978205D02*
G75*
G02*
X145503000Y-107251000I2324184J-1122795D01*
G01*
X149103000Y-113601000D02*
X145503000Y-113601000D01*
X149627184Y-114328205D02*
G75*
G03*
X149103000Y-113601000I-2324184J-1122795D01*
G01*
X149659400Y-116549807D02*
G75*
G02*
X147303000Y-118051000I-2356400J1098807D01*
G01*
X144946600Y-116549807D02*
G75*
G03*
X147303000Y-118051000I2356400J1098807D01*
G01*
X144978816Y-114328205D02*
G75*
G02*
X145503000Y-113601000I2324184J-1122795D01*
G01*
X164886675Y-100461000D02*
X164453662Y-100711000D01*
X164453662Y-100211000D02*
X164886675Y-100461000D01*
X164453662Y-100711000D02*
X164453662Y-100211000D01*
X165348000Y-89291000D02*
X179238000Y-89291000D01*
X165348000Y-120261000D02*
X165348000Y-89291000D01*
X179238000Y-120261000D02*
X165348000Y-120261000D01*
X161428000Y-94921000D02*
X161428000Y-92801000D01*
X161428000Y-92801000D02*
X157308000Y-92801000D01*
X157308000Y-92801000D02*
X157308000Y-94921000D01*
X157308000Y-94921000D02*
X161428000Y-94921000D01*
X162198000Y-93861000D02*
X161428000Y-93861000D01*
X156538000Y-93861000D02*
X157308000Y-93861000D01*
X160768000Y-94921000D02*
X160768000Y-92801000D01*
X161428000Y-91746000D02*
X161428000Y-89626000D01*
X161428000Y-89626000D02*
X157308000Y-89626000D01*
X157308000Y-89626000D02*
X157308000Y-91746000D01*
X157308000Y-91746000D02*
X161428000Y-91746000D01*
X162198000Y-90686000D02*
X161428000Y-90686000D01*
X156538000Y-90686000D02*
X157308000Y-90686000D01*
X160768000Y-91746000D02*
X160768000Y-89626000D01*
D10*
X140208000Y-125095000D02*
X157988000Y-125095000D01*
X157988000Y-125095000D02*
X157988000Y-122555000D01*
X157988000Y-122555000D02*
X140208000Y-122555000D01*
X137388000Y-125375000D02*
X138938000Y-125375000D01*
X140208000Y-125095000D02*
X140208000Y-122555000D01*
X138938000Y-122275000D02*
X137388000Y-122275000D01*
X137388000Y-122275000D02*
X137388000Y-125375000D01*
X163068000Y-125095000D02*
X175768000Y-125095000D01*
X175768000Y-125095000D02*
X175768000Y-122555000D01*
X175768000Y-122555000D02*
X163068000Y-122555000D01*
X160248000Y-125375000D02*
X161798000Y-125375000D01*
X163068000Y-125095000D02*
X163068000Y-122555000D01*
X161798000Y-122275000D02*
X160248000Y-122275000D01*
X160248000Y-122275000D02*
X160248000Y-125375000D01*
X131064000Y-76835000D02*
X153924000Y-76835000D01*
X153924000Y-76835000D02*
X153924000Y-74295000D01*
X153924000Y-74295000D02*
X131064000Y-74295000D01*
X128244000Y-77115000D02*
X129794000Y-77115000D01*
X131064000Y-76835000D02*
X131064000Y-74295000D01*
X129794000Y-74015000D02*
X128244000Y-74015000D01*
X128244000Y-74015000D02*
X128244000Y-77115000D01*
X157988000Y-76835000D02*
X175768000Y-76835000D01*
X175768000Y-76835000D02*
X175768000Y-74295000D01*
X175768000Y-74295000D02*
X157988000Y-74295000D01*
X155168000Y-77115000D02*
X156718000Y-77115000D01*
X157988000Y-76835000D02*
X157988000Y-74295000D01*
X156718000Y-74015000D02*
X155168000Y-74015000D01*
X155168000Y-74015000D02*
X155168000Y-77115000D01*
X127254000Y-123825000D02*
G75*
G03*
X127254000Y-123825000I-2286000J0D01*
G01*
X179324000Y-118745000D02*
G75*
G03*
X179324000Y-118745000I-2286000J0D01*
G01*
X128524000Y-75565000D02*
G75*
G03*
X128524000Y-75565000I-2286000J0D01*
G01*
X179324000Y-90805000D02*
G75*
G03*
X179324000Y-90805000I-2286000J0D01*
G01*
X153294266Y-78390880D02*
X153294266Y-79105166D01*
X153246647Y-79248023D01*
X153151409Y-79343261D01*
X153008552Y-79390880D01*
X152913314Y-79390880D01*
X153675219Y-78390880D02*
X154294266Y-78390880D01*
X153960933Y-78771833D01*
X154103790Y-78771833D01*
X154199028Y-78819452D01*
X154246647Y-78867071D01*
X154294266Y-78962309D01*
X154294266Y-79200404D01*
X154246647Y-79295642D01*
X154199028Y-79343261D01*
X154103790Y-79390880D01*
X153818076Y-79390880D01*
X153722838Y-79343261D01*
X153675219Y-79295642D01*
X151414666Y-88189380D02*
X151414666Y-88903666D01*
X151367047Y-89046523D01*
X151271809Y-89141761D01*
X151128952Y-89189380D01*
X151033714Y-89189380D01*
X151843238Y-88284619D02*
X151890857Y-88237000D01*
X151986095Y-88189380D01*
X152224190Y-88189380D01*
X152319428Y-88237000D01*
X152367047Y-88284619D01*
X152414666Y-88379857D01*
X152414666Y-88475095D01*
X152367047Y-88617952D01*
X151795619Y-89189380D01*
X152414666Y-89189380D01*
X148458866Y-85477361D02*
X148601723Y-85524980D01*
X148839819Y-85524980D01*
X148935057Y-85477361D01*
X148982676Y-85429742D01*
X149030295Y-85334504D01*
X149030295Y-85239266D01*
X148982676Y-85144028D01*
X148935057Y-85096409D01*
X148839819Y-85048790D01*
X148649342Y-85001171D01*
X148554104Y-84953552D01*
X148506485Y-84905933D01*
X148458866Y-84810695D01*
X148458866Y-84715457D01*
X148506485Y-84620219D01*
X148554104Y-84572600D01*
X148649342Y-84524980D01*
X148887438Y-84524980D01*
X149030295Y-84572600D01*
X149363628Y-84524980D02*
X149601723Y-85524980D01*
X149792200Y-84810695D01*
X149982676Y-85524980D01*
X150220771Y-84524980D01*
X151125533Y-85524980D02*
X150554104Y-85524980D01*
X150839819Y-85524980D02*
X150839819Y-84524980D01*
X150744580Y-84667838D01*
X150649342Y-84763076D01*
X150554104Y-84810695D01*
X157931333Y-111191680D02*
X157598000Y-110715490D01*
X157359904Y-111191680D02*
X157359904Y-110191680D01*
X157740857Y-110191680D01*
X157836095Y-110239300D01*
X157883714Y-110286919D01*
X157931333Y-110382157D01*
X157931333Y-110525014D01*
X157883714Y-110620252D01*
X157836095Y-110667871D01*
X157740857Y-110715490D01*
X157359904Y-110715490D01*
X158407523Y-111191680D02*
X158598000Y-111191680D01*
X158693238Y-111144061D01*
X158740857Y-111096442D01*
X158836095Y-110953585D01*
X158883714Y-110763109D01*
X158883714Y-110382157D01*
X158836095Y-110286919D01*
X158788476Y-110239300D01*
X158693238Y-110191680D01*
X158502761Y-110191680D01*
X158407523Y-110239300D01*
X158359904Y-110286919D01*
X158312285Y-110382157D01*
X158312285Y-110620252D01*
X158359904Y-110715490D01*
X158407523Y-110763109D01*
X158502761Y-110810728D01*
X158693238Y-110810728D01*
X158788476Y-110763109D01*
X158836095Y-110715490D01*
X158883714Y-110620252D01*
X157931333Y-120729380D02*
X157598000Y-120253190D01*
X157359904Y-120729380D02*
X157359904Y-119729380D01*
X157740857Y-119729380D01*
X157836095Y-119777000D01*
X157883714Y-119824619D01*
X157931333Y-119919857D01*
X157931333Y-120062714D01*
X157883714Y-120157952D01*
X157836095Y-120205571D01*
X157740857Y-120253190D01*
X157359904Y-120253190D01*
X158502761Y-120157952D02*
X158407523Y-120110333D01*
X158359904Y-120062714D01*
X158312285Y-119967476D01*
X158312285Y-119919857D01*
X158359904Y-119824619D01*
X158407523Y-119777000D01*
X158502761Y-119729380D01*
X158693238Y-119729380D01*
X158788476Y-119777000D01*
X158836095Y-119824619D01*
X158883714Y-119919857D01*
X158883714Y-119967476D01*
X158836095Y-120062714D01*
X158788476Y-120110333D01*
X158693238Y-120157952D01*
X158502761Y-120157952D01*
X158407523Y-120205571D01*
X158359904Y-120253190D01*
X158312285Y-120348428D01*
X158312285Y-120538904D01*
X158359904Y-120634142D01*
X158407523Y-120681761D01*
X158502761Y-120729380D01*
X158693238Y-120729380D01*
X158788476Y-120681761D01*
X158836095Y-120634142D01*
X158883714Y-120538904D01*
X158883714Y-120348428D01*
X158836095Y-120253190D01*
X158788476Y-120205571D01*
X158693238Y-120157952D01*
X150282680Y-99666466D02*
X149806490Y-99999800D01*
X150282680Y-100237895D02*
X149282680Y-100237895D01*
X149282680Y-99856942D01*
X149330300Y-99761704D01*
X149377919Y-99714085D01*
X149473157Y-99666466D01*
X149616014Y-99666466D01*
X149711252Y-99714085D01*
X149758871Y-99761704D01*
X149806490Y-99856942D01*
X149806490Y-100237895D01*
X149282680Y-99333133D02*
X149282680Y-98666466D01*
X150282680Y-99095038D01*
X143297680Y-99653766D02*
X142821490Y-99987100D01*
X143297680Y-100225195D02*
X142297680Y-100225195D01*
X142297680Y-99844242D01*
X142345300Y-99749004D01*
X142392919Y-99701385D01*
X142488157Y-99653766D01*
X142631014Y-99653766D01*
X142726252Y-99701385D01*
X142773871Y-99749004D01*
X142821490Y-99844242D01*
X142821490Y-100225195D01*
X142297680Y-98796623D02*
X142297680Y-98987100D01*
X142345300Y-99082338D01*
X142392919Y-99129957D01*
X142535776Y-99225195D01*
X142726252Y-99272814D01*
X143107204Y-99272814D01*
X143202442Y-99225195D01*
X143250061Y-99177576D01*
X143297680Y-99082338D01*
X143297680Y-98891861D01*
X143250061Y-98796623D01*
X143202442Y-98749004D01*
X143107204Y-98701385D01*
X142869109Y-98701385D01*
X142773871Y-98749004D01*
X142726252Y-98796623D01*
X142678633Y-98891861D01*
X142678633Y-99082338D01*
X142726252Y-99177576D01*
X142773871Y-99225195D01*
X142869109Y-99272814D01*
X157944033Y-114379380D02*
X157610700Y-113903190D01*
X157372604Y-114379380D02*
X157372604Y-113379380D01*
X157753557Y-113379380D01*
X157848795Y-113427000D01*
X157896414Y-113474619D01*
X157944033Y-113569857D01*
X157944033Y-113712714D01*
X157896414Y-113807952D01*
X157848795Y-113855571D01*
X157753557Y-113903190D01*
X157372604Y-113903190D01*
X158848795Y-113379380D02*
X158372604Y-113379380D01*
X158324985Y-113855571D01*
X158372604Y-113807952D01*
X158467842Y-113760333D01*
X158705938Y-113760333D01*
X158801176Y-113807952D01*
X158848795Y-113855571D01*
X158896414Y-113950809D01*
X158896414Y-114188904D01*
X158848795Y-114284142D01*
X158801176Y-114331761D01*
X158705938Y-114379380D01*
X158467842Y-114379380D01*
X158372604Y-114331761D01*
X158324985Y-114284142D01*
X157931333Y-117541680D02*
X157598000Y-117065490D01*
X157359904Y-117541680D02*
X157359904Y-116541680D01*
X157740857Y-116541680D01*
X157836095Y-116589300D01*
X157883714Y-116636919D01*
X157931333Y-116732157D01*
X157931333Y-116875014D01*
X157883714Y-116970252D01*
X157836095Y-117017871D01*
X157740857Y-117065490D01*
X157359904Y-117065490D01*
X158788476Y-116875014D02*
X158788476Y-117541680D01*
X158550380Y-116494061D02*
X158312285Y-117208347D01*
X158931333Y-117208347D01*
X157931333Y-108029380D02*
X157598000Y-107553190D01*
X157359904Y-108029380D02*
X157359904Y-107029380D01*
X157740857Y-107029380D01*
X157836095Y-107077000D01*
X157883714Y-107124619D01*
X157931333Y-107219857D01*
X157931333Y-107362714D01*
X157883714Y-107457952D01*
X157836095Y-107505571D01*
X157740857Y-107553190D01*
X157359904Y-107553190D01*
X158264666Y-107029380D02*
X158883714Y-107029380D01*
X158550380Y-107410333D01*
X158693238Y-107410333D01*
X158788476Y-107457952D01*
X158836095Y-107505571D01*
X158883714Y-107600809D01*
X158883714Y-107838904D01*
X158836095Y-107934142D01*
X158788476Y-107981761D01*
X158693238Y-108029380D01*
X158407523Y-108029380D01*
X158312285Y-107981761D01*
X158264666Y-107934142D01*
X157918633Y-104841680D02*
X157585300Y-104365490D01*
X157347204Y-104841680D02*
X157347204Y-103841680D01*
X157728157Y-103841680D01*
X157823395Y-103889300D01*
X157871014Y-103936919D01*
X157918633Y-104032157D01*
X157918633Y-104175014D01*
X157871014Y-104270252D01*
X157823395Y-104317871D01*
X157728157Y-104365490D01*
X157347204Y-104365490D01*
X158299585Y-103936919D02*
X158347204Y-103889300D01*
X158442442Y-103841680D01*
X158680538Y-103841680D01*
X158775776Y-103889300D01*
X158823395Y-103936919D01*
X158871014Y-104032157D01*
X158871014Y-104127395D01*
X158823395Y-104270252D01*
X158251966Y-104841680D01*
X158871014Y-104841680D01*
X157893233Y-101666680D02*
X157559900Y-101190490D01*
X157321804Y-101666680D02*
X157321804Y-100666680D01*
X157702757Y-100666680D01*
X157797995Y-100714300D01*
X157845614Y-100761919D01*
X157893233Y-100857157D01*
X157893233Y-101000014D01*
X157845614Y-101095252D01*
X157797995Y-101142871D01*
X157702757Y-101190490D01*
X157321804Y-101190490D01*
X158845614Y-101666680D02*
X158274185Y-101666680D01*
X158559900Y-101666680D02*
X158559900Y-100666680D01*
X158464661Y-100809538D01*
X158369423Y-100904776D01*
X158274185Y-100952395D01*
X142280161Y-109623219D02*
X142184923Y-109575600D01*
X142089685Y-109480361D01*
X141946828Y-109337504D01*
X141851590Y-109289885D01*
X141756352Y-109289885D01*
X141803971Y-109527980D02*
X141708733Y-109480361D01*
X141613495Y-109385123D01*
X141565876Y-109194647D01*
X141565876Y-108861314D01*
X141613495Y-108670838D01*
X141708733Y-108575600D01*
X141803971Y-108527980D01*
X141994447Y-108527980D01*
X142089685Y-108575600D01*
X142184923Y-108670838D01*
X142232542Y-108861314D01*
X142232542Y-109194647D01*
X142184923Y-109385123D01*
X142089685Y-109480361D01*
X141994447Y-109527980D01*
X141803971Y-109527980D01*
X142613495Y-108623219D02*
X142661114Y-108575600D01*
X142756352Y-108527980D01*
X142994447Y-108527980D01*
X143089685Y-108575600D01*
X143137304Y-108623219D01*
X143184923Y-108718457D01*
X143184923Y-108813695D01*
X143137304Y-108956552D01*
X142565876Y-109527980D01*
X143184923Y-109527980D01*
X142445261Y-116062119D02*
X142350023Y-116014500D01*
X142254785Y-115919261D01*
X142111928Y-115776404D01*
X142016690Y-115728785D01*
X141921452Y-115728785D01*
X141969071Y-115966880D02*
X141873833Y-115919261D01*
X141778595Y-115824023D01*
X141730976Y-115633547D01*
X141730976Y-115300214D01*
X141778595Y-115109738D01*
X141873833Y-115014500D01*
X141969071Y-114966880D01*
X142159547Y-114966880D01*
X142254785Y-115014500D01*
X142350023Y-115109738D01*
X142397642Y-115300214D01*
X142397642Y-115633547D01*
X142350023Y-115824023D01*
X142254785Y-115919261D01*
X142159547Y-115966880D01*
X141969071Y-115966880D01*
X143350023Y-115966880D02*
X142778595Y-115966880D01*
X143064309Y-115966880D02*
X143064309Y-114966880D01*
X142969071Y-115109738D01*
X142873833Y-115204976D01*
X142778595Y-115252595D01*
X172471266Y-87738080D02*
X172471266Y-88452366D01*
X172423647Y-88595223D01*
X172328409Y-88690461D01*
X172185552Y-88738080D01*
X172090314Y-88738080D01*
X173471266Y-88738080D02*
X172899838Y-88738080D01*
X173185552Y-88738080D02*
X173185552Y-87738080D01*
X173090314Y-87880938D01*
X172995076Y-87976176D01*
X172899838Y-88023795D01*
X158629904Y-96373380D02*
X158629904Y-95373380D01*
X158868000Y-95373380D01*
X159010857Y-95421000D01*
X159106095Y-95516238D01*
X159153714Y-95611476D01*
X159201333Y-95801952D01*
X159201333Y-95944809D01*
X159153714Y-96135285D01*
X159106095Y-96230523D01*
X159010857Y-96325761D01*
X158868000Y-96373380D01*
X158629904Y-96373380D01*
X159582285Y-95468619D02*
X159629904Y-95421000D01*
X159725142Y-95373380D01*
X159963238Y-95373380D01*
X160058476Y-95421000D01*
X160106095Y-95468619D01*
X160153714Y-95563857D01*
X160153714Y-95659095D01*
X160106095Y-95801952D01*
X159534666Y-96373380D01*
X160153714Y-96373380D01*
X158629904Y-88979380D02*
X158629904Y-87979380D01*
X158868000Y-87979380D01*
X159010857Y-88027000D01*
X159106095Y-88122238D01*
X159153714Y-88217476D01*
X159201333Y-88407952D01*
X159201333Y-88550809D01*
X159153714Y-88741285D01*
X159106095Y-88836523D01*
X159010857Y-88931761D01*
X158868000Y-88979380D01*
X158629904Y-88979380D01*
X160153714Y-88979380D02*
X159582285Y-88979380D01*
X159868000Y-88979380D02*
X159868000Y-87979380D01*
X159772761Y-88122238D01*
X159677523Y-88217476D01*
X159582285Y-88265095D01*
X142043704Y-121923180D02*
X142043704Y-120923180D01*
X142424657Y-120923180D01*
X142519895Y-120970800D01*
X142567514Y-121018419D01*
X142615133Y-121113657D01*
X142615133Y-121256514D01*
X142567514Y-121351752D01*
X142519895Y-121399371D01*
X142424657Y-121446990D01*
X142043704Y-121446990D01*
X143567514Y-121923180D02*
X142996085Y-121923180D01*
X143281800Y-121923180D02*
X143281800Y-120923180D01*
X143186561Y-121066038D01*
X143091323Y-121161276D01*
X142996085Y-121208895D01*
X163036804Y-121885080D02*
X163036804Y-120885080D01*
X163417757Y-120885080D01*
X163512995Y-120932700D01*
X163560614Y-120980319D01*
X163608233Y-121075557D01*
X163608233Y-121218414D01*
X163560614Y-121313652D01*
X163512995Y-121361271D01*
X163417757Y-121408890D01*
X163036804Y-121408890D01*
X163989185Y-120980319D02*
X164036804Y-120932700D01*
X164132042Y-120885080D01*
X164370138Y-120885080D01*
X164465376Y-120932700D01*
X164512995Y-120980319D01*
X164560614Y-121075557D01*
X164560614Y-121170795D01*
X164512995Y-121313652D01*
X163941566Y-121885080D01*
X164560614Y-121885080D01*
X148876304Y-78501880D02*
X148876304Y-77501880D01*
X149257257Y-77501880D01*
X149352495Y-77549500D01*
X149400114Y-77597119D01*
X149447733Y-77692357D01*
X149447733Y-77835214D01*
X149400114Y-77930452D01*
X149352495Y-77978071D01*
X149257257Y-78025690D01*
X148876304Y-78025690D01*
X149781066Y-77501880D02*
X150400114Y-77501880D01*
X150066780Y-77882833D01*
X150209638Y-77882833D01*
X150304876Y-77930452D01*
X150352495Y-77978071D01*
X150400114Y-78073309D01*
X150400114Y-78311404D01*
X150352495Y-78406642D01*
X150304876Y-78454261D01*
X150209638Y-78501880D01*
X149923923Y-78501880D01*
X149828685Y-78454261D01*
X149781066Y-78406642D01*
X172384004Y-78273280D02*
X172384004Y-77273280D01*
X172764957Y-77273280D01*
X172860195Y-77320900D01*
X172907814Y-77368519D01*
X172955433Y-77463757D01*
X172955433Y-77606614D01*
X172907814Y-77701852D01*
X172860195Y-77749471D01*
X172764957Y-77797090D01*
X172384004Y-77797090D01*
X173812576Y-77606614D02*
X173812576Y-78273280D01*
X173574480Y-77225661D02*
X173336385Y-77939947D01*
X173955433Y-77939947D01*
%LPC*%
D12*
X122174000Y-121285000D03*
D13*
X127254000Y-121285000D03*
D12*
X114554000Y-93345000D03*
X117094000Y-93345000D03*
X119634000Y-93345000D03*
X119634000Y-90805000D03*
X117094000Y-90805000D03*
X114554000Y-90805000D03*
X114554000Y-88265000D03*
X117094000Y-88265000D03*
X119634000Y-88265000D03*
X119634000Y-85725000D03*
X117094000Y-85725000D03*
X114554000Y-85725000D03*
X114554000Y-83185000D03*
X117094000Y-83185000D03*
X119634000Y-83185000D03*
X114554000Y-116205000D03*
X117094000Y-116205000D03*
X119634000Y-116205000D03*
X119634000Y-118745000D03*
X117094000Y-118745000D03*
X114554000Y-118745000D03*
X117094000Y-121285000D03*
X114554000Y-121285000D03*
X114554000Y-123825000D03*
X117094000Y-123825000D03*
X119634000Y-123825000D03*
X119634000Y-121285000D03*
X122174000Y-118745000D03*
X122174000Y-116205000D03*
X122174000Y-113665000D03*
X119634000Y-113665000D03*
X117094000Y-113665000D03*
X114554000Y-113665000D03*
X122174000Y-83185000D03*
X122174000Y-85725000D03*
X122174000Y-88265000D03*
X122174000Y-90805000D03*
X122174000Y-93345000D03*
X122174000Y-95885000D03*
X119634000Y-95885000D03*
X117094000Y-95885000D03*
X114554000Y-95885000D03*
X122174000Y-80645000D03*
X119634000Y-80645000D03*
X117094000Y-80645000D03*
X114554000Y-80645000D03*
X124714000Y-113665000D03*
X124714000Y-116205000D03*
X124714000Y-118745000D03*
X127254000Y-118745000D03*
X134874000Y-123825000D03*
X132334000Y-123825000D03*
X129794000Y-123825000D03*
X134874000Y-118745000D03*
X114554000Y-111125000D03*
X114554000Y-108585000D03*
X114554000Y-106045000D03*
X114554000Y-103505000D03*
X114554000Y-100965000D03*
X114554000Y-98425000D03*
X124714000Y-95885000D03*
X124714000Y-93345000D03*
X124714000Y-90805000D03*
X124714000Y-88265000D03*
X124714000Y-85725000D03*
X124714000Y-83185000D03*
X124714000Y-80645000D03*
X127254000Y-80645000D03*
X117094000Y-78105000D03*
X114554000Y-78105000D03*
X117094000Y-75565000D03*
X114554000Y-75565000D03*
X122174000Y-78105000D03*
X119634000Y-78105000D03*
X122174000Y-75565000D03*
X119634000Y-75565000D03*
X119634000Y-111125000D03*
X117094000Y-111125000D03*
X119634000Y-108585000D03*
X117094000Y-108585000D03*
X119634000Y-106045000D03*
X117094000Y-106045000D03*
X119634000Y-103505000D03*
X117094000Y-103505000D03*
X119634000Y-100965000D03*
X117094000Y-100965000D03*
X119634000Y-98425000D03*
X117094000Y-98425000D03*
X124714000Y-111125000D03*
X122174000Y-111125000D03*
X124714000Y-108585000D03*
X122174000Y-108585000D03*
X124714000Y-106045000D03*
X122174000Y-106045000D03*
X124714000Y-103505000D03*
X122174000Y-103505000D03*
X124714000Y-100965000D03*
X122174000Y-100965000D03*
X124714000Y-98425000D03*
X122174000Y-98425000D03*
X132334000Y-121285000D03*
X129794000Y-121285000D03*
X132334000Y-118745000D03*
X129794000Y-118745000D03*
X129794000Y-116205000D03*
X127254000Y-116205000D03*
X129794000Y-113665000D03*
X127254000Y-113665000D03*
X129794000Y-111125000D03*
X127254000Y-111125000D03*
X129794000Y-108585000D03*
X127254000Y-108585000D03*
X129794000Y-106045000D03*
X127254000Y-106045000D03*
X129794000Y-103505000D03*
X127254000Y-103505000D03*
X129794000Y-100965000D03*
X127254000Y-100965000D03*
X129794000Y-98425000D03*
X127254000Y-98425000D03*
X129794000Y-95885000D03*
X127254000Y-95885000D03*
X129794000Y-93345000D03*
X127254000Y-93345000D03*
X129794000Y-90805000D03*
X127254000Y-90805000D03*
X129794000Y-88265000D03*
X127254000Y-88265000D03*
X129794000Y-85725000D03*
X127254000Y-85725000D03*
X129794000Y-83185000D03*
X127254000Y-83185000D03*
X134874000Y-116205000D03*
X132334000Y-116205000D03*
X134874000Y-113665000D03*
X132334000Y-113665000D03*
X134874000Y-111125000D03*
X132334000Y-111125000D03*
X134874000Y-108585000D03*
X132334000Y-108585000D03*
X134874000Y-106045000D03*
X132334000Y-106045000D03*
X134874000Y-103505000D03*
X132334000Y-103505000D03*
X134874000Y-100965000D03*
X132334000Y-100965000D03*
X134874000Y-98425000D03*
X132334000Y-98425000D03*
X134874000Y-95885000D03*
X132334000Y-95885000D03*
X134874000Y-93345000D03*
X132334000Y-93345000D03*
X134874000Y-90805000D03*
X132334000Y-90805000D03*
X134874000Y-88265000D03*
X132334000Y-88265000D03*
X134874000Y-85725000D03*
X132334000Y-85725000D03*
X134874000Y-83185000D03*
X132334000Y-83185000D03*
X134874000Y-80645000D03*
X132334000Y-80645000D03*
X129794000Y-80645000D03*
X129794000Y-78105000D03*
X132334000Y-78105000D03*
X134874000Y-78105000D03*
X134874000Y-121285000D03*
X137414000Y-118745000D03*
X137414000Y-116205000D03*
X137414000Y-113665000D03*
X137414000Y-111125000D03*
X137414000Y-108585000D03*
X137414000Y-106045000D03*
X137414000Y-103505000D03*
X137414000Y-100965000D03*
X137414000Y-98425000D03*
X137414000Y-95885000D03*
X137414000Y-93345000D03*
X137414000Y-90805000D03*
X137414000Y-88265000D03*
X137414000Y-85725000D03*
X137414000Y-83185000D03*
X137414000Y-80645000D03*
X137414000Y-78105000D03*
D14*
X154178000Y-81161000D03*
D15*
X154178000Y-83701000D03*
X156718000Y-81161000D03*
X156718000Y-83701000D03*
X159258000Y-81161000D03*
X159258000Y-83701000D03*
X161798000Y-81161000D03*
X161798000Y-83701000D03*
X164338000Y-81161000D03*
X164338000Y-83701000D03*
D14*
X151748000Y-91067000D03*
D15*
X151748000Y-93607000D03*
X151748000Y-96147000D03*
D16*
X141588000Y-78621000D03*
X146668000Y-78621000D03*
X141588000Y-86241000D03*
X146668000Y-86241000D03*
D17*
G36*
X154699480Y-110299880D02*
G01*
X154699480Y-107902120D01*
X157498560Y-108300900D01*
X157498560Y-109901100D01*
X154699480Y-110299880D01*
G37*
G36*
X161496520Y-107902120D02*
G01*
X161496520Y-110299880D01*
X158697440Y-109901100D01*
X158697440Y-108300900D01*
X161496520Y-107902120D01*
G37*
D18*
X153096740Y-109101000D03*
X163099260Y-109101000D03*
D17*
G36*
X154699480Y-119824880D02*
G01*
X154699480Y-117427120D01*
X157498560Y-117825900D01*
X157498560Y-119426100D01*
X154699480Y-119824880D01*
G37*
G36*
X161496520Y-117427120D02*
G01*
X161496520Y-119824880D01*
X158697440Y-119426100D01*
X158697440Y-117825900D01*
X161496520Y-117427120D01*
G37*
D18*
X153096740Y-118626000D03*
X163099260Y-118626000D03*
D17*
G36*
X149136880Y-102895780D02*
G01*
X146739120Y-102895780D01*
X147137900Y-100096700D01*
X148738100Y-100096700D01*
X149136880Y-102895780D01*
G37*
G36*
X146739120Y-96098740D02*
G01*
X149136880Y-96098740D01*
X148738100Y-98897820D01*
X147137900Y-98897820D01*
X146739120Y-96098740D01*
G37*
D18*
X147938000Y-104498520D03*
X147938000Y-94496000D03*
D17*
G36*
X143564120Y-96098740D02*
G01*
X145961880Y-96098740D01*
X145563100Y-98897820D01*
X143962900Y-98897820D01*
X143564120Y-96098740D01*
G37*
G36*
X145961880Y-102895780D02*
G01*
X143564120Y-102895780D01*
X143962900Y-100096700D01*
X145563100Y-100096700D01*
X145961880Y-102895780D01*
G37*
D18*
X144763000Y-94496000D03*
X144763000Y-104498520D03*
D17*
G36*
X154699480Y-113474880D02*
G01*
X154699480Y-111077120D01*
X157498560Y-111475900D01*
X157498560Y-113076100D01*
X154699480Y-113474880D01*
G37*
G36*
X161496520Y-111077120D02*
G01*
X161496520Y-113474880D01*
X158697440Y-113076100D01*
X158697440Y-111475900D01*
X161496520Y-111077120D01*
G37*
D18*
X153096740Y-112276000D03*
X163099260Y-112276000D03*
D17*
G36*
X154699480Y-116649880D02*
G01*
X154699480Y-114252120D01*
X157498560Y-114650900D01*
X157498560Y-116251100D01*
X154699480Y-116649880D01*
G37*
G36*
X161496520Y-114252120D02*
G01*
X161496520Y-116649880D01*
X158697440Y-116251100D01*
X158697440Y-114650900D01*
X161496520Y-114252120D01*
G37*
D18*
X153096740Y-115451000D03*
X163099260Y-115451000D03*
D17*
G36*
X161496520Y-104727120D02*
G01*
X161496520Y-107124880D01*
X158697440Y-106726100D01*
X158697440Y-105125900D01*
X161496520Y-104727120D01*
G37*
G36*
X154699480Y-107124880D02*
G01*
X154699480Y-104727120D01*
X157498560Y-105125900D01*
X157498560Y-106726100D01*
X154699480Y-107124880D01*
G37*
D18*
X163099260Y-105926000D03*
X153096740Y-105926000D03*
D17*
G36*
X161496520Y-101552120D02*
G01*
X161496520Y-103949880D01*
X158697440Y-103551100D01*
X158697440Y-101950900D01*
X161496520Y-101552120D01*
G37*
G36*
X154699480Y-103949880D02*
G01*
X154699480Y-101552120D01*
X157498560Y-101950900D01*
X157498560Y-103551100D01*
X154699480Y-103949880D01*
G37*
D18*
X163099260Y-102751000D03*
X153096740Y-102751000D03*
D17*
G36*
X161496520Y-98377120D02*
G01*
X161496520Y-100774880D01*
X158697440Y-100376100D01*
X158697440Y-98775900D01*
X161496520Y-98377120D01*
G37*
G36*
X154699480Y-100774880D02*
G01*
X154699480Y-98377120D01*
X157498560Y-98775900D01*
X157498560Y-100376100D01*
X154699480Y-100774880D01*
G37*
D18*
X163099260Y-99576000D03*
X153096740Y-99576000D03*
D19*
X147303000Y-109101000D03*
X144763000Y-109101000D03*
D20*
X149843000Y-109101000D03*
D19*
X147303000Y-115451000D03*
X144763000Y-115451000D03*
D20*
X149843000Y-115451000D03*
D21*
X168408000Y-92276000D03*
X168408000Y-117276000D03*
D22*
X170948000Y-109621000D03*
X170948000Y-107331000D03*
X170948000Y-105041000D03*
X170948000Y-102751000D03*
X170948000Y-100461000D03*
X168968000Y-108476000D03*
X168968000Y-106186000D03*
X168968000Y-103896000D03*
X168968000Y-101606000D03*
X168968000Y-99316000D03*
X166988000Y-109621000D03*
X166988000Y-107331000D03*
X166988000Y-105041000D03*
X166988000Y-102751000D03*
D23*
X166988000Y-100461000D03*
X163178000Y-93861000D03*
D24*
X155558000Y-93861000D03*
D23*
X163178000Y-90686000D03*
D24*
X155558000Y-90686000D03*
D25*
X138938000Y-123825000D03*
X141478000Y-123825000D03*
X144018000Y-123825000D03*
X146558000Y-123825000D03*
X149098000Y-123825000D03*
X151638000Y-123825000D03*
X154178000Y-123825000D03*
X156718000Y-123825000D03*
X161798000Y-123825000D03*
X164338000Y-123825000D03*
X166878000Y-123825000D03*
X169418000Y-123825000D03*
X171958000Y-123825000D03*
X174498000Y-123825000D03*
X129794000Y-75565000D03*
X132334000Y-75565000D03*
X134874000Y-75565000D03*
X137414000Y-75565000D03*
X139954000Y-75565000D03*
X142494000Y-75565000D03*
X145034000Y-75565000D03*
X147574000Y-75565000D03*
X150114000Y-75565000D03*
X152654000Y-75565000D03*
X156718000Y-75565000D03*
X159258000Y-75565000D03*
X161798000Y-75565000D03*
X164338000Y-75565000D03*
X166878000Y-75565000D03*
X169418000Y-75565000D03*
X171958000Y-75565000D03*
X174498000Y-75565000D03*
D26*
X124968000Y-123825000D03*
X177038000Y-118745000D03*
X126238000Y-75565000D03*
X177038000Y-90805000D03*
M02*
