G04 #@! TF.GenerationSoftware,KiCad,Pcbnew,(5.1.6)-1*
G04 #@! TF.CreationDate,2023-11-11T21:49:05+01:00*
G04 #@! TF.ProjectId,15khzvgatester,31356b68-7a76-4676-9174-65737465722e,rev?*
G04 #@! TF.SameCoordinates,Original*
G04 #@! TF.FileFunction,Soldermask,Bot*
G04 #@! TF.FilePolarity,Negative*
%FSLAX46Y46*%
G04 Gerber Fmt 4.6, Leading zero omitted, Abs format (unit mm)*
G04 Created by KiCad (PCBNEW (5.1.6)-1) date 2023-11-11 21:49:05*
%MOMM*%
%LPD*%
G01*
G04 APERTURE LIST*
%ADD10R,2.000000X2.000000*%
%ADD11C,2.000000*%
%ADD12R,1.700000X1.700000*%
%ADD13O,1.700000X1.700000*%
%ADD14C,1.397000*%
%ADD15R,1.998980X1.998980*%
%ADD16C,1.520000*%
%ADD17R,1.520000X1.520000*%
%ADD18C,4.000000*%
%ADD19C,1.600000*%
%ADD20R,1.600000X1.600000*%
%ADD21O,1.600000X1.600000*%
%ADD22O,1.727200X2.032000*%
%ADD23C,4.064000*%
G04 APERTURE END LIST*
D10*
X122174000Y-121285000D03*
D11*
X127254000Y-121285000D03*
D10*
X114554000Y-93345000D03*
X117094000Y-93345000D03*
X119634000Y-93345000D03*
X119634000Y-90805000D03*
X117094000Y-90805000D03*
X114554000Y-90805000D03*
X114554000Y-88265000D03*
X117094000Y-88265000D03*
X119634000Y-88265000D03*
X119634000Y-85725000D03*
X117094000Y-85725000D03*
X114554000Y-85725000D03*
X114554000Y-83185000D03*
X117094000Y-83185000D03*
X119634000Y-83185000D03*
X114554000Y-116205000D03*
X117094000Y-116205000D03*
X119634000Y-116205000D03*
X119634000Y-118745000D03*
X117094000Y-118745000D03*
X114554000Y-118745000D03*
X117094000Y-121285000D03*
X114554000Y-121285000D03*
X114554000Y-123825000D03*
X117094000Y-123825000D03*
X119634000Y-123825000D03*
X119634000Y-121285000D03*
X122174000Y-118745000D03*
X122174000Y-116205000D03*
X122174000Y-113665000D03*
X119634000Y-113665000D03*
X117094000Y-113665000D03*
X114554000Y-113665000D03*
X122174000Y-83185000D03*
X122174000Y-85725000D03*
X122174000Y-88265000D03*
X122174000Y-90805000D03*
X122174000Y-93345000D03*
X122174000Y-95885000D03*
X119634000Y-95885000D03*
X117094000Y-95885000D03*
X114554000Y-95885000D03*
X122174000Y-80645000D03*
X119634000Y-80645000D03*
X117094000Y-80645000D03*
X114554000Y-80645000D03*
X124714000Y-113665000D03*
X124714000Y-116205000D03*
X124714000Y-118745000D03*
X127254000Y-118745000D03*
X134874000Y-123825000D03*
X132334000Y-123825000D03*
X129794000Y-123825000D03*
X134874000Y-118745000D03*
X114554000Y-111125000D03*
X114554000Y-108585000D03*
X114554000Y-106045000D03*
X114554000Y-103505000D03*
X114554000Y-100965000D03*
X114554000Y-98425000D03*
X124714000Y-95885000D03*
X124714000Y-93345000D03*
X124714000Y-90805000D03*
X124714000Y-88265000D03*
X124714000Y-85725000D03*
X124714000Y-83185000D03*
X124714000Y-80645000D03*
X127254000Y-80645000D03*
X117094000Y-78105000D03*
X114554000Y-78105000D03*
X117094000Y-75565000D03*
X114554000Y-75565000D03*
X122174000Y-78105000D03*
X119634000Y-78105000D03*
X122174000Y-75565000D03*
X119634000Y-75565000D03*
X119634000Y-111125000D03*
X117094000Y-111125000D03*
X119634000Y-108585000D03*
X117094000Y-108585000D03*
X119634000Y-106045000D03*
X117094000Y-106045000D03*
X119634000Y-103505000D03*
X117094000Y-103505000D03*
X119634000Y-100965000D03*
X117094000Y-100965000D03*
X119634000Y-98425000D03*
X117094000Y-98425000D03*
X124714000Y-111125000D03*
X122174000Y-111125000D03*
X124714000Y-108585000D03*
X122174000Y-108585000D03*
X124714000Y-106045000D03*
X122174000Y-106045000D03*
X124714000Y-103505000D03*
X122174000Y-103505000D03*
X124714000Y-100965000D03*
X122174000Y-100965000D03*
X124714000Y-98425000D03*
X122174000Y-98425000D03*
X132334000Y-121285000D03*
X129794000Y-121285000D03*
X132334000Y-118745000D03*
X129794000Y-118745000D03*
X129794000Y-116205000D03*
X127254000Y-116205000D03*
X129794000Y-113665000D03*
X127254000Y-113665000D03*
X129794000Y-111125000D03*
X127254000Y-111125000D03*
X129794000Y-108585000D03*
X127254000Y-108585000D03*
X129794000Y-106045000D03*
X127254000Y-106045000D03*
X129794000Y-103505000D03*
X127254000Y-103505000D03*
X129794000Y-100965000D03*
X127254000Y-100965000D03*
X129794000Y-98425000D03*
X127254000Y-98425000D03*
X129794000Y-95885000D03*
X127254000Y-95885000D03*
X129794000Y-93345000D03*
X127254000Y-93345000D03*
X129794000Y-90805000D03*
X127254000Y-90805000D03*
X129794000Y-88265000D03*
X127254000Y-88265000D03*
X129794000Y-85725000D03*
X127254000Y-85725000D03*
X129794000Y-83185000D03*
X127254000Y-83185000D03*
X134874000Y-116205000D03*
X132334000Y-116205000D03*
X134874000Y-113665000D03*
X132334000Y-113665000D03*
X134874000Y-111125000D03*
X132334000Y-111125000D03*
X134874000Y-108585000D03*
X132334000Y-108585000D03*
X134874000Y-106045000D03*
X132334000Y-106045000D03*
X134874000Y-103505000D03*
X132334000Y-103505000D03*
X134874000Y-100965000D03*
X132334000Y-100965000D03*
X134874000Y-98425000D03*
X132334000Y-98425000D03*
X134874000Y-95885000D03*
X132334000Y-95885000D03*
X134874000Y-93345000D03*
X132334000Y-93345000D03*
X134874000Y-90805000D03*
X132334000Y-90805000D03*
X134874000Y-88265000D03*
X132334000Y-88265000D03*
X134874000Y-85725000D03*
X132334000Y-85725000D03*
X134874000Y-83185000D03*
X132334000Y-83185000D03*
X134874000Y-80645000D03*
X132334000Y-80645000D03*
X129794000Y-80645000D03*
X129794000Y-78105000D03*
X132334000Y-78105000D03*
X134874000Y-78105000D03*
X134874000Y-121285000D03*
X137414000Y-118745000D03*
X137414000Y-116205000D03*
X137414000Y-113665000D03*
X137414000Y-111125000D03*
X137414000Y-108585000D03*
X137414000Y-106045000D03*
X137414000Y-103505000D03*
X137414000Y-100965000D03*
X137414000Y-98425000D03*
X137414000Y-95885000D03*
X137414000Y-93345000D03*
X137414000Y-90805000D03*
X137414000Y-88265000D03*
X137414000Y-85725000D03*
X137414000Y-83185000D03*
X137414000Y-80645000D03*
X137414000Y-78105000D03*
D12*
X154178000Y-81161000D03*
D13*
X154178000Y-83701000D03*
X156718000Y-81161000D03*
X156718000Y-83701000D03*
X159258000Y-81161000D03*
X159258000Y-83701000D03*
X161798000Y-81161000D03*
X161798000Y-83701000D03*
X164338000Y-81161000D03*
X164338000Y-83701000D03*
D12*
X151748000Y-91067000D03*
D13*
X151748000Y-93607000D03*
X151748000Y-96147000D03*
D14*
X141588000Y-78621000D03*
X146668000Y-78621000D03*
X141588000Y-86241000D03*
X146668000Y-86241000D03*
D15*
X153096740Y-109101000D03*
X163099260Y-109101000D03*
X153096740Y-118626000D03*
X163099260Y-118626000D03*
X147938000Y-104498520D03*
X147938000Y-94496000D03*
X144763000Y-94496000D03*
X144763000Y-104498520D03*
X153096740Y-112276000D03*
X163099260Y-112276000D03*
X153096740Y-115451000D03*
X163099260Y-115451000D03*
X163099260Y-105926000D03*
X153096740Y-105926000D03*
X163099260Y-102751000D03*
X153096740Y-102751000D03*
X163099260Y-99576000D03*
X153096740Y-99576000D03*
D16*
X147303000Y-109101000D03*
X144763000Y-109101000D03*
D17*
X149843000Y-109101000D03*
D16*
X147303000Y-115451000D03*
X144763000Y-115451000D03*
D17*
X149843000Y-115451000D03*
D18*
X168408000Y-92276000D03*
X168408000Y-117276000D03*
D19*
X170948000Y-109621000D03*
X170948000Y-107331000D03*
X170948000Y-105041000D03*
X170948000Y-102751000D03*
X170948000Y-100461000D03*
X168968000Y-108476000D03*
X168968000Y-106186000D03*
X168968000Y-103896000D03*
X168968000Y-101606000D03*
X168968000Y-99316000D03*
X166988000Y-109621000D03*
X166988000Y-107331000D03*
X166988000Y-105041000D03*
X166988000Y-102751000D03*
D20*
X166988000Y-100461000D03*
X163178000Y-93861000D03*
D21*
X155558000Y-93861000D03*
D20*
X163178000Y-90686000D03*
D21*
X155558000Y-90686000D03*
D22*
X138938000Y-123825000D03*
X141478000Y-123825000D03*
X144018000Y-123825000D03*
X146558000Y-123825000D03*
X149098000Y-123825000D03*
X151638000Y-123825000D03*
X154178000Y-123825000D03*
X156718000Y-123825000D03*
X161798000Y-123825000D03*
X164338000Y-123825000D03*
X166878000Y-123825000D03*
X169418000Y-123825000D03*
X171958000Y-123825000D03*
X174498000Y-123825000D03*
X129794000Y-75565000D03*
X132334000Y-75565000D03*
X134874000Y-75565000D03*
X137414000Y-75565000D03*
X139954000Y-75565000D03*
X142494000Y-75565000D03*
X145034000Y-75565000D03*
X147574000Y-75565000D03*
X150114000Y-75565000D03*
X152654000Y-75565000D03*
X156718000Y-75565000D03*
X159258000Y-75565000D03*
X161798000Y-75565000D03*
X164338000Y-75565000D03*
X166878000Y-75565000D03*
X169418000Y-75565000D03*
X171958000Y-75565000D03*
X174498000Y-75565000D03*
D23*
X124968000Y-123825000D03*
X177038000Y-118745000D03*
X126238000Y-75565000D03*
X177038000Y-90805000D03*
M02*
