G04 #@! TF.GenerationSoftware,KiCad,Pcbnew,(5.1.6)-1*
G04 #@! TF.CreationDate,2023-11-11T21:49:05+01:00*
G04 #@! TF.ProjectId,15khzvgatester,31356b68-7a76-4676-9174-65737465722e,rev?*
G04 #@! TF.SameCoordinates,Original*
G04 #@! TF.FileFunction,Copper,L1,Top*
G04 #@! TF.FilePolarity,Positive*
%FSLAX46Y46*%
G04 Gerber Fmt 4.6, Leading zero omitted, Abs format (unit mm)*
G04 Created by KiCad (PCBNEW (5.1.6)-1) date 2023-11-11 21:49:05*
%MOMM*%
%LPD*%
G01*
G04 APERTURE LIST*
G04 #@! TA.AperFunction,ComponentPad*
%ADD10R,2.000000X2.000000*%
G04 #@! TD*
G04 #@! TA.AperFunction,ComponentPad*
%ADD11C,2.000000*%
G04 #@! TD*
G04 #@! TA.AperFunction,ComponentPad*
%ADD12R,1.700000X1.700000*%
G04 #@! TD*
G04 #@! TA.AperFunction,ComponentPad*
%ADD13O,1.700000X1.700000*%
G04 #@! TD*
G04 #@! TA.AperFunction,ComponentPad*
%ADD14C,1.397000*%
G04 #@! TD*
G04 #@! TA.AperFunction,SMDPad,CuDef*
%ADD15C,0.100000*%
G04 #@! TD*
G04 #@! TA.AperFunction,ComponentPad*
%ADD16R,1.998980X1.998980*%
G04 #@! TD*
G04 #@! TA.AperFunction,ComponentPad*
%ADD17C,1.520000*%
G04 #@! TD*
G04 #@! TA.AperFunction,ComponentPad*
%ADD18R,1.520000X1.520000*%
G04 #@! TD*
G04 #@! TA.AperFunction,ComponentPad*
%ADD19C,4.000000*%
G04 #@! TD*
G04 #@! TA.AperFunction,ComponentPad*
%ADD20C,1.600000*%
G04 #@! TD*
G04 #@! TA.AperFunction,ComponentPad*
%ADD21R,1.600000X1.600000*%
G04 #@! TD*
G04 #@! TA.AperFunction,ComponentPad*
%ADD22O,1.600000X1.600000*%
G04 #@! TD*
G04 #@! TA.AperFunction,ComponentPad*
%ADD23O,1.727200X2.032000*%
G04 #@! TD*
G04 #@! TA.AperFunction,ComponentPad*
%ADD24C,4.064000*%
G04 #@! TD*
G04 #@! TA.AperFunction,ViaPad*
%ADD25C,1.200000*%
G04 #@! TD*
G04 #@! TA.AperFunction,Conductor*
%ADD26C,0.508000*%
G04 #@! TD*
G04 #@! TA.AperFunction,Conductor*
%ADD27C,0.250000*%
G04 #@! TD*
G04 #@! TA.AperFunction,Conductor*
%ADD28C,0.254000*%
G04 #@! TD*
G04 APERTURE END LIST*
D10*
X122174000Y-121285000D03*
D11*
X127254000Y-121285000D03*
D10*
X114554000Y-93345000D03*
X117094000Y-93345000D03*
X119634000Y-93345000D03*
X119634000Y-90805000D03*
X117094000Y-90805000D03*
X114554000Y-90805000D03*
X114554000Y-88265000D03*
X117094000Y-88265000D03*
X119634000Y-88265000D03*
X119634000Y-85725000D03*
X117094000Y-85725000D03*
X114554000Y-85725000D03*
X114554000Y-83185000D03*
X117094000Y-83185000D03*
X119634000Y-83185000D03*
X114554000Y-116205000D03*
X117094000Y-116205000D03*
X119634000Y-116205000D03*
X119634000Y-118745000D03*
X117094000Y-118745000D03*
X114554000Y-118745000D03*
X117094000Y-121285000D03*
X114554000Y-121285000D03*
X114554000Y-123825000D03*
X117094000Y-123825000D03*
X119634000Y-123825000D03*
X119634000Y-121285000D03*
X122174000Y-118745000D03*
X122174000Y-116205000D03*
X122174000Y-113665000D03*
X119634000Y-113665000D03*
X117094000Y-113665000D03*
X114554000Y-113665000D03*
X122174000Y-83185000D03*
X122174000Y-85725000D03*
X122174000Y-88265000D03*
X122174000Y-90805000D03*
X122174000Y-93345000D03*
X122174000Y-95885000D03*
X119634000Y-95885000D03*
X117094000Y-95885000D03*
X114554000Y-95885000D03*
X122174000Y-80645000D03*
X119634000Y-80645000D03*
X117094000Y-80645000D03*
X114554000Y-80645000D03*
X124714000Y-113665000D03*
X124714000Y-116205000D03*
X124714000Y-118745000D03*
X127254000Y-118745000D03*
X134874000Y-123825000D03*
X132334000Y-123825000D03*
X129794000Y-123825000D03*
X134874000Y-118745000D03*
X114554000Y-111125000D03*
X114554000Y-108585000D03*
X114554000Y-106045000D03*
X114554000Y-103505000D03*
X114554000Y-100965000D03*
X114554000Y-98425000D03*
X124714000Y-95885000D03*
X124714000Y-93345000D03*
X124714000Y-90805000D03*
X124714000Y-88265000D03*
X124714000Y-85725000D03*
X124714000Y-83185000D03*
X124714000Y-80645000D03*
X127254000Y-80645000D03*
X117094000Y-78105000D03*
X114554000Y-78105000D03*
X117094000Y-75565000D03*
X114554000Y-75565000D03*
X122174000Y-78105000D03*
X119634000Y-78105000D03*
X122174000Y-75565000D03*
X119634000Y-75565000D03*
X119634000Y-111125000D03*
X117094000Y-111125000D03*
X119634000Y-108585000D03*
X117094000Y-108585000D03*
X119634000Y-106045000D03*
X117094000Y-106045000D03*
X119634000Y-103505000D03*
X117094000Y-103505000D03*
X119634000Y-100965000D03*
X117094000Y-100965000D03*
X119634000Y-98425000D03*
X117094000Y-98425000D03*
X124714000Y-111125000D03*
X122174000Y-111125000D03*
X124714000Y-108585000D03*
X122174000Y-108585000D03*
X124714000Y-106045000D03*
X122174000Y-106045000D03*
X124714000Y-103505000D03*
X122174000Y-103505000D03*
X124714000Y-100965000D03*
X122174000Y-100965000D03*
X124714000Y-98425000D03*
X122174000Y-98425000D03*
X132334000Y-121285000D03*
X129794000Y-121285000D03*
X132334000Y-118745000D03*
X129794000Y-118745000D03*
X129794000Y-116205000D03*
X127254000Y-116205000D03*
X129794000Y-113665000D03*
X127254000Y-113665000D03*
X129794000Y-111125000D03*
X127254000Y-111125000D03*
X129794000Y-108585000D03*
X127254000Y-108585000D03*
X129794000Y-106045000D03*
X127254000Y-106045000D03*
X129794000Y-103505000D03*
X127254000Y-103505000D03*
X129794000Y-100965000D03*
X127254000Y-100965000D03*
X129794000Y-98425000D03*
X127254000Y-98425000D03*
X129794000Y-95885000D03*
X127254000Y-95885000D03*
X129794000Y-93345000D03*
X127254000Y-93345000D03*
X129794000Y-90805000D03*
X127254000Y-90805000D03*
X129794000Y-88265000D03*
X127254000Y-88265000D03*
X129794000Y-85725000D03*
X127254000Y-85725000D03*
X129794000Y-83185000D03*
X127254000Y-83185000D03*
X134874000Y-116205000D03*
X132334000Y-116205000D03*
X134874000Y-113665000D03*
X132334000Y-113665000D03*
X134874000Y-111125000D03*
X132334000Y-111125000D03*
X134874000Y-108585000D03*
X132334000Y-108585000D03*
X134874000Y-106045000D03*
X132334000Y-106045000D03*
X134874000Y-103505000D03*
X132334000Y-103505000D03*
X134874000Y-100965000D03*
X132334000Y-100965000D03*
X134874000Y-98425000D03*
X132334000Y-98425000D03*
X134874000Y-95885000D03*
X132334000Y-95885000D03*
X134874000Y-93345000D03*
X132334000Y-93345000D03*
X134874000Y-90805000D03*
X132334000Y-90805000D03*
X134874000Y-88265000D03*
X132334000Y-88265000D03*
X134874000Y-85725000D03*
X132334000Y-85725000D03*
X134874000Y-83185000D03*
X132334000Y-83185000D03*
X134874000Y-80645000D03*
X132334000Y-80645000D03*
X129794000Y-80645000D03*
X129794000Y-78105000D03*
X132334000Y-78105000D03*
X134874000Y-78105000D03*
X134874000Y-121285000D03*
X137414000Y-118745000D03*
X137414000Y-116205000D03*
X137414000Y-113665000D03*
X137414000Y-111125000D03*
X137414000Y-108585000D03*
X137414000Y-106045000D03*
X137414000Y-103505000D03*
X137414000Y-100965000D03*
X137414000Y-98425000D03*
X137414000Y-95885000D03*
X137414000Y-93345000D03*
X137414000Y-90805000D03*
X137414000Y-88265000D03*
X137414000Y-85725000D03*
X137414000Y-83185000D03*
X137414000Y-80645000D03*
X137414000Y-78105000D03*
D12*
X154178000Y-81161000D03*
D13*
X154178000Y-83701000D03*
X156718000Y-81161000D03*
X156718000Y-83701000D03*
X159258000Y-81161000D03*
X159258000Y-83701000D03*
X161798000Y-81161000D03*
X161798000Y-83701000D03*
X164338000Y-81161000D03*
X164338000Y-83701000D03*
D12*
X151748000Y-91067000D03*
D13*
X151748000Y-93607000D03*
X151748000Y-96147000D03*
D14*
X141588000Y-78621000D03*
X146668000Y-78621000D03*
X141588000Y-86241000D03*
X146668000Y-86241000D03*
G04 #@! TA.AperFunction,SMDPad,CuDef*
D15*
G36*
X154699480Y-110299880D02*
G01*
X154699480Y-107902120D01*
X157498560Y-108300900D01*
X157498560Y-109901100D01*
X154699480Y-110299880D01*
G37*
G04 #@! TD.AperFunction*
G04 #@! TA.AperFunction,SMDPad,CuDef*
G36*
X161496520Y-107902120D02*
G01*
X161496520Y-110299880D01*
X158697440Y-109901100D01*
X158697440Y-108300900D01*
X161496520Y-107902120D01*
G37*
G04 #@! TD.AperFunction*
D16*
X153096740Y-109101000D03*
X163099260Y-109101000D03*
G04 #@! TA.AperFunction,SMDPad,CuDef*
D15*
G36*
X154699480Y-119824880D02*
G01*
X154699480Y-117427120D01*
X157498560Y-117825900D01*
X157498560Y-119426100D01*
X154699480Y-119824880D01*
G37*
G04 #@! TD.AperFunction*
G04 #@! TA.AperFunction,SMDPad,CuDef*
G36*
X161496520Y-117427120D02*
G01*
X161496520Y-119824880D01*
X158697440Y-119426100D01*
X158697440Y-117825900D01*
X161496520Y-117427120D01*
G37*
G04 #@! TD.AperFunction*
D16*
X153096740Y-118626000D03*
X163099260Y-118626000D03*
G04 #@! TA.AperFunction,SMDPad,CuDef*
D15*
G36*
X149136880Y-102895780D02*
G01*
X146739120Y-102895780D01*
X147137900Y-100096700D01*
X148738100Y-100096700D01*
X149136880Y-102895780D01*
G37*
G04 #@! TD.AperFunction*
G04 #@! TA.AperFunction,SMDPad,CuDef*
G36*
X146739120Y-96098740D02*
G01*
X149136880Y-96098740D01*
X148738100Y-98897820D01*
X147137900Y-98897820D01*
X146739120Y-96098740D01*
G37*
G04 #@! TD.AperFunction*
D16*
X147938000Y-104498520D03*
X147938000Y-94496000D03*
G04 #@! TA.AperFunction,SMDPad,CuDef*
D15*
G36*
X143564120Y-96098740D02*
G01*
X145961880Y-96098740D01*
X145563100Y-98897820D01*
X143962900Y-98897820D01*
X143564120Y-96098740D01*
G37*
G04 #@! TD.AperFunction*
G04 #@! TA.AperFunction,SMDPad,CuDef*
G36*
X145961880Y-102895780D02*
G01*
X143564120Y-102895780D01*
X143962900Y-100096700D01*
X145563100Y-100096700D01*
X145961880Y-102895780D01*
G37*
G04 #@! TD.AperFunction*
D16*
X144763000Y-94496000D03*
X144763000Y-104498520D03*
G04 #@! TA.AperFunction,SMDPad,CuDef*
D15*
G36*
X154699480Y-113474880D02*
G01*
X154699480Y-111077120D01*
X157498560Y-111475900D01*
X157498560Y-113076100D01*
X154699480Y-113474880D01*
G37*
G04 #@! TD.AperFunction*
G04 #@! TA.AperFunction,SMDPad,CuDef*
G36*
X161496520Y-111077120D02*
G01*
X161496520Y-113474880D01*
X158697440Y-113076100D01*
X158697440Y-111475900D01*
X161496520Y-111077120D01*
G37*
G04 #@! TD.AperFunction*
D16*
X153096740Y-112276000D03*
X163099260Y-112276000D03*
G04 #@! TA.AperFunction,SMDPad,CuDef*
D15*
G36*
X154699480Y-116649880D02*
G01*
X154699480Y-114252120D01*
X157498560Y-114650900D01*
X157498560Y-116251100D01*
X154699480Y-116649880D01*
G37*
G04 #@! TD.AperFunction*
G04 #@! TA.AperFunction,SMDPad,CuDef*
G36*
X161496520Y-114252120D02*
G01*
X161496520Y-116649880D01*
X158697440Y-116251100D01*
X158697440Y-114650900D01*
X161496520Y-114252120D01*
G37*
G04 #@! TD.AperFunction*
D16*
X153096740Y-115451000D03*
X163099260Y-115451000D03*
G04 #@! TA.AperFunction,SMDPad,CuDef*
D15*
G36*
X161496520Y-104727120D02*
G01*
X161496520Y-107124880D01*
X158697440Y-106726100D01*
X158697440Y-105125900D01*
X161496520Y-104727120D01*
G37*
G04 #@! TD.AperFunction*
G04 #@! TA.AperFunction,SMDPad,CuDef*
G36*
X154699480Y-107124880D02*
G01*
X154699480Y-104727120D01*
X157498560Y-105125900D01*
X157498560Y-106726100D01*
X154699480Y-107124880D01*
G37*
G04 #@! TD.AperFunction*
D16*
X163099260Y-105926000D03*
X153096740Y-105926000D03*
G04 #@! TA.AperFunction,SMDPad,CuDef*
D15*
G36*
X161496520Y-101552120D02*
G01*
X161496520Y-103949880D01*
X158697440Y-103551100D01*
X158697440Y-101950900D01*
X161496520Y-101552120D01*
G37*
G04 #@! TD.AperFunction*
G04 #@! TA.AperFunction,SMDPad,CuDef*
G36*
X154699480Y-103949880D02*
G01*
X154699480Y-101552120D01*
X157498560Y-101950900D01*
X157498560Y-103551100D01*
X154699480Y-103949880D01*
G37*
G04 #@! TD.AperFunction*
D16*
X163099260Y-102751000D03*
X153096740Y-102751000D03*
G04 #@! TA.AperFunction,SMDPad,CuDef*
D15*
G36*
X161496520Y-98377120D02*
G01*
X161496520Y-100774880D01*
X158697440Y-100376100D01*
X158697440Y-98775900D01*
X161496520Y-98377120D01*
G37*
G04 #@! TD.AperFunction*
G04 #@! TA.AperFunction,SMDPad,CuDef*
G36*
X154699480Y-100774880D02*
G01*
X154699480Y-98377120D01*
X157498560Y-98775900D01*
X157498560Y-100376100D01*
X154699480Y-100774880D01*
G37*
G04 #@! TD.AperFunction*
D16*
X163099260Y-99576000D03*
X153096740Y-99576000D03*
D17*
X147303000Y-109101000D03*
X144763000Y-109101000D03*
D18*
X149843000Y-109101000D03*
D17*
X147303000Y-115451000D03*
X144763000Y-115451000D03*
D18*
X149843000Y-115451000D03*
D19*
X168408000Y-92276000D03*
X168408000Y-117276000D03*
D20*
X170948000Y-109621000D03*
X170948000Y-107331000D03*
X170948000Y-105041000D03*
X170948000Y-102751000D03*
X170948000Y-100461000D03*
X168968000Y-108476000D03*
X168968000Y-106186000D03*
X168968000Y-103896000D03*
X168968000Y-101606000D03*
X168968000Y-99316000D03*
X166988000Y-109621000D03*
X166988000Y-107331000D03*
X166988000Y-105041000D03*
X166988000Y-102751000D03*
D21*
X166988000Y-100461000D03*
X163178000Y-93861000D03*
D22*
X155558000Y-93861000D03*
D21*
X163178000Y-90686000D03*
D22*
X155558000Y-90686000D03*
D23*
X138938000Y-123825000D03*
X141478000Y-123825000D03*
X144018000Y-123825000D03*
X146558000Y-123825000D03*
X149098000Y-123825000D03*
X151638000Y-123825000D03*
X154178000Y-123825000D03*
X156718000Y-123825000D03*
X161798000Y-123825000D03*
X164338000Y-123825000D03*
X166878000Y-123825000D03*
X169418000Y-123825000D03*
X171958000Y-123825000D03*
X174498000Y-123825000D03*
X129794000Y-75565000D03*
X132334000Y-75565000D03*
X134874000Y-75565000D03*
X137414000Y-75565000D03*
X139954000Y-75565000D03*
X142494000Y-75565000D03*
X145034000Y-75565000D03*
X147574000Y-75565000D03*
X150114000Y-75565000D03*
X152654000Y-75565000D03*
X156718000Y-75565000D03*
X159258000Y-75565000D03*
X161798000Y-75565000D03*
X164338000Y-75565000D03*
X166878000Y-75565000D03*
X169418000Y-75565000D03*
X171958000Y-75565000D03*
X174498000Y-75565000D03*
D24*
X124968000Y-123825000D03*
X177038000Y-118745000D03*
X126238000Y-75565000D03*
X177038000Y-90805000D03*
D25*
X157971000Y-78240000D03*
X160511000Y-77859000D03*
X163051000Y-77478000D03*
X155431000Y-78240000D03*
X165591000Y-77478000D03*
X168131000Y-77478000D03*
X151494000Y-78240000D03*
X150224000Y-80907000D03*
X151367000Y-86368000D03*
X148954000Y-91194000D03*
X153780000Y-92210000D03*
X157209000Y-92210000D03*
X161019000Y-95131000D03*
X159241000Y-123833000D03*
X147684000Y-112784000D03*
X143239000Y-113800000D03*
X150732000Y-111133000D03*
X150605000Y-107069000D03*
X144763000Y-106942000D03*
X146287000Y-117356000D03*
X145906000Y-121166000D03*
X173084000Y-112657000D03*
X173846000Y-107577000D03*
X173465000Y-103640000D03*
X165464000Y-98306000D03*
X154034000Y-96909000D03*
X157971000Y-121166000D03*
X159749000Y-97290000D03*
X142223000Y-94877000D03*
X153780000Y-89162000D03*
X165210000Y-89670000D03*
X167877000Y-85987000D03*
X170544000Y-88654000D03*
X171560000Y-85987000D03*
X170798000Y-79002000D03*
X171560000Y-82431000D03*
X155431000Y-87257000D03*
X157489147Y-89315147D03*
X151113000Y-101100000D03*
X165083000Y-101227000D03*
X165083000Y-104275000D03*
X165083000Y-107450000D03*
X175497000Y-121674000D03*
X168131000Y-121674000D03*
X137397000Y-121674000D03*
X177783000Y-115451000D03*
X177783000Y-94496000D03*
X177783000Y-104656000D03*
X177783000Y-109736000D03*
X177783000Y-99576000D03*
X175878000Y-87511000D03*
X175243000Y-77986000D03*
X175243000Y-82431000D03*
X143112000Y-82304000D03*
X173973000Y-92083000D03*
X173973000Y-117610000D03*
X172830000Y-98306000D03*
X169401000Y-110879000D03*
X150668500Y-117673500D03*
D26*
X144763000Y-104498520D02*
X144763000Y-101496240D01*
X147938000Y-104498520D02*
X147938000Y-101496240D01*
X147938000Y-104498520D02*
X144763000Y-104498520D01*
X144763000Y-109101000D02*
X144763000Y-115451000D01*
D27*
X149098000Y-123825000D02*
X149098000Y-122961000D01*
D26*
X149098000Y-123825000D02*
X149098000Y-122326000D01*
X144763000Y-117991000D02*
X144763000Y-115451000D01*
X149098000Y-122326000D02*
X144763000Y-117991000D01*
X144763000Y-109101000D02*
X147938000Y-105926000D01*
X147938000Y-105926000D02*
X147938000Y-104498520D01*
D27*
X137414000Y-75565000D02*
X137414000Y-76445000D01*
D26*
X163099260Y-118626000D02*
X160096980Y-118626000D01*
X163099260Y-109101000D02*
X160096980Y-109101000D01*
X151638000Y-123825000D02*
X154178000Y-123825000D01*
D27*
X168968000Y-92836000D02*
X168408000Y-92276000D01*
X168968000Y-99316000D02*
X168968000Y-92836000D01*
X154178000Y-123825000D02*
X154178000Y-121911000D01*
X154178000Y-121911000D02*
X154923000Y-121166000D01*
X154923000Y-121166000D02*
X157971000Y-121166000D01*
X163099260Y-119974740D02*
X163099260Y-118626000D01*
X161908000Y-121166000D02*
X163099260Y-119974740D01*
X163099260Y-118626000D02*
X164448000Y-118626000D01*
X165798000Y-117276000D02*
X168408000Y-117276000D01*
X164448000Y-118626000D02*
X165798000Y-117276000D01*
X146668000Y-78621000D02*
X146668000Y-86241000D01*
X157971000Y-121166000D02*
X161908000Y-121166000D01*
D26*
X154178000Y-81161000D02*
X154178000Y-83701000D01*
X164348000Y-83701000D02*
X164348000Y-81161000D01*
D27*
X163178000Y-90686000D02*
X163178000Y-86495000D01*
X163178000Y-85987000D02*
X163178000Y-86495000D01*
X162416000Y-85987000D02*
X163178000Y-85987000D01*
X161798000Y-85369000D02*
X162416000Y-85987000D01*
X161798000Y-83701000D02*
X161798000Y-85369000D01*
X163178000Y-85987000D02*
X165718000Y-85987000D01*
X166878000Y-84827000D02*
X166878000Y-84065000D01*
X165718000Y-85987000D02*
X166878000Y-84827000D01*
X166878000Y-75565000D02*
X166878000Y-84065000D01*
X156718000Y-85877000D02*
X156828000Y-85987000D01*
X156718000Y-83701000D02*
X156718000Y-85877000D01*
X160892000Y-92845000D02*
X161908000Y-93861000D01*
X161908000Y-93861000D02*
X163178000Y-93861000D01*
X160892000Y-87003000D02*
X160892000Y-92845000D01*
X156828000Y-85987000D02*
X159876000Y-85987000D01*
X159876000Y-85987000D02*
X160892000Y-87003000D01*
X151748000Y-80272000D02*
X151748000Y-84717000D01*
X153018000Y-85987000D02*
X156828000Y-85987000D01*
X147574000Y-76098000D02*
X151748000Y-80272000D01*
X151748000Y-84717000D02*
X153018000Y-85987000D01*
X147574000Y-75565000D02*
X147574000Y-76098000D01*
X155558000Y-93861000D02*
X152002000Y-93861000D01*
X152002000Y-93861000D02*
X151748000Y-93607000D01*
D26*
X163099260Y-112276000D02*
X160096980Y-112276000D01*
X163099260Y-115451000D02*
X160096980Y-115451000D01*
D27*
X163099260Y-105926000D02*
X160096980Y-105926000D01*
X163099260Y-102751000D02*
X160096980Y-102751000D01*
X163099260Y-99576000D02*
X160096980Y-99576000D01*
X147938000Y-94496000D02*
X147938000Y-97498280D01*
X147303000Y-109101000D02*
X147303000Y-108212000D01*
X147303000Y-108212000D02*
X149843000Y-105672000D01*
X149081000Y-94496000D02*
X147938000Y-94496000D01*
X149843000Y-95258000D02*
X149652500Y-95067500D01*
X149843000Y-105672000D02*
X149843000Y-98052000D01*
X149652500Y-95067500D02*
X149081000Y-94496000D01*
X149970000Y-96147000D02*
X149843000Y-96274000D01*
X151748000Y-96147000D02*
X149970000Y-96147000D01*
X149843000Y-98052000D02*
X149843000Y-96274000D01*
X149843000Y-96274000D02*
X149843000Y-95258000D01*
X161798000Y-81151000D02*
X161808000Y-81161000D01*
X161798000Y-75565000D02*
X161798000Y-81151000D01*
X153096740Y-99576000D02*
X156099020Y-99576000D01*
X159258000Y-81151000D02*
X159268000Y-81161000D01*
X159258000Y-75565000D02*
X159258000Y-81151000D01*
X153096740Y-102751000D02*
X156099020Y-102751000D01*
D26*
X153096740Y-115451000D02*
X156099020Y-115451000D01*
X153096740Y-118626000D02*
X156099020Y-118626000D01*
D27*
X156718000Y-81151000D02*
X156728000Y-81161000D01*
X156718000Y-75565000D02*
X156718000Y-81151000D01*
X153096740Y-105926000D02*
X156099020Y-105926000D01*
X141588000Y-76471000D02*
X142494000Y-75565000D01*
X141588000Y-78621000D02*
X141588000Y-76471000D01*
D26*
X153096740Y-109101000D02*
X156099020Y-109101000D01*
X153096740Y-112276000D02*
X156099020Y-112276000D01*
D27*
X152129000Y-90686000D02*
X151748000Y-91067000D01*
X155558000Y-90686000D02*
X152129000Y-90686000D01*
X144763000Y-94496000D02*
X144763000Y-97498280D01*
X151113000Y-91067000D02*
X151748000Y-91067000D01*
X149589000Y-92591000D02*
X151113000Y-91067000D01*
X144763000Y-94496000D02*
X146668000Y-92591000D01*
X146668000Y-92591000D02*
X149589000Y-92591000D01*
D28*
G36*
X176328001Y-74843093D02*
G01*
X176328000Y-85944125D01*
X176324565Y-85979000D01*
X176328000Y-86013875D01*
X176328000Y-86013876D01*
X176338273Y-86118183D01*
X176378872Y-86252019D01*
X176444800Y-86375362D01*
X176533525Y-86483474D01*
X176560617Y-86505708D01*
X178868001Y-88813093D01*
X178868001Y-88863294D01*
X178738113Y-88733406D01*
X178301298Y-88441536D01*
X177815935Y-88240492D01*
X177300677Y-88138000D01*
X176775323Y-88138000D01*
X176260065Y-88240492D01*
X175774702Y-88441536D01*
X175337887Y-88733406D01*
X174966406Y-89104887D01*
X174674536Y-89541702D01*
X174473492Y-90027065D01*
X174371000Y-90542323D01*
X174371000Y-91067677D01*
X174473492Y-91582935D01*
X174674536Y-92068298D01*
X174966406Y-92505113D01*
X175337887Y-92876594D01*
X175774702Y-93168464D01*
X176260065Y-93369508D01*
X176775323Y-93472000D01*
X177300677Y-93472000D01*
X177815935Y-93369508D01*
X178301298Y-93168464D01*
X178738113Y-92876594D01*
X178868001Y-92746706D01*
X178868000Y-116803293D01*
X178738113Y-116673406D01*
X178301298Y-116381536D01*
X177815935Y-116180492D01*
X177300677Y-116078000D01*
X176775323Y-116078000D01*
X176260065Y-116180492D01*
X175774702Y-116381536D01*
X175337887Y-116673406D01*
X174966406Y-117044887D01*
X174674536Y-117481702D01*
X174473492Y-117967065D01*
X174371000Y-118482323D01*
X174371000Y-119007677D01*
X174473492Y-119522935D01*
X174674536Y-120008298D01*
X174966406Y-120445113D01*
X175337887Y-120816594D01*
X175774702Y-121108464D01*
X176260065Y-121309508D01*
X176775323Y-121412000D01*
X177300677Y-121412000D01*
X177815935Y-121309508D01*
X178301298Y-121108464D01*
X178738113Y-120816594D01*
X178868000Y-120686707D01*
X178868000Y-120990908D01*
X176560617Y-123298292D01*
X176533526Y-123320525D01*
X176511293Y-123347616D01*
X176444801Y-123428637D01*
X176378872Y-123551981D01*
X176338274Y-123685816D01*
X176324565Y-123825000D01*
X176328001Y-123859885D01*
X176328000Y-125655000D01*
X136381000Y-125655000D01*
X136381000Y-125208174D01*
X136404537Y-125179494D01*
X136463502Y-125069180D01*
X136499812Y-124949482D01*
X136512072Y-124825000D01*
X136512072Y-123598982D01*
X137439400Y-123598982D01*
X137439400Y-124051019D01*
X137461084Y-124271177D01*
X137546775Y-124553664D01*
X137685931Y-124814006D01*
X137873203Y-125042197D01*
X138101395Y-125229469D01*
X138361737Y-125368625D01*
X138644224Y-125454316D01*
X138938000Y-125483251D01*
X139231777Y-125454316D01*
X139514264Y-125368625D01*
X139774606Y-125229469D01*
X140002797Y-125042197D01*
X140190069Y-124814006D01*
X140208000Y-124780459D01*
X140225931Y-124814006D01*
X140413203Y-125042197D01*
X140641395Y-125229469D01*
X140901737Y-125368625D01*
X141184224Y-125454316D01*
X141478000Y-125483251D01*
X141771777Y-125454316D01*
X142054264Y-125368625D01*
X142314606Y-125229469D01*
X142542797Y-125042197D01*
X142730069Y-124814006D01*
X142748000Y-124780459D01*
X142765931Y-124814006D01*
X142953203Y-125042197D01*
X143181395Y-125229469D01*
X143441737Y-125368625D01*
X143724224Y-125454316D01*
X144018000Y-125483251D01*
X144311777Y-125454316D01*
X144594264Y-125368625D01*
X144854606Y-125229469D01*
X145082797Y-125042197D01*
X145270069Y-124814006D01*
X145288000Y-124780459D01*
X145305931Y-124814006D01*
X145493203Y-125042197D01*
X145721395Y-125229469D01*
X145981737Y-125368625D01*
X146264224Y-125454316D01*
X146558000Y-125483251D01*
X146851777Y-125454316D01*
X147134264Y-125368625D01*
X147394606Y-125229469D01*
X147622797Y-125042197D01*
X147810069Y-124814006D01*
X147828000Y-124780459D01*
X147845931Y-124814006D01*
X148033203Y-125042197D01*
X148261395Y-125229469D01*
X148521737Y-125368625D01*
X148804224Y-125454316D01*
X149098000Y-125483251D01*
X149391777Y-125454316D01*
X149674264Y-125368625D01*
X149934606Y-125229469D01*
X150162797Y-125042197D01*
X150350069Y-124814006D01*
X150371424Y-124774053D01*
X150519514Y-124976729D01*
X150735965Y-125175733D01*
X150987081Y-125328686D01*
X151263211Y-125429709D01*
X151278974Y-125432358D01*
X151511000Y-125311217D01*
X151511000Y-123952000D01*
X151765000Y-123952000D01*
X151765000Y-125311217D01*
X151997026Y-125432358D01*
X152012789Y-125429709D01*
X152288919Y-125328686D01*
X152540035Y-125175733D01*
X152756486Y-124976729D01*
X152908000Y-124769367D01*
X153059514Y-124976729D01*
X153275965Y-125175733D01*
X153527081Y-125328686D01*
X153803211Y-125429709D01*
X153818974Y-125432358D01*
X154051000Y-125311217D01*
X154051000Y-123952000D01*
X151765000Y-123952000D01*
X151511000Y-123952000D01*
X151491000Y-123952000D01*
X151491000Y-123698000D01*
X151511000Y-123698000D01*
X151511000Y-122338783D01*
X151765000Y-122338783D01*
X151765000Y-123698000D01*
X154051000Y-123698000D01*
X154051000Y-122338783D01*
X154305000Y-122338783D01*
X154305000Y-123698000D01*
X154325000Y-123698000D01*
X154325000Y-123952000D01*
X154305000Y-123952000D01*
X154305000Y-125311217D01*
X154537026Y-125432358D01*
X154552789Y-125429709D01*
X154828919Y-125328686D01*
X155080035Y-125175733D01*
X155296486Y-124976729D01*
X155444576Y-124774053D01*
X155465931Y-124814006D01*
X155653203Y-125042197D01*
X155881395Y-125229469D01*
X156141737Y-125368625D01*
X156424224Y-125454316D01*
X156718000Y-125483251D01*
X157011777Y-125454316D01*
X157294264Y-125368625D01*
X157554606Y-125229469D01*
X157782797Y-125042197D01*
X157970069Y-124814006D01*
X158109225Y-124553663D01*
X158194916Y-124271176D01*
X158216600Y-124051018D01*
X158216600Y-123598982D01*
X160299400Y-123598982D01*
X160299400Y-124051019D01*
X160321084Y-124271177D01*
X160406775Y-124553664D01*
X160545931Y-124814006D01*
X160733203Y-125042197D01*
X160961395Y-125229469D01*
X161221737Y-125368625D01*
X161504224Y-125454316D01*
X161798000Y-125483251D01*
X162091777Y-125454316D01*
X162374264Y-125368625D01*
X162634606Y-125229469D01*
X162862797Y-125042197D01*
X163050069Y-124814006D01*
X163068000Y-124780459D01*
X163085931Y-124814006D01*
X163273203Y-125042197D01*
X163501395Y-125229469D01*
X163761737Y-125368625D01*
X164044224Y-125454316D01*
X164338000Y-125483251D01*
X164631777Y-125454316D01*
X164914264Y-125368625D01*
X165174606Y-125229469D01*
X165402797Y-125042197D01*
X165590069Y-124814006D01*
X165608000Y-124780459D01*
X165625931Y-124814006D01*
X165813203Y-125042197D01*
X166041395Y-125229469D01*
X166301737Y-125368625D01*
X166584224Y-125454316D01*
X166878000Y-125483251D01*
X167171777Y-125454316D01*
X167454264Y-125368625D01*
X167714606Y-125229469D01*
X167942797Y-125042197D01*
X168130069Y-124814006D01*
X168148000Y-124780459D01*
X168165931Y-124814006D01*
X168353203Y-125042197D01*
X168581395Y-125229469D01*
X168841737Y-125368625D01*
X169124224Y-125454316D01*
X169418000Y-125483251D01*
X169711777Y-125454316D01*
X169994264Y-125368625D01*
X170254606Y-125229469D01*
X170482797Y-125042197D01*
X170670069Y-124814006D01*
X170688000Y-124780459D01*
X170705931Y-124814006D01*
X170893203Y-125042197D01*
X171121395Y-125229469D01*
X171381737Y-125368625D01*
X171664224Y-125454316D01*
X171958000Y-125483251D01*
X172251777Y-125454316D01*
X172534264Y-125368625D01*
X172794606Y-125229469D01*
X173022797Y-125042197D01*
X173210069Y-124814006D01*
X173228000Y-124780459D01*
X173245931Y-124814006D01*
X173433203Y-125042197D01*
X173661395Y-125229469D01*
X173921737Y-125368625D01*
X174204224Y-125454316D01*
X174498000Y-125483251D01*
X174791777Y-125454316D01*
X175074264Y-125368625D01*
X175334606Y-125229469D01*
X175562797Y-125042197D01*
X175750069Y-124814006D01*
X175889225Y-124553663D01*
X175974916Y-124271176D01*
X175996600Y-124051018D01*
X175996600Y-123598981D01*
X175974916Y-123378823D01*
X175889225Y-123096336D01*
X175750069Y-122835994D01*
X175562797Y-122607803D01*
X175334605Y-122420531D01*
X175074263Y-122281375D01*
X174791776Y-122195684D01*
X174498000Y-122166749D01*
X174204223Y-122195684D01*
X173921736Y-122281375D01*
X173661394Y-122420531D01*
X173433203Y-122607803D01*
X173245931Y-122835995D01*
X173228000Y-122869541D01*
X173210069Y-122835994D01*
X173022797Y-122607803D01*
X172794605Y-122420531D01*
X172534263Y-122281375D01*
X172251776Y-122195684D01*
X171958000Y-122166749D01*
X171664223Y-122195684D01*
X171381736Y-122281375D01*
X171121394Y-122420531D01*
X170893203Y-122607803D01*
X170705931Y-122835995D01*
X170688000Y-122869541D01*
X170670069Y-122835994D01*
X170482797Y-122607803D01*
X170254605Y-122420531D01*
X169994263Y-122281375D01*
X169711776Y-122195684D01*
X169418000Y-122166749D01*
X169124223Y-122195684D01*
X168841736Y-122281375D01*
X168581394Y-122420531D01*
X168353203Y-122607803D01*
X168165931Y-122835995D01*
X168148000Y-122869541D01*
X168130069Y-122835994D01*
X167942797Y-122607803D01*
X167714605Y-122420531D01*
X167454263Y-122281375D01*
X167171776Y-122195684D01*
X166878000Y-122166749D01*
X166584223Y-122195684D01*
X166301736Y-122281375D01*
X166041394Y-122420531D01*
X165813203Y-122607803D01*
X165625931Y-122835995D01*
X165608000Y-122869541D01*
X165590069Y-122835994D01*
X165402797Y-122607803D01*
X165174605Y-122420531D01*
X164914263Y-122281375D01*
X164631776Y-122195684D01*
X164338000Y-122166749D01*
X164044223Y-122195684D01*
X163761736Y-122281375D01*
X163501394Y-122420531D01*
X163273203Y-122607803D01*
X163085931Y-122835995D01*
X163068000Y-122869541D01*
X163050069Y-122835994D01*
X162862797Y-122607803D01*
X162634605Y-122420531D01*
X162374263Y-122281375D01*
X162091776Y-122195684D01*
X161798000Y-122166749D01*
X161504223Y-122195684D01*
X161221736Y-122281375D01*
X160961394Y-122420531D01*
X160733203Y-122607803D01*
X160545931Y-122835995D01*
X160406775Y-123096337D01*
X160321084Y-123378824D01*
X160299400Y-123598982D01*
X158216600Y-123598982D01*
X158216600Y-123598981D01*
X158194916Y-123378823D01*
X158109225Y-123096336D01*
X157970069Y-122835994D01*
X157782797Y-122607803D01*
X157554605Y-122420531D01*
X157294263Y-122281375D01*
X157011776Y-122195684D01*
X156718000Y-122166749D01*
X156424223Y-122195684D01*
X156141736Y-122281375D01*
X155881394Y-122420531D01*
X155653203Y-122607803D01*
X155465931Y-122835995D01*
X155444576Y-122875947D01*
X155296486Y-122673271D01*
X155080035Y-122474267D01*
X154828919Y-122321314D01*
X154552789Y-122220291D01*
X154537026Y-122217642D01*
X154305000Y-122338783D01*
X154051000Y-122338783D01*
X153818974Y-122217642D01*
X153803211Y-122220291D01*
X153527081Y-122321314D01*
X153275965Y-122474267D01*
X153059514Y-122673271D01*
X152908000Y-122880633D01*
X152756486Y-122673271D01*
X152540035Y-122474267D01*
X152288919Y-122321314D01*
X152012789Y-122220291D01*
X151997026Y-122217642D01*
X151765000Y-122338783D01*
X151511000Y-122338783D01*
X151278974Y-122217642D01*
X151263211Y-122220291D01*
X150987081Y-122321314D01*
X150735965Y-122474267D01*
X150519514Y-122673271D01*
X150371424Y-122875947D01*
X150350069Y-122835994D01*
X150162797Y-122607803D01*
X149987000Y-122463530D01*
X149987000Y-122369660D01*
X149991300Y-122326000D01*
X149987000Y-122282340D01*
X149987000Y-122282333D01*
X149974136Y-122151726D01*
X149923303Y-121984149D01*
X149840753Y-121829709D01*
X149729659Y-121694341D01*
X149695742Y-121666506D01*
X145652000Y-117622765D01*
X145652000Y-116534741D01*
X145652261Y-116534567D01*
X145846567Y-116340261D01*
X145999233Y-116111780D01*
X146033000Y-116030260D01*
X146066767Y-116111780D01*
X146219433Y-116340261D01*
X146413739Y-116534567D01*
X146642220Y-116687233D01*
X146896093Y-116792391D01*
X147165604Y-116846000D01*
X147440396Y-116846000D01*
X147709907Y-116792391D01*
X147963780Y-116687233D01*
X148192261Y-116534567D01*
X148386567Y-116340261D01*
X148448526Y-116247533D01*
X148457188Y-116335482D01*
X148493498Y-116455180D01*
X148552463Y-116565494D01*
X148631815Y-116662185D01*
X148728506Y-116741537D01*
X148838820Y-116800502D01*
X148958518Y-116836812D01*
X149083000Y-116849072D01*
X150603000Y-116849072D01*
X150727482Y-116836812D01*
X150847180Y-116800502D01*
X150957494Y-116741537D01*
X151054185Y-116662185D01*
X151133537Y-116565494D01*
X151192502Y-116455180D01*
X151228812Y-116335482D01*
X151241072Y-116211000D01*
X151241072Y-114691000D01*
X151228812Y-114566518D01*
X151192502Y-114446820D01*
X151133537Y-114336506D01*
X151054185Y-114239815D01*
X150957494Y-114160463D01*
X150847180Y-114101498D01*
X150727482Y-114065188D01*
X150603000Y-114052928D01*
X149083000Y-114052928D01*
X148958518Y-114065188D01*
X148838820Y-114101498D01*
X148728506Y-114160463D01*
X148631815Y-114239815D01*
X148552463Y-114336506D01*
X148493498Y-114446820D01*
X148457188Y-114566518D01*
X148448526Y-114654467D01*
X148386567Y-114561739D01*
X148192261Y-114367433D01*
X147963780Y-114214767D01*
X147709907Y-114109609D01*
X147440396Y-114056000D01*
X147165604Y-114056000D01*
X146896093Y-114109609D01*
X146642220Y-114214767D01*
X146413739Y-114367433D01*
X146219433Y-114561739D01*
X146066767Y-114790220D01*
X146033000Y-114871740D01*
X145999233Y-114790220D01*
X145846567Y-114561739D01*
X145652261Y-114367433D01*
X145652000Y-114367259D01*
X145652000Y-110184741D01*
X145652261Y-110184567D01*
X145846567Y-109990261D01*
X145999233Y-109761780D01*
X146033000Y-109680260D01*
X146066767Y-109761780D01*
X146219433Y-109990261D01*
X146413739Y-110184567D01*
X146642220Y-110337233D01*
X146896093Y-110442391D01*
X147165604Y-110496000D01*
X147440396Y-110496000D01*
X147709907Y-110442391D01*
X147963780Y-110337233D01*
X148192261Y-110184567D01*
X148386567Y-109990261D01*
X148448526Y-109897533D01*
X148457188Y-109985482D01*
X148493498Y-110105180D01*
X148552463Y-110215494D01*
X148631815Y-110312185D01*
X148728506Y-110391537D01*
X148838820Y-110450502D01*
X148958518Y-110486812D01*
X149083000Y-110499072D01*
X150603000Y-110499072D01*
X150727482Y-110486812D01*
X150847180Y-110450502D01*
X150957494Y-110391537D01*
X151054185Y-110312185D01*
X151133537Y-110215494D01*
X151192502Y-110105180D01*
X151228812Y-109985482D01*
X151241072Y-109861000D01*
X151241072Y-108341000D01*
X151228812Y-108216518D01*
X151192502Y-108096820D01*
X151133537Y-107986506D01*
X151054185Y-107889815D01*
X150957494Y-107810463D01*
X150847180Y-107751498D01*
X150727482Y-107715188D01*
X150603000Y-107702928D01*
X149083000Y-107702928D01*
X148958518Y-107715188D01*
X148838820Y-107751498D01*
X148837711Y-107752091D01*
X150354009Y-106235794D01*
X150383001Y-106212001D01*
X150406795Y-106183008D01*
X150406799Y-106183004D01*
X150477973Y-106096277D01*
X150477974Y-106096276D01*
X150548546Y-105964247D01*
X150592003Y-105820986D01*
X150603000Y-105709333D01*
X150603000Y-105709324D01*
X150606676Y-105672001D01*
X150603000Y-105634678D01*
X150603000Y-98576510D01*
X151459178Y-98576510D01*
X151459178Y-100575490D01*
X151471438Y-100699972D01*
X151507748Y-100819670D01*
X151566713Y-100929984D01*
X151646065Y-101026675D01*
X151742756Y-101106027D01*
X151850279Y-101163500D01*
X151742756Y-101220973D01*
X151646065Y-101300325D01*
X151566713Y-101397016D01*
X151507748Y-101507330D01*
X151471438Y-101627028D01*
X151459178Y-101751510D01*
X151459178Y-103750490D01*
X151471438Y-103874972D01*
X151507748Y-103994670D01*
X151566713Y-104104984D01*
X151646065Y-104201675D01*
X151742756Y-104281027D01*
X151850279Y-104338500D01*
X151742756Y-104395973D01*
X151646065Y-104475325D01*
X151566713Y-104572016D01*
X151507748Y-104682330D01*
X151471438Y-104802028D01*
X151459178Y-104926510D01*
X151459178Y-106925490D01*
X151471438Y-107049972D01*
X151507748Y-107169670D01*
X151566713Y-107279984D01*
X151646065Y-107376675D01*
X151742756Y-107456027D01*
X151850279Y-107513500D01*
X151742756Y-107570973D01*
X151646065Y-107650325D01*
X151566713Y-107747016D01*
X151507748Y-107857330D01*
X151471438Y-107977028D01*
X151459178Y-108101510D01*
X151459178Y-110100490D01*
X151471438Y-110224972D01*
X151507748Y-110344670D01*
X151566713Y-110454984D01*
X151646065Y-110551675D01*
X151742756Y-110631027D01*
X151850279Y-110688500D01*
X151742756Y-110745973D01*
X151646065Y-110825325D01*
X151566713Y-110922016D01*
X151507748Y-111032330D01*
X151471438Y-111152028D01*
X151459178Y-111276510D01*
X151459178Y-113275490D01*
X151471438Y-113399972D01*
X151507748Y-113519670D01*
X151566713Y-113629984D01*
X151646065Y-113726675D01*
X151742756Y-113806027D01*
X151850279Y-113863500D01*
X151742756Y-113920973D01*
X151646065Y-114000325D01*
X151566713Y-114097016D01*
X151507748Y-114207330D01*
X151471438Y-114327028D01*
X151459178Y-114451510D01*
X151459178Y-116450490D01*
X151471438Y-116574972D01*
X151507748Y-116694670D01*
X151566713Y-116804984D01*
X151646065Y-116901675D01*
X151742756Y-116981027D01*
X151850279Y-117038500D01*
X151742756Y-117095973D01*
X151646065Y-117175325D01*
X151566713Y-117272016D01*
X151507748Y-117382330D01*
X151471438Y-117502028D01*
X151459178Y-117626510D01*
X151459178Y-119625490D01*
X151471438Y-119749972D01*
X151507748Y-119869670D01*
X151566713Y-119979984D01*
X151646065Y-120076675D01*
X151742756Y-120156027D01*
X151853070Y-120214992D01*
X151972768Y-120251302D01*
X152097250Y-120263562D01*
X154096230Y-120263562D01*
X154220712Y-120251302D01*
X154223988Y-120250308D01*
X154224245Y-120250659D01*
X154316442Y-120335192D01*
X154423359Y-120400113D01*
X154540887Y-120442929D01*
X154664510Y-120461993D01*
X154789476Y-120456573D01*
X157588556Y-120057793D01*
X157742740Y-120015602D01*
X157853054Y-119956637D01*
X157949745Y-119877285D01*
X158029097Y-119780594D01*
X158088062Y-119670280D01*
X158098289Y-119636567D01*
X158122207Y-119702221D01*
X158187128Y-119809138D01*
X158271661Y-119901335D01*
X158372556Y-119975269D01*
X158485936Y-120028098D01*
X158607444Y-120057793D01*
X159969980Y-120251911D01*
X159969980Y-118753000D01*
X160223980Y-118753000D01*
X160223980Y-120288098D01*
X161406524Y-120456573D01*
X161496520Y-120462952D01*
X161621002Y-120450692D01*
X161740700Y-120414382D01*
X161851014Y-120355417D01*
X161947705Y-120276065D01*
X161969475Y-120249539D01*
X161975288Y-120251302D01*
X162099770Y-120263562D01*
X162813510Y-120260490D01*
X162972260Y-120101740D01*
X162972260Y-118753000D01*
X163226260Y-118753000D01*
X163226260Y-120101740D01*
X163385010Y-120260490D01*
X164098750Y-120263562D01*
X164223232Y-120251302D01*
X164342930Y-120214992D01*
X164453244Y-120156027D01*
X164549935Y-120076675D01*
X164629287Y-119979984D01*
X164688252Y-119869670D01*
X164724562Y-119749972D01*
X164736822Y-119625490D01*
X164734662Y-119123499D01*
X166740106Y-119123499D01*
X166956228Y-119490258D01*
X167416105Y-119730938D01*
X167914098Y-119877275D01*
X168431071Y-119923648D01*
X168947159Y-119868273D01*
X169442526Y-119713279D01*
X169859772Y-119490258D01*
X170075894Y-119123499D01*
X168408000Y-117455605D01*
X166740106Y-119123499D01*
X164734662Y-119123499D01*
X164733750Y-118911750D01*
X164575000Y-118753000D01*
X163226260Y-118753000D01*
X162972260Y-118753000D01*
X160223980Y-118753000D01*
X159969980Y-118753000D01*
X159949980Y-118753000D01*
X159949980Y-118499000D01*
X159969980Y-118499000D01*
X159969980Y-118479000D01*
X160223980Y-118479000D01*
X160223980Y-118499000D01*
X162972260Y-118499000D01*
X162972260Y-118479000D01*
X163226260Y-118479000D01*
X163226260Y-118499000D01*
X164575000Y-118499000D01*
X164733750Y-118340250D01*
X164736822Y-117626510D01*
X164724562Y-117502028D01*
X164688252Y-117382330D01*
X164643749Y-117299071D01*
X165760352Y-117299071D01*
X165815727Y-117815159D01*
X165970721Y-118310526D01*
X166193742Y-118727772D01*
X166560501Y-118943894D01*
X168228395Y-117276000D01*
X168587605Y-117276000D01*
X170255499Y-118943894D01*
X170622258Y-118727772D01*
X170862938Y-118267895D01*
X171009275Y-117769902D01*
X171055648Y-117252929D01*
X171000273Y-116736841D01*
X170845279Y-116241474D01*
X170622258Y-115824228D01*
X170255499Y-115608106D01*
X168587605Y-117276000D01*
X168228395Y-117276000D01*
X166560501Y-115608106D01*
X166193742Y-115824228D01*
X165953062Y-116284105D01*
X165806725Y-116782098D01*
X165760352Y-117299071D01*
X164643749Y-117299071D01*
X164629287Y-117272016D01*
X164549935Y-117175325D01*
X164453244Y-117095973D01*
X164345721Y-117038500D01*
X164453244Y-116981027D01*
X164549935Y-116901675D01*
X164629287Y-116804984D01*
X164688252Y-116694670D01*
X164724562Y-116574972D01*
X164736822Y-116450490D01*
X164736822Y-115428501D01*
X166740106Y-115428501D01*
X168408000Y-117096395D01*
X170075894Y-115428501D01*
X169859772Y-115061742D01*
X169399895Y-114821062D01*
X168901902Y-114674725D01*
X168384929Y-114628352D01*
X167868841Y-114683727D01*
X167373474Y-114838721D01*
X166956228Y-115061742D01*
X166740106Y-115428501D01*
X164736822Y-115428501D01*
X164736822Y-114451510D01*
X164724562Y-114327028D01*
X164688252Y-114207330D01*
X164629287Y-114097016D01*
X164549935Y-114000325D01*
X164453244Y-113920973D01*
X164345721Y-113863500D01*
X164453244Y-113806027D01*
X164549935Y-113726675D01*
X164629287Y-113629984D01*
X164688252Y-113519670D01*
X164724562Y-113399972D01*
X164736822Y-113275490D01*
X164736822Y-111276510D01*
X164724562Y-111152028D01*
X164688252Y-111032330D01*
X164629287Y-110922016D01*
X164549935Y-110825325D01*
X164453244Y-110745973D01*
X164345721Y-110688500D01*
X164453244Y-110631027D01*
X164474354Y-110613702D01*
X166174903Y-110613702D01*
X166246486Y-110857671D01*
X166501996Y-110978571D01*
X166776184Y-111047300D01*
X167058512Y-111061217D01*
X167338130Y-111019787D01*
X167604292Y-110924603D01*
X167729514Y-110857671D01*
X167801097Y-110613702D01*
X166988000Y-109800605D01*
X166174903Y-110613702D01*
X164474354Y-110613702D01*
X164549935Y-110551675D01*
X164629287Y-110454984D01*
X164688252Y-110344670D01*
X164724562Y-110224972D01*
X164736822Y-110100490D01*
X164735062Y-109691512D01*
X165547783Y-109691512D01*
X165589213Y-109971130D01*
X165684397Y-110237292D01*
X165751329Y-110362514D01*
X165995298Y-110434097D01*
X166808395Y-109621000D01*
X165995298Y-108807903D01*
X165751329Y-108879486D01*
X165630429Y-109134996D01*
X165561700Y-109409184D01*
X165547783Y-109691512D01*
X164735062Y-109691512D01*
X164733750Y-109386750D01*
X164575000Y-109228000D01*
X163226260Y-109228000D01*
X163226260Y-109248000D01*
X162972260Y-109248000D01*
X162972260Y-109228000D01*
X160223980Y-109228000D01*
X160223980Y-109248000D01*
X159969980Y-109248000D01*
X159969980Y-109228000D01*
X159949980Y-109228000D01*
X159949980Y-108974000D01*
X159969980Y-108974000D01*
X159969980Y-108954000D01*
X160223980Y-108954000D01*
X160223980Y-108974000D01*
X162972260Y-108974000D01*
X162972260Y-108954000D01*
X163226260Y-108954000D01*
X163226260Y-108974000D01*
X164575000Y-108974000D01*
X164733750Y-108815250D01*
X164736822Y-108101510D01*
X164724562Y-107977028D01*
X164688252Y-107857330D01*
X164629287Y-107747016D01*
X164549935Y-107650325D01*
X164453244Y-107570973D01*
X164345721Y-107513500D01*
X164453244Y-107456027D01*
X164549935Y-107376675D01*
X164629287Y-107279984D01*
X164688252Y-107169670D01*
X164724562Y-107049972D01*
X164736822Y-106925490D01*
X164736822Y-104926510D01*
X164724562Y-104802028D01*
X164688252Y-104682330D01*
X164629287Y-104572016D01*
X164549935Y-104475325D01*
X164453244Y-104395973D01*
X164345721Y-104338500D01*
X164453244Y-104281027D01*
X164549935Y-104201675D01*
X164629287Y-104104984D01*
X164688252Y-103994670D01*
X164724562Y-103874972D01*
X164736822Y-103750490D01*
X164736822Y-101751510D01*
X164724562Y-101627028D01*
X164688252Y-101507330D01*
X164629287Y-101397016D01*
X164549935Y-101300325D01*
X164453244Y-101220973D01*
X164345721Y-101163500D01*
X164453244Y-101106027D01*
X164549935Y-101026675D01*
X164629287Y-100929984D01*
X164688252Y-100819670D01*
X164724562Y-100699972D01*
X164736822Y-100575490D01*
X164736822Y-99661000D01*
X165549928Y-99661000D01*
X165549928Y-101261000D01*
X165562188Y-101385482D01*
X165598498Y-101505180D01*
X165657463Y-101615494D01*
X165736815Y-101712185D01*
X165833506Y-101791537D01*
X165888612Y-101820992D01*
X165873363Y-101836241D01*
X165716320Y-102071273D01*
X165608147Y-102332426D01*
X165553000Y-102609665D01*
X165553000Y-102892335D01*
X165608147Y-103169574D01*
X165716320Y-103430727D01*
X165873363Y-103665759D01*
X166073241Y-103865637D01*
X166118683Y-103896000D01*
X166073241Y-103926363D01*
X165873363Y-104126241D01*
X165716320Y-104361273D01*
X165608147Y-104622426D01*
X165553000Y-104899665D01*
X165553000Y-105182335D01*
X165608147Y-105459574D01*
X165716320Y-105720727D01*
X165873363Y-105955759D01*
X166073241Y-106155637D01*
X166118683Y-106186000D01*
X166073241Y-106216363D01*
X165873363Y-106416241D01*
X165716320Y-106651273D01*
X165608147Y-106912426D01*
X165553000Y-107189665D01*
X165553000Y-107472335D01*
X165608147Y-107749574D01*
X165716320Y-108010727D01*
X165873363Y-108245759D01*
X166073241Y-108445637D01*
X166203049Y-108532372D01*
X166174903Y-108628298D01*
X166988000Y-109441395D01*
X167002143Y-109427253D01*
X167181748Y-109606858D01*
X167167605Y-109621000D01*
X167980702Y-110434097D01*
X168224671Y-110362514D01*
X168345571Y-110107004D01*
X168414300Y-109832816D01*
X168415807Y-109802252D01*
X168481996Y-109833571D01*
X168756184Y-109902300D01*
X169038512Y-109916217D01*
X169318130Y-109874787D01*
X169520941Y-109802258D01*
X169568147Y-110039574D01*
X169676320Y-110300727D01*
X169833363Y-110535759D01*
X170033241Y-110735637D01*
X170268273Y-110892680D01*
X170529426Y-111000853D01*
X170806665Y-111056000D01*
X171089335Y-111056000D01*
X171366574Y-111000853D01*
X171627727Y-110892680D01*
X171862759Y-110735637D01*
X172062637Y-110535759D01*
X172219680Y-110300727D01*
X172327853Y-110039574D01*
X172383000Y-109762335D01*
X172383000Y-109479665D01*
X172327853Y-109202426D01*
X172219680Y-108941273D01*
X172062637Y-108706241D01*
X171862759Y-108506363D01*
X171817317Y-108476000D01*
X171862759Y-108445637D01*
X172062637Y-108245759D01*
X172219680Y-108010727D01*
X172327853Y-107749574D01*
X172383000Y-107472335D01*
X172383000Y-107189665D01*
X172327853Y-106912426D01*
X172219680Y-106651273D01*
X172062637Y-106416241D01*
X171862759Y-106216363D01*
X171817317Y-106186000D01*
X171862759Y-106155637D01*
X172062637Y-105955759D01*
X172219680Y-105720727D01*
X172327853Y-105459574D01*
X172383000Y-105182335D01*
X172383000Y-104899665D01*
X172327853Y-104622426D01*
X172219680Y-104361273D01*
X172062637Y-104126241D01*
X171862759Y-103926363D01*
X171817317Y-103896000D01*
X171862759Y-103865637D01*
X172062637Y-103665759D01*
X172219680Y-103430727D01*
X172327853Y-103169574D01*
X172383000Y-102892335D01*
X172383000Y-102609665D01*
X172327853Y-102332426D01*
X172219680Y-102071273D01*
X172062637Y-101836241D01*
X171862759Y-101636363D01*
X171817317Y-101606000D01*
X171862759Y-101575637D01*
X172062637Y-101375759D01*
X172219680Y-101140727D01*
X172327853Y-100879574D01*
X172383000Y-100602335D01*
X172383000Y-100319665D01*
X172327853Y-100042426D01*
X172219680Y-99781273D01*
X172062637Y-99546241D01*
X171862759Y-99346363D01*
X171627727Y-99189320D01*
X171366574Y-99081147D01*
X171089335Y-99026000D01*
X170806665Y-99026000D01*
X170529426Y-99081147D01*
X170392284Y-99137953D01*
X170366787Y-98965870D01*
X170271603Y-98699708D01*
X170204671Y-98574486D01*
X169960702Y-98502903D01*
X169147605Y-99316000D01*
X169161748Y-99330143D01*
X168982143Y-99509748D01*
X168968000Y-99495605D01*
X168953858Y-99509748D01*
X168774253Y-99330143D01*
X168788395Y-99316000D01*
X167975298Y-98502903D01*
X167731329Y-98574486D01*
X167610429Y-98829996D01*
X167562068Y-99022928D01*
X166188000Y-99022928D01*
X166063518Y-99035188D01*
X165943820Y-99071498D01*
X165833506Y-99130463D01*
X165736815Y-99209815D01*
X165657463Y-99306506D01*
X165598498Y-99416820D01*
X165562188Y-99536518D01*
X165549928Y-99661000D01*
X164736822Y-99661000D01*
X164736822Y-98576510D01*
X164724562Y-98452028D01*
X164688252Y-98332330D01*
X164683425Y-98323298D01*
X168154903Y-98323298D01*
X168968000Y-99136395D01*
X169781097Y-98323298D01*
X169709514Y-98079329D01*
X169454004Y-97958429D01*
X169179816Y-97889700D01*
X168897488Y-97875783D01*
X168617870Y-97917213D01*
X168351708Y-98012397D01*
X168226486Y-98079329D01*
X168154903Y-98323298D01*
X164683425Y-98323298D01*
X164629287Y-98222016D01*
X164549935Y-98125325D01*
X164453244Y-98045973D01*
X164342930Y-97987008D01*
X164223232Y-97950698D01*
X164098750Y-97938438D01*
X162099770Y-97938438D01*
X161975288Y-97950698D01*
X161972012Y-97951692D01*
X161971755Y-97951341D01*
X161879558Y-97866808D01*
X161772641Y-97801887D01*
X161655113Y-97759071D01*
X161531490Y-97740007D01*
X161406524Y-97745427D01*
X158607444Y-98144207D01*
X158453260Y-98186398D01*
X158342946Y-98245363D01*
X158246255Y-98324715D01*
X158166903Y-98421406D01*
X158107938Y-98531720D01*
X158097711Y-98565433D01*
X158073793Y-98499779D01*
X158008872Y-98392862D01*
X157924339Y-98300665D01*
X157823444Y-98226731D01*
X157710064Y-98173902D01*
X157588556Y-98144207D01*
X154789476Y-97745427D01*
X154699480Y-97739048D01*
X154574998Y-97751308D01*
X154455300Y-97787618D01*
X154344986Y-97846583D01*
X154248295Y-97925935D01*
X154226525Y-97952461D01*
X154220712Y-97950698D01*
X154096230Y-97938438D01*
X152097250Y-97938438D01*
X151972768Y-97950698D01*
X151853070Y-97987008D01*
X151742756Y-98045973D01*
X151646065Y-98125325D01*
X151566713Y-98222016D01*
X151507748Y-98332330D01*
X151471438Y-98452028D01*
X151459178Y-98576510D01*
X150603000Y-98576510D01*
X150603000Y-97102107D01*
X150801368Y-97300475D01*
X151044589Y-97462990D01*
X151314842Y-97574932D01*
X151601740Y-97632000D01*
X151894260Y-97632000D01*
X152181158Y-97574932D01*
X152451411Y-97462990D01*
X152694632Y-97300475D01*
X152901475Y-97093632D01*
X153063990Y-96850411D01*
X153175932Y-96580158D01*
X153233000Y-96293260D01*
X153233000Y-96000740D01*
X153175932Y-95713842D01*
X153063990Y-95443589D01*
X152901475Y-95200368D01*
X152694632Y-94993525D01*
X152520240Y-94877000D01*
X152694632Y-94760475D01*
X152834107Y-94621000D01*
X154339957Y-94621000D01*
X154443363Y-94775759D01*
X154643241Y-94975637D01*
X154878273Y-95132680D01*
X155139426Y-95240853D01*
X155416665Y-95296000D01*
X155699335Y-95296000D01*
X155976574Y-95240853D01*
X156237727Y-95132680D01*
X156472759Y-94975637D01*
X156672637Y-94775759D01*
X156829680Y-94540727D01*
X156937853Y-94279574D01*
X156993000Y-94002335D01*
X156993000Y-93719665D01*
X156937853Y-93442426D01*
X156829680Y-93181273D01*
X156672637Y-92946241D01*
X156472759Y-92746363D01*
X156237727Y-92589320D01*
X155976574Y-92481147D01*
X155699335Y-92426000D01*
X155416665Y-92426000D01*
X155139426Y-92481147D01*
X154878273Y-92589320D01*
X154643241Y-92746363D01*
X154443363Y-92946241D01*
X154339957Y-93101000D01*
X153145760Y-93101000D01*
X153063990Y-92903589D01*
X152901475Y-92660368D01*
X152769620Y-92528513D01*
X152842180Y-92506502D01*
X152952494Y-92447537D01*
X153049185Y-92368185D01*
X153128537Y-92271494D01*
X153187502Y-92161180D01*
X153223812Y-92041482D01*
X153236072Y-91917000D01*
X153236072Y-91446000D01*
X154339957Y-91446000D01*
X154443363Y-91600759D01*
X154643241Y-91800637D01*
X154878273Y-91957680D01*
X155139426Y-92065853D01*
X155416665Y-92121000D01*
X155699335Y-92121000D01*
X155976574Y-92065853D01*
X156237727Y-91957680D01*
X156472759Y-91800637D01*
X156672637Y-91600759D01*
X156829680Y-91365727D01*
X156937853Y-91104574D01*
X156993000Y-90827335D01*
X156993000Y-90544665D01*
X156937853Y-90267426D01*
X156829680Y-90006273D01*
X156672637Y-89771241D01*
X156472759Y-89571363D01*
X156237727Y-89414320D01*
X155976574Y-89306147D01*
X155699335Y-89251000D01*
X155416665Y-89251000D01*
X155139426Y-89306147D01*
X154878273Y-89414320D01*
X154643241Y-89571363D01*
X154443363Y-89771241D01*
X154339957Y-89926000D01*
X153162476Y-89926000D01*
X153128537Y-89862506D01*
X153049185Y-89765815D01*
X152952494Y-89686463D01*
X152842180Y-89627498D01*
X152722482Y-89591188D01*
X152598000Y-89578928D01*
X150898000Y-89578928D01*
X150773518Y-89591188D01*
X150653820Y-89627498D01*
X150543506Y-89686463D01*
X150446815Y-89765815D01*
X150367463Y-89862506D01*
X150308498Y-89972820D01*
X150272188Y-90092518D01*
X150259928Y-90217000D01*
X150259928Y-90845269D01*
X149274199Y-91831000D01*
X146705323Y-91831000D01*
X146668000Y-91827324D01*
X146630677Y-91831000D01*
X146630667Y-91831000D01*
X146519014Y-91841997D01*
X146375753Y-91885454D01*
X146243724Y-91956026D01*
X146127999Y-92050999D01*
X146104201Y-92079997D01*
X145325760Y-92858438D01*
X143763510Y-92858438D01*
X143639028Y-92870698D01*
X143519330Y-92907008D01*
X143409016Y-92965973D01*
X143312325Y-93045325D01*
X143232973Y-93142016D01*
X143174008Y-93252330D01*
X143137698Y-93372028D01*
X143125438Y-93496510D01*
X143125438Y-95495490D01*
X143137698Y-95619972D01*
X143138692Y-95623248D01*
X143138341Y-95623505D01*
X143053808Y-95715702D01*
X142988887Y-95822619D01*
X142946071Y-95940147D01*
X142927007Y-96063770D01*
X142932427Y-96188736D01*
X143331207Y-98987816D01*
X143373398Y-99142000D01*
X143432363Y-99252314D01*
X143511715Y-99349005D01*
X143608406Y-99428357D01*
X143718720Y-99487322D01*
X143752433Y-99497549D01*
X143686779Y-99521467D01*
X143579862Y-99586388D01*
X143487665Y-99670921D01*
X143413731Y-99771816D01*
X143360902Y-99885196D01*
X143331207Y-100006704D01*
X142932427Y-102805784D01*
X142926048Y-102895780D01*
X142938308Y-103020262D01*
X142974618Y-103139960D01*
X143033583Y-103250274D01*
X143112935Y-103346965D01*
X143139461Y-103368735D01*
X143137698Y-103374548D01*
X143125438Y-103499030D01*
X143125438Y-105498010D01*
X143137698Y-105622492D01*
X143174008Y-105742190D01*
X143232973Y-105852504D01*
X143312325Y-105949195D01*
X143409016Y-106028547D01*
X143519330Y-106087512D01*
X143639028Y-106123822D01*
X143763510Y-106136082D01*
X145762490Y-106136082D01*
X145886972Y-106123822D01*
X146006670Y-106087512D01*
X146116984Y-106028547D01*
X146213675Y-105949195D01*
X146293027Y-105852504D01*
X146350500Y-105744981D01*
X146407973Y-105852504D01*
X146487325Y-105949195D01*
X146580831Y-106025933D01*
X144900704Y-107706061D01*
X144900396Y-107706000D01*
X144625604Y-107706000D01*
X144356093Y-107759609D01*
X144102220Y-107864767D01*
X143873739Y-108017433D01*
X143679433Y-108211739D01*
X143526767Y-108440220D01*
X143421609Y-108694093D01*
X143368000Y-108963604D01*
X143368000Y-109238396D01*
X143421609Y-109507907D01*
X143526767Y-109761780D01*
X143679433Y-109990261D01*
X143873739Y-110184567D01*
X143874000Y-110184742D01*
X143874001Y-114367258D01*
X143873739Y-114367433D01*
X143679433Y-114561739D01*
X143526767Y-114790220D01*
X143421609Y-115044093D01*
X143368000Y-115313604D01*
X143368000Y-115588396D01*
X143421609Y-115857907D01*
X143526767Y-116111780D01*
X143679433Y-116340261D01*
X143873739Y-116534567D01*
X143874001Y-116534742D01*
X143874000Y-117947340D01*
X143869700Y-117991000D01*
X143874000Y-118034660D01*
X143874000Y-118034666D01*
X143886864Y-118165273D01*
X143937697Y-118332850D01*
X144020247Y-118487290D01*
X144131341Y-118622659D01*
X144165264Y-118650499D01*
X148082286Y-122567522D01*
X148033203Y-122607803D01*
X147845931Y-122835995D01*
X147828000Y-122869541D01*
X147810069Y-122835994D01*
X147622797Y-122607803D01*
X147394605Y-122420531D01*
X147134263Y-122281375D01*
X146851776Y-122195684D01*
X146558000Y-122166749D01*
X146264223Y-122195684D01*
X145981736Y-122281375D01*
X145721394Y-122420531D01*
X145493203Y-122607803D01*
X145305931Y-122835995D01*
X145288000Y-122869541D01*
X145270069Y-122835994D01*
X145082797Y-122607803D01*
X144854605Y-122420531D01*
X144594263Y-122281375D01*
X144311776Y-122195684D01*
X144018000Y-122166749D01*
X143724223Y-122195684D01*
X143441736Y-122281375D01*
X143181394Y-122420531D01*
X142953203Y-122607803D01*
X142765931Y-122835995D01*
X142748000Y-122869541D01*
X142730069Y-122835994D01*
X142542797Y-122607803D01*
X142314605Y-122420531D01*
X142054263Y-122281375D01*
X141771776Y-122195684D01*
X141478000Y-122166749D01*
X141184223Y-122195684D01*
X140901736Y-122281375D01*
X140641394Y-122420531D01*
X140413203Y-122607803D01*
X140225931Y-122835995D01*
X140208000Y-122869541D01*
X140190069Y-122835994D01*
X140002797Y-122607803D01*
X139774605Y-122420531D01*
X139514263Y-122281375D01*
X139231776Y-122195684D01*
X138938000Y-122166749D01*
X138644223Y-122195684D01*
X138361736Y-122281375D01*
X138101394Y-122420531D01*
X137873203Y-122607803D01*
X137685931Y-122835995D01*
X137546775Y-123096337D01*
X137461084Y-123378824D01*
X137439400Y-123598982D01*
X136512072Y-123598982D01*
X136512072Y-122825000D01*
X136499812Y-122700518D01*
X136463502Y-122580820D01*
X136449701Y-122555000D01*
X136463502Y-122529180D01*
X136499812Y-122409482D01*
X136512072Y-122285000D01*
X136512072Y-120382650D01*
X137128250Y-120380000D01*
X137287000Y-120221250D01*
X137287000Y-118872000D01*
X137541000Y-118872000D01*
X137541000Y-120221250D01*
X137699750Y-120380000D01*
X138414000Y-120383072D01*
X138538482Y-120370812D01*
X138658180Y-120334502D01*
X138768494Y-120275537D01*
X138865185Y-120196185D01*
X138944537Y-120099494D01*
X139003502Y-119989180D01*
X139039812Y-119869482D01*
X139052072Y-119745000D01*
X139049000Y-119030750D01*
X138890250Y-118872000D01*
X137541000Y-118872000D01*
X137287000Y-118872000D01*
X137267000Y-118872000D01*
X137267000Y-118618000D01*
X137287000Y-118618000D01*
X137287000Y-116332000D01*
X137541000Y-116332000D01*
X137541000Y-118618000D01*
X138890250Y-118618000D01*
X139049000Y-118459250D01*
X139052072Y-117745000D01*
X139039812Y-117620518D01*
X139003502Y-117500820D01*
X138989701Y-117475000D01*
X139003502Y-117449180D01*
X139039812Y-117329482D01*
X139052072Y-117205000D01*
X139049000Y-116490750D01*
X138890250Y-116332000D01*
X137541000Y-116332000D01*
X137287000Y-116332000D01*
X137267000Y-116332000D01*
X137267000Y-116078000D01*
X137287000Y-116078000D01*
X137287000Y-113792000D01*
X137541000Y-113792000D01*
X137541000Y-116078000D01*
X138890250Y-116078000D01*
X139049000Y-115919250D01*
X139052072Y-115205000D01*
X139039812Y-115080518D01*
X139003502Y-114960820D01*
X138989701Y-114935000D01*
X139003502Y-114909180D01*
X139039812Y-114789482D01*
X139052072Y-114665000D01*
X139049000Y-113950750D01*
X138890250Y-113792000D01*
X137541000Y-113792000D01*
X137287000Y-113792000D01*
X137267000Y-113792000D01*
X137267000Y-113538000D01*
X137287000Y-113538000D01*
X137287000Y-111252000D01*
X137541000Y-111252000D01*
X137541000Y-113538000D01*
X138890250Y-113538000D01*
X139049000Y-113379250D01*
X139052072Y-112665000D01*
X139039812Y-112540518D01*
X139003502Y-112420820D01*
X138989701Y-112395000D01*
X139003502Y-112369180D01*
X139039812Y-112249482D01*
X139052072Y-112125000D01*
X139049000Y-111410750D01*
X138890250Y-111252000D01*
X137541000Y-111252000D01*
X137287000Y-111252000D01*
X137267000Y-111252000D01*
X137267000Y-110998000D01*
X137287000Y-110998000D01*
X137287000Y-108712000D01*
X137541000Y-108712000D01*
X137541000Y-110998000D01*
X138890250Y-110998000D01*
X139049000Y-110839250D01*
X139052072Y-110125000D01*
X139039812Y-110000518D01*
X139003502Y-109880820D01*
X138989701Y-109855000D01*
X139003502Y-109829180D01*
X139039812Y-109709482D01*
X139052072Y-109585000D01*
X139049000Y-108870750D01*
X138890250Y-108712000D01*
X137541000Y-108712000D01*
X137287000Y-108712000D01*
X137267000Y-108712000D01*
X137267000Y-108458000D01*
X137287000Y-108458000D01*
X137287000Y-106172000D01*
X137541000Y-106172000D01*
X137541000Y-108458000D01*
X138890250Y-108458000D01*
X139049000Y-108299250D01*
X139052072Y-107585000D01*
X139039812Y-107460518D01*
X139003502Y-107340820D01*
X138989701Y-107315000D01*
X139003502Y-107289180D01*
X139039812Y-107169482D01*
X139052072Y-107045000D01*
X139049000Y-106330750D01*
X138890250Y-106172000D01*
X137541000Y-106172000D01*
X137287000Y-106172000D01*
X137267000Y-106172000D01*
X137267000Y-105918000D01*
X137287000Y-105918000D01*
X137287000Y-103632000D01*
X137541000Y-103632000D01*
X137541000Y-105918000D01*
X138890250Y-105918000D01*
X139049000Y-105759250D01*
X139052072Y-105045000D01*
X139039812Y-104920518D01*
X139003502Y-104800820D01*
X138989701Y-104775000D01*
X139003502Y-104749180D01*
X139039812Y-104629482D01*
X139052072Y-104505000D01*
X139049000Y-103790750D01*
X138890250Y-103632000D01*
X137541000Y-103632000D01*
X137287000Y-103632000D01*
X137267000Y-103632000D01*
X137267000Y-103378000D01*
X137287000Y-103378000D01*
X137287000Y-101092000D01*
X137541000Y-101092000D01*
X137541000Y-103378000D01*
X138890250Y-103378000D01*
X139049000Y-103219250D01*
X139052072Y-102505000D01*
X139039812Y-102380518D01*
X139003502Y-102260820D01*
X138989701Y-102235000D01*
X139003502Y-102209180D01*
X139039812Y-102089482D01*
X139052072Y-101965000D01*
X139049000Y-101250750D01*
X138890250Y-101092000D01*
X137541000Y-101092000D01*
X137287000Y-101092000D01*
X137267000Y-101092000D01*
X137267000Y-100838000D01*
X137287000Y-100838000D01*
X137287000Y-98552000D01*
X137541000Y-98552000D01*
X137541000Y-100838000D01*
X138890250Y-100838000D01*
X139049000Y-100679250D01*
X139052072Y-99965000D01*
X139039812Y-99840518D01*
X139003502Y-99720820D01*
X138989701Y-99695000D01*
X139003502Y-99669180D01*
X139039812Y-99549482D01*
X139052072Y-99425000D01*
X139049000Y-98710750D01*
X138890250Y-98552000D01*
X137541000Y-98552000D01*
X137287000Y-98552000D01*
X137267000Y-98552000D01*
X137267000Y-98298000D01*
X137287000Y-98298000D01*
X137287000Y-96012000D01*
X137541000Y-96012000D01*
X137541000Y-98298000D01*
X138890250Y-98298000D01*
X139049000Y-98139250D01*
X139052072Y-97425000D01*
X139039812Y-97300518D01*
X139003502Y-97180820D01*
X138989701Y-97155000D01*
X139003502Y-97129180D01*
X139039812Y-97009482D01*
X139052072Y-96885000D01*
X139049000Y-96170750D01*
X138890250Y-96012000D01*
X137541000Y-96012000D01*
X137287000Y-96012000D01*
X137267000Y-96012000D01*
X137267000Y-95758000D01*
X137287000Y-95758000D01*
X137287000Y-93472000D01*
X137541000Y-93472000D01*
X137541000Y-95758000D01*
X138890250Y-95758000D01*
X139049000Y-95599250D01*
X139052072Y-94885000D01*
X139039812Y-94760518D01*
X139003502Y-94640820D01*
X138989701Y-94615000D01*
X139003502Y-94589180D01*
X139039812Y-94469482D01*
X139052072Y-94345000D01*
X139049000Y-93630750D01*
X138890250Y-93472000D01*
X137541000Y-93472000D01*
X137287000Y-93472000D01*
X137267000Y-93472000D01*
X137267000Y-93218000D01*
X137287000Y-93218000D01*
X137287000Y-90932000D01*
X137541000Y-90932000D01*
X137541000Y-93218000D01*
X138890250Y-93218000D01*
X139049000Y-93059250D01*
X139052072Y-92345000D01*
X139039812Y-92220518D01*
X139003502Y-92100820D01*
X138989701Y-92075000D01*
X139003502Y-92049180D01*
X139039812Y-91929482D01*
X139052072Y-91805000D01*
X139049000Y-91090750D01*
X138890250Y-90932000D01*
X137541000Y-90932000D01*
X137287000Y-90932000D01*
X137267000Y-90932000D01*
X137267000Y-90678000D01*
X137287000Y-90678000D01*
X137287000Y-88392000D01*
X137541000Y-88392000D01*
X137541000Y-90678000D01*
X138890250Y-90678000D01*
X139049000Y-90519250D01*
X139052072Y-89805000D01*
X139039812Y-89680518D01*
X139003502Y-89560820D01*
X138989701Y-89535000D01*
X139003502Y-89509180D01*
X139039812Y-89389482D01*
X139052072Y-89265000D01*
X139049000Y-88550750D01*
X138890250Y-88392000D01*
X137541000Y-88392000D01*
X137287000Y-88392000D01*
X137267000Y-88392000D01*
X137267000Y-88138000D01*
X137287000Y-88138000D01*
X137287000Y-85852000D01*
X137541000Y-85852000D01*
X137541000Y-88138000D01*
X138890250Y-88138000D01*
X139049000Y-87979250D01*
X139052072Y-87265000D01*
X139039812Y-87140518D01*
X139003502Y-87020820D01*
X138989701Y-86995000D01*
X139003502Y-86969180D01*
X139039812Y-86849482D01*
X139052072Y-86725000D01*
X139049426Y-86109662D01*
X140254500Y-86109662D01*
X140254500Y-86372338D01*
X140305746Y-86629968D01*
X140406268Y-86872649D01*
X140552203Y-87091057D01*
X140737943Y-87276797D01*
X140956351Y-87422732D01*
X141199032Y-87523254D01*
X141456662Y-87574500D01*
X141719338Y-87574500D01*
X141976968Y-87523254D01*
X142219649Y-87422732D01*
X142438057Y-87276797D01*
X142553657Y-87161197D01*
X145927408Y-87161197D01*
X145986686Y-87394812D01*
X146224875Y-87505559D01*
X146480093Y-87567711D01*
X146742533Y-87578876D01*
X147002107Y-87538629D01*
X147248842Y-87448514D01*
X147349314Y-87394812D01*
X147408592Y-87161197D01*
X146668000Y-86420605D01*
X145927408Y-87161197D01*
X142553657Y-87161197D01*
X142623797Y-87091057D01*
X142769732Y-86872649D01*
X142870254Y-86629968D01*
X142921500Y-86372338D01*
X142921500Y-86315533D01*
X145330124Y-86315533D01*
X145370371Y-86575107D01*
X145460486Y-86821842D01*
X145514188Y-86922314D01*
X145747803Y-86981592D01*
X146488395Y-86241000D01*
X146847605Y-86241000D01*
X147588197Y-86981592D01*
X147821812Y-86922314D01*
X147932559Y-86684125D01*
X147994711Y-86428907D01*
X148005876Y-86166467D01*
X147965629Y-85906893D01*
X147875514Y-85660158D01*
X147821812Y-85559686D01*
X147588197Y-85500408D01*
X146847605Y-86241000D01*
X146488395Y-86241000D01*
X145747803Y-85500408D01*
X145514188Y-85559686D01*
X145403441Y-85797875D01*
X145341289Y-86053093D01*
X145330124Y-86315533D01*
X142921500Y-86315533D01*
X142921500Y-86109662D01*
X142870254Y-85852032D01*
X142769732Y-85609351D01*
X142623797Y-85390943D01*
X142553657Y-85320803D01*
X145927408Y-85320803D01*
X146668000Y-86061395D01*
X147408592Y-85320803D01*
X147349314Y-85087188D01*
X147111125Y-84976441D01*
X146855907Y-84914289D01*
X146593467Y-84903124D01*
X146333893Y-84943371D01*
X146087158Y-85033486D01*
X145986686Y-85087188D01*
X145927408Y-85320803D01*
X142553657Y-85320803D01*
X142438057Y-85205203D01*
X142219649Y-85059268D01*
X141976968Y-84958746D01*
X141719338Y-84907500D01*
X141456662Y-84907500D01*
X141199032Y-84958746D01*
X140956351Y-85059268D01*
X140737943Y-85205203D01*
X140552203Y-85390943D01*
X140406268Y-85609351D01*
X140305746Y-85852032D01*
X140254500Y-86109662D01*
X139049426Y-86109662D01*
X139049000Y-86010750D01*
X138890250Y-85852000D01*
X137541000Y-85852000D01*
X137287000Y-85852000D01*
X137267000Y-85852000D01*
X137267000Y-85598000D01*
X137287000Y-85598000D01*
X137287000Y-83312000D01*
X137541000Y-83312000D01*
X137541000Y-85598000D01*
X138890250Y-85598000D01*
X139049000Y-85439250D01*
X139052072Y-84725000D01*
X139039812Y-84600518D01*
X139003502Y-84480820D01*
X138989701Y-84455000D01*
X139003502Y-84429180D01*
X139039812Y-84309482D01*
X139052072Y-84185000D01*
X139049000Y-83470750D01*
X138890250Y-83312000D01*
X137541000Y-83312000D01*
X137287000Y-83312000D01*
X137267000Y-83312000D01*
X137267000Y-83058000D01*
X137287000Y-83058000D01*
X137287000Y-80772000D01*
X137541000Y-80772000D01*
X137541000Y-83058000D01*
X138890250Y-83058000D01*
X139049000Y-82899250D01*
X139052072Y-82185000D01*
X139039812Y-82060518D01*
X139003502Y-81940820D01*
X138989701Y-81915000D01*
X139003502Y-81889180D01*
X139039812Y-81769482D01*
X139052072Y-81645000D01*
X139049000Y-80930750D01*
X138890250Y-80772000D01*
X137541000Y-80772000D01*
X137287000Y-80772000D01*
X137267000Y-80772000D01*
X137267000Y-80518000D01*
X137287000Y-80518000D01*
X137287000Y-78232000D01*
X137541000Y-78232000D01*
X137541000Y-80518000D01*
X138890250Y-80518000D01*
X139049000Y-80359250D01*
X139052072Y-79645000D01*
X139039812Y-79520518D01*
X139003502Y-79400820D01*
X138989701Y-79375000D01*
X139003502Y-79349180D01*
X139039812Y-79229482D01*
X139052072Y-79105000D01*
X139049000Y-78390750D01*
X138890250Y-78232000D01*
X137541000Y-78232000D01*
X137287000Y-78232000D01*
X137267000Y-78232000D01*
X137267000Y-77978000D01*
X137287000Y-77978000D01*
X137287000Y-75692000D01*
X137267000Y-75692000D01*
X137267000Y-75438000D01*
X137287000Y-75438000D01*
X137287000Y-74078783D01*
X137541000Y-74078783D01*
X137541000Y-75438000D01*
X137561000Y-75438000D01*
X137561000Y-75692000D01*
X137541000Y-75692000D01*
X137541000Y-77978000D01*
X138890250Y-77978000D01*
X139049000Y-77819250D01*
X139052072Y-77105000D01*
X139039812Y-76980518D01*
X139009633Y-76881031D01*
X139117395Y-76969469D01*
X139377737Y-77108625D01*
X139660224Y-77194316D01*
X139954000Y-77223251D01*
X140247777Y-77194316D01*
X140530264Y-77108625D01*
X140790606Y-76969469D01*
X140828001Y-76938780D01*
X140828001Y-77525029D01*
X140737943Y-77585203D01*
X140552203Y-77770943D01*
X140406268Y-77989351D01*
X140305746Y-78232032D01*
X140254500Y-78489662D01*
X140254500Y-78752338D01*
X140305746Y-79009968D01*
X140406268Y-79252649D01*
X140552203Y-79471057D01*
X140737943Y-79656797D01*
X140956351Y-79802732D01*
X141199032Y-79903254D01*
X141456662Y-79954500D01*
X141719338Y-79954500D01*
X141976968Y-79903254D01*
X142219649Y-79802732D01*
X142438057Y-79656797D01*
X142553657Y-79541197D01*
X145927408Y-79541197D01*
X145986686Y-79774812D01*
X146224875Y-79885559D01*
X146480093Y-79947711D01*
X146742533Y-79958876D01*
X147002107Y-79918629D01*
X147248842Y-79828514D01*
X147349314Y-79774812D01*
X147408592Y-79541197D01*
X146668000Y-78800605D01*
X145927408Y-79541197D01*
X142553657Y-79541197D01*
X142623797Y-79471057D01*
X142769732Y-79252649D01*
X142870254Y-79009968D01*
X142921500Y-78752338D01*
X142921500Y-78695533D01*
X145330124Y-78695533D01*
X145370371Y-78955107D01*
X145460486Y-79201842D01*
X145514188Y-79302314D01*
X145747803Y-79361592D01*
X146488395Y-78621000D01*
X146847605Y-78621000D01*
X147588197Y-79361592D01*
X147821812Y-79302314D01*
X147932559Y-79064125D01*
X147994711Y-78808907D01*
X148005876Y-78546467D01*
X147965629Y-78286893D01*
X147875514Y-78040158D01*
X147821812Y-77939686D01*
X147588197Y-77880408D01*
X146847605Y-78621000D01*
X146488395Y-78621000D01*
X145747803Y-77880408D01*
X145514188Y-77939686D01*
X145403441Y-78177875D01*
X145341289Y-78433093D01*
X145330124Y-78695533D01*
X142921500Y-78695533D01*
X142921500Y-78489662D01*
X142870254Y-78232032D01*
X142769732Y-77989351D01*
X142623797Y-77770943D01*
X142553657Y-77700803D01*
X145927408Y-77700803D01*
X146668000Y-78441395D01*
X147408592Y-77700803D01*
X147349314Y-77467188D01*
X147111125Y-77356441D01*
X146855907Y-77294289D01*
X146593467Y-77283124D01*
X146333893Y-77323371D01*
X146087158Y-77413486D01*
X145986686Y-77467188D01*
X145927408Y-77700803D01*
X142553657Y-77700803D01*
X142438057Y-77585203D01*
X142348000Y-77525029D01*
X142348000Y-77208871D01*
X142494000Y-77223251D01*
X142787777Y-77194316D01*
X143070264Y-77108625D01*
X143330606Y-76969469D01*
X143558797Y-76782197D01*
X143746069Y-76554006D01*
X143764000Y-76520459D01*
X143781931Y-76554006D01*
X143969203Y-76782197D01*
X144197395Y-76969469D01*
X144457737Y-77108625D01*
X144740224Y-77194316D01*
X145034000Y-77223251D01*
X145327777Y-77194316D01*
X145610264Y-77108625D01*
X145870606Y-76969469D01*
X146098797Y-76782197D01*
X146286069Y-76554006D01*
X146304000Y-76520459D01*
X146321931Y-76554006D01*
X146509203Y-76782197D01*
X146737395Y-76969469D01*
X146997737Y-77108625D01*
X147280224Y-77194316D01*
X147574000Y-77223251D01*
X147619926Y-77218728D01*
X150988000Y-80586803D01*
X150988001Y-84679668D01*
X150984324Y-84717000D01*
X150988001Y-84754333D01*
X150998998Y-84865986D01*
X151011591Y-84907500D01*
X151042454Y-85009246D01*
X151113026Y-85141276D01*
X151177646Y-85220015D01*
X151208000Y-85257001D01*
X151236998Y-85280799D01*
X152454200Y-86498002D01*
X152477999Y-86527001D01*
X152593724Y-86621974D01*
X152725753Y-86692546D01*
X152869014Y-86736003D01*
X152980667Y-86747000D01*
X152980676Y-86747000D01*
X153017999Y-86750676D01*
X153055322Y-86747000D01*
X156790677Y-86747000D01*
X156827999Y-86750676D01*
X156865322Y-86747000D01*
X159561199Y-86747000D01*
X160132000Y-87317802D01*
X160132001Y-92807668D01*
X160128324Y-92845000D01*
X160132001Y-92882333D01*
X160138296Y-92946241D01*
X160142998Y-92993985D01*
X160186454Y-93137246D01*
X160257026Y-93269276D01*
X160315070Y-93340002D01*
X160352000Y-93385001D01*
X160380998Y-93408799D01*
X161344201Y-94372003D01*
X161367999Y-94401001D01*
X161396997Y-94424799D01*
X161483723Y-94495974D01*
X161589389Y-94552454D01*
X161615753Y-94566546D01*
X161739928Y-94604213D01*
X161739928Y-94661000D01*
X161752188Y-94785482D01*
X161788498Y-94905180D01*
X161847463Y-95015494D01*
X161926815Y-95112185D01*
X162023506Y-95191537D01*
X162133820Y-95250502D01*
X162253518Y-95286812D01*
X162378000Y-95299072D01*
X163978000Y-95299072D01*
X164102482Y-95286812D01*
X164222180Y-95250502D01*
X164332494Y-95191537D01*
X164429185Y-95112185D01*
X164508537Y-95015494D01*
X164567502Y-94905180D01*
X164603812Y-94785482D01*
X164616072Y-94661000D01*
X164616072Y-94123499D01*
X166740106Y-94123499D01*
X166956228Y-94490258D01*
X167416105Y-94730938D01*
X167914098Y-94877275D01*
X168431071Y-94923648D01*
X168947159Y-94868273D01*
X169442526Y-94713279D01*
X169859772Y-94490258D01*
X170075894Y-94123499D01*
X168408000Y-92455605D01*
X166740106Y-94123499D01*
X164616072Y-94123499D01*
X164616072Y-93061000D01*
X164603812Y-92936518D01*
X164567502Y-92816820D01*
X164508537Y-92706506D01*
X164429185Y-92609815D01*
X164332494Y-92530463D01*
X164222180Y-92471498D01*
X164102482Y-92435188D01*
X163978000Y-92422928D01*
X162378000Y-92422928D01*
X162253518Y-92435188D01*
X162133820Y-92471498D01*
X162023506Y-92530463D01*
X161926815Y-92609815D01*
X161847463Y-92706506D01*
X161840791Y-92718989D01*
X161652000Y-92530199D01*
X161652000Y-92299071D01*
X165760352Y-92299071D01*
X165815727Y-92815159D01*
X165970721Y-93310526D01*
X166193742Y-93727772D01*
X166560501Y-93943894D01*
X168228395Y-92276000D01*
X168587605Y-92276000D01*
X170255499Y-93943894D01*
X170622258Y-93727772D01*
X170862938Y-93267895D01*
X171009275Y-92769902D01*
X171055648Y-92252929D01*
X171000273Y-91736841D01*
X170845279Y-91241474D01*
X170622258Y-90824228D01*
X170255499Y-90608106D01*
X168587605Y-92276000D01*
X168228395Y-92276000D01*
X166560501Y-90608106D01*
X166193742Y-90824228D01*
X165953062Y-91284105D01*
X165806725Y-91782098D01*
X165760352Y-92299071D01*
X161652000Y-92299071D01*
X161652000Y-87040322D01*
X161655676Y-87003000D01*
X161652000Y-86965677D01*
X161652000Y-86965667D01*
X161641003Y-86854014D01*
X161597546Y-86710753D01*
X161587814Y-86692546D01*
X161526974Y-86578723D01*
X161455799Y-86491997D01*
X161432001Y-86462999D01*
X161403004Y-86439202D01*
X160439804Y-85476002D01*
X160416001Y-85446999D01*
X160300276Y-85352026D01*
X160168247Y-85281454D01*
X160024986Y-85237997D01*
X159913333Y-85227000D01*
X159913322Y-85227000D01*
X159876000Y-85223324D01*
X159838678Y-85227000D01*
X157478000Y-85227000D01*
X157478000Y-84979178D01*
X157664632Y-84854475D01*
X157871475Y-84647632D01*
X157988000Y-84473240D01*
X158104525Y-84647632D01*
X158311368Y-84854475D01*
X158554589Y-85016990D01*
X158824842Y-85128932D01*
X159111740Y-85186000D01*
X159404260Y-85186000D01*
X159691158Y-85128932D01*
X159961411Y-85016990D01*
X160204632Y-84854475D01*
X160411475Y-84647632D01*
X160528000Y-84473240D01*
X160644525Y-84647632D01*
X160851368Y-84854475D01*
X161038001Y-84979179D01*
X161038001Y-85331668D01*
X161034324Y-85369000D01*
X161038001Y-85406333D01*
X161044863Y-85475998D01*
X161048998Y-85517985D01*
X161092454Y-85661246D01*
X161163026Y-85793276D01*
X161217807Y-85860026D01*
X161258000Y-85909001D01*
X161286998Y-85932799D01*
X161852200Y-86498002D01*
X161875999Y-86527001D01*
X161904997Y-86550799D01*
X161991723Y-86621974D01*
X162091859Y-86675498D01*
X162123753Y-86692546D01*
X162267014Y-86736003D01*
X162378667Y-86747000D01*
X162378677Y-86747000D01*
X162416000Y-86750676D01*
X162418001Y-86750479D01*
X162418000Y-89247928D01*
X162378000Y-89247928D01*
X162253518Y-89260188D01*
X162133820Y-89296498D01*
X162023506Y-89355463D01*
X161926815Y-89434815D01*
X161847463Y-89531506D01*
X161788498Y-89641820D01*
X161752188Y-89761518D01*
X161739928Y-89886000D01*
X161739928Y-91486000D01*
X161752188Y-91610482D01*
X161788498Y-91730180D01*
X161847463Y-91840494D01*
X161926815Y-91937185D01*
X162023506Y-92016537D01*
X162133820Y-92075502D01*
X162253518Y-92111812D01*
X162378000Y-92124072D01*
X163978000Y-92124072D01*
X164102482Y-92111812D01*
X164222180Y-92075502D01*
X164332494Y-92016537D01*
X164429185Y-91937185D01*
X164508537Y-91840494D01*
X164567502Y-91730180D01*
X164603812Y-91610482D01*
X164616072Y-91486000D01*
X164616072Y-90428501D01*
X166740106Y-90428501D01*
X168408000Y-92096395D01*
X170075894Y-90428501D01*
X169859772Y-90061742D01*
X169399895Y-89821062D01*
X168901902Y-89674725D01*
X168384929Y-89628352D01*
X167868841Y-89683727D01*
X167373474Y-89838721D01*
X166956228Y-90061742D01*
X166740106Y-90428501D01*
X164616072Y-90428501D01*
X164616072Y-89886000D01*
X164603812Y-89761518D01*
X164567502Y-89641820D01*
X164508537Y-89531506D01*
X164429185Y-89434815D01*
X164332494Y-89355463D01*
X164222180Y-89296498D01*
X164102482Y-89260188D01*
X163978000Y-89247928D01*
X163938000Y-89247928D01*
X163938000Y-86747000D01*
X165680678Y-86747000D01*
X165718000Y-86750676D01*
X165755322Y-86747000D01*
X165755333Y-86747000D01*
X165866986Y-86736003D01*
X166010247Y-86692546D01*
X166142276Y-86621974D01*
X166258001Y-86527001D01*
X166281804Y-86497997D01*
X167389004Y-85390798D01*
X167418001Y-85367001D01*
X167512974Y-85251276D01*
X167583546Y-85119247D01*
X167627003Y-84975986D01*
X167638000Y-84864333D01*
X167638000Y-84864325D01*
X167641676Y-84827000D01*
X167638000Y-84789675D01*
X167638000Y-77010416D01*
X167714606Y-76969469D01*
X167942797Y-76782197D01*
X168130069Y-76554006D01*
X168148000Y-76520459D01*
X168165931Y-76554006D01*
X168353203Y-76782197D01*
X168581395Y-76969469D01*
X168841737Y-77108625D01*
X169124224Y-77194316D01*
X169418000Y-77223251D01*
X169711777Y-77194316D01*
X169994264Y-77108625D01*
X170254606Y-76969469D01*
X170482797Y-76782197D01*
X170670069Y-76554006D01*
X170688000Y-76520459D01*
X170705931Y-76554006D01*
X170893203Y-76782197D01*
X171121395Y-76969469D01*
X171381737Y-77108625D01*
X171664224Y-77194316D01*
X171958000Y-77223251D01*
X172251777Y-77194316D01*
X172534264Y-77108625D01*
X172794606Y-76969469D01*
X173022797Y-76782197D01*
X173210069Y-76554006D01*
X173228000Y-76520459D01*
X173245931Y-76554006D01*
X173433203Y-76782197D01*
X173661395Y-76969469D01*
X173921737Y-77108625D01*
X174204224Y-77194316D01*
X174498000Y-77223251D01*
X174791777Y-77194316D01*
X175074264Y-77108625D01*
X175334606Y-76969469D01*
X175562797Y-76782197D01*
X175750069Y-76554006D01*
X175889225Y-76293663D01*
X175974916Y-76011176D01*
X175996600Y-75791018D01*
X175996600Y-75338981D01*
X175974916Y-75118823D01*
X175889225Y-74836336D01*
X175750069Y-74575994D01*
X175562797Y-74347803D01*
X175334605Y-74160531D01*
X175074263Y-74021375D01*
X174791776Y-73935684D01*
X174498000Y-73906749D01*
X174204223Y-73935684D01*
X173921736Y-74021375D01*
X173661394Y-74160531D01*
X173433203Y-74347803D01*
X173245931Y-74575995D01*
X173228000Y-74609541D01*
X173210069Y-74575994D01*
X173022797Y-74347803D01*
X172794605Y-74160531D01*
X172534263Y-74021375D01*
X172251776Y-73935684D01*
X171958000Y-73906749D01*
X171664223Y-73935684D01*
X171381736Y-74021375D01*
X171121394Y-74160531D01*
X170893203Y-74347803D01*
X170705931Y-74575995D01*
X170688000Y-74609541D01*
X170670069Y-74575994D01*
X170482797Y-74347803D01*
X170254605Y-74160531D01*
X169994263Y-74021375D01*
X169711776Y-73935684D01*
X169418000Y-73906749D01*
X169124223Y-73935684D01*
X168841736Y-74021375D01*
X168581394Y-74160531D01*
X168353203Y-74347803D01*
X168165931Y-74575995D01*
X168148000Y-74609541D01*
X168130069Y-74575994D01*
X167942797Y-74347803D01*
X167714605Y-74160531D01*
X167454263Y-74021375D01*
X167171776Y-73935684D01*
X166878000Y-73906749D01*
X166584223Y-73935684D01*
X166301736Y-74021375D01*
X166041394Y-74160531D01*
X165813203Y-74347803D01*
X165625931Y-74575995D01*
X165608000Y-74609541D01*
X165590069Y-74575994D01*
X165402797Y-74347803D01*
X165174605Y-74160531D01*
X164914263Y-74021375D01*
X164631776Y-73935684D01*
X164338000Y-73906749D01*
X164044223Y-73935684D01*
X163761736Y-74021375D01*
X163501394Y-74160531D01*
X163273203Y-74347803D01*
X163085931Y-74575995D01*
X163068000Y-74609541D01*
X163050069Y-74575994D01*
X162862797Y-74347803D01*
X162634605Y-74160531D01*
X162374263Y-74021375D01*
X162091776Y-73935684D01*
X161798000Y-73906749D01*
X161504223Y-73935684D01*
X161221736Y-74021375D01*
X160961394Y-74160531D01*
X160733203Y-74347803D01*
X160545931Y-74575995D01*
X160528000Y-74609541D01*
X160510069Y-74575994D01*
X160322797Y-74347803D01*
X160094605Y-74160531D01*
X159834263Y-74021375D01*
X159551776Y-73935684D01*
X159258000Y-73906749D01*
X158964223Y-73935684D01*
X158681736Y-74021375D01*
X158421394Y-74160531D01*
X158193203Y-74347803D01*
X158005931Y-74575995D01*
X157988000Y-74609541D01*
X157970069Y-74575994D01*
X157782797Y-74347803D01*
X157554605Y-74160531D01*
X157294263Y-74021375D01*
X157011776Y-73935684D01*
X156718000Y-73906749D01*
X156424223Y-73935684D01*
X156141736Y-74021375D01*
X155881394Y-74160531D01*
X155653203Y-74347803D01*
X155465931Y-74575995D01*
X155326775Y-74836337D01*
X155241084Y-75118824D01*
X155219400Y-75338982D01*
X155219400Y-75791019D01*
X155241084Y-76011177D01*
X155326775Y-76293664D01*
X155465931Y-76554006D01*
X155653203Y-76782197D01*
X155881395Y-76969469D01*
X155958000Y-77010415D01*
X155958001Y-79882821D01*
X155771368Y-80007525D01*
X155639513Y-80139380D01*
X155617502Y-80066820D01*
X155558537Y-79956506D01*
X155479185Y-79859815D01*
X155382494Y-79780463D01*
X155272180Y-79721498D01*
X155152482Y-79685188D01*
X155028000Y-79672928D01*
X154463750Y-79676000D01*
X154305000Y-79834750D01*
X154305000Y-81034000D01*
X154325000Y-81034000D01*
X154325000Y-81288000D01*
X154305000Y-81288000D01*
X154305000Y-83574000D01*
X154325000Y-83574000D01*
X154325000Y-83828000D01*
X154305000Y-83828000D01*
X154305000Y-85021155D01*
X154534890Y-85142476D01*
X154682099Y-85097825D01*
X154944920Y-84972641D01*
X155178269Y-84798588D01*
X155373178Y-84582355D01*
X155442805Y-84465466D01*
X155564525Y-84647632D01*
X155771368Y-84854475D01*
X155958001Y-84979179D01*
X155958001Y-85227000D01*
X153332802Y-85227000D01*
X152508000Y-84402199D01*
X152508000Y-84057891D01*
X152736519Y-84057891D01*
X152833843Y-84332252D01*
X152982822Y-84582355D01*
X153177731Y-84798588D01*
X153411080Y-84972641D01*
X153673901Y-85097825D01*
X153821110Y-85142476D01*
X154051000Y-85021155D01*
X154051000Y-83828000D01*
X152857186Y-83828000D01*
X152736519Y-84057891D01*
X152508000Y-84057891D01*
X152508000Y-82011000D01*
X152689928Y-82011000D01*
X152702188Y-82135482D01*
X152738498Y-82255180D01*
X152797463Y-82365494D01*
X152876815Y-82462185D01*
X152973506Y-82541537D01*
X153083820Y-82600502D01*
X153159626Y-82623498D01*
X152982822Y-82819645D01*
X152833843Y-83069748D01*
X152736519Y-83344109D01*
X152857186Y-83574000D01*
X154051000Y-83574000D01*
X154051000Y-81288000D01*
X152851750Y-81288000D01*
X152693000Y-81446750D01*
X152689928Y-82011000D01*
X152508000Y-82011000D01*
X152508000Y-80311000D01*
X152689928Y-80311000D01*
X152693000Y-80875250D01*
X152851750Y-81034000D01*
X154051000Y-81034000D01*
X154051000Y-79834750D01*
X153892250Y-79676000D01*
X153328000Y-79672928D01*
X153203518Y-79685188D01*
X153083820Y-79721498D01*
X152973506Y-79780463D01*
X152876815Y-79859815D01*
X152797463Y-79956506D01*
X152738498Y-80066820D01*
X152702188Y-80186518D01*
X152689928Y-80311000D01*
X152508000Y-80311000D01*
X152508000Y-80309322D01*
X152511676Y-80271999D01*
X152508000Y-80234676D01*
X152508000Y-80234667D01*
X152497003Y-80123014D01*
X152453546Y-79979753D01*
X152382974Y-79847724D01*
X152346050Y-79802732D01*
X152311799Y-79760996D01*
X152311795Y-79760992D01*
X152288001Y-79731999D01*
X152259009Y-79708206D01*
X149712414Y-77161612D01*
X149820224Y-77194316D01*
X150114000Y-77223251D01*
X150407777Y-77194316D01*
X150690264Y-77108625D01*
X150950606Y-76969469D01*
X151178797Y-76782197D01*
X151366069Y-76554006D01*
X151384000Y-76520459D01*
X151401931Y-76554006D01*
X151589203Y-76782197D01*
X151817395Y-76969469D01*
X152077737Y-77108625D01*
X152360224Y-77194316D01*
X152654000Y-77223251D01*
X152947777Y-77194316D01*
X153230264Y-77108625D01*
X153490606Y-76969469D01*
X153718797Y-76782197D01*
X153906069Y-76554006D01*
X154045225Y-76293663D01*
X154130916Y-76011176D01*
X154152600Y-75791018D01*
X154152600Y-75338981D01*
X154130916Y-75118823D01*
X154045225Y-74836336D01*
X153906069Y-74575994D01*
X153718797Y-74347803D01*
X153490605Y-74160531D01*
X153230263Y-74021375D01*
X152947776Y-73935684D01*
X152654000Y-73906749D01*
X152360223Y-73935684D01*
X152077736Y-74021375D01*
X151817394Y-74160531D01*
X151589203Y-74347803D01*
X151401931Y-74575995D01*
X151384000Y-74609541D01*
X151366069Y-74575994D01*
X151178797Y-74347803D01*
X150950605Y-74160531D01*
X150690263Y-74021375D01*
X150407776Y-73935684D01*
X150114000Y-73906749D01*
X149820223Y-73935684D01*
X149537736Y-74021375D01*
X149277394Y-74160531D01*
X149049203Y-74347803D01*
X148861931Y-74575995D01*
X148844000Y-74609541D01*
X148826069Y-74575994D01*
X148638797Y-74347803D01*
X148410605Y-74160531D01*
X148150263Y-74021375D01*
X147867776Y-73935684D01*
X147574000Y-73906749D01*
X147280223Y-73935684D01*
X146997736Y-74021375D01*
X146737394Y-74160531D01*
X146509203Y-74347803D01*
X146321931Y-74575995D01*
X146304000Y-74609541D01*
X146286069Y-74575994D01*
X146098797Y-74347803D01*
X145870605Y-74160531D01*
X145610263Y-74021375D01*
X145327776Y-73935684D01*
X145034000Y-73906749D01*
X144740223Y-73935684D01*
X144457736Y-74021375D01*
X144197394Y-74160531D01*
X143969203Y-74347803D01*
X143781931Y-74575995D01*
X143764000Y-74609541D01*
X143746069Y-74575994D01*
X143558797Y-74347803D01*
X143330605Y-74160531D01*
X143070263Y-74021375D01*
X142787776Y-73935684D01*
X142494000Y-73906749D01*
X142200223Y-73935684D01*
X141917736Y-74021375D01*
X141657394Y-74160531D01*
X141429203Y-74347803D01*
X141241931Y-74575995D01*
X141224000Y-74609541D01*
X141206069Y-74575994D01*
X141018797Y-74347803D01*
X140790605Y-74160531D01*
X140530263Y-74021375D01*
X140247776Y-73935684D01*
X139954000Y-73906749D01*
X139660223Y-73935684D01*
X139377736Y-74021375D01*
X139117394Y-74160531D01*
X138889203Y-74347803D01*
X138701931Y-74575995D01*
X138680576Y-74615947D01*
X138532486Y-74413271D01*
X138316035Y-74214267D01*
X138064919Y-74061314D01*
X137788789Y-73960291D01*
X137773026Y-73957642D01*
X137541000Y-74078783D01*
X137287000Y-74078783D01*
X137054974Y-73957642D01*
X137039211Y-73960291D01*
X136763081Y-74061314D01*
X136511965Y-74214267D01*
X136381000Y-74334676D01*
X136381000Y-73735000D01*
X175219909Y-73735000D01*
X176328001Y-74843093D01*
G37*
X176328001Y-74843093D02*
X176328000Y-85944125D01*
X176324565Y-85979000D01*
X176328000Y-86013875D01*
X176328000Y-86013876D01*
X176338273Y-86118183D01*
X176378872Y-86252019D01*
X176444800Y-86375362D01*
X176533525Y-86483474D01*
X176560617Y-86505708D01*
X178868001Y-88813093D01*
X178868001Y-88863294D01*
X178738113Y-88733406D01*
X178301298Y-88441536D01*
X177815935Y-88240492D01*
X177300677Y-88138000D01*
X176775323Y-88138000D01*
X176260065Y-88240492D01*
X175774702Y-88441536D01*
X175337887Y-88733406D01*
X174966406Y-89104887D01*
X174674536Y-89541702D01*
X174473492Y-90027065D01*
X174371000Y-90542323D01*
X174371000Y-91067677D01*
X174473492Y-91582935D01*
X174674536Y-92068298D01*
X174966406Y-92505113D01*
X175337887Y-92876594D01*
X175774702Y-93168464D01*
X176260065Y-93369508D01*
X176775323Y-93472000D01*
X177300677Y-93472000D01*
X177815935Y-93369508D01*
X178301298Y-93168464D01*
X178738113Y-92876594D01*
X178868001Y-92746706D01*
X178868000Y-116803293D01*
X178738113Y-116673406D01*
X178301298Y-116381536D01*
X177815935Y-116180492D01*
X177300677Y-116078000D01*
X176775323Y-116078000D01*
X176260065Y-116180492D01*
X175774702Y-116381536D01*
X175337887Y-116673406D01*
X174966406Y-117044887D01*
X174674536Y-117481702D01*
X174473492Y-117967065D01*
X174371000Y-118482323D01*
X174371000Y-119007677D01*
X174473492Y-119522935D01*
X174674536Y-120008298D01*
X174966406Y-120445113D01*
X175337887Y-120816594D01*
X175774702Y-121108464D01*
X176260065Y-121309508D01*
X176775323Y-121412000D01*
X177300677Y-121412000D01*
X177815935Y-121309508D01*
X178301298Y-121108464D01*
X178738113Y-120816594D01*
X178868000Y-120686707D01*
X178868000Y-120990908D01*
X176560617Y-123298292D01*
X176533526Y-123320525D01*
X176511293Y-123347616D01*
X176444801Y-123428637D01*
X176378872Y-123551981D01*
X176338274Y-123685816D01*
X176324565Y-123825000D01*
X176328001Y-123859885D01*
X176328000Y-125655000D01*
X136381000Y-125655000D01*
X136381000Y-125208174D01*
X136404537Y-125179494D01*
X136463502Y-125069180D01*
X136499812Y-124949482D01*
X136512072Y-124825000D01*
X136512072Y-123598982D01*
X137439400Y-123598982D01*
X137439400Y-124051019D01*
X137461084Y-124271177D01*
X137546775Y-124553664D01*
X137685931Y-124814006D01*
X137873203Y-125042197D01*
X138101395Y-125229469D01*
X138361737Y-125368625D01*
X138644224Y-125454316D01*
X138938000Y-125483251D01*
X139231777Y-125454316D01*
X139514264Y-125368625D01*
X139774606Y-125229469D01*
X140002797Y-125042197D01*
X140190069Y-124814006D01*
X140208000Y-124780459D01*
X140225931Y-124814006D01*
X140413203Y-125042197D01*
X140641395Y-125229469D01*
X140901737Y-125368625D01*
X141184224Y-125454316D01*
X141478000Y-125483251D01*
X141771777Y-125454316D01*
X142054264Y-125368625D01*
X142314606Y-125229469D01*
X142542797Y-125042197D01*
X142730069Y-124814006D01*
X142748000Y-124780459D01*
X142765931Y-124814006D01*
X142953203Y-125042197D01*
X143181395Y-125229469D01*
X143441737Y-125368625D01*
X143724224Y-125454316D01*
X144018000Y-125483251D01*
X144311777Y-125454316D01*
X144594264Y-125368625D01*
X144854606Y-125229469D01*
X145082797Y-125042197D01*
X145270069Y-124814006D01*
X145288000Y-124780459D01*
X145305931Y-124814006D01*
X145493203Y-125042197D01*
X145721395Y-125229469D01*
X145981737Y-125368625D01*
X146264224Y-125454316D01*
X146558000Y-125483251D01*
X146851777Y-125454316D01*
X147134264Y-125368625D01*
X147394606Y-125229469D01*
X147622797Y-125042197D01*
X147810069Y-124814006D01*
X147828000Y-124780459D01*
X147845931Y-124814006D01*
X148033203Y-125042197D01*
X148261395Y-125229469D01*
X148521737Y-125368625D01*
X148804224Y-125454316D01*
X149098000Y-125483251D01*
X149391777Y-125454316D01*
X149674264Y-125368625D01*
X149934606Y-125229469D01*
X150162797Y-125042197D01*
X150350069Y-124814006D01*
X150371424Y-124774053D01*
X150519514Y-124976729D01*
X150735965Y-125175733D01*
X150987081Y-125328686D01*
X151263211Y-125429709D01*
X151278974Y-125432358D01*
X151511000Y-125311217D01*
X151511000Y-123952000D01*
X151765000Y-123952000D01*
X151765000Y-125311217D01*
X151997026Y-125432358D01*
X152012789Y-125429709D01*
X152288919Y-125328686D01*
X152540035Y-125175733D01*
X152756486Y-124976729D01*
X152908000Y-124769367D01*
X153059514Y-124976729D01*
X153275965Y-125175733D01*
X153527081Y-125328686D01*
X153803211Y-125429709D01*
X153818974Y-125432358D01*
X154051000Y-125311217D01*
X154051000Y-123952000D01*
X151765000Y-123952000D01*
X151511000Y-123952000D01*
X151491000Y-123952000D01*
X151491000Y-123698000D01*
X151511000Y-123698000D01*
X151511000Y-122338783D01*
X151765000Y-122338783D01*
X151765000Y-123698000D01*
X154051000Y-123698000D01*
X154051000Y-122338783D01*
X154305000Y-122338783D01*
X154305000Y-123698000D01*
X154325000Y-123698000D01*
X154325000Y-123952000D01*
X154305000Y-123952000D01*
X154305000Y-125311217D01*
X154537026Y-125432358D01*
X154552789Y-125429709D01*
X154828919Y-125328686D01*
X155080035Y-125175733D01*
X155296486Y-124976729D01*
X155444576Y-124774053D01*
X155465931Y-124814006D01*
X155653203Y-125042197D01*
X155881395Y-125229469D01*
X156141737Y-125368625D01*
X156424224Y-125454316D01*
X156718000Y-125483251D01*
X157011777Y-125454316D01*
X157294264Y-125368625D01*
X157554606Y-125229469D01*
X157782797Y-125042197D01*
X157970069Y-124814006D01*
X158109225Y-124553663D01*
X158194916Y-124271176D01*
X158216600Y-124051018D01*
X158216600Y-123598982D01*
X160299400Y-123598982D01*
X160299400Y-124051019D01*
X160321084Y-124271177D01*
X160406775Y-124553664D01*
X160545931Y-124814006D01*
X160733203Y-125042197D01*
X160961395Y-125229469D01*
X161221737Y-125368625D01*
X161504224Y-125454316D01*
X161798000Y-125483251D01*
X162091777Y-125454316D01*
X162374264Y-125368625D01*
X162634606Y-125229469D01*
X162862797Y-125042197D01*
X163050069Y-124814006D01*
X163068000Y-124780459D01*
X163085931Y-124814006D01*
X163273203Y-125042197D01*
X163501395Y-125229469D01*
X163761737Y-125368625D01*
X164044224Y-125454316D01*
X164338000Y-125483251D01*
X164631777Y-125454316D01*
X164914264Y-125368625D01*
X165174606Y-125229469D01*
X165402797Y-125042197D01*
X165590069Y-124814006D01*
X165608000Y-124780459D01*
X165625931Y-124814006D01*
X165813203Y-125042197D01*
X166041395Y-125229469D01*
X166301737Y-125368625D01*
X166584224Y-125454316D01*
X166878000Y-125483251D01*
X167171777Y-125454316D01*
X167454264Y-125368625D01*
X167714606Y-125229469D01*
X167942797Y-125042197D01*
X168130069Y-124814006D01*
X168148000Y-124780459D01*
X168165931Y-124814006D01*
X168353203Y-125042197D01*
X168581395Y-125229469D01*
X168841737Y-125368625D01*
X169124224Y-125454316D01*
X169418000Y-125483251D01*
X169711777Y-125454316D01*
X169994264Y-125368625D01*
X170254606Y-125229469D01*
X170482797Y-125042197D01*
X170670069Y-124814006D01*
X170688000Y-124780459D01*
X170705931Y-124814006D01*
X170893203Y-125042197D01*
X171121395Y-125229469D01*
X171381737Y-125368625D01*
X171664224Y-125454316D01*
X171958000Y-125483251D01*
X172251777Y-125454316D01*
X172534264Y-125368625D01*
X172794606Y-125229469D01*
X173022797Y-125042197D01*
X173210069Y-124814006D01*
X173228000Y-124780459D01*
X173245931Y-124814006D01*
X173433203Y-125042197D01*
X173661395Y-125229469D01*
X173921737Y-125368625D01*
X174204224Y-125454316D01*
X174498000Y-125483251D01*
X174791777Y-125454316D01*
X175074264Y-125368625D01*
X175334606Y-125229469D01*
X175562797Y-125042197D01*
X175750069Y-124814006D01*
X175889225Y-124553663D01*
X175974916Y-124271176D01*
X175996600Y-124051018D01*
X175996600Y-123598981D01*
X175974916Y-123378823D01*
X175889225Y-123096336D01*
X175750069Y-122835994D01*
X175562797Y-122607803D01*
X175334605Y-122420531D01*
X175074263Y-122281375D01*
X174791776Y-122195684D01*
X174498000Y-122166749D01*
X174204223Y-122195684D01*
X173921736Y-122281375D01*
X173661394Y-122420531D01*
X173433203Y-122607803D01*
X173245931Y-122835995D01*
X173228000Y-122869541D01*
X173210069Y-122835994D01*
X173022797Y-122607803D01*
X172794605Y-122420531D01*
X172534263Y-122281375D01*
X172251776Y-122195684D01*
X171958000Y-122166749D01*
X171664223Y-122195684D01*
X171381736Y-122281375D01*
X171121394Y-122420531D01*
X170893203Y-122607803D01*
X170705931Y-122835995D01*
X170688000Y-122869541D01*
X170670069Y-122835994D01*
X170482797Y-122607803D01*
X170254605Y-122420531D01*
X169994263Y-122281375D01*
X169711776Y-122195684D01*
X169418000Y-122166749D01*
X169124223Y-122195684D01*
X168841736Y-122281375D01*
X168581394Y-122420531D01*
X168353203Y-122607803D01*
X168165931Y-122835995D01*
X168148000Y-122869541D01*
X168130069Y-122835994D01*
X167942797Y-122607803D01*
X167714605Y-122420531D01*
X167454263Y-122281375D01*
X167171776Y-122195684D01*
X166878000Y-122166749D01*
X166584223Y-122195684D01*
X166301736Y-122281375D01*
X166041394Y-122420531D01*
X165813203Y-122607803D01*
X165625931Y-122835995D01*
X165608000Y-122869541D01*
X165590069Y-122835994D01*
X165402797Y-122607803D01*
X165174605Y-122420531D01*
X164914263Y-122281375D01*
X164631776Y-122195684D01*
X164338000Y-122166749D01*
X164044223Y-122195684D01*
X163761736Y-122281375D01*
X163501394Y-122420531D01*
X163273203Y-122607803D01*
X163085931Y-122835995D01*
X163068000Y-122869541D01*
X163050069Y-122835994D01*
X162862797Y-122607803D01*
X162634605Y-122420531D01*
X162374263Y-122281375D01*
X162091776Y-122195684D01*
X161798000Y-122166749D01*
X161504223Y-122195684D01*
X161221736Y-122281375D01*
X160961394Y-122420531D01*
X160733203Y-122607803D01*
X160545931Y-122835995D01*
X160406775Y-123096337D01*
X160321084Y-123378824D01*
X160299400Y-123598982D01*
X158216600Y-123598982D01*
X158216600Y-123598981D01*
X158194916Y-123378823D01*
X158109225Y-123096336D01*
X157970069Y-122835994D01*
X157782797Y-122607803D01*
X157554605Y-122420531D01*
X157294263Y-122281375D01*
X157011776Y-122195684D01*
X156718000Y-122166749D01*
X156424223Y-122195684D01*
X156141736Y-122281375D01*
X155881394Y-122420531D01*
X155653203Y-122607803D01*
X155465931Y-122835995D01*
X155444576Y-122875947D01*
X155296486Y-122673271D01*
X155080035Y-122474267D01*
X154828919Y-122321314D01*
X154552789Y-122220291D01*
X154537026Y-122217642D01*
X154305000Y-122338783D01*
X154051000Y-122338783D01*
X153818974Y-122217642D01*
X153803211Y-122220291D01*
X153527081Y-122321314D01*
X153275965Y-122474267D01*
X153059514Y-122673271D01*
X152908000Y-122880633D01*
X152756486Y-122673271D01*
X152540035Y-122474267D01*
X152288919Y-122321314D01*
X152012789Y-122220291D01*
X151997026Y-122217642D01*
X151765000Y-122338783D01*
X151511000Y-122338783D01*
X151278974Y-122217642D01*
X151263211Y-122220291D01*
X150987081Y-122321314D01*
X150735965Y-122474267D01*
X150519514Y-122673271D01*
X150371424Y-122875947D01*
X150350069Y-122835994D01*
X150162797Y-122607803D01*
X149987000Y-122463530D01*
X149987000Y-122369660D01*
X149991300Y-122326000D01*
X149987000Y-122282340D01*
X149987000Y-122282333D01*
X149974136Y-122151726D01*
X149923303Y-121984149D01*
X149840753Y-121829709D01*
X149729659Y-121694341D01*
X149695742Y-121666506D01*
X145652000Y-117622765D01*
X145652000Y-116534741D01*
X145652261Y-116534567D01*
X145846567Y-116340261D01*
X145999233Y-116111780D01*
X146033000Y-116030260D01*
X146066767Y-116111780D01*
X146219433Y-116340261D01*
X146413739Y-116534567D01*
X146642220Y-116687233D01*
X146896093Y-116792391D01*
X147165604Y-116846000D01*
X147440396Y-116846000D01*
X147709907Y-116792391D01*
X147963780Y-116687233D01*
X148192261Y-116534567D01*
X148386567Y-116340261D01*
X148448526Y-116247533D01*
X148457188Y-116335482D01*
X148493498Y-116455180D01*
X148552463Y-116565494D01*
X148631815Y-116662185D01*
X148728506Y-116741537D01*
X148838820Y-116800502D01*
X148958518Y-116836812D01*
X149083000Y-116849072D01*
X150603000Y-116849072D01*
X150727482Y-116836812D01*
X150847180Y-116800502D01*
X150957494Y-116741537D01*
X151054185Y-116662185D01*
X151133537Y-116565494D01*
X151192502Y-116455180D01*
X151228812Y-116335482D01*
X151241072Y-116211000D01*
X151241072Y-114691000D01*
X151228812Y-114566518D01*
X151192502Y-114446820D01*
X151133537Y-114336506D01*
X151054185Y-114239815D01*
X150957494Y-114160463D01*
X150847180Y-114101498D01*
X150727482Y-114065188D01*
X150603000Y-114052928D01*
X149083000Y-114052928D01*
X148958518Y-114065188D01*
X148838820Y-114101498D01*
X148728506Y-114160463D01*
X148631815Y-114239815D01*
X148552463Y-114336506D01*
X148493498Y-114446820D01*
X148457188Y-114566518D01*
X148448526Y-114654467D01*
X148386567Y-114561739D01*
X148192261Y-114367433D01*
X147963780Y-114214767D01*
X147709907Y-114109609D01*
X147440396Y-114056000D01*
X147165604Y-114056000D01*
X146896093Y-114109609D01*
X146642220Y-114214767D01*
X146413739Y-114367433D01*
X146219433Y-114561739D01*
X146066767Y-114790220D01*
X146033000Y-114871740D01*
X145999233Y-114790220D01*
X145846567Y-114561739D01*
X145652261Y-114367433D01*
X145652000Y-114367259D01*
X145652000Y-110184741D01*
X145652261Y-110184567D01*
X145846567Y-109990261D01*
X145999233Y-109761780D01*
X146033000Y-109680260D01*
X146066767Y-109761780D01*
X146219433Y-109990261D01*
X146413739Y-110184567D01*
X146642220Y-110337233D01*
X146896093Y-110442391D01*
X147165604Y-110496000D01*
X147440396Y-110496000D01*
X147709907Y-110442391D01*
X147963780Y-110337233D01*
X148192261Y-110184567D01*
X148386567Y-109990261D01*
X148448526Y-109897533D01*
X148457188Y-109985482D01*
X148493498Y-110105180D01*
X148552463Y-110215494D01*
X148631815Y-110312185D01*
X148728506Y-110391537D01*
X148838820Y-110450502D01*
X148958518Y-110486812D01*
X149083000Y-110499072D01*
X150603000Y-110499072D01*
X150727482Y-110486812D01*
X150847180Y-110450502D01*
X150957494Y-110391537D01*
X151054185Y-110312185D01*
X151133537Y-110215494D01*
X151192502Y-110105180D01*
X151228812Y-109985482D01*
X151241072Y-109861000D01*
X151241072Y-108341000D01*
X151228812Y-108216518D01*
X151192502Y-108096820D01*
X151133537Y-107986506D01*
X151054185Y-107889815D01*
X150957494Y-107810463D01*
X150847180Y-107751498D01*
X150727482Y-107715188D01*
X150603000Y-107702928D01*
X149083000Y-107702928D01*
X148958518Y-107715188D01*
X148838820Y-107751498D01*
X148837711Y-107752091D01*
X150354009Y-106235794D01*
X150383001Y-106212001D01*
X150406795Y-106183008D01*
X150406799Y-106183004D01*
X150477973Y-106096277D01*
X150477974Y-106096276D01*
X150548546Y-105964247D01*
X150592003Y-105820986D01*
X150603000Y-105709333D01*
X150603000Y-105709324D01*
X150606676Y-105672001D01*
X150603000Y-105634678D01*
X150603000Y-98576510D01*
X151459178Y-98576510D01*
X151459178Y-100575490D01*
X151471438Y-100699972D01*
X151507748Y-100819670D01*
X151566713Y-100929984D01*
X151646065Y-101026675D01*
X151742756Y-101106027D01*
X151850279Y-101163500D01*
X151742756Y-101220973D01*
X151646065Y-101300325D01*
X151566713Y-101397016D01*
X151507748Y-101507330D01*
X151471438Y-101627028D01*
X151459178Y-101751510D01*
X151459178Y-103750490D01*
X151471438Y-103874972D01*
X151507748Y-103994670D01*
X151566713Y-104104984D01*
X151646065Y-104201675D01*
X151742756Y-104281027D01*
X151850279Y-104338500D01*
X151742756Y-104395973D01*
X151646065Y-104475325D01*
X151566713Y-104572016D01*
X151507748Y-104682330D01*
X151471438Y-104802028D01*
X151459178Y-104926510D01*
X151459178Y-106925490D01*
X151471438Y-107049972D01*
X151507748Y-107169670D01*
X151566713Y-107279984D01*
X151646065Y-107376675D01*
X151742756Y-107456027D01*
X151850279Y-107513500D01*
X151742756Y-107570973D01*
X151646065Y-107650325D01*
X151566713Y-107747016D01*
X151507748Y-107857330D01*
X151471438Y-107977028D01*
X151459178Y-108101510D01*
X151459178Y-110100490D01*
X151471438Y-110224972D01*
X151507748Y-110344670D01*
X151566713Y-110454984D01*
X151646065Y-110551675D01*
X151742756Y-110631027D01*
X151850279Y-110688500D01*
X151742756Y-110745973D01*
X151646065Y-110825325D01*
X151566713Y-110922016D01*
X151507748Y-111032330D01*
X151471438Y-111152028D01*
X151459178Y-111276510D01*
X151459178Y-113275490D01*
X151471438Y-113399972D01*
X151507748Y-113519670D01*
X151566713Y-113629984D01*
X151646065Y-113726675D01*
X151742756Y-113806027D01*
X151850279Y-113863500D01*
X151742756Y-113920973D01*
X151646065Y-114000325D01*
X151566713Y-114097016D01*
X151507748Y-114207330D01*
X151471438Y-114327028D01*
X151459178Y-114451510D01*
X151459178Y-116450490D01*
X151471438Y-116574972D01*
X151507748Y-116694670D01*
X151566713Y-116804984D01*
X151646065Y-116901675D01*
X151742756Y-116981027D01*
X151850279Y-117038500D01*
X151742756Y-117095973D01*
X151646065Y-117175325D01*
X151566713Y-117272016D01*
X151507748Y-117382330D01*
X151471438Y-117502028D01*
X151459178Y-117626510D01*
X151459178Y-119625490D01*
X151471438Y-119749972D01*
X151507748Y-119869670D01*
X151566713Y-119979984D01*
X151646065Y-120076675D01*
X151742756Y-120156027D01*
X151853070Y-120214992D01*
X151972768Y-120251302D01*
X152097250Y-120263562D01*
X154096230Y-120263562D01*
X154220712Y-120251302D01*
X154223988Y-120250308D01*
X154224245Y-120250659D01*
X154316442Y-120335192D01*
X154423359Y-120400113D01*
X154540887Y-120442929D01*
X154664510Y-120461993D01*
X154789476Y-120456573D01*
X157588556Y-120057793D01*
X157742740Y-120015602D01*
X157853054Y-119956637D01*
X157949745Y-119877285D01*
X158029097Y-119780594D01*
X158088062Y-119670280D01*
X158098289Y-119636567D01*
X158122207Y-119702221D01*
X158187128Y-119809138D01*
X158271661Y-119901335D01*
X158372556Y-119975269D01*
X158485936Y-120028098D01*
X158607444Y-120057793D01*
X159969980Y-120251911D01*
X159969980Y-118753000D01*
X160223980Y-118753000D01*
X160223980Y-120288098D01*
X161406524Y-120456573D01*
X161496520Y-120462952D01*
X161621002Y-120450692D01*
X161740700Y-120414382D01*
X161851014Y-120355417D01*
X161947705Y-120276065D01*
X161969475Y-120249539D01*
X161975288Y-120251302D01*
X162099770Y-120263562D01*
X162813510Y-120260490D01*
X162972260Y-120101740D01*
X162972260Y-118753000D01*
X163226260Y-118753000D01*
X163226260Y-120101740D01*
X163385010Y-120260490D01*
X164098750Y-120263562D01*
X164223232Y-120251302D01*
X164342930Y-120214992D01*
X164453244Y-120156027D01*
X164549935Y-120076675D01*
X164629287Y-119979984D01*
X164688252Y-119869670D01*
X164724562Y-119749972D01*
X164736822Y-119625490D01*
X164734662Y-119123499D01*
X166740106Y-119123499D01*
X166956228Y-119490258D01*
X167416105Y-119730938D01*
X167914098Y-119877275D01*
X168431071Y-119923648D01*
X168947159Y-119868273D01*
X169442526Y-119713279D01*
X169859772Y-119490258D01*
X170075894Y-119123499D01*
X168408000Y-117455605D01*
X166740106Y-119123499D01*
X164734662Y-119123499D01*
X164733750Y-118911750D01*
X164575000Y-118753000D01*
X163226260Y-118753000D01*
X162972260Y-118753000D01*
X160223980Y-118753000D01*
X159969980Y-118753000D01*
X159949980Y-118753000D01*
X159949980Y-118499000D01*
X159969980Y-118499000D01*
X159969980Y-118479000D01*
X160223980Y-118479000D01*
X160223980Y-118499000D01*
X162972260Y-118499000D01*
X162972260Y-118479000D01*
X163226260Y-118479000D01*
X163226260Y-118499000D01*
X164575000Y-118499000D01*
X164733750Y-118340250D01*
X164736822Y-117626510D01*
X164724562Y-117502028D01*
X164688252Y-117382330D01*
X164643749Y-117299071D01*
X165760352Y-117299071D01*
X165815727Y-117815159D01*
X165970721Y-118310526D01*
X166193742Y-118727772D01*
X166560501Y-118943894D01*
X168228395Y-117276000D01*
X168587605Y-117276000D01*
X170255499Y-118943894D01*
X170622258Y-118727772D01*
X170862938Y-118267895D01*
X171009275Y-117769902D01*
X171055648Y-117252929D01*
X171000273Y-116736841D01*
X170845279Y-116241474D01*
X170622258Y-115824228D01*
X170255499Y-115608106D01*
X168587605Y-117276000D01*
X168228395Y-117276000D01*
X166560501Y-115608106D01*
X166193742Y-115824228D01*
X165953062Y-116284105D01*
X165806725Y-116782098D01*
X165760352Y-117299071D01*
X164643749Y-117299071D01*
X164629287Y-117272016D01*
X164549935Y-117175325D01*
X164453244Y-117095973D01*
X164345721Y-117038500D01*
X164453244Y-116981027D01*
X164549935Y-116901675D01*
X164629287Y-116804984D01*
X164688252Y-116694670D01*
X164724562Y-116574972D01*
X164736822Y-116450490D01*
X164736822Y-115428501D01*
X166740106Y-115428501D01*
X168408000Y-117096395D01*
X170075894Y-115428501D01*
X169859772Y-115061742D01*
X169399895Y-114821062D01*
X168901902Y-114674725D01*
X168384929Y-114628352D01*
X167868841Y-114683727D01*
X167373474Y-114838721D01*
X166956228Y-115061742D01*
X166740106Y-115428501D01*
X164736822Y-115428501D01*
X164736822Y-114451510D01*
X164724562Y-114327028D01*
X164688252Y-114207330D01*
X164629287Y-114097016D01*
X164549935Y-114000325D01*
X164453244Y-113920973D01*
X164345721Y-113863500D01*
X164453244Y-113806027D01*
X164549935Y-113726675D01*
X164629287Y-113629984D01*
X164688252Y-113519670D01*
X164724562Y-113399972D01*
X164736822Y-113275490D01*
X164736822Y-111276510D01*
X164724562Y-111152028D01*
X164688252Y-111032330D01*
X164629287Y-110922016D01*
X164549935Y-110825325D01*
X164453244Y-110745973D01*
X164345721Y-110688500D01*
X164453244Y-110631027D01*
X164474354Y-110613702D01*
X166174903Y-110613702D01*
X166246486Y-110857671D01*
X166501996Y-110978571D01*
X166776184Y-111047300D01*
X167058512Y-111061217D01*
X167338130Y-111019787D01*
X167604292Y-110924603D01*
X167729514Y-110857671D01*
X167801097Y-110613702D01*
X166988000Y-109800605D01*
X166174903Y-110613702D01*
X164474354Y-110613702D01*
X164549935Y-110551675D01*
X164629287Y-110454984D01*
X164688252Y-110344670D01*
X164724562Y-110224972D01*
X164736822Y-110100490D01*
X164735062Y-109691512D01*
X165547783Y-109691512D01*
X165589213Y-109971130D01*
X165684397Y-110237292D01*
X165751329Y-110362514D01*
X165995298Y-110434097D01*
X166808395Y-109621000D01*
X165995298Y-108807903D01*
X165751329Y-108879486D01*
X165630429Y-109134996D01*
X165561700Y-109409184D01*
X165547783Y-109691512D01*
X164735062Y-109691512D01*
X164733750Y-109386750D01*
X164575000Y-109228000D01*
X163226260Y-109228000D01*
X163226260Y-109248000D01*
X162972260Y-109248000D01*
X162972260Y-109228000D01*
X160223980Y-109228000D01*
X160223980Y-109248000D01*
X159969980Y-109248000D01*
X159969980Y-109228000D01*
X159949980Y-109228000D01*
X159949980Y-108974000D01*
X159969980Y-108974000D01*
X159969980Y-108954000D01*
X160223980Y-108954000D01*
X160223980Y-108974000D01*
X162972260Y-108974000D01*
X162972260Y-108954000D01*
X163226260Y-108954000D01*
X163226260Y-108974000D01*
X164575000Y-108974000D01*
X164733750Y-108815250D01*
X164736822Y-108101510D01*
X164724562Y-107977028D01*
X164688252Y-107857330D01*
X164629287Y-107747016D01*
X164549935Y-107650325D01*
X164453244Y-107570973D01*
X164345721Y-107513500D01*
X164453244Y-107456027D01*
X164549935Y-107376675D01*
X164629287Y-107279984D01*
X164688252Y-107169670D01*
X164724562Y-107049972D01*
X164736822Y-106925490D01*
X164736822Y-104926510D01*
X164724562Y-104802028D01*
X164688252Y-104682330D01*
X164629287Y-104572016D01*
X164549935Y-104475325D01*
X164453244Y-104395973D01*
X164345721Y-104338500D01*
X164453244Y-104281027D01*
X164549935Y-104201675D01*
X164629287Y-104104984D01*
X164688252Y-103994670D01*
X164724562Y-103874972D01*
X164736822Y-103750490D01*
X164736822Y-101751510D01*
X164724562Y-101627028D01*
X164688252Y-101507330D01*
X164629287Y-101397016D01*
X164549935Y-101300325D01*
X164453244Y-101220973D01*
X164345721Y-101163500D01*
X164453244Y-101106027D01*
X164549935Y-101026675D01*
X164629287Y-100929984D01*
X164688252Y-100819670D01*
X164724562Y-100699972D01*
X164736822Y-100575490D01*
X164736822Y-99661000D01*
X165549928Y-99661000D01*
X165549928Y-101261000D01*
X165562188Y-101385482D01*
X165598498Y-101505180D01*
X165657463Y-101615494D01*
X165736815Y-101712185D01*
X165833506Y-101791537D01*
X165888612Y-101820992D01*
X165873363Y-101836241D01*
X165716320Y-102071273D01*
X165608147Y-102332426D01*
X165553000Y-102609665D01*
X165553000Y-102892335D01*
X165608147Y-103169574D01*
X165716320Y-103430727D01*
X165873363Y-103665759D01*
X166073241Y-103865637D01*
X166118683Y-103896000D01*
X166073241Y-103926363D01*
X165873363Y-104126241D01*
X165716320Y-104361273D01*
X165608147Y-104622426D01*
X165553000Y-104899665D01*
X165553000Y-105182335D01*
X165608147Y-105459574D01*
X165716320Y-105720727D01*
X165873363Y-105955759D01*
X166073241Y-106155637D01*
X166118683Y-106186000D01*
X166073241Y-106216363D01*
X165873363Y-106416241D01*
X165716320Y-106651273D01*
X165608147Y-106912426D01*
X165553000Y-107189665D01*
X165553000Y-107472335D01*
X165608147Y-107749574D01*
X165716320Y-108010727D01*
X165873363Y-108245759D01*
X166073241Y-108445637D01*
X166203049Y-108532372D01*
X166174903Y-108628298D01*
X166988000Y-109441395D01*
X167002143Y-109427253D01*
X167181748Y-109606858D01*
X167167605Y-109621000D01*
X167980702Y-110434097D01*
X168224671Y-110362514D01*
X168345571Y-110107004D01*
X168414300Y-109832816D01*
X168415807Y-109802252D01*
X168481996Y-109833571D01*
X168756184Y-109902300D01*
X169038512Y-109916217D01*
X169318130Y-109874787D01*
X169520941Y-109802258D01*
X169568147Y-110039574D01*
X169676320Y-110300727D01*
X169833363Y-110535759D01*
X170033241Y-110735637D01*
X170268273Y-110892680D01*
X170529426Y-111000853D01*
X170806665Y-111056000D01*
X171089335Y-111056000D01*
X171366574Y-111000853D01*
X171627727Y-110892680D01*
X171862759Y-110735637D01*
X172062637Y-110535759D01*
X172219680Y-110300727D01*
X172327853Y-110039574D01*
X172383000Y-109762335D01*
X172383000Y-109479665D01*
X172327853Y-109202426D01*
X172219680Y-108941273D01*
X172062637Y-108706241D01*
X171862759Y-108506363D01*
X171817317Y-108476000D01*
X171862759Y-108445637D01*
X172062637Y-108245759D01*
X172219680Y-108010727D01*
X172327853Y-107749574D01*
X172383000Y-107472335D01*
X172383000Y-107189665D01*
X172327853Y-106912426D01*
X172219680Y-106651273D01*
X172062637Y-106416241D01*
X171862759Y-106216363D01*
X171817317Y-106186000D01*
X171862759Y-106155637D01*
X172062637Y-105955759D01*
X172219680Y-105720727D01*
X172327853Y-105459574D01*
X172383000Y-105182335D01*
X172383000Y-104899665D01*
X172327853Y-104622426D01*
X172219680Y-104361273D01*
X172062637Y-104126241D01*
X171862759Y-103926363D01*
X171817317Y-103896000D01*
X171862759Y-103865637D01*
X172062637Y-103665759D01*
X172219680Y-103430727D01*
X172327853Y-103169574D01*
X172383000Y-102892335D01*
X172383000Y-102609665D01*
X172327853Y-102332426D01*
X172219680Y-102071273D01*
X172062637Y-101836241D01*
X171862759Y-101636363D01*
X171817317Y-101606000D01*
X171862759Y-101575637D01*
X172062637Y-101375759D01*
X172219680Y-101140727D01*
X172327853Y-100879574D01*
X172383000Y-100602335D01*
X172383000Y-100319665D01*
X172327853Y-100042426D01*
X172219680Y-99781273D01*
X172062637Y-99546241D01*
X171862759Y-99346363D01*
X171627727Y-99189320D01*
X171366574Y-99081147D01*
X171089335Y-99026000D01*
X170806665Y-99026000D01*
X170529426Y-99081147D01*
X170392284Y-99137953D01*
X170366787Y-98965870D01*
X170271603Y-98699708D01*
X170204671Y-98574486D01*
X169960702Y-98502903D01*
X169147605Y-99316000D01*
X169161748Y-99330143D01*
X168982143Y-99509748D01*
X168968000Y-99495605D01*
X168953858Y-99509748D01*
X168774253Y-99330143D01*
X168788395Y-99316000D01*
X167975298Y-98502903D01*
X167731329Y-98574486D01*
X167610429Y-98829996D01*
X167562068Y-99022928D01*
X166188000Y-99022928D01*
X166063518Y-99035188D01*
X165943820Y-99071498D01*
X165833506Y-99130463D01*
X165736815Y-99209815D01*
X165657463Y-99306506D01*
X165598498Y-99416820D01*
X165562188Y-99536518D01*
X165549928Y-99661000D01*
X164736822Y-99661000D01*
X164736822Y-98576510D01*
X164724562Y-98452028D01*
X164688252Y-98332330D01*
X164683425Y-98323298D01*
X168154903Y-98323298D01*
X168968000Y-99136395D01*
X169781097Y-98323298D01*
X169709514Y-98079329D01*
X169454004Y-97958429D01*
X169179816Y-97889700D01*
X168897488Y-97875783D01*
X168617870Y-97917213D01*
X168351708Y-98012397D01*
X168226486Y-98079329D01*
X168154903Y-98323298D01*
X164683425Y-98323298D01*
X164629287Y-98222016D01*
X164549935Y-98125325D01*
X164453244Y-98045973D01*
X164342930Y-97987008D01*
X164223232Y-97950698D01*
X164098750Y-97938438D01*
X162099770Y-97938438D01*
X161975288Y-97950698D01*
X161972012Y-97951692D01*
X161971755Y-97951341D01*
X161879558Y-97866808D01*
X161772641Y-97801887D01*
X161655113Y-97759071D01*
X161531490Y-97740007D01*
X161406524Y-97745427D01*
X158607444Y-98144207D01*
X158453260Y-98186398D01*
X158342946Y-98245363D01*
X158246255Y-98324715D01*
X158166903Y-98421406D01*
X158107938Y-98531720D01*
X158097711Y-98565433D01*
X158073793Y-98499779D01*
X158008872Y-98392862D01*
X157924339Y-98300665D01*
X157823444Y-98226731D01*
X157710064Y-98173902D01*
X157588556Y-98144207D01*
X154789476Y-97745427D01*
X154699480Y-97739048D01*
X154574998Y-97751308D01*
X154455300Y-97787618D01*
X154344986Y-97846583D01*
X154248295Y-97925935D01*
X154226525Y-97952461D01*
X154220712Y-97950698D01*
X154096230Y-97938438D01*
X152097250Y-97938438D01*
X151972768Y-97950698D01*
X151853070Y-97987008D01*
X151742756Y-98045973D01*
X151646065Y-98125325D01*
X151566713Y-98222016D01*
X151507748Y-98332330D01*
X151471438Y-98452028D01*
X151459178Y-98576510D01*
X150603000Y-98576510D01*
X150603000Y-97102107D01*
X150801368Y-97300475D01*
X151044589Y-97462990D01*
X151314842Y-97574932D01*
X151601740Y-97632000D01*
X151894260Y-97632000D01*
X152181158Y-97574932D01*
X152451411Y-97462990D01*
X152694632Y-97300475D01*
X152901475Y-97093632D01*
X153063990Y-96850411D01*
X153175932Y-96580158D01*
X153233000Y-96293260D01*
X153233000Y-96000740D01*
X153175932Y-95713842D01*
X153063990Y-95443589D01*
X152901475Y-95200368D01*
X152694632Y-94993525D01*
X152520240Y-94877000D01*
X152694632Y-94760475D01*
X152834107Y-94621000D01*
X154339957Y-94621000D01*
X154443363Y-94775759D01*
X154643241Y-94975637D01*
X154878273Y-95132680D01*
X155139426Y-95240853D01*
X155416665Y-95296000D01*
X155699335Y-95296000D01*
X155976574Y-95240853D01*
X156237727Y-95132680D01*
X156472759Y-94975637D01*
X156672637Y-94775759D01*
X156829680Y-94540727D01*
X156937853Y-94279574D01*
X156993000Y-94002335D01*
X156993000Y-93719665D01*
X156937853Y-93442426D01*
X156829680Y-93181273D01*
X156672637Y-92946241D01*
X156472759Y-92746363D01*
X156237727Y-92589320D01*
X155976574Y-92481147D01*
X155699335Y-92426000D01*
X155416665Y-92426000D01*
X155139426Y-92481147D01*
X154878273Y-92589320D01*
X154643241Y-92746363D01*
X154443363Y-92946241D01*
X154339957Y-93101000D01*
X153145760Y-93101000D01*
X153063990Y-92903589D01*
X152901475Y-92660368D01*
X152769620Y-92528513D01*
X152842180Y-92506502D01*
X152952494Y-92447537D01*
X153049185Y-92368185D01*
X153128537Y-92271494D01*
X153187502Y-92161180D01*
X153223812Y-92041482D01*
X153236072Y-91917000D01*
X153236072Y-91446000D01*
X154339957Y-91446000D01*
X154443363Y-91600759D01*
X154643241Y-91800637D01*
X154878273Y-91957680D01*
X155139426Y-92065853D01*
X155416665Y-92121000D01*
X155699335Y-92121000D01*
X155976574Y-92065853D01*
X156237727Y-91957680D01*
X156472759Y-91800637D01*
X156672637Y-91600759D01*
X156829680Y-91365727D01*
X156937853Y-91104574D01*
X156993000Y-90827335D01*
X156993000Y-90544665D01*
X156937853Y-90267426D01*
X156829680Y-90006273D01*
X156672637Y-89771241D01*
X156472759Y-89571363D01*
X156237727Y-89414320D01*
X155976574Y-89306147D01*
X155699335Y-89251000D01*
X155416665Y-89251000D01*
X155139426Y-89306147D01*
X154878273Y-89414320D01*
X154643241Y-89571363D01*
X154443363Y-89771241D01*
X154339957Y-89926000D01*
X153162476Y-89926000D01*
X153128537Y-89862506D01*
X153049185Y-89765815D01*
X152952494Y-89686463D01*
X152842180Y-89627498D01*
X152722482Y-89591188D01*
X152598000Y-89578928D01*
X150898000Y-89578928D01*
X150773518Y-89591188D01*
X150653820Y-89627498D01*
X150543506Y-89686463D01*
X150446815Y-89765815D01*
X150367463Y-89862506D01*
X150308498Y-89972820D01*
X150272188Y-90092518D01*
X150259928Y-90217000D01*
X150259928Y-90845269D01*
X149274199Y-91831000D01*
X146705323Y-91831000D01*
X146668000Y-91827324D01*
X146630677Y-91831000D01*
X146630667Y-91831000D01*
X146519014Y-91841997D01*
X146375753Y-91885454D01*
X146243724Y-91956026D01*
X146127999Y-92050999D01*
X146104201Y-92079997D01*
X145325760Y-92858438D01*
X143763510Y-92858438D01*
X143639028Y-92870698D01*
X143519330Y-92907008D01*
X143409016Y-92965973D01*
X143312325Y-93045325D01*
X143232973Y-93142016D01*
X143174008Y-93252330D01*
X143137698Y-93372028D01*
X143125438Y-93496510D01*
X143125438Y-95495490D01*
X143137698Y-95619972D01*
X143138692Y-95623248D01*
X143138341Y-95623505D01*
X143053808Y-95715702D01*
X142988887Y-95822619D01*
X142946071Y-95940147D01*
X142927007Y-96063770D01*
X142932427Y-96188736D01*
X143331207Y-98987816D01*
X143373398Y-99142000D01*
X143432363Y-99252314D01*
X143511715Y-99349005D01*
X143608406Y-99428357D01*
X143718720Y-99487322D01*
X143752433Y-99497549D01*
X143686779Y-99521467D01*
X143579862Y-99586388D01*
X143487665Y-99670921D01*
X143413731Y-99771816D01*
X143360902Y-99885196D01*
X143331207Y-100006704D01*
X142932427Y-102805784D01*
X142926048Y-102895780D01*
X142938308Y-103020262D01*
X142974618Y-103139960D01*
X143033583Y-103250274D01*
X143112935Y-103346965D01*
X143139461Y-103368735D01*
X143137698Y-103374548D01*
X143125438Y-103499030D01*
X143125438Y-105498010D01*
X143137698Y-105622492D01*
X143174008Y-105742190D01*
X143232973Y-105852504D01*
X143312325Y-105949195D01*
X143409016Y-106028547D01*
X143519330Y-106087512D01*
X143639028Y-106123822D01*
X143763510Y-106136082D01*
X145762490Y-106136082D01*
X145886972Y-106123822D01*
X146006670Y-106087512D01*
X146116984Y-106028547D01*
X146213675Y-105949195D01*
X146293027Y-105852504D01*
X146350500Y-105744981D01*
X146407973Y-105852504D01*
X146487325Y-105949195D01*
X146580831Y-106025933D01*
X144900704Y-107706061D01*
X144900396Y-107706000D01*
X144625604Y-107706000D01*
X144356093Y-107759609D01*
X144102220Y-107864767D01*
X143873739Y-108017433D01*
X143679433Y-108211739D01*
X143526767Y-108440220D01*
X143421609Y-108694093D01*
X143368000Y-108963604D01*
X143368000Y-109238396D01*
X143421609Y-109507907D01*
X143526767Y-109761780D01*
X143679433Y-109990261D01*
X143873739Y-110184567D01*
X143874000Y-110184742D01*
X143874001Y-114367258D01*
X143873739Y-114367433D01*
X143679433Y-114561739D01*
X143526767Y-114790220D01*
X143421609Y-115044093D01*
X143368000Y-115313604D01*
X143368000Y-115588396D01*
X143421609Y-115857907D01*
X143526767Y-116111780D01*
X143679433Y-116340261D01*
X143873739Y-116534567D01*
X143874001Y-116534742D01*
X143874000Y-117947340D01*
X143869700Y-117991000D01*
X143874000Y-118034660D01*
X143874000Y-118034666D01*
X143886864Y-118165273D01*
X143937697Y-118332850D01*
X144020247Y-118487290D01*
X144131341Y-118622659D01*
X144165264Y-118650499D01*
X148082286Y-122567522D01*
X148033203Y-122607803D01*
X147845931Y-122835995D01*
X147828000Y-122869541D01*
X147810069Y-122835994D01*
X147622797Y-122607803D01*
X147394605Y-122420531D01*
X147134263Y-122281375D01*
X146851776Y-122195684D01*
X146558000Y-122166749D01*
X146264223Y-122195684D01*
X145981736Y-122281375D01*
X145721394Y-122420531D01*
X145493203Y-122607803D01*
X145305931Y-122835995D01*
X145288000Y-122869541D01*
X145270069Y-122835994D01*
X145082797Y-122607803D01*
X144854605Y-122420531D01*
X144594263Y-122281375D01*
X144311776Y-122195684D01*
X144018000Y-122166749D01*
X143724223Y-122195684D01*
X143441736Y-122281375D01*
X143181394Y-122420531D01*
X142953203Y-122607803D01*
X142765931Y-122835995D01*
X142748000Y-122869541D01*
X142730069Y-122835994D01*
X142542797Y-122607803D01*
X142314605Y-122420531D01*
X142054263Y-122281375D01*
X141771776Y-122195684D01*
X141478000Y-122166749D01*
X141184223Y-122195684D01*
X140901736Y-122281375D01*
X140641394Y-122420531D01*
X140413203Y-122607803D01*
X140225931Y-122835995D01*
X140208000Y-122869541D01*
X140190069Y-122835994D01*
X140002797Y-122607803D01*
X139774605Y-122420531D01*
X139514263Y-122281375D01*
X139231776Y-122195684D01*
X138938000Y-122166749D01*
X138644223Y-122195684D01*
X138361736Y-122281375D01*
X138101394Y-122420531D01*
X137873203Y-122607803D01*
X137685931Y-122835995D01*
X137546775Y-123096337D01*
X137461084Y-123378824D01*
X137439400Y-123598982D01*
X136512072Y-123598982D01*
X136512072Y-122825000D01*
X136499812Y-122700518D01*
X136463502Y-122580820D01*
X136449701Y-122555000D01*
X136463502Y-122529180D01*
X136499812Y-122409482D01*
X136512072Y-122285000D01*
X136512072Y-120382650D01*
X137128250Y-120380000D01*
X137287000Y-120221250D01*
X137287000Y-118872000D01*
X137541000Y-118872000D01*
X137541000Y-120221250D01*
X137699750Y-120380000D01*
X138414000Y-120383072D01*
X138538482Y-120370812D01*
X138658180Y-120334502D01*
X138768494Y-120275537D01*
X138865185Y-120196185D01*
X138944537Y-120099494D01*
X139003502Y-119989180D01*
X139039812Y-119869482D01*
X139052072Y-119745000D01*
X139049000Y-119030750D01*
X138890250Y-118872000D01*
X137541000Y-118872000D01*
X137287000Y-118872000D01*
X137267000Y-118872000D01*
X137267000Y-118618000D01*
X137287000Y-118618000D01*
X137287000Y-116332000D01*
X137541000Y-116332000D01*
X137541000Y-118618000D01*
X138890250Y-118618000D01*
X139049000Y-118459250D01*
X139052072Y-117745000D01*
X139039812Y-117620518D01*
X139003502Y-117500820D01*
X138989701Y-117475000D01*
X139003502Y-117449180D01*
X139039812Y-117329482D01*
X139052072Y-117205000D01*
X139049000Y-116490750D01*
X138890250Y-116332000D01*
X137541000Y-116332000D01*
X137287000Y-116332000D01*
X137267000Y-116332000D01*
X137267000Y-116078000D01*
X137287000Y-116078000D01*
X137287000Y-113792000D01*
X137541000Y-113792000D01*
X137541000Y-116078000D01*
X138890250Y-116078000D01*
X139049000Y-115919250D01*
X139052072Y-115205000D01*
X139039812Y-115080518D01*
X139003502Y-114960820D01*
X138989701Y-114935000D01*
X139003502Y-114909180D01*
X139039812Y-114789482D01*
X139052072Y-114665000D01*
X139049000Y-113950750D01*
X138890250Y-113792000D01*
X137541000Y-113792000D01*
X137287000Y-113792000D01*
X137267000Y-113792000D01*
X137267000Y-113538000D01*
X137287000Y-113538000D01*
X137287000Y-111252000D01*
X137541000Y-111252000D01*
X137541000Y-113538000D01*
X138890250Y-113538000D01*
X139049000Y-113379250D01*
X139052072Y-112665000D01*
X139039812Y-112540518D01*
X139003502Y-112420820D01*
X138989701Y-112395000D01*
X139003502Y-112369180D01*
X139039812Y-112249482D01*
X139052072Y-112125000D01*
X139049000Y-111410750D01*
X138890250Y-111252000D01*
X137541000Y-111252000D01*
X137287000Y-111252000D01*
X137267000Y-111252000D01*
X137267000Y-110998000D01*
X137287000Y-110998000D01*
X137287000Y-108712000D01*
X137541000Y-108712000D01*
X137541000Y-110998000D01*
X138890250Y-110998000D01*
X139049000Y-110839250D01*
X139052072Y-110125000D01*
X139039812Y-110000518D01*
X139003502Y-109880820D01*
X138989701Y-109855000D01*
X139003502Y-109829180D01*
X139039812Y-109709482D01*
X139052072Y-109585000D01*
X139049000Y-108870750D01*
X138890250Y-108712000D01*
X137541000Y-108712000D01*
X137287000Y-108712000D01*
X137267000Y-108712000D01*
X137267000Y-108458000D01*
X137287000Y-108458000D01*
X137287000Y-106172000D01*
X137541000Y-106172000D01*
X137541000Y-108458000D01*
X138890250Y-108458000D01*
X139049000Y-108299250D01*
X139052072Y-107585000D01*
X139039812Y-107460518D01*
X139003502Y-107340820D01*
X138989701Y-107315000D01*
X139003502Y-107289180D01*
X139039812Y-107169482D01*
X139052072Y-107045000D01*
X139049000Y-106330750D01*
X138890250Y-106172000D01*
X137541000Y-106172000D01*
X137287000Y-106172000D01*
X137267000Y-106172000D01*
X137267000Y-105918000D01*
X137287000Y-105918000D01*
X137287000Y-103632000D01*
X137541000Y-103632000D01*
X137541000Y-105918000D01*
X138890250Y-105918000D01*
X139049000Y-105759250D01*
X139052072Y-105045000D01*
X139039812Y-104920518D01*
X139003502Y-104800820D01*
X138989701Y-104775000D01*
X139003502Y-104749180D01*
X139039812Y-104629482D01*
X139052072Y-104505000D01*
X139049000Y-103790750D01*
X138890250Y-103632000D01*
X137541000Y-103632000D01*
X137287000Y-103632000D01*
X137267000Y-103632000D01*
X137267000Y-103378000D01*
X137287000Y-103378000D01*
X137287000Y-101092000D01*
X137541000Y-101092000D01*
X137541000Y-103378000D01*
X138890250Y-103378000D01*
X139049000Y-103219250D01*
X139052072Y-102505000D01*
X139039812Y-102380518D01*
X139003502Y-102260820D01*
X138989701Y-102235000D01*
X139003502Y-102209180D01*
X139039812Y-102089482D01*
X139052072Y-101965000D01*
X139049000Y-101250750D01*
X138890250Y-101092000D01*
X137541000Y-101092000D01*
X137287000Y-101092000D01*
X137267000Y-101092000D01*
X137267000Y-100838000D01*
X137287000Y-100838000D01*
X137287000Y-98552000D01*
X137541000Y-98552000D01*
X137541000Y-100838000D01*
X138890250Y-100838000D01*
X139049000Y-100679250D01*
X139052072Y-99965000D01*
X139039812Y-99840518D01*
X139003502Y-99720820D01*
X138989701Y-99695000D01*
X139003502Y-99669180D01*
X139039812Y-99549482D01*
X139052072Y-99425000D01*
X139049000Y-98710750D01*
X138890250Y-98552000D01*
X137541000Y-98552000D01*
X137287000Y-98552000D01*
X137267000Y-98552000D01*
X137267000Y-98298000D01*
X137287000Y-98298000D01*
X137287000Y-96012000D01*
X137541000Y-96012000D01*
X137541000Y-98298000D01*
X138890250Y-98298000D01*
X139049000Y-98139250D01*
X139052072Y-97425000D01*
X139039812Y-97300518D01*
X139003502Y-97180820D01*
X138989701Y-97155000D01*
X139003502Y-97129180D01*
X139039812Y-97009482D01*
X139052072Y-96885000D01*
X139049000Y-96170750D01*
X138890250Y-96012000D01*
X137541000Y-96012000D01*
X137287000Y-96012000D01*
X137267000Y-96012000D01*
X137267000Y-95758000D01*
X137287000Y-95758000D01*
X137287000Y-93472000D01*
X137541000Y-93472000D01*
X137541000Y-95758000D01*
X138890250Y-95758000D01*
X139049000Y-95599250D01*
X139052072Y-94885000D01*
X139039812Y-94760518D01*
X139003502Y-94640820D01*
X138989701Y-94615000D01*
X139003502Y-94589180D01*
X139039812Y-94469482D01*
X139052072Y-94345000D01*
X139049000Y-93630750D01*
X138890250Y-93472000D01*
X137541000Y-93472000D01*
X137287000Y-93472000D01*
X137267000Y-93472000D01*
X137267000Y-93218000D01*
X137287000Y-93218000D01*
X137287000Y-90932000D01*
X137541000Y-90932000D01*
X137541000Y-93218000D01*
X138890250Y-93218000D01*
X139049000Y-93059250D01*
X139052072Y-92345000D01*
X139039812Y-92220518D01*
X139003502Y-92100820D01*
X138989701Y-92075000D01*
X139003502Y-92049180D01*
X139039812Y-91929482D01*
X139052072Y-91805000D01*
X139049000Y-91090750D01*
X138890250Y-90932000D01*
X137541000Y-90932000D01*
X137287000Y-90932000D01*
X137267000Y-90932000D01*
X137267000Y-90678000D01*
X137287000Y-90678000D01*
X137287000Y-88392000D01*
X137541000Y-88392000D01*
X137541000Y-90678000D01*
X138890250Y-90678000D01*
X139049000Y-90519250D01*
X139052072Y-89805000D01*
X139039812Y-89680518D01*
X139003502Y-89560820D01*
X138989701Y-89535000D01*
X139003502Y-89509180D01*
X139039812Y-89389482D01*
X139052072Y-89265000D01*
X139049000Y-88550750D01*
X138890250Y-88392000D01*
X137541000Y-88392000D01*
X137287000Y-88392000D01*
X137267000Y-88392000D01*
X137267000Y-88138000D01*
X137287000Y-88138000D01*
X137287000Y-85852000D01*
X137541000Y-85852000D01*
X137541000Y-88138000D01*
X138890250Y-88138000D01*
X139049000Y-87979250D01*
X139052072Y-87265000D01*
X139039812Y-87140518D01*
X139003502Y-87020820D01*
X138989701Y-86995000D01*
X139003502Y-86969180D01*
X139039812Y-86849482D01*
X139052072Y-86725000D01*
X139049426Y-86109662D01*
X140254500Y-86109662D01*
X140254500Y-86372338D01*
X140305746Y-86629968D01*
X140406268Y-86872649D01*
X140552203Y-87091057D01*
X140737943Y-87276797D01*
X140956351Y-87422732D01*
X141199032Y-87523254D01*
X141456662Y-87574500D01*
X141719338Y-87574500D01*
X141976968Y-87523254D01*
X142219649Y-87422732D01*
X142438057Y-87276797D01*
X142553657Y-87161197D01*
X145927408Y-87161197D01*
X145986686Y-87394812D01*
X146224875Y-87505559D01*
X146480093Y-87567711D01*
X146742533Y-87578876D01*
X147002107Y-87538629D01*
X147248842Y-87448514D01*
X147349314Y-87394812D01*
X147408592Y-87161197D01*
X146668000Y-86420605D01*
X145927408Y-87161197D01*
X142553657Y-87161197D01*
X142623797Y-87091057D01*
X142769732Y-86872649D01*
X142870254Y-86629968D01*
X142921500Y-86372338D01*
X142921500Y-86315533D01*
X145330124Y-86315533D01*
X145370371Y-86575107D01*
X145460486Y-86821842D01*
X145514188Y-86922314D01*
X145747803Y-86981592D01*
X146488395Y-86241000D01*
X146847605Y-86241000D01*
X147588197Y-86981592D01*
X147821812Y-86922314D01*
X147932559Y-86684125D01*
X147994711Y-86428907D01*
X148005876Y-86166467D01*
X147965629Y-85906893D01*
X147875514Y-85660158D01*
X147821812Y-85559686D01*
X147588197Y-85500408D01*
X146847605Y-86241000D01*
X146488395Y-86241000D01*
X145747803Y-85500408D01*
X145514188Y-85559686D01*
X145403441Y-85797875D01*
X145341289Y-86053093D01*
X145330124Y-86315533D01*
X142921500Y-86315533D01*
X142921500Y-86109662D01*
X142870254Y-85852032D01*
X142769732Y-85609351D01*
X142623797Y-85390943D01*
X142553657Y-85320803D01*
X145927408Y-85320803D01*
X146668000Y-86061395D01*
X147408592Y-85320803D01*
X147349314Y-85087188D01*
X147111125Y-84976441D01*
X146855907Y-84914289D01*
X146593467Y-84903124D01*
X146333893Y-84943371D01*
X146087158Y-85033486D01*
X145986686Y-85087188D01*
X145927408Y-85320803D01*
X142553657Y-85320803D01*
X142438057Y-85205203D01*
X142219649Y-85059268D01*
X141976968Y-84958746D01*
X141719338Y-84907500D01*
X141456662Y-84907500D01*
X141199032Y-84958746D01*
X140956351Y-85059268D01*
X140737943Y-85205203D01*
X140552203Y-85390943D01*
X140406268Y-85609351D01*
X140305746Y-85852032D01*
X140254500Y-86109662D01*
X139049426Y-86109662D01*
X139049000Y-86010750D01*
X138890250Y-85852000D01*
X137541000Y-85852000D01*
X137287000Y-85852000D01*
X137267000Y-85852000D01*
X137267000Y-85598000D01*
X137287000Y-85598000D01*
X137287000Y-83312000D01*
X137541000Y-83312000D01*
X137541000Y-85598000D01*
X138890250Y-85598000D01*
X139049000Y-85439250D01*
X139052072Y-84725000D01*
X139039812Y-84600518D01*
X139003502Y-84480820D01*
X138989701Y-84455000D01*
X139003502Y-84429180D01*
X139039812Y-84309482D01*
X139052072Y-84185000D01*
X139049000Y-83470750D01*
X138890250Y-83312000D01*
X137541000Y-83312000D01*
X137287000Y-83312000D01*
X137267000Y-83312000D01*
X137267000Y-83058000D01*
X137287000Y-83058000D01*
X137287000Y-80772000D01*
X137541000Y-80772000D01*
X137541000Y-83058000D01*
X138890250Y-83058000D01*
X139049000Y-82899250D01*
X139052072Y-82185000D01*
X139039812Y-82060518D01*
X139003502Y-81940820D01*
X138989701Y-81915000D01*
X139003502Y-81889180D01*
X139039812Y-81769482D01*
X139052072Y-81645000D01*
X139049000Y-80930750D01*
X138890250Y-80772000D01*
X137541000Y-80772000D01*
X137287000Y-80772000D01*
X137267000Y-80772000D01*
X137267000Y-80518000D01*
X137287000Y-80518000D01*
X137287000Y-78232000D01*
X137541000Y-78232000D01*
X137541000Y-80518000D01*
X138890250Y-80518000D01*
X139049000Y-80359250D01*
X139052072Y-79645000D01*
X139039812Y-79520518D01*
X139003502Y-79400820D01*
X138989701Y-79375000D01*
X139003502Y-79349180D01*
X139039812Y-79229482D01*
X139052072Y-79105000D01*
X139049000Y-78390750D01*
X138890250Y-78232000D01*
X137541000Y-78232000D01*
X137287000Y-78232000D01*
X137267000Y-78232000D01*
X137267000Y-77978000D01*
X137287000Y-77978000D01*
X137287000Y-75692000D01*
X137267000Y-75692000D01*
X137267000Y-75438000D01*
X137287000Y-75438000D01*
X137287000Y-74078783D01*
X137541000Y-74078783D01*
X137541000Y-75438000D01*
X137561000Y-75438000D01*
X137561000Y-75692000D01*
X137541000Y-75692000D01*
X137541000Y-77978000D01*
X138890250Y-77978000D01*
X139049000Y-77819250D01*
X139052072Y-77105000D01*
X139039812Y-76980518D01*
X139009633Y-76881031D01*
X139117395Y-76969469D01*
X139377737Y-77108625D01*
X139660224Y-77194316D01*
X139954000Y-77223251D01*
X140247777Y-77194316D01*
X140530264Y-77108625D01*
X140790606Y-76969469D01*
X140828001Y-76938780D01*
X140828001Y-77525029D01*
X140737943Y-77585203D01*
X140552203Y-77770943D01*
X140406268Y-77989351D01*
X140305746Y-78232032D01*
X140254500Y-78489662D01*
X140254500Y-78752338D01*
X140305746Y-79009968D01*
X140406268Y-79252649D01*
X140552203Y-79471057D01*
X140737943Y-79656797D01*
X140956351Y-79802732D01*
X141199032Y-79903254D01*
X141456662Y-79954500D01*
X141719338Y-79954500D01*
X141976968Y-79903254D01*
X142219649Y-79802732D01*
X142438057Y-79656797D01*
X142553657Y-79541197D01*
X145927408Y-79541197D01*
X145986686Y-79774812D01*
X146224875Y-79885559D01*
X146480093Y-79947711D01*
X146742533Y-79958876D01*
X147002107Y-79918629D01*
X147248842Y-79828514D01*
X147349314Y-79774812D01*
X147408592Y-79541197D01*
X146668000Y-78800605D01*
X145927408Y-79541197D01*
X142553657Y-79541197D01*
X142623797Y-79471057D01*
X142769732Y-79252649D01*
X142870254Y-79009968D01*
X142921500Y-78752338D01*
X142921500Y-78695533D01*
X145330124Y-78695533D01*
X145370371Y-78955107D01*
X145460486Y-79201842D01*
X145514188Y-79302314D01*
X145747803Y-79361592D01*
X146488395Y-78621000D01*
X146847605Y-78621000D01*
X147588197Y-79361592D01*
X147821812Y-79302314D01*
X147932559Y-79064125D01*
X147994711Y-78808907D01*
X148005876Y-78546467D01*
X147965629Y-78286893D01*
X147875514Y-78040158D01*
X147821812Y-77939686D01*
X147588197Y-77880408D01*
X146847605Y-78621000D01*
X146488395Y-78621000D01*
X145747803Y-77880408D01*
X145514188Y-77939686D01*
X145403441Y-78177875D01*
X145341289Y-78433093D01*
X145330124Y-78695533D01*
X142921500Y-78695533D01*
X142921500Y-78489662D01*
X142870254Y-78232032D01*
X142769732Y-77989351D01*
X142623797Y-77770943D01*
X142553657Y-77700803D01*
X145927408Y-77700803D01*
X146668000Y-78441395D01*
X147408592Y-77700803D01*
X147349314Y-77467188D01*
X147111125Y-77356441D01*
X146855907Y-77294289D01*
X146593467Y-77283124D01*
X146333893Y-77323371D01*
X146087158Y-77413486D01*
X145986686Y-77467188D01*
X145927408Y-77700803D01*
X142553657Y-77700803D01*
X142438057Y-77585203D01*
X142348000Y-77525029D01*
X142348000Y-77208871D01*
X142494000Y-77223251D01*
X142787777Y-77194316D01*
X143070264Y-77108625D01*
X143330606Y-76969469D01*
X143558797Y-76782197D01*
X143746069Y-76554006D01*
X143764000Y-76520459D01*
X143781931Y-76554006D01*
X143969203Y-76782197D01*
X144197395Y-76969469D01*
X144457737Y-77108625D01*
X144740224Y-77194316D01*
X145034000Y-77223251D01*
X145327777Y-77194316D01*
X145610264Y-77108625D01*
X145870606Y-76969469D01*
X146098797Y-76782197D01*
X146286069Y-76554006D01*
X146304000Y-76520459D01*
X146321931Y-76554006D01*
X146509203Y-76782197D01*
X146737395Y-76969469D01*
X146997737Y-77108625D01*
X147280224Y-77194316D01*
X147574000Y-77223251D01*
X147619926Y-77218728D01*
X150988000Y-80586803D01*
X150988001Y-84679668D01*
X150984324Y-84717000D01*
X150988001Y-84754333D01*
X150998998Y-84865986D01*
X151011591Y-84907500D01*
X151042454Y-85009246D01*
X151113026Y-85141276D01*
X151177646Y-85220015D01*
X151208000Y-85257001D01*
X151236998Y-85280799D01*
X152454200Y-86498002D01*
X152477999Y-86527001D01*
X152593724Y-86621974D01*
X152725753Y-86692546D01*
X152869014Y-86736003D01*
X152980667Y-86747000D01*
X152980676Y-86747000D01*
X153017999Y-86750676D01*
X153055322Y-86747000D01*
X156790677Y-86747000D01*
X156827999Y-86750676D01*
X156865322Y-86747000D01*
X159561199Y-86747000D01*
X160132000Y-87317802D01*
X160132001Y-92807668D01*
X160128324Y-92845000D01*
X160132001Y-92882333D01*
X160138296Y-92946241D01*
X160142998Y-92993985D01*
X160186454Y-93137246D01*
X160257026Y-93269276D01*
X160315070Y-93340002D01*
X160352000Y-93385001D01*
X160380998Y-93408799D01*
X161344201Y-94372003D01*
X161367999Y-94401001D01*
X161396997Y-94424799D01*
X161483723Y-94495974D01*
X161589389Y-94552454D01*
X161615753Y-94566546D01*
X161739928Y-94604213D01*
X161739928Y-94661000D01*
X161752188Y-94785482D01*
X161788498Y-94905180D01*
X161847463Y-95015494D01*
X161926815Y-95112185D01*
X162023506Y-95191537D01*
X162133820Y-95250502D01*
X162253518Y-95286812D01*
X162378000Y-95299072D01*
X163978000Y-95299072D01*
X164102482Y-95286812D01*
X164222180Y-95250502D01*
X164332494Y-95191537D01*
X164429185Y-95112185D01*
X164508537Y-95015494D01*
X164567502Y-94905180D01*
X164603812Y-94785482D01*
X164616072Y-94661000D01*
X164616072Y-94123499D01*
X166740106Y-94123499D01*
X166956228Y-94490258D01*
X167416105Y-94730938D01*
X167914098Y-94877275D01*
X168431071Y-94923648D01*
X168947159Y-94868273D01*
X169442526Y-94713279D01*
X169859772Y-94490258D01*
X170075894Y-94123499D01*
X168408000Y-92455605D01*
X166740106Y-94123499D01*
X164616072Y-94123499D01*
X164616072Y-93061000D01*
X164603812Y-92936518D01*
X164567502Y-92816820D01*
X164508537Y-92706506D01*
X164429185Y-92609815D01*
X164332494Y-92530463D01*
X164222180Y-92471498D01*
X164102482Y-92435188D01*
X163978000Y-92422928D01*
X162378000Y-92422928D01*
X162253518Y-92435188D01*
X162133820Y-92471498D01*
X162023506Y-92530463D01*
X161926815Y-92609815D01*
X161847463Y-92706506D01*
X161840791Y-92718989D01*
X161652000Y-92530199D01*
X161652000Y-92299071D01*
X165760352Y-92299071D01*
X165815727Y-92815159D01*
X165970721Y-93310526D01*
X166193742Y-93727772D01*
X166560501Y-93943894D01*
X168228395Y-92276000D01*
X168587605Y-92276000D01*
X170255499Y-93943894D01*
X170622258Y-93727772D01*
X170862938Y-93267895D01*
X171009275Y-92769902D01*
X171055648Y-92252929D01*
X171000273Y-91736841D01*
X170845279Y-91241474D01*
X170622258Y-90824228D01*
X170255499Y-90608106D01*
X168587605Y-92276000D01*
X168228395Y-92276000D01*
X166560501Y-90608106D01*
X166193742Y-90824228D01*
X165953062Y-91284105D01*
X165806725Y-91782098D01*
X165760352Y-92299071D01*
X161652000Y-92299071D01*
X161652000Y-87040322D01*
X161655676Y-87003000D01*
X161652000Y-86965677D01*
X161652000Y-86965667D01*
X161641003Y-86854014D01*
X161597546Y-86710753D01*
X161587814Y-86692546D01*
X161526974Y-86578723D01*
X161455799Y-86491997D01*
X161432001Y-86462999D01*
X161403004Y-86439202D01*
X160439804Y-85476002D01*
X160416001Y-85446999D01*
X160300276Y-85352026D01*
X160168247Y-85281454D01*
X160024986Y-85237997D01*
X159913333Y-85227000D01*
X159913322Y-85227000D01*
X159876000Y-85223324D01*
X159838678Y-85227000D01*
X157478000Y-85227000D01*
X157478000Y-84979178D01*
X157664632Y-84854475D01*
X157871475Y-84647632D01*
X157988000Y-84473240D01*
X158104525Y-84647632D01*
X158311368Y-84854475D01*
X158554589Y-85016990D01*
X158824842Y-85128932D01*
X159111740Y-85186000D01*
X159404260Y-85186000D01*
X159691158Y-85128932D01*
X159961411Y-85016990D01*
X160204632Y-84854475D01*
X160411475Y-84647632D01*
X160528000Y-84473240D01*
X160644525Y-84647632D01*
X160851368Y-84854475D01*
X161038001Y-84979179D01*
X161038001Y-85331668D01*
X161034324Y-85369000D01*
X161038001Y-85406333D01*
X161044863Y-85475998D01*
X161048998Y-85517985D01*
X161092454Y-85661246D01*
X161163026Y-85793276D01*
X161217807Y-85860026D01*
X161258000Y-85909001D01*
X161286998Y-85932799D01*
X161852200Y-86498002D01*
X161875999Y-86527001D01*
X161904997Y-86550799D01*
X161991723Y-86621974D01*
X162091859Y-86675498D01*
X162123753Y-86692546D01*
X162267014Y-86736003D01*
X162378667Y-86747000D01*
X162378677Y-86747000D01*
X162416000Y-86750676D01*
X162418001Y-86750479D01*
X162418000Y-89247928D01*
X162378000Y-89247928D01*
X162253518Y-89260188D01*
X162133820Y-89296498D01*
X162023506Y-89355463D01*
X161926815Y-89434815D01*
X161847463Y-89531506D01*
X161788498Y-89641820D01*
X161752188Y-89761518D01*
X161739928Y-89886000D01*
X161739928Y-91486000D01*
X161752188Y-91610482D01*
X161788498Y-91730180D01*
X161847463Y-91840494D01*
X161926815Y-91937185D01*
X162023506Y-92016537D01*
X162133820Y-92075502D01*
X162253518Y-92111812D01*
X162378000Y-92124072D01*
X163978000Y-92124072D01*
X164102482Y-92111812D01*
X164222180Y-92075502D01*
X164332494Y-92016537D01*
X164429185Y-91937185D01*
X164508537Y-91840494D01*
X164567502Y-91730180D01*
X164603812Y-91610482D01*
X164616072Y-91486000D01*
X164616072Y-90428501D01*
X166740106Y-90428501D01*
X168408000Y-92096395D01*
X170075894Y-90428501D01*
X169859772Y-90061742D01*
X169399895Y-89821062D01*
X168901902Y-89674725D01*
X168384929Y-89628352D01*
X167868841Y-89683727D01*
X167373474Y-89838721D01*
X166956228Y-90061742D01*
X166740106Y-90428501D01*
X164616072Y-90428501D01*
X164616072Y-89886000D01*
X164603812Y-89761518D01*
X164567502Y-89641820D01*
X164508537Y-89531506D01*
X164429185Y-89434815D01*
X164332494Y-89355463D01*
X164222180Y-89296498D01*
X164102482Y-89260188D01*
X163978000Y-89247928D01*
X163938000Y-89247928D01*
X163938000Y-86747000D01*
X165680678Y-86747000D01*
X165718000Y-86750676D01*
X165755322Y-86747000D01*
X165755333Y-86747000D01*
X165866986Y-86736003D01*
X166010247Y-86692546D01*
X166142276Y-86621974D01*
X166258001Y-86527001D01*
X166281804Y-86497997D01*
X167389004Y-85390798D01*
X167418001Y-85367001D01*
X167512974Y-85251276D01*
X167583546Y-85119247D01*
X167627003Y-84975986D01*
X167638000Y-84864333D01*
X167638000Y-84864325D01*
X167641676Y-84827000D01*
X167638000Y-84789675D01*
X167638000Y-77010416D01*
X167714606Y-76969469D01*
X167942797Y-76782197D01*
X168130069Y-76554006D01*
X168148000Y-76520459D01*
X168165931Y-76554006D01*
X168353203Y-76782197D01*
X168581395Y-76969469D01*
X168841737Y-77108625D01*
X169124224Y-77194316D01*
X169418000Y-77223251D01*
X169711777Y-77194316D01*
X169994264Y-77108625D01*
X170254606Y-76969469D01*
X170482797Y-76782197D01*
X170670069Y-76554006D01*
X170688000Y-76520459D01*
X170705931Y-76554006D01*
X170893203Y-76782197D01*
X171121395Y-76969469D01*
X171381737Y-77108625D01*
X171664224Y-77194316D01*
X171958000Y-77223251D01*
X172251777Y-77194316D01*
X172534264Y-77108625D01*
X172794606Y-76969469D01*
X173022797Y-76782197D01*
X173210069Y-76554006D01*
X173228000Y-76520459D01*
X173245931Y-76554006D01*
X173433203Y-76782197D01*
X173661395Y-76969469D01*
X173921737Y-77108625D01*
X174204224Y-77194316D01*
X174498000Y-77223251D01*
X174791777Y-77194316D01*
X175074264Y-77108625D01*
X175334606Y-76969469D01*
X175562797Y-76782197D01*
X175750069Y-76554006D01*
X175889225Y-76293663D01*
X175974916Y-76011176D01*
X175996600Y-75791018D01*
X175996600Y-75338981D01*
X175974916Y-75118823D01*
X175889225Y-74836336D01*
X175750069Y-74575994D01*
X175562797Y-74347803D01*
X175334605Y-74160531D01*
X175074263Y-74021375D01*
X174791776Y-73935684D01*
X174498000Y-73906749D01*
X174204223Y-73935684D01*
X173921736Y-74021375D01*
X173661394Y-74160531D01*
X173433203Y-74347803D01*
X173245931Y-74575995D01*
X173228000Y-74609541D01*
X173210069Y-74575994D01*
X173022797Y-74347803D01*
X172794605Y-74160531D01*
X172534263Y-74021375D01*
X172251776Y-73935684D01*
X171958000Y-73906749D01*
X171664223Y-73935684D01*
X171381736Y-74021375D01*
X171121394Y-74160531D01*
X170893203Y-74347803D01*
X170705931Y-74575995D01*
X170688000Y-74609541D01*
X170670069Y-74575994D01*
X170482797Y-74347803D01*
X170254605Y-74160531D01*
X169994263Y-74021375D01*
X169711776Y-73935684D01*
X169418000Y-73906749D01*
X169124223Y-73935684D01*
X168841736Y-74021375D01*
X168581394Y-74160531D01*
X168353203Y-74347803D01*
X168165931Y-74575995D01*
X168148000Y-74609541D01*
X168130069Y-74575994D01*
X167942797Y-74347803D01*
X167714605Y-74160531D01*
X167454263Y-74021375D01*
X167171776Y-73935684D01*
X166878000Y-73906749D01*
X166584223Y-73935684D01*
X166301736Y-74021375D01*
X166041394Y-74160531D01*
X165813203Y-74347803D01*
X165625931Y-74575995D01*
X165608000Y-74609541D01*
X165590069Y-74575994D01*
X165402797Y-74347803D01*
X165174605Y-74160531D01*
X164914263Y-74021375D01*
X164631776Y-73935684D01*
X164338000Y-73906749D01*
X164044223Y-73935684D01*
X163761736Y-74021375D01*
X163501394Y-74160531D01*
X163273203Y-74347803D01*
X163085931Y-74575995D01*
X163068000Y-74609541D01*
X163050069Y-74575994D01*
X162862797Y-74347803D01*
X162634605Y-74160531D01*
X162374263Y-74021375D01*
X162091776Y-73935684D01*
X161798000Y-73906749D01*
X161504223Y-73935684D01*
X161221736Y-74021375D01*
X160961394Y-74160531D01*
X160733203Y-74347803D01*
X160545931Y-74575995D01*
X160528000Y-74609541D01*
X160510069Y-74575994D01*
X160322797Y-74347803D01*
X160094605Y-74160531D01*
X159834263Y-74021375D01*
X159551776Y-73935684D01*
X159258000Y-73906749D01*
X158964223Y-73935684D01*
X158681736Y-74021375D01*
X158421394Y-74160531D01*
X158193203Y-74347803D01*
X158005931Y-74575995D01*
X157988000Y-74609541D01*
X157970069Y-74575994D01*
X157782797Y-74347803D01*
X157554605Y-74160531D01*
X157294263Y-74021375D01*
X157011776Y-73935684D01*
X156718000Y-73906749D01*
X156424223Y-73935684D01*
X156141736Y-74021375D01*
X155881394Y-74160531D01*
X155653203Y-74347803D01*
X155465931Y-74575995D01*
X155326775Y-74836337D01*
X155241084Y-75118824D01*
X155219400Y-75338982D01*
X155219400Y-75791019D01*
X155241084Y-76011177D01*
X155326775Y-76293664D01*
X155465931Y-76554006D01*
X155653203Y-76782197D01*
X155881395Y-76969469D01*
X155958000Y-77010415D01*
X155958001Y-79882821D01*
X155771368Y-80007525D01*
X155639513Y-80139380D01*
X155617502Y-80066820D01*
X155558537Y-79956506D01*
X155479185Y-79859815D01*
X155382494Y-79780463D01*
X155272180Y-79721498D01*
X155152482Y-79685188D01*
X155028000Y-79672928D01*
X154463750Y-79676000D01*
X154305000Y-79834750D01*
X154305000Y-81034000D01*
X154325000Y-81034000D01*
X154325000Y-81288000D01*
X154305000Y-81288000D01*
X154305000Y-83574000D01*
X154325000Y-83574000D01*
X154325000Y-83828000D01*
X154305000Y-83828000D01*
X154305000Y-85021155D01*
X154534890Y-85142476D01*
X154682099Y-85097825D01*
X154944920Y-84972641D01*
X155178269Y-84798588D01*
X155373178Y-84582355D01*
X155442805Y-84465466D01*
X155564525Y-84647632D01*
X155771368Y-84854475D01*
X155958001Y-84979179D01*
X155958001Y-85227000D01*
X153332802Y-85227000D01*
X152508000Y-84402199D01*
X152508000Y-84057891D01*
X152736519Y-84057891D01*
X152833843Y-84332252D01*
X152982822Y-84582355D01*
X153177731Y-84798588D01*
X153411080Y-84972641D01*
X153673901Y-85097825D01*
X153821110Y-85142476D01*
X154051000Y-85021155D01*
X154051000Y-83828000D01*
X152857186Y-83828000D01*
X152736519Y-84057891D01*
X152508000Y-84057891D01*
X152508000Y-82011000D01*
X152689928Y-82011000D01*
X152702188Y-82135482D01*
X152738498Y-82255180D01*
X152797463Y-82365494D01*
X152876815Y-82462185D01*
X152973506Y-82541537D01*
X153083820Y-82600502D01*
X153159626Y-82623498D01*
X152982822Y-82819645D01*
X152833843Y-83069748D01*
X152736519Y-83344109D01*
X152857186Y-83574000D01*
X154051000Y-83574000D01*
X154051000Y-81288000D01*
X152851750Y-81288000D01*
X152693000Y-81446750D01*
X152689928Y-82011000D01*
X152508000Y-82011000D01*
X152508000Y-80311000D01*
X152689928Y-80311000D01*
X152693000Y-80875250D01*
X152851750Y-81034000D01*
X154051000Y-81034000D01*
X154051000Y-79834750D01*
X153892250Y-79676000D01*
X153328000Y-79672928D01*
X153203518Y-79685188D01*
X153083820Y-79721498D01*
X152973506Y-79780463D01*
X152876815Y-79859815D01*
X152797463Y-79956506D01*
X152738498Y-80066820D01*
X152702188Y-80186518D01*
X152689928Y-80311000D01*
X152508000Y-80311000D01*
X152508000Y-80309322D01*
X152511676Y-80271999D01*
X152508000Y-80234676D01*
X152508000Y-80234667D01*
X152497003Y-80123014D01*
X152453546Y-79979753D01*
X152382974Y-79847724D01*
X152346050Y-79802732D01*
X152311799Y-79760996D01*
X152311795Y-79760992D01*
X152288001Y-79731999D01*
X152259009Y-79708206D01*
X149712414Y-77161612D01*
X149820224Y-77194316D01*
X150114000Y-77223251D01*
X150407777Y-77194316D01*
X150690264Y-77108625D01*
X150950606Y-76969469D01*
X151178797Y-76782197D01*
X151366069Y-76554006D01*
X151384000Y-76520459D01*
X151401931Y-76554006D01*
X151589203Y-76782197D01*
X151817395Y-76969469D01*
X152077737Y-77108625D01*
X152360224Y-77194316D01*
X152654000Y-77223251D01*
X152947777Y-77194316D01*
X153230264Y-77108625D01*
X153490606Y-76969469D01*
X153718797Y-76782197D01*
X153906069Y-76554006D01*
X154045225Y-76293663D01*
X154130916Y-76011176D01*
X154152600Y-75791018D01*
X154152600Y-75338981D01*
X154130916Y-75118823D01*
X154045225Y-74836336D01*
X153906069Y-74575994D01*
X153718797Y-74347803D01*
X153490605Y-74160531D01*
X153230263Y-74021375D01*
X152947776Y-73935684D01*
X152654000Y-73906749D01*
X152360223Y-73935684D01*
X152077736Y-74021375D01*
X151817394Y-74160531D01*
X151589203Y-74347803D01*
X151401931Y-74575995D01*
X151384000Y-74609541D01*
X151366069Y-74575994D01*
X151178797Y-74347803D01*
X150950605Y-74160531D01*
X150690263Y-74021375D01*
X150407776Y-73935684D01*
X150114000Y-73906749D01*
X149820223Y-73935684D01*
X149537736Y-74021375D01*
X149277394Y-74160531D01*
X149049203Y-74347803D01*
X148861931Y-74575995D01*
X148844000Y-74609541D01*
X148826069Y-74575994D01*
X148638797Y-74347803D01*
X148410605Y-74160531D01*
X148150263Y-74021375D01*
X147867776Y-73935684D01*
X147574000Y-73906749D01*
X147280223Y-73935684D01*
X146997736Y-74021375D01*
X146737394Y-74160531D01*
X146509203Y-74347803D01*
X146321931Y-74575995D01*
X146304000Y-74609541D01*
X146286069Y-74575994D01*
X146098797Y-74347803D01*
X145870605Y-74160531D01*
X145610263Y-74021375D01*
X145327776Y-73935684D01*
X145034000Y-73906749D01*
X144740223Y-73935684D01*
X144457736Y-74021375D01*
X144197394Y-74160531D01*
X143969203Y-74347803D01*
X143781931Y-74575995D01*
X143764000Y-74609541D01*
X143746069Y-74575994D01*
X143558797Y-74347803D01*
X143330605Y-74160531D01*
X143070263Y-74021375D01*
X142787776Y-73935684D01*
X142494000Y-73906749D01*
X142200223Y-73935684D01*
X141917736Y-74021375D01*
X141657394Y-74160531D01*
X141429203Y-74347803D01*
X141241931Y-74575995D01*
X141224000Y-74609541D01*
X141206069Y-74575994D01*
X141018797Y-74347803D01*
X140790605Y-74160531D01*
X140530263Y-74021375D01*
X140247776Y-73935684D01*
X139954000Y-73906749D01*
X139660223Y-73935684D01*
X139377736Y-74021375D01*
X139117394Y-74160531D01*
X138889203Y-74347803D01*
X138701931Y-74575995D01*
X138680576Y-74615947D01*
X138532486Y-74413271D01*
X138316035Y-74214267D01*
X138064919Y-74061314D01*
X137788789Y-73960291D01*
X137773026Y-73957642D01*
X137541000Y-74078783D01*
X137287000Y-74078783D01*
X137054974Y-73957642D01*
X137039211Y-73960291D01*
X136763081Y-74061314D01*
X136511965Y-74214267D01*
X136381000Y-74334676D01*
X136381000Y-73735000D01*
X175219909Y-73735000D01*
X176328001Y-74843093D01*
G36*
X169161748Y-108461858D02*
G01*
X169147605Y-108476000D01*
X169161748Y-108490143D01*
X168982143Y-108669748D01*
X168968000Y-108655605D01*
X168953858Y-108669748D01*
X168774253Y-108490143D01*
X168788395Y-108476000D01*
X168774253Y-108461858D01*
X168953858Y-108282253D01*
X168968000Y-108296395D01*
X168982143Y-108282253D01*
X169161748Y-108461858D01*
G37*
X169161748Y-108461858D02*
X169147605Y-108476000D01*
X169161748Y-108490143D01*
X168982143Y-108669748D01*
X168968000Y-108655605D01*
X168953858Y-108669748D01*
X168774253Y-108490143D01*
X168788395Y-108476000D01*
X168774253Y-108461858D01*
X168953858Y-108282253D01*
X168968000Y-108296395D01*
X168982143Y-108282253D01*
X169161748Y-108461858D01*
G36*
X169161748Y-103881858D02*
G01*
X169147605Y-103896000D01*
X169161748Y-103910143D01*
X168982143Y-104089748D01*
X168968000Y-104075605D01*
X168953858Y-104089748D01*
X168774253Y-103910143D01*
X168788395Y-103896000D01*
X168774253Y-103881858D01*
X168953858Y-103702253D01*
X168968000Y-103716395D01*
X168982143Y-103702253D01*
X169161748Y-103881858D01*
G37*
X169161748Y-103881858D02*
X169147605Y-103896000D01*
X169161748Y-103910143D01*
X168982143Y-104089748D01*
X168968000Y-104075605D01*
X168953858Y-104089748D01*
X168774253Y-103910143D01*
X168788395Y-103896000D01*
X168774253Y-103881858D01*
X168953858Y-103702253D01*
X168968000Y-103716395D01*
X168982143Y-103702253D01*
X169161748Y-103881858D01*
G36*
X169161748Y-101591858D02*
G01*
X169147605Y-101606000D01*
X169161748Y-101620143D01*
X168982143Y-101799748D01*
X168968000Y-101785605D01*
X168953858Y-101799748D01*
X168774253Y-101620143D01*
X168788395Y-101606000D01*
X168774253Y-101591858D01*
X168953858Y-101412253D01*
X168968000Y-101426395D01*
X168982143Y-101412253D01*
X169161748Y-101591858D01*
G37*
X169161748Y-101591858D02*
X169147605Y-101606000D01*
X169161748Y-101620143D01*
X168982143Y-101799748D01*
X168968000Y-101785605D01*
X168953858Y-101799748D01*
X168774253Y-101620143D01*
X168788395Y-101606000D01*
X168774253Y-101591858D01*
X168953858Y-101412253D01*
X168968000Y-101426395D01*
X168982143Y-101412253D01*
X169161748Y-101591858D01*
G36*
X165625931Y-76554006D02*
G01*
X165813203Y-76782197D01*
X166041395Y-76969469D01*
X166118000Y-77010415D01*
X166118001Y-84027657D01*
X166118000Y-84027667D01*
X166118000Y-84512198D01*
X165403199Y-85227000D01*
X163215333Y-85227000D01*
X163178000Y-85223323D01*
X163140667Y-85227000D01*
X162730802Y-85227000D01*
X162558000Y-85054199D01*
X162558000Y-84979178D01*
X162744632Y-84854475D01*
X162951475Y-84647632D01*
X163073195Y-84465466D01*
X163142822Y-84582355D01*
X163337731Y-84798588D01*
X163571080Y-84972641D01*
X163833901Y-85097825D01*
X163981110Y-85142476D01*
X164211000Y-85021155D01*
X164211000Y-83828000D01*
X164465000Y-83828000D01*
X164465000Y-85021155D01*
X164694890Y-85142476D01*
X164842099Y-85097825D01*
X165104920Y-84972641D01*
X165338269Y-84798588D01*
X165533178Y-84582355D01*
X165682157Y-84332252D01*
X165779481Y-84057891D01*
X165658814Y-83828000D01*
X164465000Y-83828000D01*
X164211000Y-83828000D01*
X164191000Y-83828000D01*
X164191000Y-83574000D01*
X164211000Y-83574000D01*
X164211000Y-81288000D01*
X164465000Y-81288000D01*
X164465000Y-83574000D01*
X165658814Y-83574000D01*
X165779481Y-83344109D01*
X165682157Y-83069748D01*
X165533178Y-82819645D01*
X165338269Y-82603412D01*
X165107120Y-82431000D01*
X165338269Y-82258588D01*
X165533178Y-82042355D01*
X165682157Y-81792252D01*
X165779481Y-81517891D01*
X165658814Y-81288000D01*
X164465000Y-81288000D01*
X164211000Y-81288000D01*
X164191000Y-81288000D01*
X164191000Y-81034000D01*
X164211000Y-81034000D01*
X164211000Y-79840845D01*
X164465000Y-79840845D01*
X164465000Y-81034000D01*
X165658814Y-81034000D01*
X165779481Y-80804109D01*
X165682157Y-80529748D01*
X165533178Y-80279645D01*
X165338269Y-80063412D01*
X165104920Y-79889359D01*
X164842099Y-79764175D01*
X164694890Y-79719524D01*
X164465000Y-79840845D01*
X164211000Y-79840845D01*
X163981110Y-79719524D01*
X163833901Y-79764175D01*
X163571080Y-79889359D01*
X163337731Y-80063412D01*
X163142822Y-80279645D01*
X163073195Y-80396534D01*
X162951475Y-80214368D01*
X162744632Y-80007525D01*
X162558000Y-79882822D01*
X162558000Y-77010416D01*
X162634606Y-76969469D01*
X162862797Y-76782197D01*
X163050069Y-76554006D01*
X163068000Y-76520459D01*
X163085931Y-76554006D01*
X163273203Y-76782197D01*
X163501395Y-76969469D01*
X163761737Y-77108625D01*
X164044224Y-77194316D01*
X164338000Y-77223251D01*
X164631777Y-77194316D01*
X164914264Y-77108625D01*
X165174606Y-76969469D01*
X165402797Y-76782197D01*
X165590069Y-76554006D01*
X165608000Y-76520459D01*
X165625931Y-76554006D01*
G37*
X165625931Y-76554006D02*
X165813203Y-76782197D01*
X166041395Y-76969469D01*
X166118000Y-77010415D01*
X166118001Y-84027657D01*
X166118000Y-84027667D01*
X166118000Y-84512198D01*
X165403199Y-85227000D01*
X163215333Y-85227000D01*
X163178000Y-85223323D01*
X163140667Y-85227000D01*
X162730802Y-85227000D01*
X162558000Y-85054199D01*
X162558000Y-84979178D01*
X162744632Y-84854475D01*
X162951475Y-84647632D01*
X163073195Y-84465466D01*
X163142822Y-84582355D01*
X163337731Y-84798588D01*
X163571080Y-84972641D01*
X163833901Y-85097825D01*
X163981110Y-85142476D01*
X164211000Y-85021155D01*
X164211000Y-83828000D01*
X164465000Y-83828000D01*
X164465000Y-85021155D01*
X164694890Y-85142476D01*
X164842099Y-85097825D01*
X165104920Y-84972641D01*
X165338269Y-84798588D01*
X165533178Y-84582355D01*
X165682157Y-84332252D01*
X165779481Y-84057891D01*
X165658814Y-83828000D01*
X164465000Y-83828000D01*
X164211000Y-83828000D01*
X164191000Y-83828000D01*
X164191000Y-83574000D01*
X164211000Y-83574000D01*
X164211000Y-81288000D01*
X164465000Y-81288000D01*
X164465000Y-83574000D01*
X165658814Y-83574000D01*
X165779481Y-83344109D01*
X165682157Y-83069748D01*
X165533178Y-82819645D01*
X165338269Y-82603412D01*
X165107120Y-82431000D01*
X165338269Y-82258588D01*
X165533178Y-82042355D01*
X165682157Y-81792252D01*
X165779481Y-81517891D01*
X165658814Y-81288000D01*
X164465000Y-81288000D01*
X164211000Y-81288000D01*
X164191000Y-81288000D01*
X164191000Y-81034000D01*
X164211000Y-81034000D01*
X164211000Y-79840845D01*
X164465000Y-79840845D01*
X164465000Y-81034000D01*
X165658814Y-81034000D01*
X165779481Y-80804109D01*
X165682157Y-80529748D01*
X165533178Y-80279645D01*
X165338269Y-80063412D01*
X165104920Y-79889359D01*
X164842099Y-79764175D01*
X164694890Y-79719524D01*
X164465000Y-79840845D01*
X164211000Y-79840845D01*
X163981110Y-79719524D01*
X163833901Y-79764175D01*
X163571080Y-79889359D01*
X163337731Y-80063412D01*
X163142822Y-80279645D01*
X163073195Y-80396534D01*
X162951475Y-80214368D01*
X162744632Y-80007525D01*
X162558000Y-79882822D01*
X162558000Y-77010416D01*
X162634606Y-76969469D01*
X162862797Y-76782197D01*
X163050069Y-76554006D01*
X163068000Y-76520459D01*
X163085931Y-76554006D01*
X163273203Y-76782197D01*
X163501395Y-76969469D01*
X163761737Y-77108625D01*
X164044224Y-77194316D01*
X164338000Y-77223251D01*
X164631777Y-77194316D01*
X164914264Y-77108625D01*
X165174606Y-76969469D01*
X165402797Y-76782197D01*
X165590069Y-76554006D01*
X165608000Y-76520459D01*
X165625931Y-76554006D01*
G36*
X160545931Y-76554006D02*
G01*
X160733203Y-76782197D01*
X160961395Y-76969469D01*
X161038000Y-77010415D01*
X161038001Y-79882821D01*
X160851368Y-80007525D01*
X160644525Y-80214368D01*
X160528000Y-80388760D01*
X160411475Y-80214368D01*
X160204632Y-80007525D01*
X160018000Y-79882822D01*
X160018000Y-77010416D01*
X160094606Y-76969469D01*
X160322797Y-76782197D01*
X160510069Y-76554006D01*
X160528000Y-76520459D01*
X160545931Y-76554006D01*
G37*
X160545931Y-76554006D02*
X160733203Y-76782197D01*
X160961395Y-76969469D01*
X161038000Y-77010415D01*
X161038001Y-79882821D01*
X160851368Y-80007525D01*
X160644525Y-80214368D01*
X160528000Y-80388760D01*
X160411475Y-80214368D01*
X160204632Y-80007525D01*
X160018000Y-79882822D01*
X160018000Y-77010416D01*
X160094606Y-76969469D01*
X160322797Y-76782197D01*
X160510069Y-76554006D01*
X160528000Y-76520459D01*
X160545931Y-76554006D01*
G36*
X158005931Y-76554006D02*
G01*
X158193203Y-76782197D01*
X158421395Y-76969469D01*
X158498000Y-77010415D01*
X158498001Y-79882821D01*
X158311368Y-80007525D01*
X158104525Y-80214368D01*
X157988000Y-80388760D01*
X157871475Y-80214368D01*
X157664632Y-80007525D01*
X157478000Y-79882822D01*
X157478000Y-77010416D01*
X157554606Y-76969469D01*
X157782797Y-76782197D01*
X157970069Y-76554006D01*
X157988000Y-76520459D01*
X158005931Y-76554006D01*
G37*
X158005931Y-76554006D02*
X158193203Y-76782197D01*
X158421395Y-76969469D01*
X158498000Y-77010415D01*
X158498001Y-79882821D01*
X158311368Y-80007525D01*
X158104525Y-80214368D01*
X157988000Y-80388760D01*
X157871475Y-80214368D01*
X157664632Y-80007525D01*
X157478000Y-79882822D01*
X157478000Y-77010416D01*
X157554606Y-76969469D01*
X157782797Y-76782197D01*
X157970069Y-76554006D01*
X157988000Y-76520459D01*
X158005931Y-76554006D01*
M02*
