G04 #@! TF.GenerationSoftware,KiCad,Pcbnew,(5.1.6)-1*
G04 #@! TF.CreationDate,2023-11-11T21:49:05+01:00*
G04 #@! TF.ProjectId,15khzvgatester,31356b68-7a76-4676-9174-65737465722e,rev?*
G04 #@! TF.SameCoordinates,Original*
G04 #@! TF.FileFunction,Legend,Bot*
G04 #@! TF.FilePolarity,Positive*
%FSLAX46Y46*%
G04 Gerber Fmt 4.6, Leading zero omitted, Abs format (unit mm)*
G04 Created by KiCad (PCBNEW (5.1.6)-1) date 2023-11-11 21:49:05*
%MOMM*%
%LPD*%
G01*
G04 APERTURE LIST*
%ADD10C,0.150000*%
%ADD11R,2.000000X2.000000*%
%ADD12C,2.000000*%
%ADD13R,1.700000X1.700000*%
%ADD14O,1.700000X1.700000*%
%ADD15C,1.397000*%
%ADD16R,1.998980X1.998980*%
%ADD17C,1.520000*%
%ADD18R,1.520000X1.520000*%
%ADD19C,4.000000*%
%ADD20C,1.600000*%
%ADD21R,1.600000X1.600000*%
%ADD22O,1.600000X1.600000*%
%ADD23O,1.727200X2.032000*%
%ADD24C,4.064000*%
G04 APERTURE END LIST*
D10*
X160526571Y-118659328D02*
X159764666Y-118659328D01*
X158764666Y-119040280D02*
X159336095Y-119040280D01*
X159050380Y-119040280D02*
X159050380Y-118040280D01*
X159145619Y-118183138D01*
X159240857Y-118278376D01*
X159336095Y-118325995D01*
X157859904Y-118040280D02*
X158336095Y-118040280D01*
X158383714Y-118516471D01*
X158336095Y-118468852D01*
X158240857Y-118421233D01*
X158002761Y-118421233D01*
X157907523Y-118468852D01*
X157859904Y-118516471D01*
X157812285Y-118611709D01*
X157812285Y-118849804D01*
X157859904Y-118945042D01*
X157907523Y-118992661D01*
X158002761Y-119040280D01*
X158240857Y-119040280D01*
X158336095Y-118992661D01*
X158383714Y-118945042D01*
X157193238Y-118040280D02*
X157098000Y-118040280D01*
X157002761Y-118087900D01*
X156955142Y-118135519D01*
X156907523Y-118230757D01*
X156859904Y-118421233D01*
X156859904Y-118659328D01*
X156907523Y-118849804D01*
X156955142Y-118945042D01*
X157002761Y-118992661D01*
X157098000Y-119040280D01*
X157193238Y-119040280D01*
X157288476Y-118992661D01*
X157336095Y-118945042D01*
X157383714Y-118849804D01*
X157431333Y-118659328D01*
X157431333Y-118421233D01*
X157383714Y-118230757D01*
X157336095Y-118135519D01*
X157288476Y-118087900D01*
X157193238Y-118040280D01*
X156431333Y-118659328D02*
X155669428Y-118659328D01*
X160526571Y-115458928D02*
X159764666Y-115458928D01*
X158764666Y-115839880D02*
X159336095Y-115839880D01*
X159050380Y-115839880D02*
X159050380Y-114839880D01*
X159145619Y-114982738D01*
X159240857Y-115077976D01*
X159336095Y-115125595D01*
X158145619Y-114839880D02*
X158050380Y-114839880D01*
X157955142Y-114887500D01*
X157907523Y-114935119D01*
X157859904Y-115030357D01*
X157812285Y-115220833D01*
X157812285Y-115458928D01*
X157859904Y-115649404D01*
X157907523Y-115744642D01*
X157955142Y-115792261D01*
X158050380Y-115839880D01*
X158145619Y-115839880D01*
X158240857Y-115792261D01*
X158288476Y-115744642D01*
X158336095Y-115649404D01*
X158383714Y-115458928D01*
X158383714Y-115220833D01*
X158336095Y-115030357D01*
X158288476Y-114935119D01*
X158240857Y-114887500D01*
X158145619Y-114839880D01*
X157193238Y-114839880D02*
X157098000Y-114839880D01*
X157002761Y-114887500D01*
X156955142Y-114935119D01*
X156907523Y-115030357D01*
X156859904Y-115220833D01*
X156859904Y-115458928D01*
X156907523Y-115649404D01*
X156955142Y-115744642D01*
X157002761Y-115792261D01*
X157098000Y-115839880D01*
X157193238Y-115839880D01*
X157288476Y-115792261D01*
X157336095Y-115744642D01*
X157383714Y-115649404D01*
X157431333Y-115458928D01*
X157431333Y-115220833D01*
X157383714Y-115030357D01*
X157336095Y-114935119D01*
X157288476Y-114887500D01*
X157193238Y-114839880D01*
X156431333Y-115458928D02*
X155669428Y-115458928D01*
X160513871Y-112322028D02*
X159751966Y-112322028D01*
X158751966Y-112702980D02*
X159323395Y-112702980D01*
X159037680Y-112702980D02*
X159037680Y-111702980D01*
X159132919Y-111845838D01*
X159228157Y-111941076D01*
X159323395Y-111988695D01*
X158132919Y-111702980D02*
X158037680Y-111702980D01*
X157942442Y-111750600D01*
X157894823Y-111798219D01*
X157847204Y-111893457D01*
X157799585Y-112083933D01*
X157799585Y-112322028D01*
X157847204Y-112512504D01*
X157894823Y-112607742D01*
X157942442Y-112655361D01*
X158037680Y-112702980D01*
X158132919Y-112702980D01*
X158228157Y-112655361D01*
X158275776Y-112607742D01*
X158323395Y-112512504D01*
X158371014Y-112322028D01*
X158371014Y-112083933D01*
X158323395Y-111893457D01*
X158275776Y-111798219D01*
X158228157Y-111750600D01*
X158132919Y-111702980D01*
X157180538Y-111702980D02*
X157085300Y-111702980D01*
X156990061Y-111750600D01*
X156942442Y-111798219D01*
X156894823Y-111893457D01*
X156847204Y-112083933D01*
X156847204Y-112322028D01*
X156894823Y-112512504D01*
X156942442Y-112607742D01*
X156990061Y-112655361D01*
X157085300Y-112702980D01*
X157180538Y-112702980D01*
X157275776Y-112655361D01*
X157323395Y-112607742D01*
X157371014Y-112512504D01*
X157418633Y-112322028D01*
X157418633Y-112083933D01*
X157371014Y-111893457D01*
X157323395Y-111798219D01*
X157275776Y-111750600D01*
X157180538Y-111702980D01*
X156418633Y-112322028D02*
X155656728Y-112322028D01*
X160526571Y-109147028D02*
X159764666Y-109147028D01*
X158764666Y-109527980D02*
X159336095Y-109527980D01*
X159050380Y-109527980D02*
X159050380Y-108527980D01*
X159145619Y-108670838D01*
X159240857Y-108766076D01*
X159336095Y-108813695D01*
X157859904Y-108527980D02*
X158336095Y-108527980D01*
X158383714Y-109004171D01*
X158336095Y-108956552D01*
X158240857Y-108908933D01*
X158002761Y-108908933D01*
X157907523Y-108956552D01*
X157859904Y-109004171D01*
X157812285Y-109099409D01*
X157812285Y-109337504D01*
X157859904Y-109432742D01*
X157907523Y-109480361D01*
X158002761Y-109527980D01*
X158240857Y-109527980D01*
X158336095Y-109480361D01*
X158383714Y-109432742D01*
X157193238Y-108527980D02*
X157098000Y-108527980D01*
X157002761Y-108575600D01*
X156955142Y-108623219D01*
X156907523Y-108718457D01*
X156859904Y-108908933D01*
X156859904Y-109147028D01*
X156907523Y-109337504D01*
X156955142Y-109432742D01*
X157002761Y-109480361D01*
X157098000Y-109527980D01*
X157193238Y-109527980D01*
X157288476Y-109480361D01*
X157336095Y-109432742D01*
X157383714Y-109337504D01*
X157431333Y-109147028D01*
X157431333Y-108908933D01*
X157383714Y-108718457D01*
X157336095Y-108623219D01*
X157288476Y-108575600D01*
X157193238Y-108527980D01*
X156431333Y-109147028D02*
X155669428Y-109147028D01*
X160526571Y-105933928D02*
X159764666Y-105933928D01*
X158859904Y-105648214D02*
X158859904Y-106314880D01*
X159098000Y-105267261D02*
X159336095Y-105981547D01*
X158717047Y-105981547D01*
X158431333Y-105314880D02*
X157764666Y-105314880D01*
X158193238Y-106314880D01*
X157193238Y-105314880D02*
X157098000Y-105314880D01*
X157002761Y-105362500D01*
X156955142Y-105410119D01*
X156907523Y-105505357D01*
X156859904Y-105695833D01*
X156859904Y-105933928D01*
X156907523Y-106124404D01*
X156955142Y-106219642D01*
X157002761Y-106267261D01*
X157098000Y-106314880D01*
X157193238Y-106314880D01*
X157288476Y-106267261D01*
X157336095Y-106219642D01*
X157383714Y-106124404D01*
X157431333Y-105933928D01*
X157431333Y-105695833D01*
X157383714Y-105505357D01*
X157336095Y-105410119D01*
X157288476Y-105362500D01*
X157193238Y-105314880D01*
X156431333Y-105933928D02*
X155669428Y-105933928D01*
X160513871Y-102784328D02*
X159751966Y-102784328D01*
X158847204Y-102498614D02*
X158847204Y-103165280D01*
X159085300Y-102117661D02*
X159323395Y-102831947D01*
X158704347Y-102831947D01*
X158418633Y-102165280D02*
X157751966Y-102165280D01*
X158180538Y-103165280D01*
X157180538Y-102165280D02*
X157085300Y-102165280D01*
X156990061Y-102212900D01*
X156942442Y-102260519D01*
X156894823Y-102355757D01*
X156847204Y-102546233D01*
X156847204Y-102784328D01*
X156894823Y-102974804D01*
X156942442Y-103070042D01*
X156990061Y-103117661D01*
X157085300Y-103165280D01*
X157180538Y-103165280D01*
X157275776Y-103117661D01*
X157323395Y-103070042D01*
X157371014Y-102974804D01*
X157418633Y-102784328D01*
X157418633Y-102546233D01*
X157371014Y-102355757D01*
X157323395Y-102260519D01*
X157275776Y-102212900D01*
X157180538Y-102165280D01*
X156418633Y-102784328D02*
X155656728Y-102784328D01*
X160526571Y-99583928D02*
X159764666Y-99583928D01*
X158859904Y-99298214D02*
X158859904Y-99964880D01*
X159098000Y-98917261D02*
X159336095Y-99631547D01*
X158717047Y-99631547D01*
X158431333Y-98964880D02*
X157764666Y-98964880D01*
X158193238Y-99964880D01*
X157193238Y-98964880D02*
X157098000Y-98964880D01*
X157002761Y-99012500D01*
X156955142Y-99060119D01*
X156907523Y-99155357D01*
X156859904Y-99345833D01*
X156859904Y-99583928D01*
X156907523Y-99774404D01*
X156955142Y-99869642D01*
X157002761Y-99917261D01*
X157098000Y-99964880D01*
X157193238Y-99964880D01*
X157288476Y-99917261D01*
X157336095Y-99869642D01*
X157383714Y-99774404D01*
X157431333Y-99583928D01*
X157431333Y-99345833D01*
X157383714Y-99155357D01*
X157336095Y-99060119D01*
X157288476Y-99012500D01*
X157193238Y-98964880D01*
X156431333Y-99583928D02*
X155669428Y-99583928D01*
X161034666Y-94326080D02*
X161606095Y-94326080D01*
X161320380Y-94326080D02*
X161320380Y-93326080D01*
X161415619Y-93468938D01*
X161510857Y-93564176D01*
X161606095Y-93611795D01*
X160606095Y-94326080D02*
X160606095Y-93326080D01*
X160034666Y-94326080D01*
X160034666Y-93326080D01*
X159510857Y-94326080D02*
X159320380Y-94326080D01*
X159225142Y-94278461D01*
X159177523Y-94230842D01*
X159082285Y-94087985D01*
X159034666Y-93897509D01*
X159034666Y-93516557D01*
X159082285Y-93421319D01*
X159129904Y-93373700D01*
X159225142Y-93326080D01*
X159415619Y-93326080D01*
X159510857Y-93373700D01*
X159558476Y-93421319D01*
X159606095Y-93516557D01*
X159606095Y-93754652D01*
X159558476Y-93849890D01*
X159510857Y-93897509D01*
X159415619Y-93945128D01*
X159225142Y-93945128D01*
X159129904Y-93897509D01*
X159082285Y-93849890D01*
X159034666Y-93754652D01*
X158082285Y-94326080D02*
X158653714Y-94326080D01*
X158368000Y-94326080D02*
X158368000Y-93326080D01*
X158463238Y-93468938D01*
X158558476Y-93564176D01*
X158653714Y-93611795D01*
X157225142Y-93659414D02*
X157225142Y-94326080D01*
X157463238Y-93278461D02*
X157701333Y-93992747D01*
X157082285Y-93992747D01*
X161021966Y-91138380D02*
X161593395Y-91138380D01*
X161307680Y-91138380D02*
X161307680Y-90138380D01*
X161402919Y-90281238D01*
X161498157Y-90376476D01*
X161593395Y-90424095D01*
X160593395Y-91138380D02*
X160593395Y-90138380D01*
X160021966Y-91138380D01*
X160021966Y-90138380D01*
X159498157Y-91138380D02*
X159307680Y-91138380D01*
X159212442Y-91090761D01*
X159164823Y-91043142D01*
X159069585Y-90900285D01*
X159021966Y-90709809D01*
X159021966Y-90328857D01*
X159069585Y-90233619D01*
X159117204Y-90186000D01*
X159212442Y-90138380D01*
X159402919Y-90138380D01*
X159498157Y-90186000D01*
X159545776Y-90233619D01*
X159593395Y-90328857D01*
X159593395Y-90566952D01*
X159545776Y-90662190D01*
X159498157Y-90709809D01*
X159402919Y-90757428D01*
X159212442Y-90757428D01*
X159117204Y-90709809D01*
X159069585Y-90662190D01*
X159021966Y-90566952D01*
X158069585Y-91138380D02*
X158641014Y-91138380D01*
X158355300Y-91138380D02*
X158355300Y-90138380D01*
X158450538Y-90281238D01*
X158545776Y-90376476D01*
X158641014Y-90424095D01*
X157212442Y-90471714D02*
X157212442Y-91138380D01*
X157450538Y-90090761D02*
X157688633Y-90805047D01*
X157069585Y-90805047D01*
X147920528Y-97295057D02*
X147920528Y-98056961D01*
X148301480Y-99056961D02*
X148301480Y-98485533D01*
X148301480Y-98771247D02*
X147301480Y-98771247D01*
X147444338Y-98676009D01*
X147539576Y-98580771D01*
X147587195Y-98485533D01*
X147301480Y-99676009D02*
X147301480Y-99771247D01*
X147349100Y-99866485D01*
X147396719Y-99914104D01*
X147491957Y-99961723D01*
X147682433Y-100009342D01*
X147920528Y-100009342D01*
X148111004Y-99961723D01*
X148206242Y-99914104D01*
X148253861Y-99866485D01*
X148301480Y-99771247D01*
X148301480Y-99676009D01*
X148253861Y-99580771D01*
X148206242Y-99533152D01*
X148111004Y-99485533D01*
X147920528Y-99437914D01*
X147682433Y-99437914D01*
X147491957Y-99485533D01*
X147396719Y-99533152D01*
X147349100Y-99580771D01*
X147301480Y-99676009D01*
X148301480Y-100437914D02*
X147301480Y-100437914D01*
X147920528Y-100533152D02*
X148301480Y-100818866D01*
X147634814Y-100818866D02*
X148015766Y-100437914D01*
X147920528Y-101247438D02*
X147920528Y-102009342D01*
X144809028Y-97295057D02*
X144809028Y-98056961D01*
X145189980Y-99056961D02*
X145189980Y-98485533D01*
X145189980Y-98771247D02*
X144189980Y-98771247D01*
X144332838Y-98676009D01*
X144428076Y-98580771D01*
X144475695Y-98485533D01*
X144189980Y-99676009D02*
X144189980Y-99771247D01*
X144237600Y-99866485D01*
X144285219Y-99914104D01*
X144380457Y-99961723D01*
X144570933Y-100009342D01*
X144809028Y-100009342D01*
X144999504Y-99961723D01*
X145094742Y-99914104D01*
X145142361Y-99866485D01*
X145189980Y-99771247D01*
X145189980Y-99676009D01*
X145142361Y-99580771D01*
X145094742Y-99533152D01*
X144999504Y-99485533D01*
X144809028Y-99437914D01*
X144570933Y-99437914D01*
X144380457Y-99485533D01*
X144285219Y-99533152D01*
X144237600Y-99580771D01*
X144189980Y-99676009D01*
X145189980Y-100437914D02*
X144189980Y-100437914D01*
X144809028Y-100533152D02*
X145189980Y-100818866D01*
X144523314Y-100818866D02*
X144904266Y-100437914D01*
X144809028Y-101247438D02*
X144809028Y-102009342D01*
X145369085Y-110642519D02*
X145321466Y-110594900D01*
X145226228Y-110547280D01*
X144988133Y-110547280D01*
X144892895Y-110594900D01*
X144845276Y-110642519D01*
X144797657Y-110737757D01*
X144797657Y-110832995D01*
X144845276Y-110975852D01*
X145416704Y-111547280D01*
X144797657Y-111547280D01*
X144369085Y-111547280D02*
X144369085Y-110547280D01*
X143797657Y-111547280D01*
X143797657Y-110547280D01*
X143416704Y-110547280D02*
X142797657Y-110547280D01*
X143130990Y-110928233D01*
X142988133Y-110928233D01*
X142892895Y-110975852D01*
X142845276Y-111023471D01*
X142797657Y-111118709D01*
X142797657Y-111356804D01*
X142845276Y-111452042D01*
X142892895Y-111499661D01*
X142988133Y-111547280D01*
X143273847Y-111547280D01*
X143369085Y-111499661D01*
X143416704Y-111452042D01*
X142321466Y-111547280D02*
X142130990Y-111547280D01*
X142035752Y-111499661D01*
X141988133Y-111452042D01*
X141892895Y-111309185D01*
X141845276Y-111118709D01*
X141845276Y-110737757D01*
X141892895Y-110642519D01*
X141940514Y-110594900D01*
X142035752Y-110547280D01*
X142226228Y-110547280D01*
X142321466Y-110594900D01*
X142369085Y-110642519D01*
X142416704Y-110737757D01*
X142416704Y-110975852D01*
X142369085Y-111071090D01*
X142321466Y-111118709D01*
X142226228Y-111166328D01*
X142035752Y-111166328D01*
X141940514Y-111118709D01*
X141892895Y-111071090D01*
X141845276Y-110975852D01*
X141226228Y-110547280D02*
X141130990Y-110547280D01*
X141035752Y-110594900D01*
X140988133Y-110642519D01*
X140940514Y-110737757D01*
X140892895Y-110928233D01*
X140892895Y-111166328D01*
X140940514Y-111356804D01*
X140988133Y-111452042D01*
X141035752Y-111499661D01*
X141130990Y-111547280D01*
X141226228Y-111547280D01*
X141321466Y-111499661D01*
X141369085Y-111452042D01*
X141416704Y-111356804D01*
X141464323Y-111166328D01*
X141464323Y-110928233D01*
X141416704Y-110737757D01*
X141369085Y-110642519D01*
X141321466Y-110594900D01*
X141226228Y-110547280D01*
X140035752Y-110880614D02*
X140035752Y-111547280D01*
X140273847Y-110499661D02*
X140511942Y-111213947D01*
X139892895Y-111213947D01*
X145280185Y-116979819D02*
X145232566Y-116932200D01*
X145137328Y-116884580D01*
X144899233Y-116884580D01*
X144803995Y-116932200D01*
X144756376Y-116979819D01*
X144708757Y-117075057D01*
X144708757Y-117170295D01*
X144756376Y-117313152D01*
X145327804Y-117884580D01*
X144708757Y-117884580D01*
X144280185Y-117884580D02*
X144280185Y-116884580D01*
X143708757Y-117884580D01*
X143708757Y-116884580D01*
X143327804Y-116884580D02*
X142708757Y-116884580D01*
X143042090Y-117265533D01*
X142899233Y-117265533D01*
X142803995Y-117313152D01*
X142756376Y-117360771D01*
X142708757Y-117456009D01*
X142708757Y-117694104D01*
X142756376Y-117789342D01*
X142803995Y-117836961D01*
X142899233Y-117884580D01*
X143184947Y-117884580D01*
X143280185Y-117836961D01*
X143327804Y-117789342D01*
X142232566Y-117884580D02*
X142042090Y-117884580D01*
X141946852Y-117836961D01*
X141899233Y-117789342D01*
X141803995Y-117646485D01*
X141756376Y-117456009D01*
X141756376Y-117075057D01*
X141803995Y-116979819D01*
X141851614Y-116932200D01*
X141946852Y-116884580D01*
X142137328Y-116884580D01*
X142232566Y-116932200D01*
X142280185Y-116979819D01*
X142327804Y-117075057D01*
X142327804Y-117313152D01*
X142280185Y-117408390D01*
X142232566Y-117456009D01*
X142137328Y-117503628D01*
X141946852Y-117503628D01*
X141851614Y-117456009D01*
X141803995Y-117408390D01*
X141756376Y-117313152D01*
X141137328Y-116884580D02*
X141042090Y-116884580D01*
X140946852Y-116932200D01*
X140899233Y-116979819D01*
X140851614Y-117075057D01*
X140803995Y-117265533D01*
X140803995Y-117503628D01*
X140851614Y-117694104D01*
X140899233Y-117789342D01*
X140946852Y-117836961D01*
X141042090Y-117884580D01*
X141137328Y-117884580D01*
X141232566Y-117836961D01*
X141280185Y-117789342D01*
X141327804Y-117694104D01*
X141375423Y-117503628D01*
X141375423Y-117265533D01*
X141327804Y-117075057D01*
X141280185Y-116979819D01*
X141232566Y-116932200D01*
X141137328Y-116884580D01*
X139946852Y-117217914D02*
X139946852Y-117884580D01*
X140184947Y-116836961D02*
X140423042Y-117551247D01*
X139803995Y-117551247D01*
X172942780Y-77846585D02*
X173180876Y-77846585D01*
X173085638Y-77608490D02*
X173180876Y-77846585D01*
X173085638Y-78084680D01*
X173371352Y-77703728D02*
X173180876Y-77846585D01*
X173371352Y-77989442D01*
X173038019Y-78418014D02*
X172990400Y-78465633D01*
X172942780Y-78560871D01*
X172942780Y-78798966D01*
X172990400Y-78894204D01*
X173038019Y-78941823D01*
X173133257Y-78989442D01*
X173228495Y-78989442D01*
X173371352Y-78941823D01*
X173942780Y-78370395D01*
X173942780Y-78989442D01*
X172942780Y-79322776D02*
X172942780Y-79941823D01*
X173323733Y-79608490D01*
X173323733Y-79751347D01*
X173371352Y-79846585D01*
X173418971Y-79894204D01*
X173514209Y-79941823D01*
X173752304Y-79941823D01*
X173847542Y-79894204D01*
X173895161Y-79846585D01*
X173942780Y-79751347D01*
X173942780Y-79465633D01*
X173895161Y-79370395D01*
X173847542Y-79322776D01*
X173942780Y-80894204D02*
X173942780Y-80322776D01*
X173942780Y-80608490D02*
X172942780Y-80608490D01*
X173085638Y-80513252D01*
X173180876Y-80418014D01*
X173228495Y-80322776D01*
X173942780Y-81846585D02*
X173942780Y-81275157D01*
X173942780Y-81560871D02*
X172942780Y-81560871D01*
X173085638Y-81465633D01*
X173180876Y-81370395D01*
X173228495Y-81275157D01*
X172942780Y-82418014D02*
X173180876Y-82418014D01*
X173085638Y-82179919D02*
X173180876Y-82418014D01*
X173085638Y-82656109D01*
X173371352Y-82275157D02*
X173180876Y-82418014D01*
X173371352Y-82560871D01*
%LPC*%
D11*
X122174000Y-121285000D03*
D12*
X127254000Y-121285000D03*
D11*
X114554000Y-93345000D03*
X117094000Y-93345000D03*
X119634000Y-93345000D03*
X119634000Y-90805000D03*
X117094000Y-90805000D03*
X114554000Y-90805000D03*
X114554000Y-88265000D03*
X117094000Y-88265000D03*
X119634000Y-88265000D03*
X119634000Y-85725000D03*
X117094000Y-85725000D03*
X114554000Y-85725000D03*
X114554000Y-83185000D03*
X117094000Y-83185000D03*
X119634000Y-83185000D03*
X114554000Y-116205000D03*
X117094000Y-116205000D03*
X119634000Y-116205000D03*
X119634000Y-118745000D03*
X117094000Y-118745000D03*
X114554000Y-118745000D03*
X117094000Y-121285000D03*
X114554000Y-121285000D03*
X114554000Y-123825000D03*
X117094000Y-123825000D03*
X119634000Y-123825000D03*
X119634000Y-121285000D03*
X122174000Y-118745000D03*
X122174000Y-116205000D03*
X122174000Y-113665000D03*
X119634000Y-113665000D03*
X117094000Y-113665000D03*
X114554000Y-113665000D03*
X122174000Y-83185000D03*
X122174000Y-85725000D03*
X122174000Y-88265000D03*
X122174000Y-90805000D03*
X122174000Y-93345000D03*
X122174000Y-95885000D03*
X119634000Y-95885000D03*
X117094000Y-95885000D03*
X114554000Y-95885000D03*
X122174000Y-80645000D03*
X119634000Y-80645000D03*
X117094000Y-80645000D03*
X114554000Y-80645000D03*
X124714000Y-113665000D03*
X124714000Y-116205000D03*
X124714000Y-118745000D03*
X127254000Y-118745000D03*
X134874000Y-123825000D03*
X132334000Y-123825000D03*
X129794000Y-123825000D03*
X134874000Y-118745000D03*
X114554000Y-111125000D03*
X114554000Y-108585000D03*
X114554000Y-106045000D03*
X114554000Y-103505000D03*
X114554000Y-100965000D03*
X114554000Y-98425000D03*
X124714000Y-95885000D03*
X124714000Y-93345000D03*
X124714000Y-90805000D03*
X124714000Y-88265000D03*
X124714000Y-85725000D03*
X124714000Y-83185000D03*
X124714000Y-80645000D03*
X127254000Y-80645000D03*
X117094000Y-78105000D03*
X114554000Y-78105000D03*
X117094000Y-75565000D03*
X114554000Y-75565000D03*
X122174000Y-78105000D03*
X119634000Y-78105000D03*
X122174000Y-75565000D03*
X119634000Y-75565000D03*
X119634000Y-111125000D03*
X117094000Y-111125000D03*
X119634000Y-108585000D03*
X117094000Y-108585000D03*
X119634000Y-106045000D03*
X117094000Y-106045000D03*
X119634000Y-103505000D03*
X117094000Y-103505000D03*
X119634000Y-100965000D03*
X117094000Y-100965000D03*
X119634000Y-98425000D03*
X117094000Y-98425000D03*
X124714000Y-111125000D03*
X122174000Y-111125000D03*
X124714000Y-108585000D03*
X122174000Y-108585000D03*
X124714000Y-106045000D03*
X122174000Y-106045000D03*
X124714000Y-103505000D03*
X122174000Y-103505000D03*
X124714000Y-100965000D03*
X122174000Y-100965000D03*
X124714000Y-98425000D03*
X122174000Y-98425000D03*
X132334000Y-121285000D03*
X129794000Y-121285000D03*
X132334000Y-118745000D03*
X129794000Y-118745000D03*
X129794000Y-116205000D03*
X127254000Y-116205000D03*
X129794000Y-113665000D03*
X127254000Y-113665000D03*
X129794000Y-111125000D03*
X127254000Y-111125000D03*
X129794000Y-108585000D03*
X127254000Y-108585000D03*
X129794000Y-106045000D03*
X127254000Y-106045000D03*
X129794000Y-103505000D03*
X127254000Y-103505000D03*
X129794000Y-100965000D03*
X127254000Y-100965000D03*
X129794000Y-98425000D03*
X127254000Y-98425000D03*
X129794000Y-95885000D03*
X127254000Y-95885000D03*
X129794000Y-93345000D03*
X127254000Y-93345000D03*
X129794000Y-90805000D03*
X127254000Y-90805000D03*
X129794000Y-88265000D03*
X127254000Y-88265000D03*
X129794000Y-85725000D03*
X127254000Y-85725000D03*
X129794000Y-83185000D03*
X127254000Y-83185000D03*
X134874000Y-116205000D03*
X132334000Y-116205000D03*
X134874000Y-113665000D03*
X132334000Y-113665000D03*
X134874000Y-111125000D03*
X132334000Y-111125000D03*
X134874000Y-108585000D03*
X132334000Y-108585000D03*
X134874000Y-106045000D03*
X132334000Y-106045000D03*
X134874000Y-103505000D03*
X132334000Y-103505000D03*
X134874000Y-100965000D03*
X132334000Y-100965000D03*
X134874000Y-98425000D03*
X132334000Y-98425000D03*
X134874000Y-95885000D03*
X132334000Y-95885000D03*
X134874000Y-93345000D03*
X132334000Y-93345000D03*
X134874000Y-90805000D03*
X132334000Y-90805000D03*
X134874000Y-88265000D03*
X132334000Y-88265000D03*
X134874000Y-85725000D03*
X132334000Y-85725000D03*
X134874000Y-83185000D03*
X132334000Y-83185000D03*
X134874000Y-80645000D03*
X132334000Y-80645000D03*
X129794000Y-80645000D03*
X129794000Y-78105000D03*
X132334000Y-78105000D03*
X134874000Y-78105000D03*
X134874000Y-121285000D03*
X137414000Y-118745000D03*
X137414000Y-116205000D03*
X137414000Y-113665000D03*
X137414000Y-111125000D03*
X137414000Y-108585000D03*
X137414000Y-106045000D03*
X137414000Y-103505000D03*
X137414000Y-100965000D03*
X137414000Y-98425000D03*
X137414000Y-95885000D03*
X137414000Y-93345000D03*
X137414000Y-90805000D03*
X137414000Y-88265000D03*
X137414000Y-85725000D03*
X137414000Y-83185000D03*
X137414000Y-80645000D03*
X137414000Y-78105000D03*
D13*
X154178000Y-81161000D03*
D14*
X154178000Y-83701000D03*
X156718000Y-81161000D03*
X156718000Y-83701000D03*
X159258000Y-81161000D03*
X159258000Y-83701000D03*
X161798000Y-81161000D03*
X161798000Y-83701000D03*
X164338000Y-81161000D03*
X164338000Y-83701000D03*
D13*
X151748000Y-91067000D03*
D14*
X151748000Y-93607000D03*
X151748000Y-96147000D03*
D15*
X141588000Y-78621000D03*
X146668000Y-78621000D03*
X141588000Y-86241000D03*
X146668000Y-86241000D03*
D16*
X153096740Y-109101000D03*
X163099260Y-109101000D03*
X153096740Y-118626000D03*
X163099260Y-118626000D03*
X147938000Y-104498520D03*
X147938000Y-94496000D03*
X144763000Y-94496000D03*
X144763000Y-104498520D03*
X153096740Y-112276000D03*
X163099260Y-112276000D03*
X153096740Y-115451000D03*
X163099260Y-115451000D03*
X163099260Y-105926000D03*
X153096740Y-105926000D03*
X163099260Y-102751000D03*
X153096740Y-102751000D03*
X163099260Y-99576000D03*
X153096740Y-99576000D03*
D17*
X147303000Y-109101000D03*
X144763000Y-109101000D03*
D18*
X149843000Y-109101000D03*
D17*
X147303000Y-115451000D03*
X144763000Y-115451000D03*
D18*
X149843000Y-115451000D03*
D19*
X168408000Y-92276000D03*
X168408000Y-117276000D03*
D20*
X170948000Y-109621000D03*
X170948000Y-107331000D03*
X170948000Y-105041000D03*
X170948000Y-102751000D03*
X170948000Y-100461000D03*
X168968000Y-108476000D03*
X168968000Y-106186000D03*
X168968000Y-103896000D03*
X168968000Y-101606000D03*
X168968000Y-99316000D03*
X166988000Y-109621000D03*
X166988000Y-107331000D03*
X166988000Y-105041000D03*
X166988000Y-102751000D03*
D21*
X166988000Y-100461000D03*
X163178000Y-93861000D03*
D22*
X155558000Y-93861000D03*
D21*
X163178000Y-90686000D03*
D22*
X155558000Y-90686000D03*
D23*
X138938000Y-123825000D03*
X141478000Y-123825000D03*
X144018000Y-123825000D03*
X146558000Y-123825000D03*
X149098000Y-123825000D03*
X151638000Y-123825000D03*
X154178000Y-123825000D03*
X156718000Y-123825000D03*
X161798000Y-123825000D03*
X164338000Y-123825000D03*
X166878000Y-123825000D03*
X169418000Y-123825000D03*
X171958000Y-123825000D03*
X174498000Y-123825000D03*
X129794000Y-75565000D03*
X132334000Y-75565000D03*
X134874000Y-75565000D03*
X137414000Y-75565000D03*
X139954000Y-75565000D03*
X142494000Y-75565000D03*
X145034000Y-75565000D03*
X147574000Y-75565000D03*
X150114000Y-75565000D03*
X152654000Y-75565000D03*
X156718000Y-75565000D03*
X159258000Y-75565000D03*
X161798000Y-75565000D03*
X164338000Y-75565000D03*
X166878000Y-75565000D03*
X169418000Y-75565000D03*
X171958000Y-75565000D03*
X174498000Y-75565000D03*
D24*
X124968000Y-123825000D03*
X177038000Y-118745000D03*
X126238000Y-75565000D03*
X177038000Y-90805000D03*
M02*
