G04 #@! TF.GenerationSoftware,KiCad,Pcbnew,(5.1.6)-1*
G04 #@! TF.CreationDate,2023-11-11T21:49:05+01:00*
G04 #@! TF.ProjectId,15khzvgatester,31356b68-7a76-4676-9174-65737465722e,rev?*
G04 #@! TF.SameCoordinates,Original*
G04 #@! TF.FileFunction,Copper,L2,Bot*
G04 #@! TF.FilePolarity,Positive*
%FSLAX46Y46*%
G04 Gerber Fmt 4.6, Leading zero omitted, Abs format (unit mm)*
G04 Created by KiCad (PCBNEW (5.1.6)-1) date 2023-11-11 21:49:05*
%MOMM*%
%LPD*%
G01*
G04 APERTURE LIST*
G04 #@! TA.AperFunction,ComponentPad*
%ADD10R,2.000000X2.000000*%
G04 #@! TD*
G04 #@! TA.AperFunction,ComponentPad*
%ADD11C,2.000000*%
G04 #@! TD*
G04 #@! TA.AperFunction,ComponentPad*
%ADD12R,1.700000X1.700000*%
G04 #@! TD*
G04 #@! TA.AperFunction,ComponentPad*
%ADD13O,1.700000X1.700000*%
G04 #@! TD*
G04 #@! TA.AperFunction,ComponentPad*
%ADD14C,1.397000*%
G04 #@! TD*
G04 #@! TA.AperFunction,ComponentPad*
%ADD15R,1.998980X1.998980*%
G04 #@! TD*
G04 #@! TA.AperFunction,ComponentPad*
%ADD16C,1.520000*%
G04 #@! TD*
G04 #@! TA.AperFunction,ComponentPad*
%ADD17R,1.520000X1.520000*%
G04 #@! TD*
G04 #@! TA.AperFunction,ComponentPad*
%ADD18C,4.000000*%
G04 #@! TD*
G04 #@! TA.AperFunction,ComponentPad*
%ADD19C,1.600000*%
G04 #@! TD*
G04 #@! TA.AperFunction,ComponentPad*
%ADD20R,1.600000X1.600000*%
G04 #@! TD*
G04 #@! TA.AperFunction,ComponentPad*
%ADD21O,1.600000X1.600000*%
G04 #@! TD*
G04 #@! TA.AperFunction,ComponentPad*
%ADD22O,1.727200X2.032000*%
G04 #@! TD*
G04 #@! TA.AperFunction,ComponentPad*
%ADD23C,4.064000*%
G04 #@! TD*
G04 #@! TA.AperFunction,ViaPad*
%ADD24C,1.200000*%
G04 #@! TD*
G04 #@! TA.AperFunction,Conductor*
%ADD25C,0.250000*%
G04 #@! TD*
G04 #@! TA.AperFunction,Conductor*
%ADD26C,0.508000*%
G04 #@! TD*
G04 #@! TA.AperFunction,Conductor*
%ADD27C,0.254000*%
G04 #@! TD*
G04 APERTURE END LIST*
D10*
X122174000Y-121285000D03*
D11*
X127254000Y-121285000D03*
D10*
X114554000Y-93345000D03*
X117094000Y-93345000D03*
X119634000Y-93345000D03*
X119634000Y-90805000D03*
X117094000Y-90805000D03*
X114554000Y-90805000D03*
X114554000Y-88265000D03*
X117094000Y-88265000D03*
X119634000Y-88265000D03*
X119634000Y-85725000D03*
X117094000Y-85725000D03*
X114554000Y-85725000D03*
X114554000Y-83185000D03*
X117094000Y-83185000D03*
X119634000Y-83185000D03*
X114554000Y-116205000D03*
X117094000Y-116205000D03*
X119634000Y-116205000D03*
X119634000Y-118745000D03*
X117094000Y-118745000D03*
X114554000Y-118745000D03*
X117094000Y-121285000D03*
X114554000Y-121285000D03*
X114554000Y-123825000D03*
X117094000Y-123825000D03*
X119634000Y-123825000D03*
X119634000Y-121285000D03*
X122174000Y-118745000D03*
X122174000Y-116205000D03*
X122174000Y-113665000D03*
X119634000Y-113665000D03*
X117094000Y-113665000D03*
X114554000Y-113665000D03*
X122174000Y-83185000D03*
X122174000Y-85725000D03*
X122174000Y-88265000D03*
X122174000Y-90805000D03*
X122174000Y-93345000D03*
X122174000Y-95885000D03*
X119634000Y-95885000D03*
X117094000Y-95885000D03*
X114554000Y-95885000D03*
X122174000Y-80645000D03*
X119634000Y-80645000D03*
X117094000Y-80645000D03*
X114554000Y-80645000D03*
X124714000Y-113665000D03*
X124714000Y-116205000D03*
X124714000Y-118745000D03*
X127254000Y-118745000D03*
X134874000Y-123825000D03*
X132334000Y-123825000D03*
X129794000Y-123825000D03*
X134874000Y-118745000D03*
X114554000Y-111125000D03*
X114554000Y-108585000D03*
X114554000Y-106045000D03*
X114554000Y-103505000D03*
X114554000Y-100965000D03*
X114554000Y-98425000D03*
X124714000Y-95885000D03*
X124714000Y-93345000D03*
X124714000Y-90805000D03*
X124714000Y-88265000D03*
X124714000Y-85725000D03*
X124714000Y-83185000D03*
X124714000Y-80645000D03*
X127254000Y-80645000D03*
X117094000Y-78105000D03*
X114554000Y-78105000D03*
X117094000Y-75565000D03*
X114554000Y-75565000D03*
X122174000Y-78105000D03*
X119634000Y-78105000D03*
X122174000Y-75565000D03*
X119634000Y-75565000D03*
X119634000Y-111125000D03*
X117094000Y-111125000D03*
X119634000Y-108585000D03*
X117094000Y-108585000D03*
X119634000Y-106045000D03*
X117094000Y-106045000D03*
X119634000Y-103505000D03*
X117094000Y-103505000D03*
X119634000Y-100965000D03*
X117094000Y-100965000D03*
X119634000Y-98425000D03*
X117094000Y-98425000D03*
X124714000Y-111125000D03*
X122174000Y-111125000D03*
X124714000Y-108585000D03*
X122174000Y-108585000D03*
X124714000Y-106045000D03*
X122174000Y-106045000D03*
X124714000Y-103505000D03*
X122174000Y-103505000D03*
X124714000Y-100965000D03*
X122174000Y-100965000D03*
X124714000Y-98425000D03*
X122174000Y-98425000D03*
X132334000Y-121285000D03*
X129794000Y-121285000D03*
X132334000Y-118745000D03*
X129794000Y-118745000D03*
X129794000Y-116205000D03*
X127254000Y-116205000D03*
X129794000Y-113665000D03*
X127254000Y-113665000D03*
X129794000Y-111125000D03*
X127254000Y-111125000D03*
X129794000Y-108585000D03*
X127254000Y-108585000D03*
X129794000Y-106045000D03*
X127254000Y-106045000D03*
X129794000Y-103505000D03*
X127254000Y-103505000D03*
X129794000Y-100965000D03*
X127254000Y-100965000D03*
X129794000Y-98425000D03*
X127254000Y-98425000D03*
X129794000Y-95885000D03*
X127254000Y-95885000D03*
X129794000Y-93345000D03*
X127254000Y-93345000D03*
X129794000Y-90805000D03*
X127254000Y-90805000D03*
X129794000Y-88265000D03*
X127254000Y-88265000D03*
X129794000Y-85725000D03*
X127254000Y-85725000D03*
X129794000Y-83185000D03*
X127254000Y-83185000D03*
X134874000Y-116205000D03*
X132334000Y-116205000D03*
X134874000Y-113665000D03*
X132334000Y-113665000D03*
X134874000Y-111125000D03*
X132334000Y-111125000D03*
X134874000Y-108585000D03*
X132334000Y-108585000D03*
X134874000Y-106045000D03*
X132334000Y-106045000D03*
X134874000Y-103505000D03*
X132334000Y-103505000D03*
X134874000Y-100965000D03*
X132334000Y-100965000D03*
X134874000Y-98425000D03*
X132334000Y-98425000D03*
X134874000Y-95885000D03*
X132334000Y-95885000D03*
X134874000Y-93345000D03*
X132334000Y-93345000D03*
X134874000Y-90805000D03*
X132334000Y-90805000D03*
X134874000Y-88265000D03*
X132334000Y-88265000D03*
X134874000Y-85725000D03*
X132334000Y-85725000D03*
X134874000Y-83185000D03*
X132334000Y-83185000D03*
X134874000Y-80645000D03*
X132334000Y-80645000D03*
X129794000Y-80645000D03*
X129794000Y-78105000D03*
X132334000Y-78105000D03*
X134874000Y-78105000D03*
X134874000Y-121285000D03*
X137414000Y-118745000D03*
X137414000Y-116205000D03*
X137414000Y-113665000D03*
X137414000Y-111125000D03*
X137414000Y-108585000D03*
X137414000Y-106045000D03*
X137414000Y-103505000D03*
X137414000Y-100965000D03*
X137414000Y-98425000D03*
X137414000Y-95885000D03*
X137414000Y-93345000D03*
X137414000Y-90805000D03*
X137414000Y-88265000D03*
X137414000Y-85725000D03*
X137414000Y-83185000D03*
X137414000Y-80645000D03*
X137414000Y-78105000D03*
D12*
X154178000Y-81161000D03*
D13*
X154178000Y-83701000D03*
X156718000Y-81161000D03*
X156718000Y-83701000D03*
X159258000Y-81161000D03*
X159258000Y-83701000D03*
X161798000Y-81161000D03*
X161798000Y-83701000D03*
X164338000Y-81161000D03*
X164338000Y-83701000D03*
D12*
X151748000Y-91067000D03*
D13*
X151748000Y-93607000D03*
X151748000Y-96147000D03*
D14*
X141588000Y-78621000D03*
X146668000Y-78621000D03*
X141588000Y-86241000D03*
X146668000Y-86241000D03*
D15*
X153096740Y-109101000D03*
X163099260Y-109101000D03*
X153096740Y-118626000D03*
X163099260Y-118626000D03*
X147938000Y-104498520D03*
X147938000Y-94496000D03*
X144763000Y-94496000D03*
X144763000Y-104498520D03*
X153096740Y-112276000D03*
X163099260Y-112276000D03*
X153096740Y-115451000D03*
X163099260Y-115451000D03*
X163099260Y-105926000D03*
X153096740Y-105926000D03*
X163099260Y-102751000D03*
X153096740Y-102751000D03*
X163099260Y-99576000D03*
X153096740Y-99576000D03*
D16*
X147303000Y-109101000D03*
X144763000Y-109101000D03*
D17*
X149843000Y-109101000D03*
D16*
X147303000Y-115451000D03*
X144763000Y-115451000D03*
D17*
X149843000Y-115451000D03*
D18*
X168408000Y-92276000D03*
X168408000Y-117276000D03*
D19*
X170948000Y-109621000D03*
X170948000Y-107331000D03*
X170948000Y-105041000D03*
X170948000Y-102751000D03*
X170948000Y-100461000D03*
X168968000Y-108476000D03*
X168968000Y-106186000D03*
X168968000Y-103896000D03*
X168968000Y-101606000D03*
X168968000Y-99316000D03*
X166988000Y-109621000D03*
X166988000Y-107331000D03*
X166988000Y-105041000D03*
X166988000Y-102751000D03*
D20*
X166988000Y-100461000D03*
X163178000Y-93861000D03*
D21*
X155558000Y-93861000D03*
D20*
X163178000Y-90686000D03*
D21*
X155558000Y-90686000D03*
D22*
X138938000Y-123825000D03*
X141478000Y-123825000D03*
X144018000Y-123825000D03*
X146558000Y-123825000D03*
X149098000Y-123825000D03*
X151638000Y-123825000D03*
X154178000Y-123825000D03*
X156718000Y-123825000D03*
X161798000Y-123825000D03*
X164338000Y-123825000D03*
X166878000Y-123825000D03*
X169418000Y-123825000D03*
X171958000Y-123825000D03*
X174498000Y-123825000D03*
X129794000Y-75565000D03*
X132334000Y-75565000D03*
X134874000Y-75565000D03*
X137414000Y-75565000D03*
X139954000Y-75565000D03*
X142494000Y-75565000D03*
X145034000Y-75565000D03*
X147574000Y-75565000D03*
X150114000Y-75565000D03*
X152654000Y-75565000D03*
X156718000Y-75565000D03*
X159258000Y-75565000D03*
X161798000Y-75565000D03*
X164338000Y-75565000D03*
X166878000Y-75565000D03*
X169418000Y-75565000D03*
X171958000Y-75565000D03*
X174498000Y-75565000D03*
D23*
X124968000Y-123825000D03*
X177038000Y-118745000D03*
X126238000Y-75565000D03*
X177038000Y-90805000D03*
D24*
X157971000Y-78240000D03*
X160511000Y-77859000D03*
X163051000Y-77478000D03*
X155431000Y-78240000D03*
X165591000Y-77478000D03*
X168131000Y-77478000D03*
X151494000Y-78240000D03*
X150224000Y-80907000D03*
X151367000Y-86368000D03*
X148954000Y-91194000D03*
X153780000Y-92210000D03*
X157209000Y-92210000D03*
X161019000Y-95131000D03*
X159241000Y-123833000D03*
X147684000Y-112784000D03*
X143239000Y-113800000D03*
X150732000Y-111133000D03*
X150605000Y-107069000D03*
X144763000Y-106942000D03*
X146287000Y-117356000D03*
X145906000Y-121166000D03*
X173084000Y-112657000D03*
X173846000Y-107577000D03*
X173465000Y-103640000D03*
X165464000Y-98306000D03*
X154034000Y-96909000D03*
X157971000Y-121166000D03*
X159749000Y-97290000D03*
X142223000Y-94877000D03*
X153780000Y-89162000D03*
X165210000Y-89670000D03*
X167877000Y-85987000D03*
X170544000Y-88654000D03*
X171560000Y-85987000D03*
X170798000Y-79002000D03*
X171560000Y-82431000D03*
X155431000Y-87257000D03*
X157489147Y-89315147D03*
X151113000Y-101100000D03*
X165083000Y-101227000D03*
X165083000Y-104275000D03*
X165083000Y-107450000D03*
X175497000Y-121674000D03*
X168131000Y-121674000D03*
X137397000Y-121674000D03*
X177783000Y-115451000D03*
X177783000Y-94496000D03*
X177783000Y-104656000D03*
X177783000Y-109736000D03*
X177783000Y-99576000D03*
X175878000Y-87511000D03*
X175243000Y-77986000D03*
X175243000Y-82431000D03*
X143112000Y-82304000D03*
X173973000Y-92083000D03*
X173973000Y-117610000D03*
X172830000Y-98306000D03*
X169401000Y-110879000D03*
X150668500Y-117673500D03*
D25*
X146668000Y-86241000D02*
X146668000Y-89416000D01*
X151638000Y-121691000D02*
X151638000Y-123825000D01*
X149843000Y-89416000D02*
X146033000Y-89416000D01*
X146033000Y-89416000D02*
X141334000Y-94115000D01*
X144128000Y-121166000D02*
X145906000Y-121166000D01*
X151113000Y-121166000D02*
X151638000Y-121691000D01*
X141334000Y-94115000D02*
X141334000Y-118372000D01*
X141334000Y-118372000D02*
X144128000Y-121166000D01*
X149843000Y-84336000D02*
X150478000Y-83701000D01*
X154923000Y-97671000D02*
X150478000Y-97671000D01*
X157590000Y-95004000D02*
X154923000Y-97671000D01*
X164348000Y-83701000D02*
X162443000Y-85606000D01*
X162443000Y-85606000D02*
X160257000Y-85606000D01*
X150478000Y-83701000D02*
X154188000Y-83701000D01*
X150478000Y-97671000D02*
X149843000Y-97036000D01*
X160257000Y-85606000D02*
X157590000Y-88273000D01*
X149843000Y-97036000D02*
X149843000Y-84336000D01*
X157590000Y-88273000D02*
X157489147Y-89315147D01*
X144644000Y-80645000D02*
X146668000Y-78621000D01*
X137414000Y-75565000D02*
X137414000Y-80645000D01*
X137414000Y-80645000D02*
X137414000Y-83185000D01*
X137414000Y-83185000D02*
X137414000Y-85725000D01*
X137414000Y-85725000D02*
X137414000Y-88265000D01*
X137414000Y-88265000D02*
X137414000Y-90805000D01*
X137414000Y-90805000D02*
X137414000Y-93345000D01*
X137414000Y-93345000D02*
X137414000Y-95885000D01*
X137414000Y-95885000D02*
X137414000Y-98425000D01*
X137414000Y-98425000D02*
X137414000Y-100965000D01*
X137414000Y-100965000D02*
X137414000Y-103505000D01*
X137414000Y-103505000D02*
X137414000Y-106045000D01*
X137414000Y-106045000D02*
X137414000Y-108585000D01*
X137414000Y-108585000D02*
X137414000Y-111125000D01*
X137414000Y-111125000D02*
X137414000Y-113665000D01*
X137414000Y-113665000D02*
X137414000Y-116205000D01*
X137414000Y-116205000D02*
X137414000Y-118745000D01*
X146668000Y-78621000D02*
X151494000Y-78240000D01*
X157463000Y-78621000D02*
X157971000Y-78113000D01*
X157971000Y-78113000D02*
X160511000Y-78113000D01*
X160511000Y-78113000D02*
X161066018Y-77557982D01*
X161066018Y-77557982D02*
X163051000Y-77557982D01*
X155558000Y-78621000D02*
X157463000Y-78621000D01*
X151494000Y-78240000D02*
X155558000Y-78621000D01*
X157209000Y-92210000D02*
X157590000Y-95004000D01*
X145906000Y-121166000D02*
X151113000Y-121166000D01*
X157489147Y-89315147D02*
X157209000Y-92210000D01*
D26*
X168968000Y-108476000D02*
X168968000Y-109557000D01*
X168904000Y-109621000D02*
X166988000Y-109621000D01*
X168968000Y-109557000D02*
X168904000Y-109621000D01*
X168968000Y-103896000D02*
X168968000Y-101606000D01*
X168968000Y-99316000D02*
X168968000Y-101606000D01*
X166988000Y-109621000D02*
X165857000Y-109621000D01*
X165337000Y-109101000D02*
X163099260Y-109101000D01*
X165857000Y-109621000D02*
X165337000Y-109101000D01*
D25*
X137414000Y-88265000D02*
X142494000Y-88265000D01*
X144644000Y-86115000D02*
X144644000Y-80645000D01*
X142494000Y-88265000D02*
X144644000Y-86115000D01*
X163099260Y-112276000D02*
X170798000Y-112276000D01*
X170798000Y-112276000D02*
X172703000Y-110371000D01*
X172703000Y-109086000D02*
X170948000Y-107331000D01*
X172703000Y-110371000D02*
X172703000Y-109086000D01*
X173153009Y-108899599D02*
X172322000Y-108068590D01*
X173153010Y-110557400D02*
X173153009Y-108899599D01*
X172322000Y-108068590D02*
X172322000Y-106415000D01*
X170984401Y-112726009D02*
X173153010Y-110557400D01*
X164448000Y-115451000D02*
X164829000Y-115070000D01*
X164829000Y-115070000D02*
X164829000Y-113292000D01*
X172322000Y-106415000D02*
X170948000Y-105041000D01*
X163099260Y-115451000D02*
X164448000Y-115451000D01*
X164829000Y-113292000D02*
X165394991Y-112726009D01*
X165394991Y-112726009D02*
X170984401Y-112726009D01*
X166476000Y-105041000D02*
X166988000Y-105041000D01*
X163099260Y-105926000D02*
X165591000Y-105926000D01*
X165591000Y-105926000D02*
X166476000Y-105041000D01*
X163099260Y-102751000D02*
X166988000Y-102751000D01*
X166222000Y-100461000D02*
X166988000Y-100461000D01*
X163099260Y-99576000D02*
X165337000Y-99576000D01*
X165337000Y-99576000D02*
X166222000Y-100461000D01*
X154288000Y-99576000D02*
X153096740Y-99576000D01*
X158733000Y-95131000D02*
X154288000Y-99576000D01*
X169262980Y-80664020D02*
X169262980Y-86757200D01*
X168235960Y-79637000D02*
X169262980Y-80664020D01*
X161808000Y-79991000D02*
X162162000Y-79637000D01*
X169262980Y-86757200D02*
X168574090Y-87446090D01*
X162162000Y-79637000D02*
X168235960Y-79637000D01*
X160011200Y-87626980D02*
X158732999Y-88905181D01*
X161808000Y-81161000D02*
X161808000Y-79991000D01*
X168574090Y-87446090D02*
X160194910Y-87446090D01*
X160194910Y-87446090D02*
X160014020Y-87626980D01*
X160014020Y-87626980D02*
X160011200Y-87626980D01*
X158732999Y-88905181D02*
X158733000Y-95131000D01*
X154288000Y-102751000D02*
X153096740Y-102751000D01*
X154796000Y-102243000D02*
X154288000Y-102751000D01*
X154796000Y-99704410D02*
X154796000Y-102243000D01*
X159183009Y-95317401D02*
X154796000Y-99704410D01*
X159183009Y-89091581D02*
X159183009Y-95317401D01*
X159268000Y-79991000D02*
X159622000Y-79637000D01*
X159622000Y-79637000D02*
X161525590Y-79637000D01*
X159268000Y-81161000D02*
X159268000Y-79991000D01*
X161525590Y-79637000D02*
X161975600Y-79186990D01*
X161975600Y-79186990D02*
X168422361Y-79186991D01*
X168760490Y-87896100D02*
X160381310Y-87896100D01*
X168422361Y-79186991D02*
X169712990Y-80477620D01*
X169712990Y-80477620D02*
X169712990Y-86943600D01*
X160197599Y-88076991D02*
X159183009Y-89091581D01*
X160381310Y-87896100D02*
X160200421Y-88076989D01*
X169712990Y-86943600D02*
X168760490Y-87896100D01*
X160200421Y-88076989D02*
X160197599Y-88076991D01*
D26*
X149843000Y-115451000D02*
X153096740Y-115451000D01*
X153096740Y-115451000D02*
X153096740Y-118626000D01*
D25*
X154415000Y-105926000D02*
X153096740Y-105926000D01*
X155246010Y-105094990D02*
X154415000Y-105926000D01*
X160384002Y-88526998D02*
X159633018Y-89277982D01*
X160386822Y-88526998D02*
X160384002Y-88526998D01*
X156728000Y-81161000D02*
X156728000Y-79991000D01*
X156728000Y-79991000D02*
X157209000Y-79510000D01*
X157209000Y-79510000D02*
X159112590Y-79510000D01*
X155246010Y-99890810D02*
X155246010Y-105094990D01*
X168608761Y-78736981D02*
X170163000Y-80291220D01*
X160567710Y-88346110D02*
X160386822Y-88526998D01*
X159112590Y-79510000D02*
X159435600Y-79186990D01*
X161339190Y-79186990D02*
X161789201Y-78736981D01*
X159633018Y-89277982D02*
X159633018Y-95503802D01*
X159435600Y-79186990D02*
X161339190Y-79186990D01*
X170163000Y-80291220D02*
X170163000Y-87130000D01*
X168946890Y-88346110D02*
X160567710Y-88346110D01*
X159633018Y-95503802D02*
X155246010Y-99890810D01*
X161789201Y-78736981D02*
X168608761Y-78736981D01*
X170163000Y-87130000D02*
X168946890Y-88346110D01*
X141588000Y-78621000D02*
X141588000Y-86241000D01*
D26*
X149843000Y-109101000D02*
X153096740Y-109101000D01*
X153096740Y-109101000D02*
X153096740Y-112276000D01*
D25*
X155558000Y-89035000D02*
X155558000Y-90686000D01*
X157590000Y-87003000D02*
X159114000Y-85479000D01*
X157590000Y-87003000D02*
X155558000Y-89035000D01*
X159114000Y-83845000D02*
X159258000Y-83701000D01*
X159114000Y-85479000D02*
X159114000Y-83845000D01*
X147303000Y-114308000D02*
X147303000Y-115451000D01*
X145969500Y-112974500D02*
X147303000Y-114308000D01*
X144826500Y-112974500D02*
X145969500Y-112974500D01*
X142350000Y-96909000D02*
X142350000Y-110498000D01*
X142350000Y-110498000D02*
X144826500Y-112974500D01*
X144763000Y-94496000D02*
X142350000Y-96909000D01*
D27*
G36*
X176328001Y-74843093D02*
G01*
X176328000Y-85944125D01*
X176324565Y-85979000D01*
X176328000Y-86013875D01*
X176328000Y-86013876D01*
X176338273Y-86118183D01*
X176378872Y-86252019D01*
X176444800Y-86375362D01*
X176533525Y-86483474D01*
X176560617Y-86505708D01*
X178868001Y-88813093D01*
X178868001Y-88863294D01*
X178738113Y-88733406D01*
X178301298Y-88441536D01*
X177815935Y-88240492D01*
X177300677Y-88138000D01*
X176775323Y-88138000D01*
X176260065Y-88240492D01*
X175774702Y-88441536D01*
X175337887Y-88733406D01*
X174966406Y-89104887D01*
X174674536Y-89541702D01*
X174473492Y-90027065D01*
X174371000Y-90542323D01*
X174371000Y-91067677D01*
X174473492Y-91582935D01*
X174674536Y-92068298D01*
X174966406Y-92505113D01*
X175337887Y-92876594D01*
X175774702Y-93168464D01*
X176260065Y-93369508D01*
X176775323Y-93472000D01*
X177300677Y-93472000D01*
X177815935Y-93369508D01*
X178301298Y-93168464D01*
X178738113Y-92876594D01*
X178868001Y-92746706D01*
X178868000Y-116803293D01*
X178738113Y-116673406D01*
X178301298Y-116381536D01*
X177815935Y-116180492D01*
X177300677Y-116078000D01*
X176775323Y-116078000D01*
X176260065Y-116180492D01*
X175774702Y-116381536D01*
X175337887Y-116673406D01*
X174966406Y-117044887D01*
X174674536Y-117481702D01*
X174473492Y-117967065D01*
X174371000Y-118482323D01*
X174371000Y-119007677D01*
X174473492Y-119522935D01*
X174674536Y-120008298D01*
X174966406Y-120445113D01*
X175337887Y-120816594D01*
X175774702Y-121108464D01*
X176260065Y-121309508D01*
X176775323Y-121412000D01*
X177300677Y-121412000D01*
X177815935Y-121309508D01*
X178301298Y-121108464D01*
X178738113Y-120816594D01*
X178868000Y-120686707D01*
X178868000Y-120990908D01*
X176560617Y-123298292D01*
X176533526Y-123320525D01*
X176511293Y-123347616D01*
X176444801Y-123428637D01*
X176378872Y-123551981D01*
X176338274Y-123685816D01*
X176324565Y-123825000D01*
X176328001Y-123859885D01*
X176328000Y-125655000D01*
X136381000Y-125655000D01*
X136381000Y-125208174D01*
X136404537Y-125179494D01*
X136463502Y-125069180D01*
X136499812Y-124949482D01*
X136512072Y-124825000D01*
X136512072Y-123598982D01*
X137439400Y-123598982D01*
X137439400Y-124051019D01*
X137461084Y-124271177D01*
X137546775Y-124553664D01*
X137685931Y-124814006D01*
X137873203Y-125042197D01*
X138101395Y-125229469D01*
X138361737Y-125368625D01*
X138644224Y-125454316D01*
X138938000Y-125483251D01*
X139231777Y-125454316D01*
X139514264Y-125368625D01*
X139774606Y-125229469D01*
X140002797Y-125042197D01*
X140190069Y-124814006D01*
X140208000Y-124780459D01*
X140225931Y-124814006D01*
X140413203Y-125042197D01*
X140641395Y-125229469D01*
X140901737Y-125368625D01*
X141184224Y-125454316D01*
X141478000Y-125483251D01*
X141771777Y-125454316D01*
X142054264Y-125368625D01*
X142314606Y-125229469D01*
X142542797Y-125042197D01*
X142730069Y-124814006D01*
X142748000Y-124780459D01*
X142765931Y-124814006D01*
X142953203Y-125042197D01*
X143181395Y-125229469D01*
X143441737Y-125368625D01*
X143724224Y-125454316D01*
X144018000Y-125483251D01*
X144311777Y-125454316D01*
X144594264Y-125368625D01*
X144854606Y-125229469D01*
X145082797Y-125042197D01*
X145270069Y-124814006D01*
X145288000Y-124780459D01*
X145305931Y-124814006D01*
X145493203Y-125042197D01*
X145721395Y-125229469D01*
X145981737Y-125368625D01*
X146264224Y-125454316D01*
X146558000Y-125483251D01*
X146851777Y-125454316D01*
X147134264Y-125368625D01*
X147394606Y-125229469D01*
X147622797Y-125042197D01*
X147810069Y-124814006D01*
X147828000Y-124780459D01*
X147845931Y-124814006D01*
X148033203Y-125042197D01*
X148261395Y-125229469D01*
X148521737Y-125368625D01*
X148804224Y-125454316D01*
X149098000Y-125483251D01*
X149391777Y-125454316D01*
X149674264Y-125368625D01*
X149934606Y-125229469D01*
X150162797Y-125042197D01*
X150350069Y-124814006D01*
X150371424Y-124774053D01*
X150519514Y-124976729D01*
X150735965Y-125175733D01*
X150987081Y-125328686D01*
X151263211Y-125429709D01*
X151278974Y-125432358D01*
X151511000Y-125311217D01*
X151511000Y-123952000D01*
X151765000Y-123952000D01*
X151765000Y-125311217D01*
X151997026Y-125432358D01*
X152012789Y-125429709D01*
X152288919Y-125328686D01*
X152540035Y-125175733D01*
X152756486Y-124976729D01*
X152908000Y-124769367D01*
X153059514Y-124976729D01*
X153275965Y-125175733D01*
X153527081Y-125328686D01*
X153803211Y-125429709D01*
X153818974Y-125432358D01*
X154051000Y-125311217D01*
X154051000Y-123952000D01*
X151765000Y-123952000D01*
X151511000Y-123952000D01*
X151491000Y-123952000D01*
X151491000Y-123698000D01*
X151511000Y-123698000D01*
X151511000Y-122338783D01*
X151765000Y-122338783D01*
X151765000Y-123698000D01*
X154051000Y-123698000D01*
X154051000Y-122338783D01*
X154305000Y-122338783D01*
X154305000Y-123698000D01*
X154325000Y-123698000D01*
X154325000Y-123952000D01*
X154305000Y-123952000D01*
X154305000Y-125311217D01*
X154537026Y-125432358D01*
X154552789Y-125429709D01*
X154828919Y-125328686D01*
X155080035Y-125175733D01*
X155296486Y-124976729D01*
X155444576Y-124774053D01*
X155465931Y-124814006D01*
X155653203Y-125042197D01*
X155881395Y-125229469D01*
X156141737Y-125368625D01*
X156424224Y-125454316D01*
X156718000Y-125483251D01*
X157011777Y-125454316D01*
X157294264Y-125368625D01*
X157554606Y-125229469D01*
X157782797Y-125042197D01*
X157970069Y-124814006D01*
X158109225Y-124553663D01*
X158194916Y-124271176D01*
X158216600Y-124051018D01*
X158216600Y-123598982D01*
X160299400Y-123598982D01*
X160299400Y-124051019D01*
X160321084Y-124271177D01*
X160406775Y-124553664D01*
X160545931Y-124814006D01*
X160733203Y-125042197D01*
X160961395Y-125229469D01*
X161221737Y-125368625D01*
X161504224Y-125454316D01*
X161798000Y-125483251D01*
X162091777Y-125454316D01*
X162374264Y-125368625D01*
X162634606Y-125229469D01*
X162862797Y-125042197D01*
X163050069Y-124814006D01*
X163068000Y-124780459D01*
X163085931Y-124814006D01*
X163273203Y-125042197D01*
X163501395Y-125229469D01*
X163761737Y-125368625D01*
X164044224Y-125454316D01*
X164338000Y-125483251D01*
X164631777Y-125454316D01*
X164914264Y-125368625D01*
X165174606Y-125229469D01*
X165402797Y-125042197D01*
X165590069Y-124814006D01*
X165608000Y-124780459D01*
X165625931Y-124814006D01*
X165813203Y-125042197D01*
X166041395Y-125229469D01*
X166301737Y-125368625D01*
X166584224Y-125454316D01*
X166878000Y-125483251D01*
X167171777Y-125454316D01*
X167454264Y-125368625D01*
X167714606Y-125229469D01*
X167942797Y-125042197D01*
X168130069Y-124814006D01*
X168148000Y-124780459D01*
X168165931Y-124814006D01*
X168353203Y-125042197D01*
X168581395Y-125229469D01*
X168841737Y-125368625D01*
X169124224Y-125454316D01*
X169418000Y-125483251D01*
X169711777Y-125454316D01*
X169994264Y-125368625D01*
X170254606Y-125229469D01*
X170482797Y-125042197D01*
X170670069Y-124814006D01*
X170688000Y-124780459D01*
X170705931Y-124814006D01*
X170893203Y-125042197D01*
X171121395Y-125229469D01*
X171381737Y-125368625D01*
X171664224Y-125454316D01*
X171958000Y-125483251D01*
X172251777Y-125454316D01*
X172534264Y-125368625D01*
X172794606Y-125229469D01*
X173022797Y-125042197D01*
X173210069Y-124814006D01*
X173228000Y-124780459D01*
X173245931Y-124814006D01*
X173433203Y-125042197D01*
X173661395Y-125229469D01*
X173921737Y-125368625D01*
X174204224Y-125454316D01*
X174498000Y-125483251D01*
X174791777Y-125454316D01*
X175074264Y-125368625D01*
X175334606Y-125229469D01*
X175562797Y-125042197D01*
X175750069Y-124814006D01*
X175889225Y-124553663D01*
X175974916Y-124271176D01*
X175996600Y-124051018D01*
X175996600Y-123598981D01*
X175974916Y-123378823D01*
X175889225Y-123096336D01*
X175750069Y-122835994D01*
X175562797Y-122607803D01*
X175334605Y-122420531D01*
X175074263Y-122281375D01*
X174791776Y-122195684D01*
X174498000Y-122166749D01*
X174204223Y-122195684D01*
X173921736Y-122281375D01*
X173661394Y-122420531D01*
X173433203Y-122607803D01*
X173245931Y-122835995D01*
X173228000Y-122869541D01*
X173210069Y-122835994D01*
X173022797Y-122607803D01*
X172794605Y-122420531D01*
X172534263Y-122281375D01*
X172251776Y-122195684D01*
X171958000Y-122166749D01*
X171664223Y-122195684D01*
X171381736Y-122281375D01*
X171121394Y-122420531D01*
X170893203Y-122607803D01*
X170705931Y-122835995D01*
X170688000Y-122869541D01*
X170670069Y-122835994D01*
X170482797Y-122607803D01*
X170254605Y-122420531D01*
X169994263Y-122281375D01*
X169711776Y-122195684D01*
X169418000Y-122166749D01*
X169124223Y-122195684D01*
X168841736Y-122281375D01*
X168581394Y-122420531D01*
X168353203Y-122607803D01*
X168165931Y-122835995D01*
X168148000Y-122869541D01*
X168130069Y-122835994D01*
X167942797Y-122607803D01*
X167714605Y-122420531D01*
X167454263Y-122281375D01*
X167171776Y-122195684D01*
X166878000Y-122166749D01*
X166584223Y-122195684D01*
X166301736Y-122281375D01*
X166041394Y-122420531D01*
X165813203Y-122607803D01*
X165625931Y-122835995D01*
X165608000Y-122869541D01*
X165590069Y-122835994D01*
X165402797Y-122607803D01*
X165174605Y-122420531D01*
X164914263Y-122281375D01*
X164631776Y-122195684D01*
X164338000Y-122166749D01*
X164044223Y-122195684D01*
X163761736Y-122281375D01*
X163501394Y-122420531D01*
X163273203Y-122607803D01*
X163085931Y-122835995D01*
X163068000Y-122869541D01*
X163050069Y-122835994D01*
X162862797Y-122607803D01*
X162634605Y-122420531D01*
X162374263Y-122281375D01*
X162091776Y-122195684D01*
X161798000Y-122166749D01*
X161504223Y-122195684D01*
X161221736Y-122281375D01*
X160961394Y-122420531D01*
X160733203Y-122607803D01*
X160545931Y-122835995D01*
X160406775Y-123096337D01*
X160321084Y-123378824D01*
X160299400Y-123598982D01*
X158216600Y-123598982D01*
X158216600Y-123598981D01*
X158194916Y-123378823D01*
X158109225Y-123096336D01*
X157970069Y-122835994D01*
X157782797Y-122607803D01*
X157554605Y-122420531D01*
X157294263Y-122281375D01*
X157011776Y-122195684D01*
X156718000Y-122166749D01*
X156424223Y-122195684D01*
X156141736Y-122281375D01*
X155881394Y-122420531D01*
X155653203Y-122607803D01*
X155465931Y-122835995D01*
X155444576Y-122875947D01*
X155296486Y-122673271D01*
X155080035Y-122474267D01*
X154828919Y-122321314D01*
X154552789Y-122220291D01*
X154537026Y-122217642D01*
X154305000Y-122338783D01*
X154051000Y-122338783D01*
X153818974Y-122217642D01*
X153803211Y-122220291D01*
X153527081Y-122321314D01*
X153275965Y-122474267D01*
X153059514Y-122673271D01*
X152908000Y-122880633D01*
X152756486Y-122673271D01*
X152540035Y-122474267D01*
X152288919Y-122321314D01*
X152012789Y-122220291D01*
X151997026Y-122217642D01*
X151765000Y-122338783D01*
X151511000Y-122338783D01*
X151278974Y-122217642D01*
X151263211Y-122220291D01*
X150987081Y-122321314D01*
X150735965Y-122474267D01*
X150519514Y-122673271D01*
X150371424Y-122875947D01*
X150350069Y-122835994D01*
X150162797Y-122607803D01*
X149934605Y-122420531D01*
X149674263Y-122281375D01*
X149391776Y-122195684D01*
X149098000Y-122166749D01*
X148804223Y-122195684D01*
X148521736Y-122281375D01*
X148261394Y-122420531D01*
X148033203Y-122607803D01*
X147845931Y-122835995D01*
X147828000Y-122869541D01*
X147810069Y-122835994D01*
X147622797Y-122607803D01*
X147394605Y-122420531D01*
X147134263Y-122281375D01*
X146851776Y-122195684D01*
X146558000Y-122166749D01*
X146264223Y-122195684D01*
X145981736Y-122281375D01*
X145721394Y-122420531D01*
X145493203Y-122607803D01*
X145305931Y-122835995D01*
X145288000Y-122869541D01*
X145270069Y-122835994D01*
X145082797Y-122607803D01*
X144854605Y-122420531D01*
X144594263Y-122281375D01*
X144311776Y-122195684D01*
X144018000Y-122166749D01*
X143724223Y-122195684D01*
X143441736Y-122281375D01*
X143181394Y-122420531D01*
X142953203Y-122607803D01*
X142765931Y-122835995D01*
X142748000Y-122869541D01*
X142730069Y-122835994D01*
X142542797Y-122607803D01*
X142314605Y-122420531D01*
X142054263Y-122281375D01*
X141771776Y-122195684D01*
X141478000Y-122166749D01*
X141184223Y-122195684D01*
X140901736Y-122281375D01*
X140641394Y-122420531D01*
X140413203Y-122607803D01*
X140225931Y-122835995D01*
X140208000Y-122869541D01*
X140190069Y-122835994D01*
X140002797Y-122607803D01*
X139774605Y-122420531D01*
X139514263Y-122281375D01*
X139231776Y-122195684D01*
X138938000Y-122166749D01*
X138644223Y-122195684D01*
X138361736Y-122281375D01*
X138101394Y-122420531D01*
X137873203Y-122607803D01*
X137685931Y-122835995D01*
X137546775Y-123096337D01*
X137461084Y-123378824D01*
X137439400Y-123598982D01*
X136512072Y-123598982D01*
X136512072Y-122825000D01*
X136499812Y-122700518D01*
X136463502Y-122580820D01*
X136449701Y-122555000D01*
X136463502Y-122529180D01*
X136499812Y-122409482D01*
X136512072Y-122285000D01*
X136512072Y-120382650D01*
X137128250Y-120380000D01*
X137287000Y-120221250D01*
X137287000Y-118872000D01*
X137541000Y-118872000D01*
X137541000Y-120221250D01*
X137699750Y-120380000D01*
X138414000Y-120383072D01*
X138538482Y-120370812D01*
X138658180Y-120334502D01*
X138768494Y-120275537D01*
X138865185Y-120196185D01*
X138944537Y-120099494D01*
X139003502Y-119989180D01*
X139039812Y-119869482D01*
X139052072Y-119745000D01*
X139049000Y-119030750D01*
X138890250Y-118872000D01*
X137541000Y-118872000D01*
X137287000Y-118872000D01*
X137267000Y-118872000D01*
X137267000Y-118618000D01*
X137287000Y-118618000D01*
X137287000Y-116332000D01*
X137541000Y-116332000D01*
X137541000Y-118618000D01*
X138890250Y-118618000D01*
X139049000Y-118459250D01*
X139052072Y-117745000D01*
X139039812Y-117620518D01*
X139003502Y-117500820D01*
X138989701Y-117475000D01*
X139003502Y-117449180D01*
X139039812Y-117329482D01*
X139052072Y-117205000D01*
X139049000Y-116490750D01*
X138890250Y-116332000D01*
X137541000Y-116332000D01*
X137287000Y-116332000D01*
X137267000Y-116332000D01*
X137267000Y-116078000D01*
X137287000Y-116078000D01*
X137287000Y-113792000D01*
X137541000Y-113792000D01*
X137541000Y-116078000D01*
X138890250Y-116078000D01*
X139049000Y-115919250D01*
X139052072Y-115205000D01*
X139039812Y-115080518D01*
X139003502Y-114960820D01*
X138989701Y-114935000D01*
X139003502Y-114909180D01*
X139039812Y-114789482D01*
X139052072Y-114665000D01*
X139049000Y-113950750D01*
X138890250Y-113792000D01*
X137541000Y-113792000D01*
X137287000Y-113792000D01*
X137267000Y-113792000D01*
X137267000Y-113538000D01*
X137287000Y-113538000D01*
X137287000Y-111252000D01*
X137541000Y-111252000D01*
X137541000Y-113538000D01*
X138890250Y-113538000D01*
X139049000Y-113379250D01*
X139052072Y-112665000D01*
X139039812Y-112540518D01*
X139003502Y-112420820D01*
X138989701Y-112395000D01*
X139003502Y-112369180D01*
X139039812Y-112249482D01*
X139052072Y-112125000D01*
X139049000Y-111410750D01*
X138890250Y-111252000D01*
X137541000Y-111252000D01*
X137287000Y-111252000D01*
X137267000Y-111252000D01*
X137267000Y-110998000D01*
X137287000Y-110998000D01*
X137287000Y-108712000D01*
X137541000Y-108712000D01*
X137541000Y-110998000D01*
X138890250Y-110998000D01*
X139049000Y-110839250D01*
X139052072Y-110125000D01*
X139039812Y-110000518D01*
X139003502Y-109880820D01*
X138989701Y-109855000D01*
X139003502Y-109829180D01*
X139039812Y-109709482D01*
X139052072Y-109585000D01*
X139049000Y-108870750D01*
X138890250Y-108712000D01*
X137541000Y-108712000D01*
X137287000Y-108712000D01*
X137267000Y-108712000D01*
X137267000Y-108458000D01*
X137287000Y-108458000D01*
X137287000Y-106172000D01*
X137541000Y-106172000D01*
X137541000Y-108458000D01*
X138890250Y-108458000D01*
X139049000Y-108299250D01*
X139052072Y-107585000D01*
X139039812Y-107460518D01*
X139003502Y-107340820D01*
X138989701Y-107315000D01*
X139003502Y-107289180D01*
X139039812Y-107169482D01*
X139052072Y-107045000D01*
X139049000Y-106330750D01*
X138890250Y-106172000D01*
X137541000Y-106172000D01*
X137287000Y-106172000D01*
X137267000Y-106172000D01*
X137267000Y-105918000D01*
X137287000Y-105918000D01*
X137287000Y-103632000D01*
X137541000Y-103632000D01*
X137541000Y-105918000D01*
X138890250Y-105918000D01*
X139049000Y-105759250D01*
X139052072Y-105045000D01*
X139039812Y-104920518D01*
X139003502Y-104800820D01*
X138989701Y-104775000D01*
X139003502Y-104749180D01*
X139039812Y-104629482D01*
X139052072Y-104505000D01*
X139049000Y-103790750D01*
X138890250Y-103632000D01*
X137541000Y-103632000D01*
X137287000Y-103632000D01*
X137267000Y-103632000D01*
X137267000Y-103378000D01*
X137287000Y-103378000D01*
X137287000Y-101092000D01*
X137541000Y-101092000D01*
X137541000Y-103378000D01*
X138890250Y-103378000D01*
X139049000Y-103219250D01*
X139052072Y-102505000D01*
X139039812Y-102380518D01*
X139003502Y-102260820D01*
X138989701Y-102235000D01*
X139003502Y-102209180D01*
X139039812Y-102089482D01*
X139052072Y-101965000D01*
X139049000Y-101250750D01*
X138890250Y-101092000D01*
X137541000Y-101092000D01*
X137287000Y-101092000D01*
X137267000Y-101092000D01*
X137267000Y-100838000D01*
X137287000Y-100838000D01*
X137287000Y-98552000D01*
X137541000Y-98552000D01*
X137541000Y-100838000D01*
X138890250Y-100838000D01*
X139049000Y-100679250D01*
X139052072Y-99965000D01*
X139039812Y-99840518D01*
X139003502Y-99720820D01*
X138989701Y-99695000D01*
X139003502Y-99669180D01*
X139039812Y-99549482D01*
X139052072Y-99425000D01*
X139049000Y-98710750D01*
X138890250Y-98552000D01*
X137541000Y-98552000D01*
X137287000Y-98552000D01*
X137267000Y-98552000D01*
X137267000Y-98298000D01*
X137287000Y-98298000D01*
X137287000Y-96012000D01*
X137541000Y-96012000D01*
X137541000Y-98298000D01*
X138890250Y-98298000D01*
X139049000Y-98139250D01*
X139052072Y-97425000D01*
X139039812Y-97300518D01*
X139003502Y-97180820D01*
X138989701Y-97155000D01*
X139003502Y-97129180D01*
X139039812Y-97009482D01*
X139049708Y-96909000D01*
X141586324Y-96909000D01*
X141590000Y-96946322D01*
X141590001Y-110460668D01*
X141586324Y-110498000D01*
X141590001Y-110535333D01*
X141600998Y-110646986D01*
X141605931Y-110663247D01*
X141644454Y-110790246D01*
X141715026Y-110922276D01*
X141761227Y-110978571D01*
X141810000Y-111038001D01*
X141838998Y-111061799D01*
X144262700Y-113485502D01*
X144286499Y-113514501D01*
X144315497Y-113538299D01*
X144402223Y-113609474D01*
X144521120Y-113673026D01*
X144534253Y-113680046D01*
X144677514Y-113723503D01*
X144789167Y-113734500D01*
X144789177Y-113734500D01*
X144826500Y-113738176D01*
X144863823Y-113734500D01*
X145654699Y-113734500D01*
X146350685Y-114430487D01*
X146219433Y-114561739D01*
X146066767Y-114790220D01*
X146033000Y-114871740D01*
X145999233Y-114790220D01*
X145846567Y-114561739D01*
X145652261Y-114367433D01*
X145423780Y-114214767D01*
X145169907Y-114109609D01*
X144900396Y-114056000D01*
X144625604Y-114056000D01*
X144356093Y-114109609D01*
X144102220Y-114214767D01*
X143873739Y-114367433D01*
X143679433Y-114561739D01*
X143526767Y-114790220D01*
X143421609Y-115044093D01*
X143368000Y-115313604D01*
X143368000Y-115588396D01*
X143421609Y-115857907D01*
X143526767Y-116111780D01*
X143679433Y-116340261D01*
X143873739Y-116534567D01*
X144102220Y-116687233D01*
X144356093Y-116792391D01*
X144625604Y-116846000D01*
X144900396Y-116846000D01*
X145169907Y-116792391D01*
X145423780Y-116687233D01*
X145652261Y-116534567D01*
X145846567Y-116340261D01*
X145999233Y-116111780D01*
X146033000Y-116030260D01*
X146066767Y-116111780D01*
X146219433Y-116340261D01*
X146413739Y-116534567D01*
X146642220Y-116687233D01*
X146896093Y-116792391D01*
X147165604Y-116846000D01*
X147440396Y-116846000D01*
X147709907Y-116792391D01*
X147963780Y-116687233D01*
X148192261Y-116534567D01*
X148386567Y-116340261D01*
X148448526Y-116247533D01*
X148457188Y-116335482D01*
X148493498Y-116455180D01*
X148552463Y-116565494D01*
X148631815Y-116662185D01*
X148728506Y-116741537D01*
X148838820Y-116800502D01*
X148958518Y-116836812D01*
X149083000Y-116849072D01*
X150603000Y-116849072D01*
X150727482Y-116836812D01*
X150847180Y-116800502D01*
X150957494Y-116741537D01*
X151054185Y-116662185D01*
X151133537Y-116565494D01*
X151192502Y-116455180D01*
X151227441Y-116340000D01*
X151459178Y-116340000D01*
X151459178Y-116450490D01*
X151471438Y-116574972D01*
X151507748Y-116694670D01*
X151566713Y-116804984D01*
X151646065Y-116901675D01*
X151742756Y-116981027D01*
X151850279Y-117038500D01*
X151742756Y-117095973D01*
X151646065Y-117175325D01*
X151566713Y-117272016D01*
X151507748Y-117382330D01*
X151471438Y-117502028D01*
X151459178Y-117626510D01*
X151459178Y-119625490D01*
X151471438Y-119749972D01*
X151507748Y-119869670D01*
X151566713Y-119979984D01*
X151646065Y-120076675D01*
X151742756Y-120156027D01*
X151853070Y-120214992D01*
X151972768Y-120251302D01*
X152097250Y-120263562D01*
X154096230Y-120263562D01*
X154220712Y-120251302D01*
X154340410Y-120214992D01*
X154450724Y-120156027D01*
X154547415Y-120076675D01*
X154626767Y-119979984D01*
X154685732Y-119869670D01*
X154722042Y-119749972D01*
X154734302Y-119625490D01*
X161461698Y-119625490D01*
X161473958Y-119749972D01*
X161510268Y-119869670D01*
X161569233Y-119979984D01*
X161648585Y-120076675D01*
X161745276Y-120156027D01*
X161855590Y-120214992D01*
X161975288Y-120251302D01*
X162099770Y-120263562D01*
X162813510Y-120260490D01*
X162972260Y-120101740D01*
X162972260Y-118753000D01*
X163226260Y-118753000D01*
X163226260Y-120101740D01*
X163385010Y-120260490D01*
X164098750Y-120263562D01*
X164223232Y-120251302D01*
X164342930Y-120214992D01*
X164453244Y-120156027D01*
X164549935Y-120076675D01*
X164629287Y-119979984D01*
X164688252Y-119869670D01*
X164724562Y-119749972D01*
X164736822Y-119625490D01*
X164734662Y-119123499D01*
X166740106Y-119123499D01*
X166956228Y-119490258D01*
X167416105Y-119730938D01*
X167914098Y-119877275D01*
X168431071Y-119923648D01*
X168947159Y-119868273D01*
X169442526Y-119713279D01*
X169859772Y-119490258D01*
X170075894Y-119123499D01*
X168408000Y-117455605D01*
X166740106Y-119123499D01*
X164734662Y-119123499D01*
X164733750Y-118911750D01*
X164575000Y-118753000D01*
X163226260Y-118753000D01*
X162972260Y-118753000D01*
X161623520Y-118753000D01*
X161464770Y-118911750D01*
X161461698Y-119625490D01*
X154734302Y-119625490D01*
X154734302Y-117626510D01*
X154722042Y-117502028D01*
X154685732Y-117382330D01*
X154626767Y-117272016D01*
X154547415Y-117175325D01*
X154450724Y-117095973D01*
X154343201Y-117038500D01*
X154450724Y-116981027D01*
X154547415Y-116901675D01*
X154626767Y-116804984D01*
X154685732Y-116694670D01*
X154722042Y-116574972D01*
X154734302Y-116450490D01*
X154734302Y-114451510D01*
X154722042Y-114327028D01*
X154685732Y-114207330D01*
X154626767Y-114097016D01*
X154547415Y-114000325D01*
X154450724Y-113920973D01*
X154343201Y-113863500D01*
X154450724Y-113806027D01*
X154547415Y-113726675D01*
X154626767Y-113629984D01*
X154685732Y-113519670D01*
X154722042Y-113399972D01*
X154734302Y-113275490D01*
X154734302Y-111276510D01*
X154722042Y-111152028D01*
X154685732Y-111032330D01*
X154626767Y-110922016D01*
X154547415Y-110825325D01*
X154450724Y-110745973D01*
X154343201Y-110688500D01*
X154450724Y-110631027D01*
X154547415Y-110551675D01*
X154626767Y-110454984D01*
X154685732Y-110344670D01*
X154722042Y-110224972D01*
X154734302Y-110100490D01*
X154734302Y-108101510D01*
X154722042Y-107977028D01*
X154685732Y-107857330D01*
X154626767Y-107747016D01*
X154547415Y-107650325D01*
X154450724Y-107570973D01*
X154343201Y-107513500D01*
X154450724Y-107456027D01*
X154547415Y-107376675D01*
X154626767Y-107279984D01*
X154685732Y-107169670D01*
X154722042Y-107049972D01*
X154734302Y-106925490D01*
X154734302Y-106617085D01*
X154839276Y-106560974D01*
X154955001Y-106466001D01*
X154978803Y-106436998D01*
X155757012Y-105658789D01*
X155786011Y-105634991D01*
X155880984Y-105519266D01*
X155951556Y-105387237D01*
X155995013Y-105243976D01*
X156006010Y-105132323D01*
X156009687Y-105094990D01*
X156006010Y-105057657D01*
X156006010Y-100205611D01*
X157635111Y-98576510D01*
X161461698Y-98576510D01*
X161461698Y-100575490D01*
X161473958Y-100699972D01*
X161510268Y-100819670D01*
X161569233Y-100929984D01*
X161648585Y-101026675D01*
X161745276Y-101106027D01*
X161852799Y-101163500D01*
X161745276Y-101220973D01*
X161648585Y-101300325D01*
X161569233Y-101397016D01*
X161510268Y-101507330D01*
X161473958Y-101627028D01*
X161461698Y-101751510D01*
X161461698Y-103750490D01*
X161473958Y-103874972D01*
X161510268Y-103994670D01*
X161569233Y-104104984D01*
X161648585Y-104201675D01*
X161745276Y-104281027D01*
X161852799Y-104338500D01*
X161745276Y-104395973D01*
X161648585Y-104475325D01*
X161569233Y-104572016D01*
X161510268Y-104682330D01*
X161473958Y-104802028D01*
X161461698Y-104926510D01*
X161461698Y-106925490D01*
X161473958Y-107049972D01*
X161510268Y-107169670D01*
X161569233Y-107279984D01*
X161648585Y-107376675D01*
X161745276Y-107456027D01*
X161852799Y-107513500D01*
X161745276Y-107570973D01*
X161648585Y-107650325D01*
X161569233Y-107747016D01*
X161510268Y-107857330D01*
X161473958Y-107977028D01*
X161461698Y-108101510D01*
X161464770Y-108815250D01*
X161623520Y-108974000D01*
X162972260Y-108974000D01*
X162972260Y-108954000D01*
X163226260Y-108954000D01*
X163226260Y-108974000D01*
X164575000Y-108974000D01*
X164733750Y-108815250D01*
X164736822Y-108101510D01*
X164724562Y-107977028D01*
X164688252Y-107857330D01*
X164629287Y-107747016D01*
X164549935Y-107650325D01*
X164453244Y-107570973D01*
X164345721Y-107513500D01*
X164453244Y-107456027D01*
X164549935Y-107376675D01*
X164629287Y-107279984D01*
X164688252Y-107169670D01*
X164724562Y-107049972D01*
X164736822Y-106925490D01*
X164736822Y-106686000D01*
X165553678Y-106686000D01*
X165591000Y-106689676D01*
X165628322Y-106686000D01*
X165628333Y-106686000D01*
X165705066Y-106678442D01*
X165608147Y-106912426D01*
X165553000Y-107189665D01*
X165553000Y-107472335D01*
X165608147Y-107749574D01*
X165716320Y-108010727D01*
X165873363Y-108245759D01*
X166073241Y-108445637D01*
X166203049Y-108532372D01*
X166174903Y-108628298D01*
X166988000Y-109441395D01*
X167002143Y-109427253D01*
X167181748Y-109606858D01*
X167167605Y-109621000D01*
X167980702Y-110434097D01*
X168224671Y-110362514D01*
X168345571Y-110107004D01*
X168414300Y-109832816D01*
X168415807Y-109802252D01*
X168481996Y-109833571D01*
X168756184Y-109902300D01*
X169038512Y-109916217D01*
X169318130Y-109874787D01*
X169520941Y-109802258D01*
X169568147Y-110039574D01*
X169676320Y-110300727D01*
X169833363Y-110535759D01*
X170033241Y-110735637D01*
X170268273Y-110892680D01*
X170529426Y-111000853D01*
X170806665Y-111056000D01*
X170943199Y-111056000D01*
X170483199Y-111516000D01*
X164736822Y-111516000D01*
X164736822Y-111276510D01*
X164724562Y-111152028D01*
X164688252Y-111032330D01*
X164629287Y-110922016D01*
X164549935Y-110825325D01*
X164453244Y-110745973D01*
X164345721Y-110688500D01*
X164453244Y-110631027D01*
X164474354Y-110613702D01*
X166174903Y-110613702D01*
X166246486Y-110857671D01*
X166501996Y-110978571D01*
X166776184Y-111047300D01*
X167058512Y-111061217D01*
X167338130Y-111019787D01*
X167604292Y-110924603D01*
X167729514Y-110857671D01*
X167801097Y-110613702D01*
X166988000Y-109800605D01*
X166174903Y-110613702D01*
X164474354Y-110613702D01*
X164549935Y-110551675D01*
X164629287Y-110454984D01*
X164688252Y-110344670D01*
X164724562Y-110224972D01*
X164736822Y-110100490D01*
X164735062Y-109691512D01*
X165547783Y-109691512D01*
X165589213Y-109971130D01*
X165684397Y-110237292D01*
X165751329Y-110362514D01*
X165995298Y-110434097D01*
X166808395Y-109621000D01*
X165995298Y-108807903D01*
X165751329Y-108879486D01*
X165630429Y-109134996D01*
X165561700Y-109409184D01*
X165547783Y-109691512D01*
X164735062Y-109691512D01*
X164733750Y-109386750D01*
X164575000Y-109228000D01*
X163226260Y-109228000D01*
X163226260Y-109248000D01*
X162972260Y-109248000D01*
X162972260Y-109228000D01*
X161623520Y-109228000D01*
X161464770Y-109386750D01*
X161461698Y-110100490D01*
X161473958Y-110224972D01*
X161510268Y-110344670D01*
X161569233Y-110454984D01*
X161648585Y-110551675D01*
X161745276Y-110631027D01*
X161852799Y-110688500D01*
X161745276Y-110745973D01*
X161648585Y-110825325D01*
X161569233Y-110922016D01*
X161510268Y-111032330D01*
X161473958Y-111152028D01*
X161461698Y-111276510D01*
X161461698Y-113275490D01*
X161473958Y-113399972D01*
X161510268Y-113519670D01*
X161569233Y-113629984D01*
X161648585Y-113726675D01*
X161745276Y-113806027D01*
X161852799Y-113863500D01*
X161745276Y-113920973D01*
X161648585Y-114000325D01*
X161569233Y-114097016D01*
X161510268Y-114207330D01*
X161473958Y-114327028D01*
X161461698Y-114451510D01*
X161461698Y-116450490D01*
X161473958Y-116574972D01*
X161510268Y-116694670D01*
X161569233Y-116804984D01*
X161648585Y-116901675D01*
X161745276Y-116981027D01*
X161852799Y-117038500D01*
X161745276Y-117095973D01*
X161648585Y-117175325D01*
X161569233Y-117272016D01*
X161510268Y-117382330D01*
X161473958Y-117502028D01*
X161461698Y-117626510D01*
X161464770Y-118340250D01*
X161623520Y-118499000D01*
X162972260Y-118499000D01*
X162972260Y-118479000D01*
X163226260Y-118479000D01*
X163226260Y-118499000D01*
X164575000Y-118499000D01*
X164733750Y-118340250D01*
X164736822Y-117626510D01*
X164724562Y-117502028D01*
X164688252Y-117382330D01*
X164643749Y-117299071D01*
X165760352Y-117299071D01*
X165815727Y-117815159D01*
X165970721Y-118310526D01*
X166193742Y-118727772D01*
X166560501Y-118943894D01*
X168228395Y-117276000D01*
X168587605Y-117276000D01*
X170255499Y-118943894D01*
X170622258Y-118727772D01*
X170862938Y-118267895D01*
X171009275Y-117769902D01*
X171055648Y-117252929D01*
X171000273Y-116736841D01*
X170845279Y-116241474D01*
X170622258Y-115824228D01*
X170255499Y-115608106D01*
X168587605Y-117276000D01*
X168228395Y-117276000D01*
X166560501Y-115608106D01*
X166193742Y-115824228D01*
X165953062Y-116284105D01*
X165806725Y-116782098D01*
X165760352Y-117299071D01*
X164643749Y-117299071D01*
X164629287Y-117272016D01*
X164549935Y-117175325D01*
X164453244Y-117095973D01*
X164345721Y-117038500D01*
X164453244Y-116981027D01*
X164549935Y-116901675D01*
X164629287Y-116804984D01*
X164688252Y-116694670D01*
X164724562Y-116574972D01*
X164736822Y-116450490D01*
X164736822Y-116157585D01*
X164740247Y-116156546D01*
X164872276Y-116085974D01*
X164988001Y-115991001D01*
X165011804Y-115961997D01*
X165339998Y-115633803D01*
X165369001Y-115610001D01*
X165463974Y-115494276D01*
X165499131Y-115428501D01*
X166740106Y-115428501D01*
X168408000Y-117096395D01*
X170075894Y-115428501D01*
X169859772Y-115061742D01*
X169399895Y-114821062D01*
X168901902Y-114674725D01*
X168384929Y-114628352D01*
X167868841Y-114683727D01*
X167373474Y-114838721D01*
X166956228Y-115061742D01*
X166740106Y-115428501D01*
X165499131Y-115428501D01*
X165534546Y-115362247D01*
X165578003Y-115218986D01*
X165589000Y-115107333D01*
X165589000Y-115107324D01*
X165592676Y-115070001D01*
X165589000Y-115032678D01*
X165589000Y-113606801D01*
X165709793Y-113486009D01*
X170947079Y-113486009D01*
X170984401Y-113489685D01*
X171021723Y-113486009D01*
X171021734Y-113486009D01*
X171133387Y-113475012D01*
X171276648Y-113431555D01*
X171408677Y-113360983D01*
X171524402Y-113266010D01*
X171548205Y-113237006D01*
X173664018Y-111121194D01*
X173693011Y-111097400D01*
X173716805Y-111068407D01*
X173716809Y-111068403D01*
X173787983Y-110981677D01*
X173858556Y-110849647D01*
X173892252Y-110738562D01*
X173902013Y-110706385D01*
X173913010Y-110594732D01*
X173913010Y-110594724D01*
X173916686Y-110557401D01*
X173913010Y-110520077D01*
X173913008Y-108936930D01*
X173916685Y-108899598D01*
X173902011Y-108750612D01*
X173858555Y-108607352D01*
X173787982Y-108475322D01*
X173716808Y-108388596D01*
X173716803Y-108388591D01*
X173693009Y-108359598D01*
X173664016Y-108335804D01*
X173082000Y-107753789D01*
X173082000Y-106452322D01*
X173085676Y-106414999D01*
X173082000Y-106377676D01*
X173082000Y-106377667D01*
X173071003Y-106266014D01*
X173027546Y-106122753D01*
X172956974Y-105990724D01*
X172922892Y-105949195D01*
X172885799Y-105903996D01*
X172885795Y-105903992D01*
X172862001Y-105874999D01*
X172833008Y-105851205D01*
X172346688Y-105364886D01*
X172383000Y-105182335D01*
X172383000Y-104899665D01*
X172327853Y-104622426D01*
X172219680Y-104361273D01*
X172062637Y-104126241D01*
X171862759Y-103926363D01*
X171817317Y-103896000D01*
X171862759Y-103865637D01*
X172062637Y-103665759D01*
X172219680Y-103430727D01*
X172327853Y-103169574D01*
X172383000Y-102892335D01*
X172383000Y-102609665D01*
X172327853Y-102332426D01*
X172219680Y-102071273D01*
X172062637Y-101836241D01*
X171862759Y-101636363D01*
X171817317Y-101606000D01*
X171862759Y-101575637D01*
X172062637Y-101375759D01*
X172219680Y-101140727D01*
X172327853Y-100879574D01*
X172383000Y-100602335D01*
X172383000Y-100319665D01*
X172327853Y-100042426D01*
X172219680Y-99781273D01*
X172062637Y-99546241D01*
X171862759Y-99346363D01*
X171627727Y-99189320D01*
X171366574Y-99081147D01*
X171089335Y-99026000D01*
X170806665Y-99026000D01*
X170529426Y-99081147D01*
X170392284Y-99137953D01*
X170366787Y-98965870D01*
X170271603Y-98699708D01*
X170204671Y-98574486D01*
X169960702Y-98502903D01*
X169147605Y-99316000D01*
X169161748Y-99330143D01*
X168982143Y-99509748D01*
X168968000Y-99495605D01*
X168953858Y-99509748D01*
X168774253Y-99330143D01*
X168788395Y-99316000D01*
X167975298Y-98502903D01*
X167731329Y-98574486D01*
X167610429Y-98829996D01*
X167562068Y-99022928D01*
X166188000Y-99022928D01*
X166063518Y-99035188D01*
X165943820Y-99071498D01*
X165920020Y-99084219D01*
X165900803Y-99065002D01*
X165877001Y-99035999D01*
X165761276Y-98941026D01*
X165629247Y-98870454D01*
X165485986Y-98826997D01*
X165374333Y-98816000D01*
X165374322Y-98816000D01*
X165337000Y-98812324D01*
X165299678Y-98816000D01*
X164736822Y-98816000D01*
X164736822Y-98576510D01*
X164724562Y-98452028D01*
X164688252Y-98332330D01*
X164683425Y-98323298D01*
X168154903Y-98323298D01*
X168968000Y-99136395D01*
X169781097Y-98323298D01*
X169709514Y-98079329D01*
X169454004Y-97958429D01*
X169179816Y-97889700D01*
X168897488Y-97875783D01*
X168617870Y-97917213D01*
X168351708Y-98012397D01*
X168226486Y-98079329D01*
X168154903Y-98323298D01*
X164683425Y-98323298D01*
X164629287Y-98222016D01*
X164549935Y-98125325D01*
X164453244Y-98045973D01*
X164342930Y-97987008D01*
X164223232Y-97950698D01*
X164098750Y-97938438D01*
X162099770Y-97938438D01*
X161975288Y-97950698D01*
X161855590Y-97987008D01*
X161745276Y-98045973D01*
X161648585Y-98125325D01*
X161569233Y-98222016D01*
X161510268Y-98332330D01*
X161473958Y-98452028D01*
X161461698Y-98576510D01*
X157635111Y-98576510D01*
X160144021Y-96067601D01*
X160173019Y-96043803D01*
X160267992Y-95928078D01*
X160338564Y-95796049D01*
X160382021Y-95652788D01*
X160393018Y-95541135D01*
X160393018Y-95541126D01*
X160396694Y-95503803D01*
X160393018Y-95466480D01*
X160393018Y-93061000D01*
X161739928Y-93061000D01*
X161739928Y-94661000D01*
X161752188Y-94785482D01*
X161788498Y-94905180D01*
X161847463Y-95015494D01*
X161926815Y-95112185D01*
X162023506Y-95191537D01*
X162133820Y-95250502D01*
X162253518Y-95286812D01*
X162378000Y-95299072D01*
X163978000Y-95299072D01*
X164102482Y-95286812D01*
X164222180Y-95250502D01*
X164332494Y-95191537D01*
X164429185Y-95112185D01*
X164508537Y-95015494D01*
X164567502Y-94905180D01*
X164603812Y-94785482D01*
X164616072Y-94661000D01*
X164616072Y-94123499D01*
X166740106Y-94123499D01*
X166956228Y-94490258D01*
X167416105Y-94730938D01*
X167914098Y-94877275D01*
X168431071Y-94923648D01*
X168947159Y-94868273D01*
X169442526Y-94713279D01*
X169859772Y-94490258D01*
X170075894Y-94123499D01*
X168408000Y-92455605D01*
X166740106Y-94123499D01*
X164616072Y-94123499D01*
X164616072Y-93061000D01*
X164603812Y-92936518D01*
X164567502Y-92816820D01*
X164508537Y-92706506D01*
X164429185Y-92609815D01*
X164332494Y-92530463D01*
X164222180Y-92471498D01*
X164102482Y-92435188D01*
X163978000Y-92422928D01*
X162378000Y-92422928D01*
X162253518Y-92435188D01*
X162133820Y-92471498D01*
X162023506Y-92530463D01*
X161926815Y-92609815D01*
X161847463Y-92706506D01*
X161788498Y-92816820D01*
X161752188Y-92936518D01*
X161739928Y-93061000D01*
X160393018Y-93061000D01*
X160393018Y-92299071D01*
X165760352Y-92299071D01*
X165815727Y-92815159D01*
X165970721Y-93310526D01*
X166193742Y-93727772D01*
X166560501Y-93943894D01*
X168228395Y-92276000D01*
X168587605Y-92276000D01*
X170255499Y-93943894D01*
X170622258Y-93727772D01*
X170862938Y-93267895D01*
X171009275Y-92769902D01*
X171055648Y-92252929D01*
X171000273Y-91736841D01*
X170845279Y-91241474D01*
X170622258Y-90824228D01*
X170255499Y-90608106D01*
X168587605Y-92276000D01*
X168228395Y-92276000D01*
X166560501Y-90608106D01*
X166193742Y-90824228D01*
X165953062Y-91284105D01*
X165806725Y-91782098D01*
X165760352Y-92299071D01*
X160393018Y-92299071D01*
X160393018Y-89886000D01*
X161739928Y-89886000D01*
X161739928Y-91486000D01*
X161752188Y-91610482D01*
X161788498Y-91730180D01*
X161847463Y-91840494D01*
X161926815Y-91937185D01*
X162023506Y-92016537D01*
X162133820Y-92075502D01*
X162253518Y-92111812D01*
X162378000Y-92124072D01*
X163978000Y-92124072D01*
X164102482Y-92111812D01*
X164222180Y-92075502D01*
X164332494Y-92016537D01*
X164429185Y-91937185D01*
X164508537Y-91840494D01*
X164567502Y-91730180D01*
X164603812Y-91610482D01*
X164616072Y-91486000D01*
X164616072Y-90428501D01*
X166740106Y-90428501D01*
X168408000Y-92096395D01*
X170075894Y-90428501D01*
X169859772Y-90061742D01*
X169399895Y-89821062D01*
X168901902Y-89674725D01*
X168384929Y-89628352D01*
X167868841Y-89683727D01*
X167373474Y-89838721D01*
X166956228Y-90061742D01*
X166740106Y-90428501D01*
X164616072Y-90428501D01*
X164616072Y-89886000D01*
X164603812Y-89761518D01*
X164567502Y-89641820D01*
X164508537Y-89531506D01*
X164429185Y-89434815D01*
X164332494Y-89355463D01*
X164222180Y-89296498D01*
X164102482Y-89260188D01*
X163978000Y-89247928D01*
X162378000Y-89247928D01*
X162253518Y-89260188D01*
X162133820Y-89296498D01*
X162023506Y-89355463D01*
X161926815Y-89434815D01*
X161847463Y-89531506D01*
X161788498Y-89641820D01*
X161752188Y-89761518D01*
X161739928Y-89886000D01*
X160393018Y-89886000D01*
X160393018Y-89592783D01*
X160879692Y-89106110D01*
X168909568Y-89106110D01*
X168946890Y-89109786D01*
X168984212Y-89106110D01*
X168984223Y-89106110D01*
X169095876Y-89095113D01*
X169239137Y-89051656D01*
X169371166Y-88981084D01*
X169486891Y-88886111D01*
X169510694Y-88857107D01*
X170674003Y-87693799D01*
X170703001Y-87670001D01*
X170797974Y-87554276D01*
X170868546Y-87422247D01*
X170912003Y-87278986D01*
X170923000Y-87167333D01*
X170923000Y-87167324D01*
X170926676Y-87130001D01*
X170923000Y-87092678D01*
X170923000Y-80328543D01*
X170926676Y-80291220D01*
X170923000Y-80253897D01*
X170923000Y-80253887D01*
X170912003Y-80142234D01*
X170868546Y-79998973D01*
X170797974Y-79866944D01*
X170703001Y-79751219D01*
X170674004Y-79727422D01*
X169172565Y-78225984D01*
X169148762Y-78196980D01*
X169033037Y-78102007D01*
X168901008Y-78031435D01*
X168757747Y-77987978D01*
X168646094Y-77976981D01*
X168646083Y-77976981D01*
X168608761Y-77973305D01*
X168571439Y-77976981D01*
X161826525Y-77976981D01*
X161789202Y-77973305D01*
X161751877Y-77976981D01*
X161751868Y-77976981D01*
X161640215Y-77987978D01*
X161496954Y-78031435D01*
X161364925Y-78102007D01*
X161249200Y-78196980D01*
X161225398Y-78225983D01*
X161024390Y-78426990D01*
X159472922Y-78426990D01*
X159435599Y-78423314D01*
X159398276Y-78426990D01*
X159398267Y-78426990D01*
X159286614Y-78437987D01*
X159143353Y-78481444D01*
X159011324Y-78552016D01*
X158895599Y-78646989D01*
X158871796Y-78675993D01*
X158797789Y-78750000D01*
X157246325Y-78750000D01*
X157209000Y-78746324D01*
X157171675Y-78750000D01*
X157171667Y-78750000D01*
X157060014Y-78760997D01*
X156916753Y-78804454D01*
X156784724Y-78875026D01*
X156668999Y-78969999D01*
X156645196Y-78999003D01*
X156216998Y-79427201D01*
X156188000Y-79450999D01*
X156164202Y-79479997D01*
X156164201Y-79479998D01*
X156093026Y-79566724D01*
X156022454Y-79698754D01*
X155997669Y-79780463D01*
X155978998Y-79842014D01*
X155976175Y-79870677D01*
X155771368Y-80007525D01*
X155639513Y-80139380D01*
X155617502Y-80066820D01*
X155558537Y-79956506D01*
X155479185Y-79859815D01*
X155382494Y-79780463D01*
X155272180Y-79721498D01*
X155152482Y-79685188D01*
X155028000Y-79672928D01*
X154463750Y-79676000D01*
X154305000Y-79834750D01*
X154305000Y-81034000D01*
X154325000Y-81034000D01*
X154325000Y-81288000D01*
X154305000Y-81288000D01*
X154305000Y-83574000D01*
X154325000Y-83574000D01*
X154325000Y-83828000D01*
X154305000Y-83828000D01*
X154305000Y-85021155D01*
X154534890Y-85142476D01*
X154682099Y-85097825D01*
X154944920Y-84972641D01*
X155178269Y-84798588D01*
X155373178Y-84582355D01*
X155442805Y-84465466D01*
X155564525Y-84647632D01*
X155771368Y-84854475D01*
X156014589Y-85016990D01*
X156284842Y-85128932D01*
X156571740Y-85186000D01*
X156864260Y-85186000D01*
X157151158Y-85128932D01*
X157421411Y-85016990D01*
X157664632Y-84854475D01*
X157871475Y-84647632D01*
X157988000Y-84473240D01*
X158104525Y-84647632D01*
X158311368Y-84854475D01*
X158354000Y-84882961D01*
X158354000Y-85164197D01*
X157079002Y-86439197D01*
X157078997Y-86439201D01*
X155047003Y-88471196D01*
X155017999Y-88494999D01*
X154972246Y-88550750D01*
X154923026Y-88610724D01*
X154904650Y-88645103D01*
X154852454Y-88742754D01*
X154808997Y-88886015D01*
X154798000Y-88997668D01*
X154798000Y-88997678D01*
X154794324Y-89035000D01*
X154798000Y-89072323D01*
X154798000Y-89467956D01*
X154643241Y-89571363D01*
X154443363Y-89771241D01*
X154286320Y-90006273D01*
X154178147Y-90267426D01*
X154123000Y-90544665D01*
X154123000Y-90827335D01*
X154178147Y-91104574D01*
X154286320Y-91365727D01*
X154443363Y-91600759D01*
X154643241Y-91800637D01*
X154878273Y-91957680D01*
X155139426Y-92065853D01*
X155416665Y-92121000D01*
X155699335Y-92121000D01*
X155976574Y-92065853D01*
X156237727Y-91957680D01*
X156472759Y-91800637D01*
X156672637Y-91600759D01*
X156829680Y-91365727D01*
X156937853Y-91104574D01*
X156993000Y-90827335D01*
X156993000Y-90544665D01*
X156937853Y-90267426D01*
X156829680Y-90006273D01*
X156672637Y-89771241D01*
X156472759Y-89571363D01*
X156318000Y-89467957D01*
X156318000Y-89349801D01*
X158153799Y-87514003D01*
X158153803Y-87513998D01*
X159625009Y-86042794D01*
X159654001Y-86019001D01*
X159677795Y-85990008D01*
X159677799Y-85990004D01*
X159735811Y-85919315D01*
X159748974Y-85903276D01*
X159819546Y-85771247D01*
X159863003Y-85627986D01*
X159874000Y-85516333D01*
X159874000Y-85516324D01*
X159877676Y-85479001D01*
X159874000Y-85441678D01*
X159874000Y-85053197D01*
X159961411Y-85016990D01*
X160204632Y-84854475D01*
X160411475Y-84647632D01*
X160528000Y-84473240D01*
X160644525Y-84647632D01*
X160851368Y-84854475D01*
X161094589Y-85016990D01*
X161364842Y-85128932D01*
X161651740Y-85186000D01*
X161944260Y-85186000D01*
X162231158Y-85128932D01*
X162501411Y-85016990D01*
X162744632Y-84854475D01*
X162951475Y-84647632D01*
X163073195Y-84465466D01*
X163142822Y-84582355D01*
X163337731Y-84798588D01*
X163571080Y-84972641D01*
X163833901Y-85097825D01*
X163981110Y-85142476D01*
X164211000Y-85021155D01*
X164211000Y-83828000D01*
X164465000Y-83828000D01*
X164465000Y-85021155D01*
X164694890Y-85142476D01*
X164842099Y-85097825D01*
X165104920Y-84972641D01*
X165338269Y-84798588D01*
X165533178Y-84582355D01*
X165682157Y-84332252D01*
X165779481Y-84057891D01*
X165658814Y-83828000D01*
X164465000Y-83828000D01*
X164211000Y-83828000D01*
X164191000Y-83828000D01*
X164191000Y-83574000D01*
X164211000Y-83574000D01*
X164211000Y-81288000D01*
X164465000Y-81288000D01*
X164465000Y-83574000D01*
X165658814Y-83574000D01*
X165779481Y-83344109D01*
X165682157Y-83069748D01*
X165533178Y-82819645D01*
X165338269Y-82603412D01*
X165107120Y-82431000D01*
X165338269Y-82258588D01*
X165533178Y-82042355D01*
X165682157Y-81792252D01*
X165779481Y-81517891D01*
X165658814Y-81288000D01*
X164465000Y-81288000D01*
X164211000Y-81288000D01*
X164191000Y-81288000D01*
X164191000Y-81034000D01*
X164211000Y-81034000D01*
X164211000Y-81014000D01*
X164465000Y-81014000D01*
X164465000Y-81034000D01*
X165658814Y-81034000D01*
X165779481Y-80804109D01*
X165682157Y-80529748D01*
X165603083Y-80397000D01*
X167921159Y-80397000D01*
X168502980Y-80978822D01*
X168502981Y-86442397D01*
X168259289Y-86686090D01*
X160232232Y-86686090D01*
X160194909Y-86682414D01*
X160157586Y-86686090D01*
X160157577Y-86686090D01*
X160045924Y-86697087D01*
X159902663Y-86740544D01*
X159770634Y-86811116D01*
X159654909Y-86906089D01*
X159631106Y-86935093D01*
X159515929Y-87050270D01*
X159471199Y-87086979D01*
X159447401Y-87115977D01*
X158221996Y-88341383D01*
X158192998Y-88365181D01*
X158169200Y-88394179D01*
X158098025Y-88480905D01*
X158073388Y-88526998D01*
X158027453Y-88612935D01*
X157983996Y-88756196D01*
X157972999Y-88867849D01*
X157972999Y-88867859D01*
X157969323Y-88905181D01*
X157972999Y-88942504D01*
X157973001Y-94816197D01*
X154599909Y-98189290D01*
X154547415Y-98125325D01*
X154450724Y-98045973D01*
X154340410Y-97987008D01*
X154220712Y-97950698D01*
X154096230Y-97938438D01*
X152097250Y-97938438D01*
X151972768Y-97950698D01*
X151853070Y-97987008D01*
X151742756Y-98045973D01*
X151646065Y-98125325D01*
X151566713Y-98222016D01*
X151507748Y-98332330D01*
X151471438Y-98452028D01*
X151459178Y-98576510D01*
X151459178Y-100575490D01*
X151471438Y-100699972D01*
X151507748Y-100819670D01*
X151566713Y-100929984D01*
X151646065Y-101026675D01*
X151742756Y-101106027D01*
X151850279Y-101163500D01*
X151742756Y-101220973D01*
X151646065Y-101300325D01*
X151566713Y-101397016D01*
X151507748Y-101507330D01*
X151471438Y-101627028D01*
X151459178Y-101751510D01*
X151459178Y-103750490D01*
X151471438Y-103874972D01*
X151507748Y-103994670D01*
X151566713Y-104104984D01*
X151646065Y-104201675D01*
X151742756Y-104281027D01*
X151850279Y-104338500D01*
X151742756Y-104395973D01*
X151646065Y-104475325D01*
X151566713Y-104572016D01*
X151507748Y-104682330D01*
X151471438Y-104802028D01*
X151459178Y-104926510D01*
X151459178Y-106925490D01*
X151471438Y-107049972D01*
X151507748Y-107169670D01*
X151566713Y-107279984D01*
X151646065Y-107376675D01*
X151742756Y-107456027D01*
X151850279Y-107513500D01*
X151742756Y-107570973D01*
X151646065Y-107650325D01*
X151566713Y-107747016D01*
X151507748Y-107857330D01*
X151471438Y-107977028D01*
X151459178Y-108101510D01*
X151459178Y-108212000D01*
X151227441Y-108212000D01*
X151192502Y-108096820D01*
X151133537Y-107986506D01*
X151054185Y-107889815D01*
X150957494Y-107810463D01*
X150847180Y-107751498D01*
X150727482Y-107715188D01*
X150603000Y-107702928D01*
X149083000Y-107702928D01*
X148958518Y-107715188D01*
X148838820Y-107751498D01*
X148728506Y-107810463D01*
X148631815Y-107889815D01*
X148552463Y-107986506D01*
X148493498Y-108096820D01*
X148457188Y-108216518D01*
X148448526Y-108304467D01*
X148386567Y-108211739D01*
X148192261Y-108017433D01*
X147963780Y-107864767D01*
X147709907Y-107759609D01*
X147440396Y-107706000D01*
X147165604Y-107706000D01*
X146896093Y-107759609D01*
X146642220Y-107864767D01*
X146413739Y-108017433D01*
X146219433Y-108211739D01*
X146066767Y-108440220D01*
X146033000Y-108521740D01*
X145999233Y-108440220D01*
X145846567Y-108211739D01*
X145652261Y-108017433D01*
X145423780Y-107864767D01*
X145169907Y-107759609D01*
X144900396Y-107706000D01*
X144625604Y-107706000D01*
X144356093Y-107759609D01*
X144102220Y-107864767D01*
X143873739Y-108017433D01*
X143679433Y-108211739D01*
X143526767Y-108440220D01*
X143421609Y-108694093D01*
X143368000Y-108963604D01*
X143368000Y-109238396D01*
X143421609Y-109507907D01*
X143526767Y-109761780D01*
X143679433Y-109990261D01*
X143873739Y-110184567D01*
X144102220Y-110337233D01*
X144356093Y-110442391D01*
X144625604Y-110496000D01*
X144900396Y-110496000D01*
X145169907Y-110442391D01*
X145423780Y-110337233D01*
X145652261Y-110184567D01*
X145846567Y-109990261D01*
X145999233Y-109761780D01*
X146033000Y-109680260D01*
X146066767Y-109761780D01*
X146219433Y-109990261D01*
X146413739Y-110184567D01*
X146642220Y-110337233D01*
X146896093Y-110442391D01*
X147165604Y-110496000D01*
X147440396Y-110496000D01*
X147709907Y-110442391D01*
X147963780Y-110337233D01*
X148192261Y-110184567D01*
X148386567Y-109990261D01*
X148448526Y-109897533D01*
X148457188Y-109985482D01*
X148493498Y-110105180D01*
X148552463Y-110215494D01*
X148631815Y-110312185D01*
X148728506Y-110391537D01*
X148838820Y-110450502D01*
X148958518Y-110486812D01*
X149083000Y-110499072D01*
X150603000Y-110499072D01*
X150727482Y-110486812D01*
X150847180Y-110450502D01*
X150957494Y-110391537D01*
X151054185Y-110312185D01*
X151133537Y-110215494D01*
X151192502Y-110105180D01*
X151227441Y-109990000D01*
X151459178Y-109990000D01*
X151459178Y-110100490D01*
X151471438Y-110224972D01*
X151507748Y-110344670D01*
X151566713Y-110454984D01*
X151646065Y-110551675D01*
X151742756Y-110631027D01*
X151850279Y-110688500D01*
X151742756Y-110745973D01*
X151646065Y-110825325D01*
X151566713Y-110922016D01*
X151507748Y-111032330D01*
X151471438Y-111152028D01*
X151459178Y-111276510D01*
X151459178Y-113275490D01*
X151471438Y-113399972D01*
X151507748Y-113519670D01*
X151566713Y-113629984D01*
X151646065Y-113726675D01*
X151742756Y-113806027D01*
X151850279Y-113863500D01*
X151742756Y-113920973D01*
X151646065Y-114000325D01*
X151566713Y-114097016D01*
X151507748Y-114207330D01*
X151471438Y-114327028D01*
X151459178Y-114451510D01*
X151459178Y-114562000D01*
X151227441Y-114562000D01*
X151192502Y-114446820D01*
X151133537Y-114336506D01*
X151054185Y-114239815D01*
X150957494Y-114160463D01*
X150847180Y-114101498D01*
X150727482Y-114065188D01*
X150603000Y-114052928D01*
X149083000Y-114052928D01*
X148958518Y-114065188D01*
X148838820Y-114101498D01*
X148728506Y-114160463D01*
X148631815Y-114239815D01*
X148552463Y-114336506D01*
X148493498Y-114446820D01*
X148457188Y-114566518D01*
X148448526Y-114654467D01*
X148386567Y-114561739D01*
X148192261Y-114367433D01*
X148064095Y-114281795D01*
X148063000Y-114270675D01*
X148063000Y-114270667D01*
X148052003Y-114159014D01*
X148008546Y-114015753D01*
X147937974Y-113883724D01*
X147843001Y-113767999D01*
X147814004Y-113744202D01*
X146533304Y-112463503D01*
X146509501Y-112434499D01*
X146393776Y-112339526D01*
X146261747Y-112268954D01*
X146118486Y-112225497D01*
X146006833Y-112214500D01*
X146006822Y-112214500D01*
X145969500Y-112210824D01*
X145932178Y-112214500D01*
X145141302Y-112214500D01*
X143110000Y-110183199D01*
X143110000Y-103499030D01*
X143125438Y-103499030D01*
X143125438Y-105498010D01*
X143137698Y-105622492D01*
X143174008Y-105742190D01*
X143232973Y-105852504D01*
X143312325Y-105949195D01*
X143409016Y-106028547D01*
X143519330Y-106087512D01*
X143639028Y-106123822D01*
X143763510Y-106136082D01*
X145762490Y-106136082D01*
X145886972Y-106123822D01*
X146006670Y-106087512D01*
X146116984Y-106028547D01*
X146213675Y-105949195D01*
X146293027Y-105852504D01*
X146350500Y-105744981D01*
X146407973Y-105852504D01*
X146487325Y-105949195D01*
X146584016Y-106028547D01*
X146694330Y-106087512D01*
X146814028Y-106123822D01*
X146938510Y-106136082D01*
X148937490Y-106136082D01*
X149061972Y-106123822D01*
X149181670Y-106087512D01*
X149291984Y-106028547D01*
X149388675Y-105949195D01*
X149468027Y-105852504D01*
X149526992Y-105742190D01*
X149563302Y-105622492D01*
X149575562Y-105498010D01*
X149575562Y-103499030D01*
X149563302Y-103374548D01*
X149526992Y-103254850D01*
X149468027Y-103144536D01*
X149388675Y-103047845D01*
X149291984Y-102968493D01*
X149181670Y-102909528D01*
X149061972Y-102873218D01*
X148937490Y-102860958D01*
X146938510Y-102860958D01*
X146814028Y-102873218D01*
X146694330Y-102909528D01*
X146584016Y-102968493D01*
X146487325Y-103047845D01*
X146407973Y-103144536D01*
X146350500Y-103252059D01*
X146293027Y-103144536D01*
X146213675Y-103047845D01*
X146116984Y-102968493D01*
X146006670Y-102909528D01*
X145886972Y-102873218D01*
X145762490Y-102860958D01*
X143763510Y-102860958D01*
X143639028Y-102873218D01*
X143519330Y-102909528D01*
X143409016Y-102968493D01*
X143312325Y-103047845D01*
X143232973Y-103144536D01*
X143174008Y-103254850D01*
X143137698Y-103374548D01*
X143125438Y-103499030D01*
X143110000Y-103499030D01*
X143110000Y-97223801D01*
X144200240Y-96133562D01*
X145762490Y-96133562D01*
X145886972Y-96121302D01*
X146006670Y-96084992D01*
X146116984Y-96026027D01*
X146213675Y-95946675D01*
X146293027Y-95849984D01*
X146350500Y-95742461D01*
X146407973Y-95849984D01*
X146487325Y-95946675D01*
X146584016Y-96026027D01*
X146694330Y-96084992D01*
X146814028Y-96121302D01*
X146938510Y-96133562D01*
X148937490Y-96133562D01*
X149061972Y-96121302D01*
X149181670Y-96084992D01*
X149291984Y-96026027D01*
X149388675Y-95946675D01*
X149468027Y-95849984D01*
X149526992Y-95739670D01*
X149563302Y-95619972D01*
X149575562Y-95495490D01*
X149575562Y-93496510D01*
X149563302Y-93372028D01*
X149526992Y-93252330D01*
X149468027Y-93142016D01*
X149388675Y-93045325D01*
X149291984Y-92965973D01*
X149181670Y-92907008D01*
X149061972Y-92870698D01*
X148937490Y-92858438D01*
X146938510Y-92858438D01*
X146814028Y-92870698D01*
X146694330Y-92907008D01*
X146584016Y-92965973D01*
X146487325Y-93045325D01*
X146407973Y-93142016D01*
X146350500Y-93249539D01*
X146293027Y-93142016D01*
X146213675Y-93045325D01*
X146116984Y-92965973D01*
X146006670Y-92907008D01*
X145886972Y-92870698D01*
X145762490Y-92858438D01*
X143763510Y-92858438D01*
X143639028Y-92870698D01*
X143519330Y-92907008D01*
X143409016Y-92965973D01*
X143312325Y-93045325D01*
X143232973Y-93142016D01*
X143174008Y-93252330D01*
X143137698Y-93372028D01*
X143125438Y-93496510D01*
X143125438Y-95058760D01*
X141839003Y-96345196D01*
X141809999Y-96368999D01*
X141754871Y-96436174D01*
X141715026Y-96484724D01*
X141664015Y-96580158D01*
X141644454Y-96616754D01*
X141600997Y-96760015D01*
X141590000Y-96871668D01*
X141590000Y-96871678D01*
X141586324Y-96909000D01*
X139049708Y-96909000D01*
X139052072Y-96885000D01*
X139049000Y-96170750D01*
X138890250Y-96012000D01*
X137541000Y-96012000D01*
X137287000Y-96012000D01*
X137267000Y-96012000D01*
X137267000Y-95758000D01*
X137287000Y-95758000D01*
X137287000Y-93472000D01*
X137541000Y-93472000D01*
X137541000Y-95758000D01*
X138890250Y-95758000D01*
X139049000Y-95599250D01*
X139052072Y-94885000D01*
X139039812Y-94760518D01*
X139003502Y-94640820D01*
X138989701Y-94615000D01*
X139003502Y-94589180D01*
X139039812Y-94469482D01*
X139052072Y-94345000D01*
X139049000Y-93630750D01*
X138890250Y-93472000D01*
X137541000Y-93472000D01*
X137287000Y-93472000D01*
X137267000Y-93472000D01*
X137267000Y-93218000D01*
X137287000Y-93218000D01*
X137287000Y-90932000D01*
X137541000Y-90932000D01*
X137541000Y-93218000D01*
X138890250Y-93218000D01*
X139049000Y-93059250D01*
X139052072Y-92345000D01*
X139039812Y-92220518D01*
X139003502Y-92100820D01*
X138989701Y-92075000D01*
X139003502Y-92049180D01*
X139039812Y-91929482D01*
X139052072Y-91805000D01*
X139049000Y-91090750D01*
X138890250Y-90932000D01*
X137541000Y-90932000D01*
X137287000Y-90932000D01*
X137267000Y-90932000D01*
X137267000Y-90678000D01*
X137287000Y-90678000D01*
X137287000Y-88392000D01*
X137541000Y-88392000D01*
X137541000Y-90678000D01*
X138890250Y-90678000D01*
X139049000Y-90519250D01*
X139050299Y-90217000D01*
X150259928Y-90217000D01*
X150259928Y-91917000D01*
X150272188Y-92041482D01*
X150308498Y-92161180D01*
X150367463Y-92271494D01*
X150446815Y-92368185D01*
X150543506Y-92447537D01*
X150653820Y-92506502D01*
X150726380Y-92528513D01*
X150594525Y-92660368D01*
X150432010Y-92903589D01*
X150320068Y-93173842D01*
X150263000Y-93460740D01*
X150263000Y-93753260D01*
X150320068Y-94040158D01*
X150432010Y-94310411D01*
X150594525Y-94553632D01*
X150801368Y-94760475D01*
X150975760Y-94877000D01*
X150801368Y-94993525D01*
X150594525Y-95200368D01*
X150432010Y-95443589D01*
X150320068Y-95713842D01*
X150263000Y-96000740D01*
X150263000Y-96293260D01*
X150320068Y-96580158D01*
X150432010Y-96850411D01*
X150594525Y-97093632D01*
X150801368Y-97300475D01*
X151044589Y-97462990D01*
X151314842Y-97574932D01*
X151601740Y-97632000D01*
X151894260Y-97632000D01*
X152181158Y-97574932D01*
X152451411Y-97462990D01*
X152694632Y-97300475D01*
X152901475Y-97093632D01*
X153063990Y-96850411D01*
X153175932Y-96580158D01*
X153233000Y-96293260D01*
X153233000Y-96000740D01*
X153175932Y-95713842D01*
X153063990Y-95443589D01*
X152901475Y-95200368D01*
X152694632Y-94993525D01*
X152520240Y-94877000D01*
X152694632Y-94760475D01*
X152901475Y-94553632D01*
X153063990Y-94310411D01*
X153175932Y-94040158D01*
X153233000Y-93753260D01*
X153233000Y-93719665D01*
X154123000Y-93719665D01*
X154123000Y-94002335D01*
X154178147Y-94279574D01*
X154286320Y-94540727D01*
X154443363Y-94775759D01*
X154643241Y-94975637D01*
X154878273Y-95132680D01*
X155139426Y-95240853D01*
X155416665Y-95296000D01*
X155699335Y-95296000D01*
X155976574Y-95240853D01*
X156237727Y-95132680D01*
X156472759Y-94975637D01*
X156672637Y-94775759D01*
X156829680Y-94540727D01*
X156937853Y-94279574D01*
X156993000Y-94002335D01*
X156993000Y-93719665D01*
X156937853Y-93442426D01*
X156829680Y-93181273D01*
X156672637Y-92946241D01*
X156472759Y-92746363D01*
X156237727Y-92589320D01*
X155976574Y-92481147D01*
X155699335Y-92426000D01*
X155416665Y-92426000D01*
X155139426Y-92481147D01*
X154878273Y-92589320D01*
X154643241Y-92746363D01*
X154443363Y-92946241D01*
X154286320Y-93181273D01*
X154178147Y-93442426D01*
X154123000Y-93719665D01*
X153233000Y-93719665D01*
X153233000Y-93460740D01*
X153175932Y-93173842D01*
X153063990Y-92903589D01*
X152901475Y-92660368D01*
X152769620Y-92528513D01*
X152842180Y-92506502D01*
X152952494Y-92447537D01*
X153049185Y-92368185D01*
X153128537Y-92271494D01*
X153187502Y-92161180D01*
X153223812Y-92041482D01*
X153236072Y-91917000D01*
X153236072Y-90217000D01*
X153223812Y-90092518D01*
X153187502Y-89972820D01*
X153128537Y-89862506D01*
X153049185Y-89765815D01*
X152952494Y-89686463D01*
X152842180Y-89627498D01*
X152722482Y-89591188D01*
X152598000Y-89578928D01*
X150898000Y-89578928D01*
X150773518Y-89591188D01*
X150653820Y-89627498D01*
X150543506Y-89686463D01*
X150446815Y-89765815D01*
X150367463Y-89862506D01*
X150308498Y-89972820D01*
X150272188Y-90092518D01*
X150259928Y-90217000D01*
X139050299Y-90217000D01*
X139052072Y-89805000D01*
X139039812Y-89680518D01*
X139003502Y-89560820D01*
X138989701Y-89535000D01*
X139003502Y-89509180D01*
X139039812Y-89389482D01*
X139052072Y-89265000D01*
X139049000Y-88550750D01*
X138890250Y-88392000D01*
X137541000Y-88392000D01*
X137287000Y-88392000D01*
X137267000Y-88392000D01*
X137267000Y-88138000D01*
X137287000Y-88138000D01*
X137287000Y-85852000D01*
X137541000Y-85852000D01*
X137541000Y-88138000D01*
X138890250Y-88138000D01*
X139049000Y-87979250D01*
X139052072Y-87265000D01*
X139039812Y-87140518D01*
X139003502Y-87020820D01*
X138989701Y-86995000D01*
X139003502Y-86969180D01*
X139039812Y-86849482D01*
X139052072Y-86725000D01*
X139049000Y-86010750D01*
X138890250Y-85852000D01*
X137541000Y-85852000D01*
X137287000Y-85852000D01*
X137267000Y-85852000D01*
X137267000Y-85598000D01*
X137287000Y-85598000D01*
X137287000Y-83312000D01*
X137541000Y-83312000D01*
X137541000Y-85598000D01*
X138890250Y-85598000D01*
X139049000Y-85439250D01*
X139052072Y-84725000D01*
X139039812Y-84600518D01*
X139003502Y-84480820D01*
X138989701Y-84455000D01*
X139003502Y-84429180D01*
X139039812Y-84309482D01*
X139052072Y-84185000D01*
X139049000Y-83470750D01*
X138890250Y-83312000D01*
X137541000Y-83312000D01*
X137287000Y-83312000D01*
X137267000Y-83312000D01*
X137267000Y-83058000D01*
X137287000Y-83058000D01*
X137287000Y-80772000D01*
X137541000Y-80772000D01*
X137541000Y-83058000D01*
X138890250Y-83058000D01*
X139049000Y-82899250D01*
X139052072Y-82185000D01*
X139039812Y-82060518D01*
X139003502Y-81940820D01*
X138989701Y-81915000D01*
X139003502Y-81889180D01*
X139039812Y-81769482D01*
X139052072Y-81645000D01*
X139049000Y-80930750D01*
X138890250Y-80772000D01*
X137541000Y-80772000D01*
X137287000Y-80772000D01*
X137267000Y-80772000D01*
X137267000Y-80518000D01*
X137287000Y-80518000D01*
X137287000Y-78232000D01*
X137541000Y-78232000D01*
X137541000Y-80518000D01*
X138890250Y-80518000D01*
X139049000Y-80359250D01*
X139052072Y-79645000D01*
X139039812Y-79520518D01*
X139003502Y-79400820D01*
X138989701Y-79375000D01*
X139003502Y-79349180D01*
X139039812Y-79229482D01*
X139052072Y-79105000D01*
X139049426Y-78489662D01*
X140254500Y-78489662D01*
X140254500Y-78752338D01*
X140305746Y-79009968D01*
X140406268Y-79252649D01*
X140552203Y-79471057D01*
X140737943Y-79656797D01*
X140828000Y-79716971D01*
X140828001Y-85145028D01*
X140737943Y-85205203D01*
X140552203Y-85390943D01*
X140406268Y-85609351D01*
X140305746Y-85852032D01*
X140254500Y-86109662D01*
X140254500Y-86372338D01*
X140305746Y-86629968D01*
X140406268Y-86872649D01*
X140552203Y-87091057D01*
X140737943Y-87276797D01*
X140956351Y-87422732D01*
X141199032Y-87523254D01*
X141456662Y-87574500D01*
X141719338Y-87574500D01*
X141976968Y-87523254D01*
X142219649Y-87422732D01*
X142438057Y-87276797D01*
X142553657Y-87161197D01*
X145927408Y-87161197D01*
X145986686Y-87394812D01*
X146224875Y-87505559D01*
X146480093Y-87567711D01*
X146742533Y-87578876D01*
X147002107Y-87538629D01*
X147248842Y-87448514D01*
X147349314Y-87394812D01*
X147408592Y-87161197D01*
X146668000Y-86420605D01*
X145927408Y-87161197D01*
X142553657Y-87161197D01*
X142623797Y-87091057D01*
X142769732Y-86872649D01*
X142870254Y-86629968D01*
X142921500Y-86372338D01*
X142921500Y-86315533D01*
X145330124Y-86315533D01*
X145370371Y-86575107D01*
X145460486Y-86821842D01*
X145514188Y-86922314D01*
X145747803Y-86981592D01*
X146488395Y-86241000D01*
X146847605Y-86241000D01*
X147588197Y-86981592D01*
X147821812Y-86922314D01*
X147932559Y-86684125D01*
X147994711Y-86428907D01*
X148005876Y-86166467D01*
X147965629Y-85906893D01*
X147875514Y-85660158D01*
X147821812Y-85559686D01*
X147588197Y-85500408D01*
X146847605Y-86241000D01*
X146488395Y-86241000D01*
X145747803Y-85500408D01*
X145514188Y-85559686D01*
X145403441Y-85797875D01*
X145341289Y-86053093D01*
X145330124Y-86315533D01*
X142921500Y-86315533D01*
X142921500Y-86109662D01*
X142870254Y-85852032D01*
X142769732Y-85609351D01*
X142623797Y-85390943D01*
X142553657Y-85320803D01*
X145927408Y-85320803D01*
X146668000Y-86061395D01*
X147408592Y-85320803D01*
X147349314Y-85087188D01*
X147111125Y-84976441D01*
X146855907Y-84914289D01*
X146593467Y-84903124D01*
X146333893Y-84943371D01*
X146087158Y-85033486D01*
X145986686Y-85087188D01*
X145927408Y-85320803D01*
X142553657Y-85320803D01*
X142438057Y-85205203D01*
X142348000Y-85145029D01*
X142348000Y-84057891D01*
X152736519Y-84057891D01*
X152833843Y-84332252D01*
X152982822Y-84582355D01*
X153177731Y-84798588D01*
X153411080Y-84972641D01*
X153673901Y-85097825D01*
X153821110Y-85142476D01*
X154051000Y-85021155D01*
X154051000Y-83828000D01*
X152857186Y-83828000D01*
X152736519Y-84057891D01*
X142348000Y-84057891D01*
X142348000Y-82011000D01*
X152689928Y-82011000D01*
X152702188Y-82135482D01*
X152738498Y-82255180D01*
X152797463Y-82365494D01*
X152876815Y-82462185D01*
X152973506Y-82541537D01*
X153083820Y-82600502D01*
X153159626Y-82623498D01*
X152982822Y-82819645D01*
X152833843Y-83069748D01*
X152736519Y-83344109D01*
X152857186Y-83574000D01*
X154051000Y-83574000D01*
X154051000Y-81288000D01*
X152851750Y-81288000D01*
X152693000Y-81446750D01*
X152689928Y-82011000D01*
X142348000Y-82011000D01*
X142348000Y-80311000D01*
X152689928Y-80311000D01*
X152693000Y-80875250D01*
X152851750Y-81034000D01*
X154051000Y-81034000D01*
X154051000Y-79834750D01*
X153892250Y-79676000D01*
X153328000Y-79672928D01*
X153203518Y-79685188D01*
X153083820Y-79721498D01*
X152973506Y-79780463D01*
X152876815Y-79859815D01*
X152797463Y-79956506D01*
X152738498Y-80066820D01*
X152702188Y-80186518D01*
X152689928Y-80311000D01*
X142348000Y-80311000D01*
X142348000Y-79716971D01*
X142438057Y-79656797D01*
X142553657Y-79541197D01*
X145927408Y-79541197D01*
X145986686Y-79774812D01*
X146224875Y-79885559D01*
X146480093Y-79947711D01*
X146742533Y-79958876D01*
X147002107Y-79918629D01*
X147248842Y-79828514D01*
X147349314Y-79774812D01*
X147408592Y-79541197D01*
X146668000Y-78800605D01*
X145927408Y-79541197D01*
X142553657Y-79541197D01*
X142623797Y-79471057D01*
X142769732Y-79252649D01*
X142870254Y-79009968D01*
X142921500Y-78752338D01*
X142921500Y-78695533D01*
X145330124Y-78695533D01*
X145370371Y-78955107D01*
X145460486Y-79201842D01*
X145514188Y-79302314D01*
X145747803Y-79361592D01*
X146488395Y-78621000D01*
X146847605Y-78621000D01*
X147588197Y-79361592D01*
X147821812Y-79302314D01*
X147932559Y-79064125D01*
X147994711Y-78808907D01*
X148005876Y-78546467D01*
X147965629Y-78286893D01*
X147875514Y-78040158D01*
X147821812Y-77939686D01*
X147588197Y-77880408D01*
X146847605Y-78621000D01*
X146488395Y-78621000D01*
X145747803Y-77880408D01*
X145514188Y-77939686D01*
X145403441Y-78177875D01*
X145341289Y-78433093D01*
X145330124Y-78695533D01*
X142921500Y-78695533D01*
X142921500Y-78489662D01*
X142870254Y-78232032D01*
X142769732Y-77989351D01*
X142623797Y-77770943D01*
X142553657Y-77700803D01*
X145927408Y-77700803D01*
X146668000Y-78441395D01*
X147408592Y-77700803D01*
X147349314Y-77467188D01*
X147111125Y-77356441D01*
X146855907Y-77294289D01*
X146593467Y-77283124D01*
X146333893Y-77323371D01*
X146087158Y-77413486D01*
X145986686Y-77467188D01*
X145927408Y-77700803D01*
X142553657Y-77700803D01*
X142438057Y-77585203D01*
X142219649Y-77439268D01*
X141976968Y-77338746D01*
X141719338Y-77287500D01*
X141456662Y-77287500D01*
X141199032Y-77338746D01*
X140956351Y-77439268D01*
X140737943Y-77585203D01*
X140552203Y-77770943D01*
X140406268Y-77989351D01*
X140305746Y-78232032D01*
X140254500Y-78489662D01*
X139049426Y-78489662D01*
X139049000Y-78390750D01*
X138890250Y-78232000D01*
X137541000Y-78232000D01*
X137287000Y-78232000D01*
X137267000Y-78232000D01*
X137267000Y-77978000D01*
X137287000Y-77978000D01*
X137287000Y-75692000D01*
X137267000Y-75692000D01*
X137267000Y-75438000D01*
X137287000Y-75438000D01*
X137287000Y-74078783D01*
X137541000Y-74078783D01*
X137541000Y-75438000D01*
X137561000Y-75438000D01*
X137561000Y-75692000D01*
X137541000Y-75692000D01*
X137541000Y-77978000D01*
X138890250Y-77978000D01*
X139049000Y-77819250D01*
X139052072Y-77105000D01*
X139039812Y-76980518D01*
X139009633Y-76881031D01*
X139117395Y-76969469D01*
X139377737Y-77108625D01*
X139660224Y-77194316D01*
X139954000Y-77223251D01*
X140247777Y-77194316D01*
X140530264Y-77108625D01*
X140790606Y-76969469D01*
X141018797Y-76782197D01*
X141206069Y-76554006D01*
X141224000Y-76520459D01*
X141241931Y-76554006D01*
X141429203Y-76782197D01*
X141657395Y-76969469D01*
X141917737Y-77108625D01*
X142200224Y-77194316D01*
X142494000Y-77223251D01*
X142787777Y-77194316D01*
X143070264Y-77108625D01*
X143330606Y-76969469D01*
X143558797Y-76782197D01*
X143746069Y-76554006D01*
X143764000Y-76520459D01*
X143781931Y-76554006D01*
X143969203Y-76782197D01*
X144197395Y-76969469D01*
X144457737Y-77108625D01*
X144740224Y-77194316D01*
X145034000Y-77223251D01*
X145327777Y-77194316D01*
X145610264Y-77108625D01*
X145870606Y-76969469D01*
X146098797Y-76782197D01*
X146286069Y-76554006D01*
X146304000Y-76520459D01*
X146321931Y-76554006D01*
X146509203Y-76782197D01*
X146737395Y-76969469D01*
X146997737Y-77108625D01*
X147280224Y-77194316D01*
X147574000Y-77223251D01*
X147867777Y-77194316D01*
X148150264Y-77108625D01*
X148410606Y-76969469D01*
X148638797Y-76782197D01*
X148826069Y-76554006D01*
X148844000Y-76520459D01*
X148861931Y-76554006D01*
X149049203Y-76782197D01*
X149277395Y-76969469D01*
X149537737Y-77108625D01*
X149820224Y-77194316D01*
X150114000Y-77223251D01*
X150407777Y-77194316D01*
X150690264Y-77108625D01*
X150950606Y-76969469D01*
X151178797Y-76782197D01*
X151366069Y-76554006D01*
X151384000Y-76520459D01*
X151401931Y-76554006D01*
X151589203Y-76782197D01*
X151817395Y-76969469D01*
X152077737Y-77108625D01*
X152360224Y-77194316D01*
X152654000Y-77223251D01*
X152947777Y-77194316D01*
X153230264Y-77108625D01*
X153490606Y-76969469D01*
X153718797Y-76782197D01*
X153906069Y-76554006D01*
X154045225Y-76293663D01*
X154130916Y-76011176D01*
X154152600Y-75791018D01*
X154152600Y-75338982D01*
X155219400Y-75338982D01*
X155219400Y-75791019D01*
X155241084Y-76011177D01*
X155326775Y-76293664D01*
X155465931Y-76554006D01*
X155653203Y-76782197D01*
X155881395Y-76969469D01*
X156141737Y-77108625D01*
X156424224Y-77194316D01*
X156718000Y-77223251D01*
X157011777Y-77194316D01*
X157294264Y-77108625D01*
X157554606Y-76969469D01*
X157782797Y-76782197D01*
X157970069Y-76554006D01*
X157988000Y-76520459D01*
X158005931Y-76554006D01*
X158193203Y-76782197D01*
X158421395Y-76969469D01*
X158681737Y-77108625D01*
X158964224Y-77194316D01*
X159258000Y-77223251D01*
X159551777Y-77194316D01*
X159834264Y-77108625D01*
X160094606Y-76969469D01*
X160322797Y-76782197D01*
X160510069Y-76554006D01*
X160528000Y-76520459D01*
X160545931Y-76554006D01*
X160733203Y-76782197D01*
X160961395Y-76969469D01*
X161221737Y-77108625D01*
X161504224Y-77194316D01*
X161798000Y-77223251D01*
X162091777Y-77194316D01*
X162374264Y-77108625D01*
X162634606Y-76969469D01*
X162862797Y-76782197D01*
X163050069Y-76554006D01*
X163068000Y-76520459D01*
X163085931Y-76554006D01*
X163273203Y-76782197D01*
X163501395Y-76969469D01*
X163761737Y-77108625D01*
X164044224Y-77194316D01*
X164338000Y-77223251D01*
X164631777Y-77194316D01*
X164914264Y-77108625D01*
X165174606Y-76969469D01*
X165402797Y-76782197D01*
X165590069Y-76554006D01*
X165608000Y-76520459D01*
X165625931Y-76554006D01*
X165813203Y-76782197D01*
X166041395Y-76969469D01*
X166301737Y-77108625D01*
X166584224Y-77194316D01*
X166878000Y-77223251D01*
X167171777Y-77194316D01*
X167454264Y-77108625D01*
X167714606Y-76969469D01*
X167942797Y-76782197D01*
X168130069Y-76554006D01*
X168148000Y-76520459D01*
X168165931Y-76554006D01*
X168353203Y-76782197D01*
X168581395Y-76969469D01*
X168841737Y-77108625D01*
X169124224Y-77194316D01*
X169418000Y-77223251D01*
X169711777Y-77194316D01*
X169994264Y-77108625D01*
X170254606Y-76969469D01*
X170482797Y-76782197D01*
X170670069Y-76554006D01*
X170688000Y-76520459D01*
X170705931Y-76554006D01*
X170893203Y-76782197D01*
X171121395Y-76969469D01*
X171381737Y-77108625D01*
X171664224Y-77194316D01*
X171958000Y-77223251D01*
X172251777Y-77194316D01*
X172534264Y-77108625D01*
X172794606Y-76969469D01*
X173022797Y-76782197D01*
X173210069Y-76554006D01*
X173228000Y-76520459D01*
X173245931Y-76554006D01*
X173433203Y-76782197D01*
X173661395Y-76969469D01*
X173921737Y-77108625D01*
X174204224Y-77194316D01*
X174498000Y-77223251D01*
X174791777Y-77194316D01*
X175074264Y-77108625D01*
X175334606Y-76969469D01*
X175562797Y-76782197D01*
X175750069Y-76554006D01*
X175889225Y-76293663D01*
X175974916Y-76011176D01*
X175996600Y-75791018D01*
X175996600Y-75338981D01*
X175974916Y-75118823D01*
X175889225Y-74836336D01*
X175750069Y-74575994D01*
X175562797Y-74347803D01*
X175334605Y-74160531D01*
X175074263Y-74021375D01*
X174791776Y-73935684D01*
X174498000Y-73906749D01*
X174204223Y-73935684D01*
X173921736Y-74021375D01*
X173661394Y-74160531D01*
X173433203Y-74347803D01*
X173245931Y-74575995D01*
X173228000Y-74609541D01*
X173210069Y-74575994D01*
X173022797Y-74347803D01*
X172794605Y-74160531D01*
X172534263Y-74021375D01*
X172251776Y-73935684D01*
X171958000Y-73906749D01*
X171664223Y-73935684D01*
X171381736Y-74021375D01*
X171121394Y-74160531D01*
X170893203Y-74347803D01*
X170705931Y-74575995D01*
X170688000Y-74609541D01*
X170670069Y-74575994D01*
X170482797Y-74347803D01*
X170254605Y-74160531D01*
X169994263Y-74021375D01*
X169711776Y-73935684D01*
X169418000Y-73906749D01*
X169124223Y-73935684D01*
X168841736Y-74021375D01*
X168581394Y-74160531D01*
X168353203Y-74347803D01*
X168165931Y-74575995D01*
X168148000Y-74609541D01*
X168130069Y-74575994D01*
X167942797Y-74347803D01*
X167714605Y-74160531D01*
X167454263Y-74021375D01*
X167171776Y-73935684D01*
X166878000Y-73906749D01*
X166584223Y-73935684D01*
X166301736Y-74021375D01*
X166041394Y-74160531D01*
X165813203Y-74347803D01*
X165625931Y-74575995D01*
X165608000Y-74609541D01*
X165590069Y-74575994D01*
X165402797Y-74347803D01*
X165174605Y-74160531D01*
X164914263Y-74021375D01*
X164631776Y-73935684D01*
X164338000Y-73906749D01*
X164044223Y-73935684D01*
X163761736Y-74021375D01*
X163501394Y-74160531D01*
X163273203Y-74347803D01*
X163085931Y-74575995D01*
X163068000Y-74609541D01*
X163050069Y-74575994D01*
X162862797Y-74347803D01*
X162634605Y-74160531D01*
X162374263Y-74021375D01*
X162091776Y-73935684D01*
X161798000Y-73906749D01*
X161504223Y-73935684D01*
X161221736Y-74021375D01*
X160961394Y-74160531D01*
X160733203Y-74347803D01*
X160545931Y-74575995D01*
X160528000Y-74609541D01*
X160510069Y-74575994D01*
X160322797Y-74347803D01*
X160094605Y-74160531D01*
X159834263Y-74021375D01*
X159551776Y-73935684D01*
X159258000Y-73906749D01*
X158964223Y-73935684D01*
X158681736Y-74021375D01*
X158421394Y-74160531D01*
X158193203Y-74347803D01*
X158005931Y-74575995D01*
X157988000Y-74609541D01*
X157970069Y-74575994D01*
X157782797Y-74347803D01*
X157554605Y-74160531D01*
X157294263Y-74021375D01*
X157011776Y-73935684D01*
X156718000Y-73906749D01*
X156424223Y-73935684D01*
X156141736Y-74021375D01*
X155881394Y-74160531D01*
X155653203Y-74347803D01*
X155465931Y-74575995D01*
X155326775Y-74836337D01*
X155241084Y-75118824D01*
X155219400Y-75338982D01*
X154152600Y-75338982D01*
X154152600Y-75338981D01*
X154130916Y-75118823D01*
X154045225Y-74836336D01*
X153906069Y-74575994D01*
X153718797Y-74347803D01*
X153490605Y-74160531D01*
X153230263Y-74021375D01*
X152947776Y-73935684D01*
X152654000Y-73906749D01*
X152360223Y-73935684D01*
X152077736Y-74021375D01*
X151817394Y-74160531D01*
X151589203Y-74347803D01*
X151401931Y-74575995D01*
X151384000Y-74609541D01*
X151366069Y-74575994D01*
X151178797Y-74347803D01*
X150950605Y-74160531D01*
X150690263Y-74021375D01*
X150407776Y-73935684D01*
X150114000Y-73906749D01*
X149820223Y-73935684D01*
X149537736Y-74021375D01*
X149277394Y-74160531D01*
X149049203Y-74347803D01*
X148861931Y-74575995D01*
X148844000Y-74609541D01*
X148826069Y-74575994D01*
X148638797Y-74347803D01*
X148410605Y-74160531D01*
X148150263Y-74021375D01*
X147867776Y-73935684D01*
X147574000Y-73906749D01*
X147280223Y-73935684D01*
X146997736Y-74021375D01*
X146737394Y-74160531D01*
X146509203Y-74347803D01*
X146321931Y-74575995D01*
X146304000Y-74609541D01*
X146286069Y-74575994D01*
X146098797Y-74347803D01*
X145870605Y-74160531D01*
X145610263Y-74021375D01*
X145327776Y-73935684D01*
X145034000Y-73906749D01*
X144740223Y-73935684D01*
X144457736Y-74021375D01*
X144197394Y-74160531D01*
X143969203Y-74347803D01*
X143781931Y-74575995D01*
X143764000Y-74609541D01*
X143746069Y-74575994D01*
X143558797Y-74347803D01*
X143330605Y-74160531D01*
X143070263Y-74021375D01*
X142787776Y-73935684D01*
X142494000Y-73906749D01*
X142200223Y-73935684D01*
X141917736Y-74021375D01*
X141657394Y-74160531D01*
X141429203Y-74347803D01*
X141241931Y-74575995D01*
X141224000Y-74609541D01*
X141206069Y-74575994D01*
X141018797Y-74347803D01*
X140790605Y-74160531D01*
X140530263Y-74021375D01*
X140247776Y-73935684D01*
X139954000Y-73906749D01*
X139660223Y-73935684D01*
X139377736Y-74021375D01*
X139117394Y-74160531D01*
X138889203Y-74347803D01*
X138701931Y-74575995D01*
X138680576Y-74615947D01*
X138532486Y-74413271D01*
X138316035Y-74214267D01*
X138064919Y-74061314D01*
X137788789Y-73960291D01*
X137773026Y-73957642D01*
X137541000Y-74078783D01*
X137287000Y-74078783D01*
X137054974Y-73957642D01*
X137039211Y-73960291D01*
X136763081Y-74061314D01*
X136511965Y-74214267D01*
X136381000Y-74334676D01*
X136381000Y-73735000D01*
X175219909Y-73735000D01*
X176328001Y-74843093D01*
G37*
X176328001Y-74843093D02*
X176328000Y-85944125D01*
X176324565Y-85979000D01*
X176328000Y-86013875D01*
X176328000Y-86013876D01*
X176338273Y-86118183D01*
X176378872Y-86252019D01*
X176444800Y-86375362D01*
X176533525Y-86483474D01*
X176560617Y-86505708D01*
X178868001Y-88813093D01*
X178868001Y-88863294D01*
X178738113Y-88733406D01*
X178301298Y-88441536D01*
X177815935Y-88240492D01*
X177300677Y-88138000D01*
X176775323Y-88138000D01*
X176260065Y-88240492D01*
X175774702Y-88441536D01*
X175337887Y-88733406D01*
X174966406Y-89104887D01*
X174674536Y-89541702D01*
X174473492Y-90027065D01*
X174371000Y-90542323D01*
X174371000Y-91067677D01*
X174473492Y-91582935D01*
X174674536Y-92068298D01*
X174966406Y-92505113D01*
X175337887Y-92876594D01*
X175774702Y-93168464D01*
X176260065Y-93369508D01*
X176775323Y-93472000D01*
X177300677Y-93472000D01*
X177815935Y-93369508D01*
X178301298Y-93168464D01*
X178738113Y-92876594D01*
X178868001Y-92746706D01*
X178868000Y-116803293D01*
X178738113Y-116673406D01*
X178301298Y-116381536D01*
X177815935Y-116180492D01*
X177300677Y-116078000D01*
X176775323Y-116078000D01*
X176260065Y-116180492D01*
X175774702Y-116381536D01*
X175337887Y-116673406D01*
X174966406Y-117044887D01*
X174674536Y-117481702D01*
X174473492Y-117967065D01*
X174371000Y-118482323D01*
X174371000Y-119007677D01*
X174473492Y-119522935D01*
X174674536Y-120008298D01*
X174966406Y-120445113D01*
X175337887Y-120816594D01*
X175774702Y-121108464D01*
X176260065Y-121309508D01*
X176775323Y-121412000D01*
X177300677Y-121412000D01*
X177815935Y-121309508D01*
X178301298Y-121108464D01*
X178738113Y-120816594D01*
X178868000Y-120686707D01*
X178868000Y-120990908D01*
X176560617Y-123298292D01*
X176533526Y-123320525D01*
X176511293Y-123347616D01*
X176444801Y-123428637D01*
X176378872Y-123551981D01*
X176338274Y-123685816D01*
X176324565Y-123825000D01*
X176328001Y-123859885D01*
X176328000Y-125655000D01*
X136381000Y-125655000D01*
X136381000Y-125208174D01*
X136404537Y-125179494D01*
X136463502Y-125069180D01*
X136499812Y-124949482D01*
X136512072Y-124825000D01*
X136512072Y-123598982D01*
X137439400Y-123598982D01*
X137439400Y-124051019D01*
X137461084Y-124271177D01*
X137546775Y-124553664D01*
X137685931Y-124814006D01*
X137873203Y-125042197D01*
X138101395Y-125229469D01*
X138361737Y-125368625D01*
X138644224Y-125454316D01*
X138938000Y-125483251D01*
X139231777Y-125454316D01*
X139514264Y-125368625D01*
X139774606Y-125229469D01*
X140002797Y-125042197D01*
X140190069Y-124814006D01*
X140208000Y-124780459D01*
X140225931Y-124814006D01*
X140413203Y-125042197D01*
X140641395Y-125229469D01*
X140901737Y-125368625D01*
X141184224Y-125454316D01*
X141478000Y-125483251D01*
X141771777Y-125454316D01*
X142054264Y-125368625D01*
X142314606Y-125229469D01*
X142542797Y-125042197D01*
X142730069Y-124814006D01*
X142748000Y-124780459D01*
X142765931Y-124814006D01*
X142953203Y-125042197D01*
X143181395Y-125229469D01*
X143441737Y-125368625D01*
X143724224Y-125454316D01*
X144018000Y-125483251D01*
X144311777Y-125454316D01*
X144594264Y-125368625D01*
X144854606Y-125229469D01*
X145082797Y-125042197D01*
X145270069Y-124814006D01*
X145288000Y-124780459D01*
X145305931Y-124814006D01*
X145493203Y-125042197D01*
X145721395Y-125229469D01*
X145981737Y-125368625D01*
X146264224Y-125454316D01*
X146558000Y-125483251D01*
X146851777Y-125454316D01*
X147134264Y-125368625D01*
X147394606Y-125229469D01*
X147622797Y-125042197D01*
X147810069Y-124814006D01*
X147828000Y-124780459D01*
X147845931Y-124814006D01*
X148033203Y-125042197D01*
X148261395Y-125229469D01*
X148521737Y-125368625D01*
X148804224Y-125454316D01*
X149098000Y-125483251D01*
X149391777Y-125454316D01*
X149674264Y-125368625D01*
X149934606Y-125229469D01*
X150162797Y-125042197D01*
X150350069Y-124814006D01*
X150371424Y-124774053D01*
X150519514Y-124976729D01*
X150735965Y-125175733D01*
X150987081Y-125328686D01*
X151263211Y-125429709D01*
X151278974Y-125432358D01*
X151511000Y-125311217D01*
X151511000Y-123952000D01*
X151765000Y-123952000D01*
X151765000Y-125311217D01*
X151997026Y-125432358D01*
X152012789Y-125429709D01*
X152288919Y-125328686D01*
X152540035Y-125175733D01*
X152756486Y-124976729D01*
X152908000Y-124769367D01*
X153059514Y-124976729D01*
X153275965Y-125175733D01*
X153527081Y-125328686D01*
X153803211Y-125429709D01*
X153818974Y-125432358D01*
X154051000Y-125311217D01*
X154051000Y-123952000D01*
X151765000Y-123952000D01*
X151511000Y-123952000D01*
X151491000Y-123952000D01*
X151491000Y-123698000D01*
X151511000Y-123698000D01*
X151511000Y-122338783D01*
X151765000Y-122338783D01*
X151765000Y-123698000D01*
X154051000Y-123698000D01*
X154051000Y-122338783D01*
X154305000Y-122338783D01*
X154305000Y-123698000D01*
X154325000Y-123698000D01*
X154325000Y-123952000D01*
X154305000Y-123952000D01*
X154305000Y-125311217D01*
X154537026Y-125432358D01*
X154552789Y-125429709D01*
X154828919Y-125328686D01*
X155080035Y-125175733D01*
X155296486Y-124976729D01*
X155444576Y-124774053D01*
X155465931Y-124814006D01*
X155653203Y-125042197D01*
X155881395Y-125229469D01*
X156141737Y-125368625D01*
X156424224Y-125454316D01*
X156718000Y-125483251D01*
X157011777Y-125454316D01*
X157294264Y-125368625D01*
X157554606Y-125229469D01*
X157782797Y-125042197D01*
X157970069Y-124814006D01*
X158109225Y-124553663D01*
X158194916Y-124271176D01*
X158216600Y-124051018D01*
X158216600Y-123598982D01*
X160299400Y-123598982D01*
X160299400Y-124051019D01*
X160321084Y-124271177D01*
X160406775Y-124553664D01*
X160545931Y-124814006D01*
X160733203Y-125042197D01*
X160961395Y-125229469D01*
X161221737Y-125368625D01*
X161504224Y-125454316D01*
X161798000Y-125483251D01*
X162091777Y-125454316D01*
X162374264Y-125368625D01*
X162634606Y-125229469D01*
X162862797Y-125042197D01*
X163050069Y-124814006D01*
X163068000Y-124780459D01*
X163085931Y-124814006D01*
X163273203Y-125042197D01*
X163501395Y-125229469D01*
X163761737Y-125368625D01*
X164044224Y-125454316D01*
X164338000Y-125483251D01*
X164631777Y-125454316D01*
X164914264Y-125368625D01*
X165174606Y-125229469D01*
X165402797Y-125042197D01*
X165590069Y-124814006D01*
X165608000Y-124780459D01*
X165625931Y-124814006D01*
X165813203Y-125042197D01*
X166041395Y-125229469D01*
X166301737Y-125368625D01*
X166584224Y-125454316D01*
X166878000Y-125483251D01*
X167171777Y-125454316D01*
X167454264Y-125368625D01*
X167714606Y-125229469D01*
X167942797Y-125042197D01*
X168130069Y-124814006D01*
X168148000Y-124780459D01*
X168165931Y-124814006D01*
X168353203Y-125042197D01*
X168581395Y-125229469D01*
X168841737Y-125368625D01*
X169124224Y-125454316D01*
X169418000Y-125483251D01*
X169711777Y-125454316D01*
X169994264Y-125368625D01*
X170254606Y-125229469D01*
X170482797Y-125042197D01*
X170670069Y-124814006D01*
X170688000Y-124780459D01*
X170705931Y-124814006D01*
X170893203Y-125042197D01*
X171121395Y-125229469D01*
X171381737Y-125368625D01*
X171664224Y-125454316D01*
X171958000Y-125483251D01*
X172251777Y-125454316D01*
X172534264Y-125368625D01*
X172794606Y-125229469D01*
X173022797Y-125042197D01*
X173210069Y-124814006D01*
X173228000Y-124780459D01*
X173245931Y-124814006D01*
X173433203Y-125042197D01*
X173661395Y-125229469D01*
X173921737Y-125368625D01*
X174204224Y-125454316D01*
X174498000Y-125483251D01*
X174791777Y-125454316D01*
X175074264Y-125368625D01*
X175334606Y-125229469D01*
X175562797Y-125042197D01*
X175750069Y-124814006D01*
X175889225Y-124553663D01*
X175974916Y-124271176D01*
X175996600Y-124051018D01*
X175996600Y-123598981D01*
X175974916Y-123378823D01*
X175889225Y-123096336D01*
X175750069Y-122835994D01*
X175562797Y-122607803D01*
X175334605Y-122420531D01*
X175074263Y-122281375D01*
X174791776Y-122195684D01*
X174498000Y-122166749D01*
X174204223Y-122195684D01*
X173921736Y-122281375D01*
X173661394Y-122420531D01*
X173433203Y-122607803D01*
X173245931Y-122835995D01*
X173228000Y-122869541D01*
X173210069Y-122835994D01*
X173022797Y-122607803D01*
X172794605Y-122420531D01*
X172534263Y-122281375D01*
X172251776Y-122195684D01*
X171958000Y-122166749D01*
X171664223Y-122195684D01*
X171381736Y-122281375D01*
X171121394Y-122420531D01*
X170893203Y-122607803D01*
X170705931Y-122835995D01*
X170688000Y-122869541D01*
X170670069Y-122835994D01*
X170482797Y-122607803D01*
X170254605Y-122420531D01*
X169994263Y-122281375D01*
X169711776Y-122195684D01*
X169418000Y-122166749D01*
X169124223Y-122195684D01*
X168841736Y-122281375D01*
X168581394Y-122420531D01*
X168353203Y-122607803D01*
X168165931Y-122835995D01*
X168148000Y-122869541D01*
X168130069Y-122835994D01*
X167942797Y-122607803D01*
X167714605Y-122420531D01*
X167454263Y-122281375D01*
X167171776Y-122195684D01*
X166878000Y-122166749D01*
X166584223Y-122195684D01*
X166301736Y-122281375D01*
X166041394Y-122420531D01*
X165813203Y-122607803D01*
X165625931Y-122835995D01*
X165608000Y-122869541D01*
X165590069Y-122835994D01*
X165402797Y-122607803D01*
X165174605Y-122420531D01*
X164914263Y-122281375D01*
X164631776Y-122195684D01*
X164338000Y-122166749D01*
X164044223Y-122195684D01*
X163761736Y-122281375D01*
X163501394Y-122420531D01*
X163273203Y-122607803D01*
X163085931Y-122835995D01*
X163068000Y-122869541D01*
X163050069Y-122835994D01*
X162862797Y-122607803D01*
X162634605Y-122420531D01*
X162374263Y-122281375D01*
X162091776Y-122195684D01*
X161798000Y-122166749D01*
X161504223Y-122195684D01*
X161221736Y-122281375D01*
X160961394Y-122420531D01*
X160733203Y-122607803D01*
X160545931Y-122835995D01*
X160406775Y-123096337D01*
X160321084Y-123378824D01*
X160299400Y-123598982D01*
X158216600Y-123598982D01*
X158216600Y-123598981D01*
X158194916Y-123378823D01*
X158109225Y-123096336D01*
X157970069Y-122835994D01*
X157782797Y-122607803D01*
X157554605Y-122420531D01*
X157294263Y-122281375D01*
X157011776Y-122195684D01*
X156718000Y-122166749D01*
X156424223Y-122195684D01*
X156141736Y-122281375D01*
X155881394Y-122420531D01*
X155653203Y-122607803D01*
X155465931Y-122835995D01*
X155444576Y-122875947D01*
X155296486Y-122673271D01*
X155080035Y-122474267D01*
X154828919Y-122321314D01*
X154552789Y-122220291D01*
X154537026Y-122217642D01*
X154305000Y-122338783D01*
X154051000Y-122338783D01*
X153818974Y-122217642D01*
X153803211Y-122220291D01*
X153527081Y-122321314D01*
X153275965Y-122474267D01*
X153059514Y-122673271D01*
X152908000Y-122880633D01*
X152756486Y-122673271D01*
X152540035Y-122474267D01*
X152288919Y-122321314D01*
X152012789Y-122220291D01*
X151997026Y-122217642D01*
X151765000Y-122338783D01*
X151511000Y-122338783D01*
X151278974Y-122217642D01*
X151263211Y-122220291D01*
X150987081Y-122321314D01*
X150735965Y-122474267D01*
X150519514Y-122673271D01*
X150371424Y-122875947D01*
X150350069Y-122835994D01*
X150162797Y-122607803D01*
X149934605Y-122420531D01*
X149674263Y-122281375D01*
X149391776Y-122195684D01*
X149098000Y-122166749D01*
X148804223Y-122195684D01*
X148521736Y-122281375D01*
X148261394Y-122420531D01*
X148033203Y-122607803D01*
X147845931Y-122835995D01*
X147828000Y-122869541D01*
X147810069Y-122835994D01*
X147622797Y-122607803D01*
X147394605Y-122420531D01*
X147134263Y-122281375D01*
X146851776Y-122195684D01*
X146558000Y-122166749D01*
X146264223Y-122195684D01*
X145981736Y-122281375D01*
X145721394Y-122420531D01*
X145493203Y-122607803D01*
X145305931Y-122835995D01*
X145288000Y-122869541D01*
X145270069Y-122835994D01*
X145082797Y-122607803D01*
X144854605Y-122420531D01*
X144594263Y-122281375D01*
X144311776Y-122195684D01*
X144018000Y-122166749D01*
X143724223Y-122195684D01*
X143441736Y-122281375D01*
X143181394Y-122420531D01*
X142953203Y-122607803D01*
X142765931Y-122835995D01*
X142748000Y-122869541D01*
X142730069Y-122835994D01*
X142542797Y-122607803D01*
X142314605Y-122420531D01*
X142054263Y-122281375D01*
X141771776Y-122195684D01*
X141478000Y-122166749D01*
X141184223Y-122195684D01*
X140901736Y-122281375D01*
X140641394Y-122420531D01*
X140413203Y-122607803D01*
X140225931Y-122835995D01*
X140208000Y-122869541D01*
X140190069Y-122835994D01*
X140002797Y-122607803D01*
X139774605Y-122420531D01*
X139514263Y-122281375D01*
X139231776Y-122195684D01*
X138938000Y-122166749D01*
X138644223Y-122195684D01*
X138361736Y-122281375D01*
X138101394Y-122420531D01*
X137873203Y-122607803D01*
X137685931Y-122835995D01*
X137546775Y-123096337D01*
X137461084Y-123378824D01*
X137439400Y-123598982D01*
X136512072Y-123598982D01*
X136512072Y-122825000D01*
X136499812Y-122700518D01*
X136463502Y-122580820D01*
X136449701Y-122555000D01*
X136463502Y-122529180D01*
X136499812Y-122409482D01*
X136512072Y-122285000D01*
X136512072Y-120382650D01*
X137128250Y-120380000D01*
X137287000Y-120221250D01*
X137287000Y-118872000D01*
X137541000Y-118872000D01*
X137541000Y-120221250D01*
X137699750Y-120380000D01*
X138414000Y-120383072D01*
X138538482Y-120370812D01*
X138658180Y-120334502D01*
X138768494Y-120275537D01*
X138865185Y-120196185D01*
X138944537Y-120099494D01*
X139003502Y-119989180D01*
X139039812Y-119869482D01*
X139052072Y-119745000D01*
X139049000Y-119030750D01*
X138890250Y-118872000D01*
X137541000Y-118872000D01*
X137287000Y-118872000D01*
X137267000Y-118872000D01*
X137267000Y-118618000D01*
X137287000Y-118618000D01*
X137287000Y-116332000D01*
X137541000Y-116332000D01*
X137541000Y-118618000D01*
X138890250Y-118618000D01*
X139049000Y-118459250D01*
X139052072Y-117745000D01*
X139039812Y-117620518D01*
X139003502Y-117500820D01*
X138989701Y-117475000D01*
X139003502Y-117449180D01*
X139039812Y-117329482D01*
X139052072Y-117205000D01*
X139049000Y-116490750D01*
X138890250Y-116332000D01*
X137541000Y-116332000D01*
X137287000Y-116332000D01*
X137267000Y-116332000D01*
X137267000Y-116078000D01*
X137287000Y-116078000D01*
X137287000Y-113792000D01*
X137541000Y-113792000D01*
X137541000Y-116078000D01*
X138890250Y-116078000D01*
X139049000Y-115919250D01*
X139052072Y-115205000D01*
X139039812Y-115080518D01*
X139003502Y-114960820D01*
X138989701Y-114935000D01*
X139003502Y-114909180D01*
X139039812Y-114789482D01*
X139052072Y-114665000D01*
X139049000Y-113950750D01*
X138890250Y-113792000D01*
X137541000Y-113792000D01*
X137287000Y-113792000D01*
X137267000Y-113792000D01*
X137267000Y-113538000D01*
X137287000Y-113538000D01*
X137287000Y-111252000D01*
X137541000Y-111252000D01*
X137541000Y-113538000D01*
X138890250Y-113538000D01*
X139049000Y-113379250D01*
X139052072Y-112665000D01*
X139039812Y-112540518D01*
X139003502Y-112420820D01*
X138989701Y-112395000D01*
X139003502Y-112369180D01*
X139039812Y-112249482D01*
X139052072Y-112125000D01*
X139049000Y-111410750D01*
X138890250Y-111252000D01*
X137541000Y-111252000D01*
X137287000Y-111252000D01*
X137267000Y-111252000D01*
X137267000Y-110998000D01*
X137287000Y-110998000D01*
X137287000Y-108712000D01*
X137541000Y-108712000D01*
X137541000Y-110998000D01*
X138890250Y-110998000D01*
X139049000Y-110839250D01*
X139052072Y-110125000D01*
X139039812Y-110000518D01*
X139003502Y-109880820D01*
X138989701Y-109855000D01*
X139003502Y-109829180D01*
X139039812Y-109709482D01*
X139052072Y-109585000D01*
X139049000Y-108870750D01*
X138890250Y-108712000D01*
X137541000Y-108712000D01*
X137287000Y-108712000D01*
X137267000Y-108712000D01*
X137267000Y-108458000D01*
X137287000Y-108458000D01*
X137287000Y-106172000D01*
X137541000Y-106172000D01*
X137541000Y-108458000D01*
X138890250Y-108458000D01*
X139049000Y-108299250D01*
X139052072Y-107585000D01*
X139039812Y-107460518D01*
X139003502Y-107340820D01*
X138989701Y-107315000D01*
X139003502Y-107289180D01*
X139039812Y-107169482D01*
X139052072Y-107045000D01*
X139049000Y-106330750D01*
X138890250Y-106172000D01*
X137541000Y-106172000D01*
X137287000Y-106172000D01*
X137267000Y-106172000D01*
X137267000Y-105918000D01*
X137287000Y-105918000D01*
X137287000Y-103632000D01*
X137541000Y-103632000D01*
X137541000Y-105918000D01*
X138890250Y-105918000D01*
X139049000Y-105759250D01*
X139052072Y-105045000D01*
X139039812Y-104920518D01*
X139003502Y-104800820D01*
X138989701Y-104775000D01*
X139003502Y-104749180D01*
X139039812Y-104629482D01*
X139052072Y-104505000D01*
X139049000Y-103790750D01*
X138890250Y-103632000D01*
X137541000Y-103632000D01*
X137287000Y-103632000D01*
X137267000Y-103632000D01*
X137267000Y-103378000D01*
X137287000Y-103378000D01*
X137287000Y-101092000D01*
X137541000Y-101092000D01*
X137541000Y-103378000D01*
X138890250Y-103378000D01*
X139049000Y-103219250D01*
X139052072Y-102505000D01*
X139039812Y-102380518D01*
X139003502Y-102260820D01*
X138989701Y-102235000D01*
X139003502Y-102209180D01*
X139039812Y-102089482D01*
X139052072Y-101965000D01*
X139049000Y-101250750D01*
X138890250Y-101092000D01*
X137541000Y-101092000D01*
X137287000Y-101092000D01*
X137267000Y-101092000D01*
X137267000Y-100838000D01*
X137287000Y-100838000D01*
X137287000Y-98552000D01*
X137541000Y-98552000D01*
X137541000Y-100838000D01*
X138890250Y-100838000D01*
X139049000Y-100679250D01*
X139052072Y-99965000D01*
X139039812Y-99840518D01*
X139003502Y-99720820D01*
X138989701Y-99695000D01*
X139003502Y-99669180D01*
X139039812Y-99549482D01*
X139052072Y-99425000D01*
X139049000Y-98710750D01*
X138890250Y-98552000D01*
X137541000Y-98552000D01*
X137287000Y-98552000D01*
X137267000Y-98552000D01*
X137267000Y-98298000D01*
X137287000Y-98298000D01*
X137287000Y-96012000D01*
X137541000Y-96012000D01*
X137541000Y-98298000D01*
X138890250Y-98298000D01*
X139049000Y-98139250D01*
X139052072Y-97425000D01*
X139039812Y-97300518D01*
X139003502Y-97180820D01*
X138989701Y-97155000D01*
X139003502Y-97129180D01*
X139039812Y-97009482D01*
X139049708Y-96909000D01*
X141586324Y-96909000D01*
X141590000Y-96946322D01*
X141590001Y-110460668D01*
X141586324Y-110498000D01*
X141590001Y-110535333D01*
X141600998Y-110646986D01*
X141605931Y-110663247D01*
X141644454Y-110790246D01*
X141715026Y-110922276D01*
X141761227Y-110978571D01*
X141810000Y-111038001D01*
X141838998Y-111061799D01*
X144262700Y-113485502D01*
X144286499Y-113514501D01*
X144315497Y-113538299D01*
X144402223Y-113609474D01*
X144521120Y-113673026D01*
X144534253Y-113680046D01*
X144677514Y-113723503D01*
X144789167Y-113734500D01*
X144789177Y-113734500D01*
X144826500Y-113738176D01*
X144863823Y-113734500D01*
X145654699Y-113734500D01*
X146350685Y-114430487D01*
X146219433Y-114561739D01*
X146066767Y-114790220D01*
X146033000Y-114871740D01*
X145999233Y-114790220D01*
X145846567Y-114561739D01*
X145652261Y-114367433D01*
X145423780Y-114214767D01*
X145169907Y-114109609D01*
X144900396Y-114056000D01*
X144625604Y-114056000D01*
X144356093Y-114109609D01*
X144102220Y-114214767D01*
X143873739Y-114367433D01*
X143679433Y-114561739D01*
X143526767Y-114790220D01*
X143421609Y-115044093D01*
X143368000Y-115313604D01*
X143368000Y-115588396D01*
X143421609Y-115857907D01*
X143526767Y-116111780D01*
X143679433Y-116340261D01*
X143873739Y-116534567D01*
X144102220Y-116687233D01*
X144356093Y-116792391D01*
X144625604Y-116846000D01*
X144900396Y-116846000D01*
X145169907Y-116792391D01*
X145423780Y-116687233D01*
X145652261Y-116534567D01*
X145846567Y-116340261D01*
X145999233Y-116111780D01*
X146033000Y-116030260D01*
X146066767Y-116111780D01*
X146219433Y-116340261D01*
X146413739Y-116534567D01*
X146642220Y-116687233D01*
X146896093Y-116792391D01*
X147165604Y-116846000D01*
X147440396Y-116846000D01*
X147709907Y-116792391D01*
X147963780Y-116687233D01*
X148192261Y-116534567D01*
X148386567Y-116340261D01*
X148448526Y-116247533D01*
X148457188Y-116335482D01*
X148493498Y-116455180D01*
X148552463Y-116565494D01*
X148631815Y-116662185D01*
X148728506Y-116741537D01*
X148838820Y-116800502D01*
X148958518Y-116836812D01*
X149083000Y-116849072D01*
X150603000Y-116849072D01*
X150727482Y-116836812D01*
X150847180Y-116800502D01*
X150957494Y-116741537D01*
X151054185Y-116662185D01*
X151133537Y-116565494D01*
X151192502Y-116455180D01*
X151227441Y-116340000D01*
X151459178Y-116340000D01*
X151459178Y-116450490D01*
X151471438Y-116574972D01*
X151507748Y-116694670D01*
X151566713Y-116804984D01*
X151646065Y-116901675D01*
X151742756Y-116981027D01*
X151850279Y-117038500D01*
X151742756Y-117095973D01*
X151646065Y-117175325D01*
X151566713Y-117272016D01*
X151507748Y-117382330D01*
X151471438Y-117502028D01*
X151459178Y-117626510D01*
X151459178Y-119625490D01*
X151471438Y-119749972D01*
X151507748Y-119869670D01*
X151566713Y-119979984D01*
X151646065Y-120076675D01*
X151742756Y-120156027D01*
X151853070Y-120214992D01*
X151972768Y-120251302D01*
X152097250Y-120263562D01*
X154096230Y-120263562D01*
X154220712Y-120251302D01*
X154340410Y-120214992D01*
X154450724Y-120156027D01*
X154547415Y-120076675D01*
X154626767Y-119979984D01*
X154685732Y-119869670D01*
X154722042Y-119749972D01*
X154734302Y-119625490D01*
X161461698Y-119625490D01*
X161473958Y-119749972D01*
X161510268Y-119869670D01*
X161569233Y-119979984D01*
X161648585Y-120076675D01*
X161745276Y-120156027D01*
X161855590Y-120214992D01*
X161975288Y-120251302D01*
X162099770Y-120263562D01*
X162813510Y-120260490D01*
X162972260Y-120101740D01*
X162972260Y-118753000D01*
X163226260Y-118753000D01*
X163226260Y-120101740D01*
X163385010Y-120260490D01*
X164098750Y-120263562D01*
X164223232Y-120251302D01*
X164342930Y-120214992D01*
X164453244Y-120156027D01*
X164549935Y-120076675D01*
X164629287Y-119979984D01*
X164688252Y-119869670D01*
X164724562Y-119749972D01*
X164736822Y-119625490D01*
X164734662Y-119123499D01*
X166740106Y-119123499D01*
X166956228Y-119490258D01*
X167416105Y-119730938D01*
X167914098Y-119877275D01*
X168431071Y-119923648D01*
X168947159Y-119868273D01*
X169442526Y-119713279D01*
X169859772Y-119490258D01*
X170075894Y-119123499D01*
X168408000Y-117455605D01*
X166740106Y-119123499D01*
X164734662Y-119123499D01*
X164733750Y-118911750D01*
X164575000Y-118753000D01*
X163226260Y-118753000D01*
X162972260Y-118753000D01*
X161623520Y-118753000D01*
X161464770Y-118911750D01*
X161461698Y-119625490D01*
X154734302Y-119625490D01*
X154734302Y-117626510D01*
X154722042Y-117502028D01*
X154685732Y-117382330D01*
X154626767Y-117272016D01*
X154547415Y-117175325D01*
X154450724Y-117095973D01*
X154343201Y-117038500D01*
X154450724Y-116981027D01*
X154547415Y-116901675D01*
X154626767Y-116804984D01*
X154685732Y-116694670D01*
X154722042Y-116574972D01*
X154734302Y-116450490D01*
X154734302Y-114451510D01*
X154722042Y-114327028D01*
X154685732Y-114207330D01*
X154626767Y-114097016D01*
X154547415Y-114000325D01*
X154450724Y-113920973D01*
X154343201Y-113863500D01*
X154450724Y-113806027D01*
X154547415Y-113726675D01*
X154626767Y-113629984D01*
X154685732Y-113519670D01*
X154722042Y-113399972D01*
X154734302Y-113275490D01*
X154734302Y-111276510D01*
X154722042Y-111152028D01*
X154685732Y-111032330D01*
X154626767Y-110922016D01*
X154547415Y-110825325D01*
X154450724Y-110745973D01*
X154343201Y-110688500D01*
X154450724Y-110631027D01*
X154547415Y-110551675D01*
X154626767Y-110454984D01*
X154685732Y-110344670D01*
X154722042Y-110224972D01*
X154734302Y-110100490D01*
X154734302Y-108101510D01*
X154722042Y-107977028D01*
X154685732Y-107857330D01*
X154626767Y-107747016D01*
X154547415Y-107650325D01*
X154450724Y-107570973D01*
X154343201Y-107513500D01*
X154450724Y-107456027D01*
X154547415Y-107376675D01*
X154626767Y-107279984D01*
X154685732Y-107169670D01*
X154722042Y-107049972D01*
X154734302Y-106925490D01*
X154734302Y-106617085D01*
X154839276Y-106560974D01*
X154955001Y-106466001D01*
X154978803Y-106436998D01*
X155757012Y-105658789D01*
X155786011Y-105634991D01*
X155880984Y-105519266D01*
X155951556Y-105387237D01*
X155995013Y-105243976D01*
X156006010Y-105132323D01*
X156009687Y-105094990D01*
X156006010Y-105057657D01*
X156006010Y-100205611D01*
X157635111Y-98576510D01*
X161461698Y-98576510D01*
X161461698Y-100575490D01*
X161473958Y-100699972D01*
X161510268Y-100819670D01*
X161569233Y-100929984D01*
X161648585Y-101026675D01*
X161745276Y-101106027D01*
X161852799Y-101163500D01*
X161745276Y-101220973D01*
X161648585Y-101300325D01*
X161569233Y-101397016D01*
X161510268Y-101507330D01*
X161473958Y-101627028D01*
X161461698Y-101751510D01*
X161461698Y-103750490D01*
X161473958Y-103874972D01*
X161510268Y-103994670D01*
X161569233Y-104104984D01*
X161648585Y-104201675D01*
X161745276Y-104281027D01*
X161852799Y-104338500D01*
X161745276Y-104395973D01*
X161648585Y-104475325D01*
X161569233Y-104572016D01*
X161510268Y-104682330D01*
X161473958Y-104802028D01*
X161461698Y-104926510D01*
X161461698Y-106925490D01*
X161473958Y-107049972D01*
X161510268Y-107169670D01*
X161569233Y-107279984D01*
X161648585Y-107376675D01*
X161745276Y-107456027D01*
X161852799Y-107513500D01*
X161745276Y-107570973D01*
X161648585Y-107650325D01*
X161569233Y-107747016D01*
X161510268Y-107857330D01*
X161473958Y-107977028D01*
X161461698Y-108101510D01*
X161464770Y-108815250D01*
X161623520Y-108974000D01*
X162972260Y-108974000D01*
X162972260Y-108954000D01*
X163226260Y-108954000D01*
X163226260Y-108974000D01*
X164575000Y-108974000D01*
X164733750Y-108815250D01*
X164736822Y-108101510D01*
X164724562Y-107977028D01*
X164688252Y-107857330D01*
X164629287Y-107747016D01*
X164549935Y-107650325D01*
X164453244Y-107570973D01*
X164345721Y-107513500D01*
X164453244Y-107456027D01*
X164549935Y-107376675D01*
X164629287Y-107279984D01*
X164688252Y-107169670D01*
X164724562Y-107049972D01*
X164736822Y-106925490D01*
X164736822Y-106686000D01*
X165553678Y-106686000D01*
X165591000Y-106689676D01*
X165628322Y-106686000D01*
X165628333Y-106686000D01*
X165705066Y-106678442D01*
X165608147Y-106912426D01*
X165553000Y-107189665D01*
X165553000Y-107472335D01*
X165608147Y-107749574D01*
X165716320Y-108010727D01*
X165873363Y-108245759D01*
X166073241Y-108445637D01*
X166203049Y-108532372D01*
X166174903Y-108628298D01*
X166988000Y-109441395D01*
X167002143Y-109427253D01*
X167181748Y-109606858D01*
X167167605Y-109621000D01*
X167980702Y-110434097D01*
X168224671Y-110362514D01*
X168345571Y-110107004D01*
X168414300Y-109832816D01*
X168415807Y-109802252D01*
X168481996Y-109833571D01*
X168756184Y-109902300D01*
X169038512Y-109916217D01*
X169318130Y-109874787D01*
X169520941Y-109802258D01*
X169568147Y-110039574D01*
X169676320Y-110300727D01*
X169833363Y-110535759D01*
X170033241Y-110735637D01*
X170268273Y-110892680D01*
X170529426Y-111000853D01*
X170806665Y-111056000D01*
X170943199Y-111056000D01*
X170483199Y-111516000D01*
X164736822Y-111516000D01*
X164736822Y-111276510D01*
X164724562Y-111152028D01*
X164688252Y-111032330D01*
X164629287Y-110922016D01*
X164549935Y-110825325D01*
X164453244Y-110745973D01*
X164345721Y-110688500D01*
X164453244Y-110631027D01*
X164474354Y-110613702D01*
X166174903Y-110613702D01*
X166246486Y-110857671D01*
X166501996Y-110978571D01*
X166776184Y-111047300D01*
X167058512Y-111061217D01*
X167338130Y-111019787D01*
X167604292Y-110924603D01*
X167729514Y-110857671D01*
X167801097Y-110613702D01*
X166988000Y-109800605D01*
X166174903Y-110613702D01*
X164474354Y-110613702D01*
X164549935Y-110551675D01*
X164629287Y-110454984D01*
X164688252Y-110344670D01*
X164724562Y-110224972D01*
X164736822Y-110100490D01*
X164735062Y-109691512D01*
X165547783Y-109691512D01*
X165589213Y-109971130D01*
X165684397Y-110237292D01*
X165751329Y-110362514D01*
X165995298Y-110434097D01*
X166808395Y-109621000D01*
X165995298Y-108807903D01*
X165751329Y-108879486D01*
X165630429Y-109134996D01*
X165561700Y-109409184D01*
X165547783Y-109691512D01*
X164735062Y-109691512D01*
X164733750Y-109386750D01*
X164575000Y-109228000D01*
X163226260Y-109228000D01*
X163226260Y-109248000D01*
X162972260Y-109248000D01*
X162972260Y-109228000D01*
X161623520Y-109228000D01*
X161464770Y-109386750D01*
X161461698Y-110100490D01*
X161473958Y-110224972D01*
X161510268Y-110344670D01*
X161569233Y-110454984D01*
X161648585Y-110551675D01*
X161745276Y-110631027D01*
X161852799Y-110688500D01*
X161745276Y-110745973D01*
X161648585Y-110825325D01*
X161569233Y-110922016D01*
X161510268Y-111032330D01*
X161473958Y-111152028D01*
X161461698Y-111276510D01*
X161461698Y-113275490D01*
X161473958Y-113399972D01*
X161510268Y-113519670D01*
X161569233Y-113629984D01*
X161648585Y-113726675D01*
X161745276Y-113806027D01*
X161852799Y-113863500D01*
X161745276Y-113920973D01*
X161648585Y-114000325D01*
X161569233Y-114097016D01*
X161510268Y-114207330D01*
X161473958Y-114327028D01*
X161461698Y-114451510D01*
X161461698Y-116450490D01*
X161473958Y-116574972D01*
X161510268Y-116694670D01*
X161569233Y-116804984D01*
X161648585Y-116901675D01*
X161745276Y-116981027D01*
X161852799Y-117038500D01*
X161745276Y-117095973D01*
X161648585Y-117175325D01*
X161569233Y-117272016D01*
X161510268Y-117382330D01*
X161473958Y-117502028D01*
X161461698Y-117626510D01*
X161464770Y-118340250D01*
X161623520Y-118499000D01*
X162972260Y-118499000D01*
X162972260Y-118479000D01*
X163226260Y-118479000D01*
X163226260Y-118499000D01*
X164575000Y-118499000D01*
X164733750Y-118340250D01*
X164736822Y-117626510D01*
X164724562Y-117502028D01*
X164688252Y-117382330D01*
X164643749Y-117299071D01*
X165760352Y-117299071D01*
X165815727Y-117815159D01*
X165970721Y-118310526D01*
X166193742Y-118727772D01*
X166560501Y-118943894D01*
X168228395Y-117276000D01*
X168587605Y-117276000D01*
X170255499Y-118943894D01*
X170622258Y-118727772D01*
X170862938Y-118267895D01*
X171009275Y-117769902D01*
X171055648Y-117252929D01*
X171000273Y-116736841D01*
X170845279Y-116241474D01*
X170622258Y-115824228D01*
X170255499Y-115608106D01*
X168587605Y-117276000D01*
X168228395Y-117276000D01*
X166560501Y-115608106D01*
X166193742Y-115824228D01*
X165953062Y-116284105D01*
X165806725Y-116782098D01*
X165760352Y-117299071D01*
X164643749Y-117299071D01*
X164629287Y-117272016D01*
X164549935Y-117175325D01*
X164453244Y-117095973D01*
X164345721Y-117038500D01*
X164453244Y-116981027D01*
X164549935Y-116901675D01*
X164629287Y-116804984D01*
X164688252Y-116694670D01*
X164724562Y-116574972D01*
X164736822Y-116450490D01*
X164736822Y-116157585D01*
X164740247Y-116156546D01*
X164872276Y-116085974D01*
X164988001Y-115991001D01*
X165011804Y-115961997D01*
X165339998Y-115633803D01*
X165369001Y-115610001D01*
X165463974Y-115494276D01*
X165499131Y-115428501D01*
X166740106Y-115428501D01*
X168408000Y-117096395D01*
X170075894Y-115428501D01*
X169859772Y-115061742D01*
X169399895Y-114821062D01*
X168901902Y-114674725D01*
X168384929Y-114628352D01*
X167868841Y-114683727D01*
X167373474Y-114838721D01*
X166956228Y-115061742D01*
X166740106Y-115428501D01*
X165499131Y-115428501D01*
X165534546Y-115362247D01*
X165578003Y-115218986D01*
X165589000Y-115107333D01*
X165589000Y-115107324D01*
X165592676Y-115070001D01*
X165589000Y-115032678D01*
X165589000Y-113606801D01*
X165709793Y-113486009D01*
X170947079Y-113486009D01*
X170984401Y-113489685D01*
X171021723Y-113486009D01*
X171021734Y-113486009D01*
X171133387Y-113475012D01*
X171276648Y-113431555D01*
X171408677Y-113360983D01*
X171524402Y-113266010D01*
X171548205Y-113237006D01*
X173664018Y-111121194D01*
X173693011Y-111097400D01*
X173716805Y-111068407D01*
X173716809Y-111068403D01*
X173787983Y-110981677D01*
X173858556Y-110849647D01*
X173892252Y-110738562D01*
X173902013Y-110706385D01*
X173913010Y-110594732D01*
X173913010Y-110594724D01*
X173916686Y-110557401D01*
X173913010Y-110520077D01*
X173913008Y-108936930D01*
X173916685Y-108899598D01*
X173902011Y-108750612D01*
X173858555Y-108607352D01*
X173787982Y-108475322D01*
X173716808Y-108388596D01*
X173716803Y-108388591D01*
X173693009Y-108359598D01*
X173664016Y-108335804D01*
X173082000Y-107753789D01*
X173082000Y-106452322D01*
X173085676Y-106414999D01*
X173082000Y-106377676D01*
X173082000Y-106377667D01*
X173071003Y-106266014D01*
X173027546Y-106122753D01*
X172956974Y-105990724D01*
X172922892Y-105949195D01*
X172885799Y-105903996D01*
X172885795Y-105903992D01*
X172862001Y-105874999D01*
X172833008Y-105851205D01*
X172346688Y-105364886D01*
X172383000Y-105182335D01*
X172383000Y-104899665D01*
X172327853Y-104622426D01*
X172219680Y-104361273D01*
X172062637Y-104126241D01*
X171862759Y-103926363D01*
X171817317Y-103896000D01*
X171862759Y-103865637D01*
X172062637Y-103665759D01*
X172219680Y-103430727D01*
X172327853Y-103169574D01*
X172383000Y-102892335D01*
X172383000Y-102609665D01*
X172327853Y-102332426D01*
X172219680Y-102071273D01*
X172062637Y-101836241D01*
X171862759Y-101636363D01*
X171817317Y-101606000D01*
X171862759Y-101575637D01*
X172062637Y-101375759D01*
X172219680Y-101140727D01*
X172327853Y-100879574D01*
X172383000Y-100602335D01*
X172383000Y-100319665D01*
X172327853Y-100042426D01*
X172219680Y-99781273D01*
X172062637Y-99546241D01*
X171862759Y-99346363D01*
X171627727Y-99189320D01*
X171366574Y-99081147D01*
X171089335Y-99026000D01*
X170806665Y-99026000D01*
X170529426Y-99081147D01*
X170392284Y-99137953D01*
X170366787Y-98965870D01*
X170271603Y-98699708D01*
X170204671Y-98574486D01*
X169960702Y-98502903D01*
X169147605Y-99316000D01*
X169161748Y-99330143D01*
X168982143Y-99509748D01*
X168968000Y-99495605D01*
X168953858Y-99509748D01*
X168774253Y-99330143D01*
X168788395Y-99316000D01*
X167975298Y-98502903D01*
X167731329Y-98574486D01*
X167610429Y-98829996D01*
X167562068Y-99022928D01*
X166188000Y-99022928D01*
X166063518Y-99035188D01*
X165943820Y-99071498D01*
X165920020Y-99084219D01*
X165900803Y-99065002D01*
X165877001Y-99035999D01*
X165761276Y-98941026D01*
X165629247Y-98870454D01*
X165485986Y-98826997D01*
X165374333Y-98816000D01*
X165374322Y-98816000D01*
X165337000Y-98812324D01*
X165299678Y-98816000D01*
X164736822Y-98816000D01*
X164736822Y-98576510D01*
X164724562Y-98452028D01*
X164688252Y-98332330D01*
X164683425Y-98323298D01*
X168154903Y-98323298D01*
X168968000Y-99136395D01*
X169781097Y-98323298D01*
X169709514Y-98079329D01*
X169454004Y-97958429D01*
X169179816Y-97889700D01*
X168897488Y-97875783D01*
X168617870Y-97917213D01*
X168351708Y-98012397D01*
X168226486Y-98079329D01*
X168154903Y-98323298D01*
X164683425Y-98323298D01*
X164629287Y-98222016D01*
X164549935Y-98125325D01*
X164453244Y-98045973D01*
X164342930Y-97987008D01*
X164223232Y-97950698D01*
X164098750Y-97938438D01*
X162099770Y-97938438D01*
X161975288Y-97950698D01*
X161855590Y-97987008D01*
X161745276Y-98045973D01*
X161648585Y-98125325D01*
X161569233Y-98222016D01*
X161510268Y-98332330D01*
X161473958Y-98452028D01*
X161461698Y-98576510D01*
X157635111Y-98576510D01*
X160144021Y-96067601D01*
X160173019Y-96043803D01*
X160267992Y-95928078D01*
X160338564Y-95796049D01*
X160382021Y-95652788D01*
X160393018Y-95541135D01*
X160393018Y-95541126D01*
X160396694Y-95503803D01*
X160393018Y-95466480D01*
X160393018Y-93061000D01*
X161739928Y-93061000D01*
X161739928Y-94661000D01*
X161752188Y-94785482D01*
X161788498Y-94905180D01*
X161847463Y-95015494D01*
X161926815Y-95112185D01*
X162023506Y-95191537D01*
X162133820Y-95250502D01*
X162253518Y-95286812D01*
X162378000Y-95299072D01*
X163978000Y-95299072D01*
X164102482Y-95286812D01*
X164222180Y-95250502D01*
X164332494Y-95191537D01*
X164429185Y-95112185D01*
X164508537Y-95015494D01*
X164567502Y-94905180D01*
X164603812Y-94785482D01*
X164616072Y-94661000D01*
X164616072Y-94123499D01*
X166740106Y-94123499D01*
X166956228Y-94490258D01*
X167416105Y-94730938D01*
X167914098Y-94877275D01*
X168431071Y-94923648D01*
X168947159Y-94868273D01*
X169442526Y-94713279D01*
X169859772Y-94490258D01*
X170075894Y-94123499D01*
X168408000Y-92455605D01*
X166740106Y-94123499D01*
X164616072Y-94123499D01*
X164616072Y-93061000D01*
X164603812Y-92936518D01*
X164567502Y-92816820D01*
X164508537Y-92706506D01*
X164429185Y-92609815D01*
X164332494Y-92530463D01*
X164222180Y-92471498D01*
X164102482Y-92435188D01*
X163978000Y-92422928D01*
X162378000Y-92422928D01*
X162253518Y-92435188D01*
X162133820Y-92471498D01*
X162023506Y-92530463D01*
X161926815Y-92609815D01*
X161847463Y-92706506D01*
X161788498Y-92816820D01*
X161752188Y-92936518D01*
X161739928Y-93061000D01*
X160393018Y-93061000D01*
X160393018Y-92299071D01*
X165760352Y-92299071D01*
X165815727Y-92815159D01*
X165970721Y-93310526D01*
X166193742Y-93727772D01*
X166560501Y-93943894D01*
X168228395Y-92276000D01*
X168587605Y-92276000D01*
X170255499Y-93943894D01*
X170622258Y-93727772D01*
X170862938Y-93267895D01*
X171009275Y-92769902D01*
X171055648Y-92252929D01*
X171000273Y-91736841D01*
X170845279Y-91241474D01*
X170622258Y-90824228D01*
X170255499Y-90608106D01*
X168587605Y-92276000D01*
X168228395Y-92276000D01*
X166560501Y-90608106D01*
X166193742Y-90824228D01*
X165953062Y-91284105D01*
X165806725Y-91782098D01*
X165760352Y-92299071D01*
X160393018Y-92299071D01*
X160393018Y-89886000D01*
X161739928Y-89886000D01*
X161739928Y-91486000D01*
X161752188Y-91610482D01*
X161788498Y-91730180D01*
X161847463Y-91840494D01*
X161926815Y-91937185D01*
X162023506Y-92016537D01*
X162133820Y-92075502D01*
X162253518Y-92111812D01*
X162378000Y-92124072D01*
X163978000Y-92124072D01*
X164102482Y-92111812D01*
X164222180Y-92075502D01*
X164332494Y-92016537D01*
X164429185Y-91937185D01*
X164508537Y-91840494D01*
X164567502Y-91730180D01*
X164603812Y-91610482D01*
X164616072Y-91486000D01*
X164616072Y-90428501D01*
X166740106Y-90428501D01*
X168408000Y-92096395D01*
X170075894Y-90428501D01*
X169859772Y-90061742D01*
X169399895Y-89821062D01*
X168901902Y-89674725D01*
X168384929Y-89628352D01*
X167868841Y-89683727D01*
X167373474Y-89838721D01*
X166956228Y-90061742D01*
X166740106Y-90428501D01*
X164616072Y-90428501D01*
X164616072Y-89886000D01*
X164603812Y-89761518D01*
X164567502Y-89641820D01*
X164508537Y-89531506D01*
X164429185Y-89434815D01*
X164332494Y-89355463D01*
X164222180Y-89296498D01*
X164102482Y-89260188D01*
X163978000Y-89247928D01*
X162378000Y-89247928D01*
X162253518Y-89260188D01*
X162133820Y-89296498D01*
X162023506Y-89355463D01*
X161926815Y-89434815D01*
X161847463Y-89531506D01*
X161788498Y-89641820D01*
X161752188Y-89761518D01*
X161739928Y-89886000D01*
X160393018Y-89886000D01*
X160393018Y-89592783D01*
X160879692Y-89106110D01*
X168909568Y-89106110D01*
X168946890Y-89109786D01*
X168984212Y-89106110D01*
X168984223Y-89106110D01*
X169095876Y-89095113D01*
X169239137Y-89051656D01*
X169371166Y-88981084D01*
X169486891Y-88886111D01*
X169510694Y-88857107D01*
X170674003Y-87693799D01*
X170703001Y-87670001D01*
X170797974Y-87554276D01*
X170868546Y-87422247D01*
X170912003Y-87278986D01*
X170923000Y-87167333D01*
X170923000Y-87167324D01*
X170926676Y-87130001D01*
X170923000Y-87092678D01*
X170923000Y-80328543D01*
X170926676Y-80291220D01*
X170923000Y-80253897D01*
X170923000Y-80253887D01*
X170912003Y-80142234D01*
X170868546Y-79998973D01*
X170797974Y-79866944D01*
X170703001Y-79751219D01*
X170674004Y-79727422D01*
X169172565Y-78225984D01*
X169148762Y-78196980D01*
X169033037Y-78102007D01*
X168901008Y-78031435D01*
X168757747Y-77987978D01*
X168646094Y-77976981D01*
X168646083Y-77976981D01*
X168608761Y-77973305D01*
X168571439Y-77976981D01*
X161826525Y-77976981D01*
X161789202Y-77973305D01*
X161751877Y-77976981D01*
X161751868Y-77976981D01*
X161640215Y-77987978D01*
X161496954Y-78031435D01*
X161364925Y-78102007D01*
X161249200Y-78196980D01*
X161225398Y-78225983D01*
X161024390Y-78426990D01*
X159472922Y-78426990D01*
X159435599Y-78423314D01*
X159398276Y-78426990D01*
X159398267Y-78426990D01*
X159286614Y-78437987D01*
X159143353Y-78481444D01*
X159011324Y-78552016D01*
X158895599Y-78646989D01*
X158871796Y-78675993D01*
X158797789Y-78750000D01*
X157246325Y-78750000D01*
X157209000Y-78746324D01*
X157171675Y-78750000D01*
X157171667Y-78750000D01*
X157060014Y-78760997D01*
X156916753Y-78804454D01*
X156784724Y-78875026D01*
X156668999Y-78969999D01*
X156645196Y-78999003D01*
X156216998Y-79427201D01*
X156188000Y-79450999D01*
X156164202Y-79479997D01*
X156164201Y-79479998D01*
X156093026Y-79566724D01*
X156022454Y-79698754D01*
X155997669Y-79780463D01*
X155978998Y-79842014D01*
X155976175Y-79870677D01*
X155771368Y-80007525D01*
X155639513Y-80139380D01*
X155617502Y-80066820D01*
X155558537Y-79956506D01*
X155479185Y-79859815D01*
X155382494Y-79780463D01*
X155272180Y-79721498D01*
X155152482Y-79685188D01*
X155028000Y-79672928D01*
X154463750Y-79676000D01*
X154305000Y-79834750D01*
X154305000Y-81034000D01*
X154325000Y-81034000D01*
X154325000Y-81288000D01*
X154305000Y-81288000D01*
X154305000Y-83574000D01*
X154325000Y-83574000D01*
X154325000Y-83828000D01*
X154305000Y-83828000D01*
X154305000Y-85021155D01*
X154534890Y-85142476D01*
X154682099Y-85097825D01*
X154944920Y-84972641D01*
X155178269Y-84798588D01*
X155373178Y-84582355D01*
X155442805Y-84465466D01*
X155564525Y-84647632D01*
X155771368Y-84854475D01*
X156014589Y-85016990D01*
X156284842Y-85128932D01*
X156571740Y-85186000D01*
X156864260Y-85186000D01*
X157151158Y-85128932D01*
X157421411Y-85016990D01*
X157664632Y-84854475D01*
X157871475Y-84647632D01*
X157988000Y-84473240D01*
X158104525Y-84647632D01*
X158311368Y-84854475D01*
X158354000Y-84882961D01*
X158354000Y-85164197D01*
X157079002Y-86439197D01*
X157078997Y-86439201D01*
X155047003Y-88471196D01*
X155017999Y-88494999D01*
X154972246Y-88550750D01*
X154923026Y-88610724D01*
X154904650Y-88645103D01*
X154852454Y-88742754D01*
X154808997Y-88886015D01*
X154798000Y-88997668D01*
X154798000Y-88997678D01*
X154794324Y-89035000D01*
X154798000Y-89072323D01*
X154798000Y-89467956D01*
X154643241Y-89571363D01*
X154443363Y-89771241D01*
X154286320Y-90006273D01*
X154178147Y-90267426D01*
X154123000Y-90544665D01*
X154123000Y-90827335D01*
X154178147Y-91104574D01*
X154286320Y-91365727D01*
X154443363Y-91600759D01*
X154643241Y-91800637D01*
X154878273Y-91957680D01*
X155139426Y-92065853D01*
X155416665Y-92121000D01*
X155699335Y-92121000D01*
X155976574Y-92065853D01*
X156237727Y-91957680D01*
X156472759Y-91800637D01*
X156672637Y-91600759D01*
X156829680Y-91365727D01*
X156937853Y-91104574D01*
X156993000Y-90827335D01*
X156993000Y-90544665D01*
X156937853Y-90267426D01*
X156829680Y-90006273D01*
X156672637Y-89771241D01*
X156472759Y-89571363D01*
X156318000Y-89467957D01*
X156318000Y-89349801D01*
X158153799Y-87514003D01*
X158153803Y-87513998D01*
X159625009Y-86042794D01*
X159654001Y-86019001D01*
X159677795Y-85990008D01*
X159677799Y-85990004D01*
X159735811Y-85919315D01*
X159748974Y-85903276D01*
X159819546Y-85771247D01*
X159863003Y-85627986D01*
X159874000Y-85516333D01*
X159874000Y-85516324D01*
X159877676Y-85479001D01*
X159874000Y-85441678D01*
X159874000Y-85053197D01*
X159961411Y-85016990D01*
X160204632Y-84854475D01*
X160411475Y-84647632D01*
X160528000Y-84473240D01*
X160644525Y-84647632D01*
X160851368Y-84854475D01*
X161094589Y-85016990D01*
X161364842Y-85128932D01*
X161651740Y-85186000D01*
X161944260Y-85186000D01*
X162231158Y-85128932D01*
X162501411Y-85016990D01*
X162744632Y-84854475D01*
X162951475Y-84647632D01*
X163073195Y-84465466D01*
X163142822Y-84582355D01*
X163337731Y-84798588D01*
X163571080Y-84972641D01*
X163833901Y-85097825D01*
X163981110Y-85142476D01*
X164211000Y-85021155D01*
X164211000Y-83828000D01*
X164465000Y-83828000D01*
X164465000Y-85021155D01*
X164694890Y-85142476D01*
X164842099Y-85097825D01*
X165104920Y-84972641D01*
X165338269Y-84798588D01*
X165533178Y-84582355D01*
X165682157Y-84332252D01*
X165779481Y-84057891D01*
X165658814Y-83828000D01*
X164465000Y-83828000D01*
X164211000Y-83828000D01*
X164191000Y-83828000D01*
X164191000Y-83574000D01*
X164211000Y-83574000D01*
X164211000Y-81288000D01*
X164465000Y-81288000D01*
X164465000Y-83574000D01*
X165658814Y-83574000D01*
X165779481Y-83344109D01*
X165682157Y-83069748D01*
X165533178Y-82819645D01*
X165338269Y-82603412D01*
X165107120Y-82431000D01*
X165338269Y-82258588D01*
X165533178Y-82042355D01*
X165682157Y-81792252D01*
X165779481Y-81517891D01*
X165658814Y-81288000D01*
X164465000Y-81288000D01*
X164211000Y-81288000D01*
X164191000Y-81288000D01*
X164191000Y-81034000D01*
X164211000Y-81034000D01*
X164211000Y-81014000D01*
X164465000Y-81014000D01*
X164465000Y-81034000D01*
X165658814Y-81034000D01*
X165779481Y-80804109D01*
X165682157Y-80529748D01*
X165603083Y-80397000D01*
X167921159Y-80397000D01*
X168502980Y-80978822D01*
X168502981Y-86442397D01*
X168259289Y-86686090D01*
X160232232Y-86686090D01*
X160194909Y-86682414D01*
X160157586Y-86686090D01*
X160157577Y-86686090D01*
X160045924Y-86697087D01*
X159902663Y-86740544D01*
X159770634Y-86811116D01*
X159654909Y-86906089D01*
X159631106Y-86935093D01*
X159515929Y-87050270D01*
X159471199Y-87086979D01*
X159447401Y-87115977D01*
X158221996Y-88341383D01*
X158192998Y-88365181D01*
X158169200Y-88394179D01*
X158098025Y-88480905D01*
X158073388Y-88526998D01*
X158027453Y-88612935D01*
X157983996Y-88756196D01*
X157972999Y-88867849D01*
X157972999Y-88867859D01*
X157969323Y-88905181D01*
X157972999Y-88942504D01*
X157973001Y-94816197D01*
X154599909Y-98189290D01*
X154547415Y-98125325D01*
X154450724Y-98045973D01*
X154340410Y-97987008D01*
X154220712Y-97950698D01*
X154096230Y-97938438D01*
X152097250Y-97938438D01*
X151972768Y-97950698D01*
X151853070Y-97987008D01*
X151742756Y-98045973D01*
X151646065Y-98125325D01*
X151566713Y-98222016D01*
X151507748Y-98332330D01*
X151471438Y-98452028D01*
X151459178Y-98576510D01*
X151459178Y-100575490D01*
X151471438Y-100699972D01*
X151507748Y-100819670D01*
X151566713Y-100929984D01*
X151646065Y-101026675D01*
X151742756Y-101106027D01*
X151850279Y-101163500D01*
X151742756Y-101220973D01*
X151646065Y-101300325D01*
X151566713Y-101397016D01*
X151507748Y-101507330D01*
X151471438Y-101627028D01*
X151459178Y-101751510D01*
X151459178Y-103750490D01*
X151471438Y-103874972D01*
X151507748Y-103994670D01*
X151566713Y-104104984D01*
X151646065Y-104201675D01*
X151742756Y-104281027D01*
X151850279Y-104338500D01*
X151742756Y-104395973D01*
X151646065Y-104475325D01*
X151566713Y-104572016D01*
X151507748Y-104682330D01*
X151471438Y-104802028D01*
X151459178Y-104926510D01*
X151459178Y-106925490D01*
X151471438Y-107049972D01*
X151507748Y-107169670D01*
X151566713Y-107279984D01*
X151646065Y-107376675D01*
X151742756Y-107456027D01*
X151850279Y-107513500D01*
X151742756Y-107570973D01*
X151646065Y-107650325D01*
X151566713Y-107747016D01*
X151507748Y-107857330D01*
X151471438Y-107977028D01*
X151459178Y-108101510D01*
X151459178Y-108212000D01*
X151227441Y-108212000D01*
X151192502Y-108096820D01*
X151133537Y-107986506D01*
X151054185Y-107889815D01*
X150957494Y-107810463D01*
X150847180Y-107751498D01*
X150727482Y-107715188D01*
X150603000Y-107702928D01*
X149083000Y-107702928D01*
X148958518Y-107715188D01*
X148838820Y-107751498D01*
X148728506Y-107810463D01*
X148631815Y-107889815D01*
X148552463Y-107986506D01*
X148493498Y-108096820D01*
X148457188Y-108216518D01*
X148448526Y-108304467D01*
X148386567Y-108211739D01*
X148192261Y-108017433D01*
X147963780Y-107864767D01*
X147709907Y-107759609D01*
X147440396Y-107706000D01*
X147165604Y-107706000D01*
X146896093Y-107759609D01*
X146642220Y-107864767D01*
X146413739Y-108017433D01*
X146219433Y-108211739D01*
X146066767Y-108440220D01*
X146033000Y-108521740D01*
X145999233Y-108440220D01*
X145846567Y-108211739D01*
X145652261Y-108017433D01*
X145423780Y-107864767D01*
X145169907Y-107759609D01*
X144900396Y-107706000D01*
X144625604Y-107706000D01*
X144356093Y-107759609D01*
X144102220Y-107864767D01*
X143873739Y-108017433D01*
X143679433Y-108211739D01*
X143526767Y-108440220D01*
X143421609Y-108694093D01*
X143368000Y-108963604D01*
X143368000Y-109238396D01*
X143421609Y-109507907D01*
X143526767Y-109761780D01*
X143679433Y-109990261D01*
X143873739Y-110184567D01*
X144102220Y-110337233D01*
X144356093Y-110442391D01*
X144625604Y-110496000D01*
X144900396Y-110496000D01*
X145169907Y-110442391D01*
X145423780Y-110337233D01*
X145652261Y-110184567D01*
X145846567Y-109990261D01*
X145999233Y-109761780D01*
X146033000Y-109680260D01*
X146066767Y-109761780D01*
X146219433Y-109990261D01*
X146413739Y-110184567D01*
X146642220Y-110337233D01*
X146896093Y-110442391D01*
X147165604Y-110496000D01*
X147440396Y-110496000D01*
X147709907Y-110442391D01*
X147963780Y-110337233D01*
X148192261Y-110184567D01*
X148386567Y-109990261D01*
X148448526Y-109897533D01*
X148457188Y-109985482D01*
X148493498Y-110105180D01*
X148552463Y-110215494D01*
X148631815Y-110312185D01*
X148728506Y-110391537D01*
X148838820Y-110450502D01*
X148958518Y-110486812D01*
X149083000Y-110499072D01*
X150603000Y-110499072D01*
X150727482Y-110486812D01*
X150847180Y-110450502D01*
X150957494Y-110391537D01*
X151054185Y-110312185D01*
X151133537Y-110215494D01*
X151192502Y-110105180D01*
X151227441Y-109990000D01*
X151459178Y-109990000D01*
X151459178Y-110100490D01*
X151471438Y-110224972D01*
X151507748Y-110344670D01*
X151566713Y-110454984D01*
X151646065Y-110551675D01*
X151742756Y-110631027D01*
X151850279Y-110688500D01*
X151742756Y-110745973D01*
X151646065Y-110825325D01*
X151566713Y-110922016D01*
X151507748Y-111032330D01*
X151471438Y-111152028D01*
X151459178Y-111276510D01*
X151459178Y-113275490D01*
X151471438Y-113399972D01*
X151507748Y-113519670D01*
X151566713Y-113629984D01*
X151646065Y-113726675D01*
X151742756Y-113806027D01*
X151850279Y-113863500D01*
X151742756Y-113920973D01*
X151646065Y-114000325D01*
X151566713Y-114097016D01*
X151507748Y-114207330D01*
X151471438Y-114327028D01*
X151459178Y-114451510D01*
X151459178Y-114562000D01*
X151227441Y-114562000D01*
X151192502Y-114446820D01*
X151133537Y-114336506D01*
X151054185Y-114239815D01*
X150957494Y-114160463D01*
X150847180Y-114101498D01*
X150727482Y-114065188D01*
X150603000Y-114052928D01*
X149083000Y-114052928D01*
X148958518Y-114065188D01*
X148838820Y-114101498D01*
X148728506Y-114160463D01*
X148631815Y-114239815D01*
X148552463Y-114336506D01*
X148493498Y-114446820D01*
X148457188Y-114566518D01*
X148448526Y-114654467D01*
X148386567Y-114561739D01*
X148192261Y-114367433D01*
X148064095Y-114281795D01*
X148063000Y-114270675D01*
X148063000Y-114270667D01*
X148052003Y-114159014D01*
X148008546Y-114015753D01*
X147937974Y-113883724D01*
X147843001Y-113767999D01*
X147814004Y-113744202D01*
X146533304Y-112463503D01*
X146509501Y-112434499D01*
X146393776Y-112339526D01*
X146261747Y-112268954D01*
X146118486Y-112225497D01*
X146006833Y-112214500D01*
X146006822Y-112214500D01*
X145969500Y-112210824D01*
X145932178Y-112214500D01*
X145141302Y-112214500D01*
X143110000Y-110183199D01*
X143110000Y-103499030D01*
X143125438Y-103499030D01*
X143125438Y-105498010D01*
X143137698Y-105622492D01*
X143174008Y-105742190D01*
X143232973Y-105852504D01*
X143312325Y-105949195D01*
X143409016Y-106028547D01*
X143519330Y-106087512D01*
X143639028Y-106123822D01*
X143763510Y-106136082D01*
X145762490Y-106136082D01*
X145886972Y-106123822D01*
X146006670Y-106087512D01*
X146116984Y-106028547D01*
X146213675Y-105949195D01*
X146293027Y-105852504D01*
X146350500Y-105744981D01*
X146407973Y-105852504D01*
X146487325Y-105949195D01*
X146584016Y-106028547D01*
X146694330Y-106087512D01*
X146814028Y-106123822D01*
X146938510Y-106136082D01*
X148937490Y-106136082D01*
X149061972Y-106123822D01*
X149181670Y-106087512D01*
X149291984Y-106028547D01*
X149388675Y-105949195D01*
X149468027Y-105852504D01*
X149526992Y-105742190D01*
X149563302Y-105622492D01*
X149575562Y-105498010D01*
X149575562Y-103499030D01*
X149563302Y-103374548D01*
X149526992Y-103254850D01*
X149468027Y-103144536D01*
X149388675Y-103047845D01*
X149291984Y-102968493D01*
X149181670Y-102909528D01*
X149061972Y-102873218D01*
X148937490Y-102860958D01*
X146938510Y-102860958D01*
X146814028Y-102873218D01*
X146694330Y-102909528D01*
X146584016Y-102968493D01*
X146487325Y-103047845D01*
X146407973Y-103144536D01*
X146350500Y-103252059D01*
X146293027Y-103144536D01*
X146213675Y-103047845D01*
X146116984Y-102968493D01*
X146006670Y-102909528D01*
X145886972Y-102873218D01*
X145762490Y-102860958D01*
X143763510Y-102860958D01*
X143639028Y-102873218D01*
X143519330Y-102909528D01*
X143409016Y-102968493D01*
X143312325Y-103047845D01*
X143232973Y-103144536D01*
X143174008Y-103254850D01*
X143137698Y-103374548D01*
X143125438Y-103499030D01*
X143110000Y-103499030D01*
X143110000Y-97223801D01*
X144200240Y-96133562D01*
X145762490Y-96133562D01*
X145886972Y-96121302D01*
X146006670Y-96084992D01*
X146116984Y-96026027D01*
X146213675Y-95946675D01*
X146293027Y-95849984D01*
X146350500Y-95742461D01*
X146407973Y-95849984D01*
X146487325Y-95946675D01*
X146584016Y-96026027D01*
X146694330Y-96084992D01*
X146814028Y-96121302D01*
X146938510Y-96133562D01*
X148937490Y-96133562D01*
X149061972Y-96121302D01*
X149181670Y-96084992D01*
X149291984Y-96026027D01*
X149388675Y-95946675D01*
X149468027Y-95849984D01*
X149526992Y-95739670D01*
X149563302Y-95619972D01*
X149575562Y-95495490D01*
X149575562Y-93496510D01*
X149563302Y-93372028D01*
X149526992Y-93252330D01*
X149468027Y-93142016D01*
X149388675Y-93045325D01*
X149291984Y-92965973D01*
X149181670Y-92907008D01*
X149061972Y-92870698D01*
X148937490Y-92858438D01*
X146938510Y-92858438D01*
X146814028Y-92870698D01*
X146694330Y-92907008D01*
X146584016Y-92965973D01*
X146487325Y-93045325D01*
X146407973Y-93142016D01*
X146350500Y-93249539D01*
X146293027Y-93142016D01*
X146213675Y-93045325D01*
X146116984Y-92965973D01*
X146006670Y-92907008D01*
X145886972Y-92870698D01*
X145762490Y-92858438D01*
X143763510Y-92858438D01*
X143639028Y-92870698D01*
X143519330Y-92907008D01*
X143409016Y-92965973D01*
X143312325Y-93045325D01*
X143232973Y-93142016D01*
X143174008Y-93252330D01*
X143137698Y-93372028D01*
X143125438Y-93496510D01*
X143125438Y-95058760D01*
X141839003Y-96345196D01*
X141809999Y-96368999D01*
X141754871Y-96436174D01*
X141715026Y-96484724D01*
X141664015Y-96580158D01*
X141644454Y-96616754D01*
X141600997Y-96760015D01*
X141590000Y-96871668D01*
X141590000Y-96871678D01*
X141586324Y-96909000D01*
X139049708Y-96909000D01*
X139052072Y-96885000D01*
X139049000Y-96170750D01*
X138890250Y-96012000D01*
X137541000Y-96012000D01*
X137287000Y-96012000D01*
X137267000Y-96012000D01*
X137267000Y-95758000D01*
X137287000Y-95758000D01*
X137287000Y-93472000D01*
X137541000Y-93472000D01*
X137541000Y-95758000D01*
X138890250Y-95758000D01*
X139049000Y-95599250D01*
X139052072Y-94885000D01*
X139039812Y-94760518D01*
X139003502Y-94640820D01*
X138989701Y-94615000D01*
X139003502Y-94589180D01*
X139039812Y-94469482D01*
X139052072Y-94345000D01*
X139049000Y-93630750D01*
X138890250Y-93472000D01*
X137541000Y-93472000D01*
X137287000Y-93472000D01*
X137267000Y-93472000D01*
X137267000Y-93218000D01*
X137287000Y-93218000D01*
X137287000Y-90932000D01*
X137541000Y-90932000D01*
X137541000Y-93218000D01*
X138890250Y-93218000D01*
X139049000Y-93059250D01*
X139052072Y-92345000D01*
X139039812Y-92220518D01*
X139003502Y-92100820D01*
X138989701Y-92075000D01*
X139003502Y-92049180D01*
X139039812Y-91929482D01*
X139052072Y-91805000D01*
X139049000Y-91090750D01*
X138890250Y-90932000D01*
X137541000Y-90932000D01*
X137287000Y-90932000D01*
X137267000Y-90932000D01*
X137267000Y-90678000D01*
X137287000Y-90678000D01*
X137287000Y-88392000D01*
X137541000Y-88392000D01*
X137541000Y-90678000D01*
X138890250Y-90678000D01*
X139049000Y-90519250D01*
X139050299Y-90217000D01*
X150259928Y-90217000D01*
X150259928Y-91917000D01*
X150272188Y-92041482D01*
X150308498Y-92161180D01*
X150367463Y-92271494D01*
X150446815Y-92368185D01*
X150543506Y-92447537D01*
X150653820Y-92506502D01*
X150726380Y-92528513D01*
X150594525Y-92660368D01*
X150432010Y-92903589D01*
X150320068Y-93173842D01*
X150263000Y-93460740D01*
X150263000Y-93753260D01*
X150320068Y-94040158D01*
X150432010Y-94310411D01*
X150594525Y-94553632D01*
X150801368Y-94760475D01*
X150975760Y-94877000D01*
X150801368Y-94993525D01*
X150594525Y-95200368D01*
X150432010Y-95443589D01*
X150320068Y-95713842D01*
X150263000Y-96000740D01*
X150263000Y-96293260D01*
X150320068Y-96580158D01*
X150432010Y-96850411D01*
X150594525Y-97093632D01*
X150801368Y-97300475D01*
X151044589Y-97462990D01*
X151314842Y-97574932D01*
X151601740Y-97632000D01*
X151894260Y-97632000D01*
X152181158Y-97574932D01*
X152451411Y-97462990D01*
X152694632Y-97300475D01*
X152901475Y-97093632D01*
X153063990Y-96850411D01*
X153175932Y-96580158D01*
X153233000Y-96293260D01*
X153233000Y-96000740D01*
X153175932Y-95713842D01*
X153063990Y-95443589D01*
X152901475Y-95200368D01*
X152694632Y-94993525D01*
X152520240Y-94877000D01*
X152694632Y-94760475D01*
X152901475Y-94553632D01*
X153063990Y-94310411D01*
X153175932Y-94040158D01*
X153233000Y-93753260D01*
X153233000Y-93719665D01*
X154123000Y-93719665D01*
X154123000Y-94002335D01*
X154178147Y-94279574D01*
X154286320Y-94540727D01*
X154443363Y-94775759D01*
X154643241Y-94975637D01*
X154878273Y-95132680D01*
X155139426Y-95240853D01*
X155416665Y-95296000D01*
X155699335Y-95296000D01*
X155976574Y-95240853D01*
X156237727Y-95132680D01*
X156472759Y-94975637D01*
X156672637Y-94775759D01*
X156829680Y-94540727D01*
X156937853Y-94279574D01*
X156993000Y-94002335D01*
X156993000Y-93719665D01*
X156937853Y-93442426D01*
X156829680Y-93181273D01*
X156672637Y-92946241D01*
X156472759Y-92746363D01*
X156237727Y-92589320D01*
X155976574Y-92481147D01*
X155699335Y-92426000D01*
X155416665Y-92426000D01*
X155139426Y-92481147D01*
X154878273Y-92589320D01*
X154643241Y-92746363D01*
X154443363Y-92946241D01*
X154286320Y-93181273D01*
X154178147Y-93442426D01*
X154123000Y-93719665D01*
X153233000Y-93719665D01*
X153233000Y-93460740D01*
X153175932Y-93173842D01*
X153063990Y-92903589D01*
X152901475Y-92660368D01*
X152769620Y-92528513D01*
X152842180Y-92506502D01*
X152952494Y-92447537D01*
X153049185Y-92368185D01*
X153128537Y-92271494D01*
X153187502Y-92161180D01*
X153223812Y-92041482D01*
X153236072Y-91917000D01*
X153236072Y-90217000D01*
X153223812Y-90092518D01*
X153187502Y-89972820D01*
X153128537Y-89862506D01*
X153049185Y-89765815D01*
X152952494Y-89686463D01*
X152842180Y-89627498D01*
X152722482Y-89591188D01*
X152598000Y-89578928D01*
X150898000Y-89578928D01*
X150773518Y-89591188D01*
X150653820Y-89627498D01*
X150543506Y-89686463D01*
X150446815Y-89765815D01*
X150367463Y-89862506D01*
X150308498Y-89972820D01*
X150272188Y-90092518D01*
X150259928Y-90217000D01*
X139050299Y-90217000D01*
X139052072Y-89805000D01*
X139039812Y-89680518D01*
X139003502Y-89560820D01*
X138989701Y-89535000D01*
X139003502Y-89509180D01*
X139039812Y-89389482D01*
X139052072Y-89265000D01*
X139049000Y-88550750D01*
X138890250Y-88392000D01*
X137541000Y-88392000D01*
X137287000Y-88392000D01*
X137267000Y-88392000D01*
X137267000Y-88138000D01*
X137287000Y-88138000D01*
X137287000Y-85852000D01*
X137541000Y-85852000D01*
X137541000Y-88138000D01*
X138890250Y-88138000D01*
X139049000Y-87979250D01*
X139052072Y-87265000D01*
X139039812Y-87140518D01*
X139003502Y-87020820D01*
X138989701Y-86995000D01*
X139003502Y-86969180D01*
X139039812Y-86849482D01*
X139052072Y-86725000D01*
X139049000Y-86010750D01*
X138890250Y-85852000D01*
X137541000Y-85852000D01*
X137287000Y-85852000D01*
X137267000Y-85852000D01*
X137267000Y-85598000D01*
X137287000Y-85598000D01*
X137287000Y-83312000D01*
X137541000Y-83312000D01*
X137541000Y-85598000D01*
X138890250Y-85598000D01*
X139049000Y-85439250D01*
X139052072Y-84725000D01*
X139039812Y-84600518D01*
X139003502Y-84480820D01*
X138989701Y-84455000D01*
X139003502Y-84429180D01*
X139039812Y-84309482D01*
X139052072Y-84185000D01*
X139049000Y-83470750D01*
X138890250Y-83312000D01*
X137541000Y-83312000D01*
X137287000Y-83312000D01*
X137267000Y-83312000D01*
X137267000Y-83058000D01*
X137287000Y-83058000D01*
X137287000Y-80772000D01*
X137541000Y-80772000D01*
X137541000Y-83058000D01*
X138890250Y-83058000D01*
X139049000Y-82899250D01*
X139052072Y-82185000D01*
X139039812Y-82060518D01*
X139003502Y-81940820D01*
X138989701Y-81915000D01*
X139003502Y-81889180D01*
X139039812Y-81769482D01*
X139052072Y-81645000D01*
X139049000Y-80930750D01*
X138890250Y-80772000D01*
X137541000Y-80772000D01*
X137287000Y-80772000D01*
X137267000Y-80772000D01*
X137267000Y-80518000D01*
X137287000Y-80518000D01*
X137287000Y-78232000D01*
X137541000Y-78232000D01*
X137541000Y-80518000D01*
X138890250Y-80518000D01*
X139049000Y-80359250D01*
X139052072Y-79645000D01*
X139039812Y-79520518D01*
X139003502Y-79400820D01*
X138989701Y-79375000D01*
X139003502Y-79349180D01*
X139039812Y-79229482D01*
X139052072Y-79105000D01*
X139049426Y-78489662D01*
X140254500Y-78489662D01*
X140254500Y-78752338D01*
X140305746Y-79009968D01*
X140406268Y-79252649D01*
X140552203Y-79471057D01*
X140737943Y-79656797D01*
X140828000Y-79716971D01*
X140828001Y-85145028D01*
X140737943Y-85205203D01*
X140552203Y-85390943D01*
X140406268Y-85609351D01*
X140305746Y-85852032D01*
X140254500Y-86109662D01*
X140254500Y-86372338D01*
X140305746Y-86629968D01*
X140406268Y-86872649D01*
X140552203Y-87091057D01*
X140737943Y-87276797D01*
X140956351Y-87422732D01*
X141199032Y-87523254D01*
X141456662Y-87574500D01*
X141719338Y-87574500D01*
X141976968Y-87523254D01*
X142219649Y-87422732D01*
X142438057Y-87276797D01*
X142553657Y-87161197D01*
X145927408Y-87161197D01*
X145986686Y-87394812D01*
X146224875Y-87505559D01*
X146480093Y-87567711D01*
X146742533Y-87578876D01*
X147002107Y-87538629D01*
X147248842Y-87448514D01*
X147349314Y-87394812D01*
X147408592Y-87161197D01*
X146668000Y-86420605D01*
X145927408Y-87161197D01*
X142553657Y-87161197D01*
X142623797Y-87091057D01*
X142769732Y-86872649D01*
X142870254Y-86629968D01*
X142921500Y-86372338D01*
X142921500Y-86315533D01*
X145330124Y-86315533D01*
X145370371Y-86575107D01*
X145460486Y-86821842D01*
X145514188Y-86922314D01*
X145747803Y-86981592D01*
X146488395Y-86241000D01*
X146847605Y-86241000D01*
X147588197Y-86981592D01*
X147821812Y-86922314D01*
X147932559Y-86684125D01*
X147994711Y-86428907D01*
X148005876Y-86166467D01*
X147965629Y-85906893D01*
X147875514Y-85660158D01*
X147821812Y-85559686D01*
X147588197Y-85500408D01*
X146847605Y-86241000D01*
X146488395Y-86241000D01*
X145747803Y-85500408D01*
X145514188Y-85559686D01*
X145403441Y-85797875D01*
X145341289Y-86053093D01*
X145330124Y-86315533D01*
X142921500Y-86315533D01*
X142921500Y-86109662D01*
X142870254Y-85852032D01*
X142769732Y-85609351D01*
X142623797Y-85390943D01*
X142553657Y-85320803D01*
X145927408Y-85320803D01*
X146668000Y-86061395D01*
X147408592Y-85320803D01*
X147349314Y-85087188D01*
X147111125Y-84976441D01*
X146855907Y-84914289D01*
X146593467Y-84903124D01*
X146333893Y-84943371D01*
X146087158Y-85033486D01*
X145986686Y-85087188D01*
X145927408Y-85320803D01*
X142553657Y-85320803D01*
X142438057Y-85205203D01*
X142348000Y-85145029D01*
X142348000Y-84057891D01*
X152736519Y-84057891D01*
X152833843Y-84332252D01*
X152982822Y-84582355D01*
X153177731Y-84798588D01*
X153411080Y-84972641D01*
X153673901Y-85097825D01*
X153821110Y-85142476D01*
X154051000Y-85021155D01*
X154051000Y-83828000D01*
X152857186Y-83828000D01*
X152736519Y-84057891D01*
X142348000Y-84057891D01*
X142348000Y-82011000D01*
X152689928Y-82011000D01*
X152702188Y-82135482D01*
X152738498Y-82255180D01*
X152797463Y-82365494D01*
X152876815Y-82462185D01*
X152973506Y-82541537D01*
X153083820Y-82600502D01*
X153159626Y-82623498D01*
X152982822Y-82819645D01*
X152833843Y-83069748D01*
X152736519Y-83344109D01*
X152857186Y-83574000D01*
X154051000Y-83574000D01*
X154051000Y-81288000D01*
X152851750Y-81288000D01*
X152693000Y-81446750D01*
X152689928Y-82011000D01*
X142348000Y-82011000D01*
X142348000Y-80311000D01*
X152689928Y-80311000D01*
X152693000Y-80875250D01*
X152851750Y-81034000D01*
X154051000Y-81034000D01*
X154051000Y-79834750D01*
X153892250Y-79676000D01*
X153328000Y-79672928D01*
X153203518Y-79685188D01*
X153083820Y-79721498D01*
X152973506Y-79780463D01*
X152876815Y-79859815D01*
X152797463Y-79956506D01*
X152738498Y-80066820D01*
X152702188Y-80186518D01*
X152689928Y-80311000D01*
X142348000Y-80311000D01*
X142348000Y-79716971D01*
X142438057Y-79656797D01*
X142553657Y-79541197D01*
X145927408Y-79541197D01*
X145986686Y-79774812D01*
X146224875Y-79885559D01*
X146480093Y-79947711D01*
X146742533Y-79958876D01*
X147002107Y-79918629D01*
X147248842Y-79828514D01*
X147349314Y-79774812D01*
X147408592Y-79541197D01*
X146668000Y-78800605D01*
X145927408Y-79541197D01*
X142553657Y-79541197D01*
X142623797Y-79471057D01*
X142769732Y-79252649D01*
X142870254Y-79009968D01*
X142921500Y-78752338D01*
X142921500Y-78695533D01*
X145330124Y-78695533D01*
X145370371Y-78955107D01*
X145460486Y-79201842D01*
X145514188Y-79302314D01*
X145747803Y-79361592D01*
X146488395Y-78621000D01*
X146847605Y-78621000D01*
X147588197Y-79361592D01*
X147821812Y-79302314D01*
X147932559Y-79064125D01*
X147994711Y-78808907D01*
X148005876Y-78546467D01*
X147965629Y-78286893D01*
X147875514Y-78040158D01*
X147821812Y-77939686D01*
X147588197Y-77880408D01*
X146847605Y-78621000D01*
X146488395Y-78621000D01*
X145747803Y-77880408D01*
X145514188Y-77939686D01*
X145403441Y-78177875D01*
X145341289Y-78433093D01*
X145330124Y-78695533D01*
X142921500Y-78695533D01*
X142921500Y-78489662D01*
X142870254Y-78232032D01*
X142769732Y-77989351D01*
X142623797Y-77770943D01*
X142553657Y-77700803D01*
X145927408Y-77700803D01*
X146668000Y-78441395D01*
X147408592Y-77700803D01*
X147349314Y-77467188D01*
X147111125Y-77356441D01*
X146855907Y-77294289D01*
X146593467Y-77283124D01*
X146333893Y-77323371D01*
X146087158Y-77413486D01*
X145986686Y-77467188D01*
X145927408Y-77700803D01*
X142553657Y-77700803D01*
X142438057Y-77585203D01*
X142219649Y-77439268D01*
X141976968Y-77338746D01*
X141719338Y-77287500D01*
X141456662Y-77287500D01*
X141199032Y-77338746D01*
X140956351Y-77439268D01*
X140737943Y-77585203D01*
X140552203Y-77770943D01*
X140406268Y-77989351D01*
X140305746Y-78232032D01*
X140254500Y-78489662D01*
X139049426Y-78489662D01*
X139049000Y-78390750D01*
X138890250Y-78232000D01*
X137541000Y-78232000D01*
X137287000Y-78232000D01*
X137267000Y-78232000D01*
X137267000Y-77978000D01*
X137287000Y-77978000D01*
X137287000Y-75692000D01*
X137267000Y-75692000D01*
X137267000Y-75438000D01*
X137287000Y-75438000D01*
X137287000Y-74078783D01*
X137541000Y-74078783D01*
X137541000Y-75438000D01*
X137561000Y-75438000D01*
X137561000Y-75692000D01*
X137541000Y-75692000D01*
X137541000Y-77978000D01*
X138890250Y-77978000D01*
X139049000Y-77819250D01*
X139052072Y-77105000D01*
X139039812Y-76980518D01*
X139009633Y-76881031D01*
X139117395Y-76969469D01*
X139377737Y-77108625D01*
X139660224Y-77194316D01*
X139954000Y-77223251D01*
X140247777Y-77194316D01*
X140530264Y-77108625D01*
X140790606Y-76969469D01*
X141018797Y-76782197D01*
X141206069Y-76554006D01*
X141224000Y-76520459D01*
X141241931Y-76554006D01*
X141429203Y-76782197D01*
X141657395Y-76969469D01*
X141917737Y-77108625D01*
X142200224Y-77194316D01*
X142494000Y-77223251D01*
X142787777Y-77194316D01*
X143070264Y-77108625D01*
X143330606Y-76969469D01*
X143558797Y-76782197D01*
X143746069Y-76554006D01*
X143764000Y-76520459D01*
X143781931Y-76554006D01*
X143969203Y-76782197D01*
X144197395Y-76969469D01*
X144457737Y-77108625D01*
X144740224Y-77194316D01*
X145034000Y-77223251D01*
X145327777Y-77194316D01*
X145610264Y-77108625D01*
X145870606Y-76969469D01*
X146098797Y-76782197D01*
X146286069Y-76554006D01*
X146304000Y-76520459D01*
X146321931Y-76554006D01*
X146509203Y-76782197D01*
X146737395Y-76969469D01*
X146997737Y-77108625D01*
X147280224Y-77194316D01*
X147574000Y-77223251D01*
X147867777Y-77194316D01*
X148150264Y-77108625D01*
X148410606Y-76969469D01*
X148638797Y-76782197D01*
X148826069Y-76554006D01*
X148844000Y-76520459D01*
X148861931Y-76554006D01*
X149049203Y-76782197D01*
X149277395Y-76969469D01*
X149537737Y-77108625D01*
X149820224Y-77194316D01*
X150114000Y-77223251D01*
X150407777Y-77194316D01*
X150690264Y-77108625D01*
X150950606Y-76969469D01*
X151178797Y-76782197D01*
X151366069Y-76554006D01*
X151384000Y-76520459D01*
X151401931Y-76554006D01*
X151589203Y-76782197D01*
X151817395Y-76969469D01*
X152077737Y-77108625D01*
X152360224Y-77194316D01*
X152654000Y-77223251D01*
X152947777Y-77194316D01*
X153230264Y-77108625D01*
X153490606Y-76969469D01*
X153718797Y-76782197D01*
X153906069Y-76554006D01*
X154045225Y-76293663D01*
X154130916Y-76011176D01*
X154152600Y-75791018D01*
X154152600Y-75338982D01*
X155219400Y-75338982D01*
X155219400Y-75791019D01*
X155241084Y-76011177D01*
X155326775Y-76293664D01*
X155465931Y-76554006D01*
X155653203Y-76782197D01*
X155881395Y-76969469D01*
X156141737Y-77108625D01*
X156424224Y-77194316D01*
X156718000Y-77223251D01*
X157011777Y-77194316D01*
X157294264Y-77108625D01*
X157554606Y-76969469D01*
X157782797Y-76782197D01*
X157970069Y-76554006D01*
X157988000Y-76520459D01*
X158005931Y-76554006D01*
X158193203Y-76782197D01*
X158421395Y-76969469D01*
X158681737Y-77108625D01*
X158964224Y-77194316D01*
X159258000Y-77223251D01*
X159551777Y-77194316D01*
X159834264Y-77108625D01*
X160094606Y-76969469D01*
X160322797Y-76782197D01*
X160510069Y-76554006D01*
X160528000Y-76520459D01*
X160545931Y-76554006D01*
X160733203Y-76782197D01*
X160961395Y-76969469D01*
X161221737Y-77108625D01*
X161504224Y-77194316D01*
X161798000Y-77223251D01*
X162091777Y-77194316D01*
X162374264Y-77108625D01*
X162634606Y-76969469D01*
X162862797Y-76782197D01*
X163050069Y-76554006D01*
X163068000Y-76520459D01*
X163085931Y-76554006D01*
X163273203Y-76782197D01*
X163501395Y-76969469D01*
X163761737Y-77108625D01*
X164044224Y-77194316D01*
X164338000Y-77223251D01*
X164631777Y-77194316D01*
X164914264Y-77108625D01*
X165174606Y-76969469D01*
X165402797Y-76782197D01*
X165590069Y-76554006D01*
X165608000Y-76520459D01*
X165625931Y-76554006D01*
X165813203Y-76782197D01*
X166041395Y-76969469D01*
X166301737Y-77108625D01*
X166584224Y-77194316D01*
X166878000Y-77223251D01*
X167171777Y-77194316D01*
X167454264Y-77108625D01*
X167714606Y-76969469D01*
X167942797Y-76782197D01*
X168130069Y-76554006D01*
X168148000Y-76520459D01*
X168165931Y-76554006D01*
X168353203Y-76782197D01*
X168581395Y-76969469D01*
X168841737Y-77108625D01*
X169124224Y-77194316D01*
X169418000Y-77223251D01*
X169711777Y-77194316D01*
X169994264Y-77108625D01*
X170254606Y-76969469D01*
X170482797Y-76782197D01*
X170670069Y-76554006D01*
X170688000Y-76520459D01*
X170705931Y-76554006D01*
X170893203Y-76782197D01*
X171121395Y-76969469D01*
X171381737Y-77108625D01*
X171664224Y-77194316D01*
X171958000Y-77223251D01*
X172251777Y-77194316D01*
X172534264Y-77108625D01*
X172794606Y-76969469D01*
X173022797Y-76782197D01*
X173210069Y-76554006D01*
X173228000Y-76520459D01*
X173245931Y-76554006D01*
X173433203Y-76782197D01*
X173661395Y-76969469D01*
X173921737Y-77108625D01*
X174204224Y-77194316D01*
X174498000Y-77223251D01*
X174791777Y-77194316D01*
X175074264Y-77108625D01*
X175334606Y-76969469D01*
X175562797Y-76782197D01*
X175750069Y-76554006D01*
X175889225Y-76293663D01*
X175974916Y-76011176D01*
X175996600Y-75791018D01*
X175996600Y-75338981D01*
X175974916Y-75118823D01*
X175889225Y-74836336D01*
X175750069Y-74575994D01*
X175562797Y-74347803D01*
X175334605Y-74160531D01*
X175074263Y-74021375D01*
X174791776Y-73935684D01*
X174498000Y-73906749D01*
X174204223Y-73935684D01*
X173921736Y-74021375D01*
X173661394Y-74160531D01*
X173433203Y-74347803D01*
X173245931Y-74575995D01*
X173228000Y-74609541D01*
X173210069Y-74575994D01*
X173022797Y-74347803D01*
X172794605Y-74160531D01*
X172534263Y-74021375D01*
X172251776Y-73935684D01*
X171958000Y-73906749D01*
X171664223Y-73935684D01*
X171381736Y-74021375D01*
X171121394Y-74160531D01*
X170893203Y-74347803D01*
X170705931Y-74575995D01*
X170688000Y-74609541D01*
X170670069Y-74575994D01*
X170482797Y-74347803D01*
X170254605Y-74160531D01*
X169994263Y-74021375D01*
X169711776Y-73935684D01*
X169418000Y-73906749D01*
X169124223Y-73935684D01*
X168841736Y-74021375D01*
X168581394Y-74160531D01*
X168353203Y-74347803D01*
X168165931Y-74575995D01*
X168148000Y-74609541D01*
X168130069Y-74575994D01*
X167942797Y-74347803D01*
X167714605Y-74160531D01*
X167454263Y-74021375D01*
X167171776Y-73935684D01*
X166878000Y-73906749D01*
X166584223Y-73935684D01*
X166301736Y-74021375D01*
X166041394Y-74160531D01*
X165813203Y-74347803D01*
X165625931Y-74575995D01*
X165608000Y-74609541D01*
X165590069Y-74575994D01*
X165402797Y-74347803D01*
X165174605Y-74160531D01*
X164914263Y-74021375D01*
X164631776Y-73935684D01*
X164338000Y-73906749D01*
X164044223Y-73935684D01*
X163761736Y-74021375D01*
X163501394Y-74160531D01*
X163273203Y-74347803D01*
X163085931Y-74575995D01*
X163068000Y-74609541D01*
X163050069Y-74575994D01*
X162862797Y-74347803D01*
X162634605Y-74160531D01*
X162374263Y-74021375D01*
X162091776Y-73935684D01*
X161798000Y-73906749D01*
X161504223Y-73935684D01*
X161221736Y-74021375D01*
X160961394Y-74160531D01*
X160733203Y-74347803D01*
X160545931Y-74575995D01*
X160528000Y-74609541D01*
X160510069Y-74575994D01*
X160322797Y-74347803D01*
X160094605Y-74160531D01*
X159834263Y-74021375D01*
X159551776Y-73935684D01*
X159258000Y-73906749D01*
X158964223Y-73935684D01*
X158681736Y-74021375D01*
X158421394Y-74160531D01*
X158193203Y-74347803D01*
X158005931Y-74575995D01*
X157988000Y-74609541D01*
X157970069Y-74575994D01*
X157782797Y-74347803D01*
X157554605Y-74160531D01*
X157294263Y-74021375D01*
X157011776Y-73935684D01*
X156718000Y-73906749D01*
X156424223Y-73935684D01*
X156141736Y-74021375D01*
X155881394Y-74160531D01*
X155653203Y-74347803D01*
X155465931Y-74575995D01*
X155326775Y-74836337D01*
X155241084Y-75118824D01*
X155219400Y-75338982D01*
X154152600Y-75338982D01*
X154152600Y-75338981D01*
X154130916Y-75118823D01*
X154045225Y-74836336D01*
X153906069Y-74575994D01*
X153718797Y-74347803D01*
X153490605Y-74160531D01*
X153230263Y-74021375D01*
X152947776Y-73935684D01*
X152654000Y-73906749D01*
X152360223Y-73935684D01*
X152077736Y-74021375D01*
X151817394Y-74160531D01*
X151589203Y-74347803D01*
X151401931Y-74575995D01*
X151384000Y-74609541D01*
X151366069Y-74575994D01*
X151178797Y-74347803D01*
X150950605Y-74160531D01*
X150690263Y-74021375D01*
X150407776Y-73935684D01*
X150114000Y-73906749D01*
X149820223Y-73935684D01*
X149537736Y-74021375D01*
X149277394Y-74160531D01*
X149049203Y-74347803D01*
X148861931Y-74575995D01*
X148844000Y-74609541D01*
X148826069Y-74575994D01*
X148638797Y-74347803D01*
X148410605Y-74160531D01*
X148150263Y-74021375D01*
X147867776Y-73935684D01*
X147574000Y-73906749D01*
X147280223Y-73935684D01*
X146997736Y-74021375D01*
X146737394Y-74160531D01*
X146509203Y-74347803D01*
X146321931Y-74575995D01*
X146304000Y-74609541D01*
X146286069Y-74575994D01*
X146098797Y-74347803D01*
X145870605Y-74160531D01*
X145610263Y-74021375D01*
X145327776Y-73935684D01*
X145034000Y-73906749D01*
X144740223Y-73935684D01*
X144457736Y-74021375D01*
X144197394Y-74160531D01*
X143969203Y-74347803D01*
X143781931Y-74575995D01*
X143764000Y-74609541D01*
X143746069Y-74575994D01*
X143558797Y-74347803D01*
X143330605Y-74160531D01*
X143070263Y-74021375D01*
X142787776Y-73935684D01*
X142494000Y-73906749D01*
X142200223Y-73935684D01*
X141917736Y-74021375D01*
X141657394Y-74160531D01*
X141429203Y-74347803D01*
X141241931Y-74575995D01*
X141224000Y-74609541D01*
X141206069Y-74575994D01*
X141018797Y-74347803D01*
X140790605Y-74160531D01*
X140530263Y-74021375D01*
X140247776Y-73935684D01*
X139954000Y-73906749D01*
X139660223Y-73935684D01*
X139377736Y-74021375D01*
X139117394Y-74160531D01*
X138889203Y-74347803D01*
X138701931Y-74575995D01*
X138680576Y-74615947D01*
X138532486Y-74413271D01*
X138316035Y-74214267D01*
X138064919Y-74061314D01*
X137788789Y-73960291D01*
X137773026Y-73957642D01*
X137541000Y-74078783D01*
X137287000Y-74078783D01*
X137054974Y-73957642D01*
X137039211Y-73960291D01*
X136763081Y-74061314D01*
X136511965Y-74214267D01*
X136381000Y-74334676D01*
X136381000Y-73735000D01*
X175219909Y-73735000D01*
X176328001Y-74843093D01*
G36*
X169161748Y-108461858D02*
G01*
X169147605Y-108476000D01*
X169161748Y-108490143D01*
X168982143Y-108669748D01*
X168968000Y-108655605D01*
X168953858Y-108669748D01*
X168774253Y-108490143D01*
X168788395Y-108476000D01*
X168774253Y-108461858D01*
X168953858Y-108282253D01*
X168968000Y-108296395D01*
X168982143Y-108282253D01*
X169161748Y-108461858D01*
G37*
X169161748Y-108461858D02*
X169147605Y-108476000D01*
X169161748Y-108490143D01*
X168982143Y-108669748D01*
X168968000Y-108655605D01*
X168953858Y-108669748D01*
X168774253Y-108490143D01*
X168788395Y-108476000D01*
X168774253Y-108461858D01*
X168953858Y-108282253D01*
X168968000Y-108296395D01*
X168982143Y-108282253D01*
X169161748Y-108461858D01*
G36*
X165873363Y-103665759D02*
G01*
X166073241Y-103865637D01*
X166118683Y-103896000D01*
X166073241Y-103926363D01*
X165873363Y-104126241D01*
X165716320Y-104361273D01*
X165608147Y-104622426D01*
X165555599Y-104886600D01*
X165276199Y-105166000D01*
X164736822Y-105166000D01*
X164736822Y-104926510D01*
X164724562Y-104802028D01*
X164688252Y-104682330D01*
X164629287Y-104572016D01*
X164549935Y-104475325D01*
X164453244Y-104395973D01*
X164345721Y-104338500D01*
X164453244Y-104281027D01*
X164549935Y-104201675D01*
X164629287Y-104104984D01*
X164688252Y-103994670D01*
X164724562Y-103874972D01*
X164736822Y-103750490D01*
X164736822Y-103511000D01*
X165769957Y-103511000D01*
X165873363Y-103665759D01*
G37*
X165873363Y-103665759D02*
X166073241Y-103865637D01*
X166118683Y-103896000D01*
X166073241Y-103926363D01*
X165873363Y-104126241D01*
X165716320Y-104361273D01*
X165608147Y-104622426D01*
X165555599Y-104886600D01*
X165276199Y-105166000D01*
X164736822Y-105166000D01*
X164736822Y-104926510D01*
X164724562Y-104802028D01*
X164688252Y-104682330D01*
X164629287Y-104572016D01*
X164549935Y-104475325D01*
X164453244Y-104395973D01*
X164345721Y-104338500D01*
X164453244Y-104281027D01*
X164549935Y-104201675D01*
X164629287Y-104104984D01*
X164688252Y-103994670D01*
X164724562Y-103874972D01*
X164736822Y-103750490D01*
X164736822Y-103511000D01*
X165769957Y-103511000D01*
X165873363Y-103665759D01*
G36*
X169161748Y-103881858D02*
G01*
X169147605Y-103896000D01*
X169161748Y-103910143D01*
X168982143Y-104089748D01*
X168968000Y-104075605D01*
X168953858Y-104089748D01*
X168774253Y-103910143D01*
X168788395Y-103896000D01*
X168774253Y-103881858D01*
X168953858Y-103702253D01*
X168968000Y-103716395D01*
X168982143Y-103702253D01*
X169161748Y-103881858D01*
G37*
X169161748Y-103881858D02*
X169147605Y-103896000D01*
X169161748Y-103910143D01*
X168982143Y-104089748D01*
X168968000Y-104075605D01*
X168953858Y-104089748D01*
X168774253Y-103910143D01*
X168788395Y-103896000D01*
X168774253Y-103881858D01*
X168953858Y-103702253D01*
X168968000Y-103716395D01*
X168982143Y-103702253D01*
X169161748Y-103881858D01*
G36*
X165549928Y-100863730D02*
G01*
X165549928Y-101261000D01*
X165562188Y-101385482D01*
X165598498Y-101505180D01*
X165657463Y-101615494D01*
X165736815Y-101712185D01*
X165833506Y-101791537D01*
X165888612Y-101820992D01*
X165873363Y-101836241D01*
X165769957Y-101991000D01*
X164736822Y-101991000D01*
X164736822Y-101751510D01*
X164724562Y-101627028D01*
X164688252Y-101507330D01*
X164629287Y-101397016D01*
X164549935Y-101300325D01*
X164453244Y-101220973D01*
X164345721Y-101163500D01*
X164453244Y-101106027D01*
X164549935Y-101026675D01*
X164629287Y-100929984D01*
X164688252Y-100819670D01*
X164724562Y-100699972D01*
X164736822Y-100575490D01*
X164736822Y-100336000D01*
X165022199Y-100336000D01*
X165549928Y-100863730D01*
G37*
X165549928Y-100863730D02*
X165549928Y-101261000D01*
X165562188Y-101385482D01*
X165598498Y-101505180D01*
X165657463Y-101615494D01*
X165736815Y-101712185D01*
X165833506Y-101791537D01*
X165888612Y-101820992D01*
X165873363Y-101836241D01*
X165769957Y-101991000D01*
X164736822Y-101991000D01*
X164736822Y-101751510D01*
X164724562Y-101627028D01*
X164688252Y-101507330D01*
X164629287Y-101397016D01*
X164549935Y-101300325D01*
X164453244Y-101220973D01*
X164345721Y-101163500D01*
X164453244Y-101106027D01*
X164549935Y-101026675D01*
X164629287Y-100929984D01*
X164688252Y-100819670D01*
X164724562Y-100699972D01*
X164736822Y-100575490D01*
X164736822Y-100336000D01*
X165022199Y-100336000D01*
X165549928Y-100863730D01*
G36*
X169161748Y-101591858D02*
G01*
X169147605Y-101606000D01*
X169161748Y-101620143D01*
X168982143Y-101799748D01*
X168968000Y-101785605D01*
X168953858Y-101799748D01*
X168774253Y-101620143D01*
X168788395Y-101606000D01*
X168774253Y-101591858D01*
X168953858Y-101412253D01*
X168968000Y-101426395D01*
X168982143Y-101412253D01*
X169161748Y-101591858D01*
G37*
X169161748Y-101591858D02*
X169147605Y-101606000D01*
X169161748Y-101620143D01*
X168982143Y-101799748D01*
X168968000Y-101785605D01*
X168953858Y-101799748D01*
X168774253Y-101620143D01*
X168788395Y-101606000D01*
X168774253Y-101591858D01*
X168953858Y-101412253D01*
X168968000Y-101426395D01*
X168982143Y-101412253D01*
X169161748Y-101591858D01*
M02*
